<svg xmlns="http://www.w3.org/2000/svg" width="460" height="162" viewBox="0 0 460 161.5"><style>.a{fill:black;}</style><g id="horn_x5F_shape"><path id="main_2_" d="M454.9 59.9c-0.5-28.6-3.7-51.7-7-51.6 -1.5 0-2.8 4.7-3.7 12.5 -16.1 29.1-78.6 28.6-78.6 28.6C363 50.4 293.3 53.5 293.3 53.5c-22.4 2.7-245.2 6.1-255.8 6.3C37.4 59.3 37 59 36.6 59h-0.2c-0.5 0-0.9 0.4-0.9 0.9V60h-3.6c-0.5-0.6-1.1-1-1.9-1h-0.1c-0.8 0-1.4 0.4-1.9 1H26c-0.7 0-1.3 0.1-1.8 0.4C22.8 58.3 20.4 57 17.7 57h-3.3c-0.5-2.3-2.5-4-4.9-4 -2.8 0-5 2.2-5 5v6.8 0.5V71c0 2.8 2.2 5 5 5 2 0 3.8-1.2 4.6-3h3.7c3 0 5.6-1.7 6.9-4.2C25.1 68.9 25.5 69 26 69h2c0.4 0.6 1.2 1 2 1h0.1c0.8 0 1.5-0.4 2-1H35.5v0.1c0 0.5 0.4 0.9 0.9 0.9h0.2c0.4 0 0.8-0.3 0.9-0.7 13.9 0 232.5 0.5 254.9 2.2 0 0 69.8 0.9 72.5 1.9 0 0 66.1-3.4 81.2 27.8 1.1 6.6 2.5 10.5 3.9 10.5C453.2 111.7 455.5 88.5 454.9 59.9z" class="a"/></g><g id="tube-a"><path id="main" d="M362 105.5c0 6.9-4 14.5-11 15.5 -263.3 0.9-262.7 0.4-267.2 0 -9.8-0.8-13.6-8.4-15.5-14.2s-4.5-15 0.1-24.3S77.3 70.5 84.2 70.5l267.6-3.7c6.9 0 10.2 6.8 10.2 13.7V105.5z" style="fill:none;stroke-width:10;stroke:black"/></g><g id="tube-b"><path id="main_1_" d="M332.5 118.5c0 6.4-5.1 11.5-11.5 11.5H123c-6.4 0-11.5-5.1-11.5-11.5l0 0c0-6.4 5.1-11.5 11.5-11.5h198C327.4 107 332.5 112.1 332.5 118.5L332.5 118.5z" style="fill:none;stroke-width:7;stroke:black"/></g><g id="valves"><path id="value_x5F_3" d="M225.5 55.8v-0.6c0-1.5-1.2-2.2-2.6-2.2h-1.7c0.2-0.3 0.3-0.6 0.3-1v-0.1c0-1.1-0.9-2-2-2H218.5V39h3c1.1 0 2-0.9 2-2s-0.9-2-2-2h-11c-1.1 0-2 0.9-2 2s0.9 2 2 2h3v11h0c-1.1 0-2 0.9-2 2v0.1c0 0.4 0.1 0.7 0.3 1h-2.7c-1.4 0-2.6 0.7-2.6 2.2v0.6c0 1.1 0.6 2.3 1.5 2.8 -0.3 1-0.5 2-0.5 3.1v84.5c0 1.7 0.4 3.3 1.1 4.7 -0.7 0.6-1.1 1.5-1.1 2.5 0 1.9 1.6 3.5 3.5 3.5h11c1.9 0 3.5-1.6 3.5-3.5 0-1.3-0.7-2.4-1.8-3 0.5-1.3 0.8-2.7 0.8-4.2v-84.5c0-1.1-0.2-2.2-0.4-3.1C224.9 58 225.5 56.9 225.5 55.8z" class="a"/><path id="value_x5F_2" d="M205.5 55.8v-0.6c0-1.5-1.2-2.2-2.6-2.2h-1.7c0.2-0.3 0.3-0.6 0.3-1v-0.1c0-1.1-0.9-2-2-2H198.5V39h3c1.1 0 2-0.9 2-2s-0.9-2-2-2h-11c-1.1 0-2 0.9-2 2s0.9 2 2 2h3v11h0c-1.1 0-2 0.9-2 2v0.1c0 0.4 0.1 0.7 0.3 1h-2.7c-1.4 0-2.6 0.7-2.6 2.2v0.6c0 1.1 0.6 2.3 1.5 2.8 -0.3 1-0.5 2-0.5 3.1v84.5c0 1.7 0.4 3.3 1.1 4.7 -0.7 0.6-1.1 1.5-1.1 2.5 0 1.9 1.6 3.5 3.5 3.5h11c1.9 0 3.5-1.6 3.5-3.5 0-1.3-0.7-2.4-1.8-3 0.5-1.3 0.8-2.7 0.8-4.2v-84.5c0-1.1-0.2-2.2-0.4-3.1C204.9 58 205.5 56.9 205.5 55.8z" class="a"/><path id="value_x5F_1_2_" d="M185.5 55.8v-0.6c0-1.5-1.2-2.2-2.6-2.2h-1.7c0.2-0.3 0.3-0.6 0.3-1v-0.1c0-1.1-0.9-2-2-2H178.5V39h3c1.1 0 2-0.9 2-2s-0.9-2-2-2h-11c-1.1 0-2 0.9-2 2s0.9 2 2 2h3v11h0c-1.1 0-2 0.9-2 2v0.1c0 0.4 0.1 0.7 0.3 1h-2.7c-1.4 0-2.6 0.7-2.6 2.2v0.6c0 1.1 0.6 2.3 1.5 2.8 -0.3 1-0.5 2-0.5 3.1v84.5c0 1.7 0.4 3.3 1.1 4.7 -0.7 0.6-1.1 1.5-1.1 2.5 0 1.9 1.6 3.5 3.5 3.5h11c1.9 0 3.5-1.6 3.5-3.5 0-1.3-0.7-2.4-1.8-3 0.5-1.3 0.8-2.7 0.8-4.2v-84.5c0-1.1-0.2-2.2-0.4-3.1C184.9 58 185.5 56.9 185.5 55.8z" class="a"/></g></svg>