<svg xmlns="http://www.w3.org/2000/svg" width="483" height="426" viewBox="0 0 483 426"><path d="M269 307.4l0 0C268.8 307.7 268.9 307.6 269 307.4z"/><path d="M269 307.4C269 307.4 269 307.4 269 307.4l1.6 1.1C270.1 308.2 269.6 307.8 269 307.4z"/><path d="M219.3 324.2c5.4 0 9.8-3.5 9.8-7.8s-4.4-7.8-9.8-7.8 -9.8 3.5-9.8 7.8S213.9 324.2 219.3 324.2z"/><path d="M209.2 309.7l1.5-1.4C210.1 308.8 209.6 309.3 209.2 309.7z"/><path d="M239.6 363.4c0 0 0 0.1 0.1 0.1 0-0.1 0.1-0.1 0.1-0.1C239.7 363.4 239.6 363.4 239.6 363.4z"/><path d="M240.5 348.7c0 0-0.1 0-0.1 0 0 0 0 0 0 0C240.4 348.7 240.4 348.7 240.5 348.7z"/><path d="M477 180.5c-1.3-42.5-29-73-29-73 -8.1-6-24.7-7.5-24.7-7.5C376.3 37.8 358 37.5 358 37.5c-7.5-2.5-22.2 0.3-22.2 0.3C282.3 11.3 240.5 8.5 240.5 8.5s-41.7 2.8-95.2 29.3c0 0-14.8-2.7-22.2-0.2 0 0-18.2 0.3-65.2 62.5 0 0-16.6 1.5-24.7 7.5 0 0-27.7 30.5-29 73 -0.5 17.2 32 87.4 49.5 103 2.7 2.4-2 52.8 7.5 54.5 0 0 16.5 0.5 22-146.5 0 0 1.5 79.2 29.7 123.2 21.1 50 9.7 55.8 45.8 88.8 31.5 28.8 39.5 6.8 82 15 42.5-8.2 50.5 13.8 82-15 36.1-33 24.7-38.8 45.8-88.8C396.5 270.7 398 191.5 398 191.5c5.5 147 22 146.5 22 146.5 9.5-1.7 4.8-52.1 7.5-54.5C445 267.9 477.5 197.7 477 180.5zM155 184.3c1.7 0 3 1.3 3 3s-1.3 3-3 3 -3-1.3-3-3S153.3 184.3 155 184.3zM153.3 214.5c-14.5 9.5-21.9-4.2-24-12.8 -1.6-6.4 3.3-13.9 10.5-18.7 -2.5 3.1-4 7-4 11.2 0 9.8 7.8 17.7 17.5 17.7s17.5-7.9 17.5-17.7c0-7.1-4.2-13.2-10.2-16 8.6 1.3 13.9 6.5 14.8 19C176.9 215.8 164.9 207 153.3 214.5zM192.9 392.3c-0.1 0.1-0.2-0.1-0.1-0.2l0.2-0.1L192.9 392.3zM193.7 392.6c0-0.1 0-0.2 0-0.2 -0.2 0.3-0.4 0.3-0.6 0.1 0-0.2 0.2-0.1 0.2-0.2 0 0.1 0.1 0.2 0.2 0.2 0.1-0.4 0.1-0.3 0.2-0.6C193.9 392 193.8 392.4 193.7 392.6zM193.9 391.8c0-0.1 0.1-0.1 0.1-0.1L193.9 391.8zM198.4 391.7c0.2-0.1 0-0.2-0.1-0.3l0.4-0.1C198.2 391.5 199 391.8 198.4 391.7zM200.2 391.2c0-0.1-0.3-0.1-0.1-0.2C200.3 391 200.3 391 200.2 391.2zM206.4 388.1c0.1 0 0.2-0.1 0.2 0L206.4 388.1zM209.3 387.2l-0.1-0.2C209.3 387.1 209.5 387.1 209.3 387.2zM212.2 386.2l0.1-0.1 0.2-0.1L212.2 386.2zM227.2 378.6l0.2 0.3C227.2 379.1 227.1 378.7 227.2 378.6zM233.7 375.4c0.1-0.1 0.3 0 0.4-0.1C234.1 375.5 233.9 375.5 233.7 375.4zM268.1 386.4l-0.1-0.2 0.3 0L268.1 386.4zM282.7 392.8c-0.2 0-0.3-0.3-0.4-0.3 0.2-0.1 0.3 0.4 0.5 0.2L282.7 392.8zM284.5 393.3l-0.1 0 0.1 0C284.5 393.3 284.5 393.3 284.5 393.3zM284.6 393.2l0.2 0C284.7 393.3 284.6 393.3 284.6 393.2zM285.6 393.1c0-0.1 0-0.3-0.2-0.3 -0.3 0.3-0.3 0.2-0.5 0.5 0-0.3 0.2-0.5 0.4-0.7 0 0.1-0.1 0.1-0.1 0.2 0.3-0.1 0.5-0.1 0.7 0.2C285.8 393.2 285.6 393.1 285.6 393.1zM286.3 393.4l-0.3 0.1 0.1-0.3C286.3 393.1 286.3 393.3 286.3 393.4zM241.1 348.6c0-0.6 0.1-0.6-0.4-0.5 0.4 0 0-1.1-0.2-1.1h0.3c0 0-0.1-0.2-0.1-0.2 -0.1 0-0.3-0.1-0.4-0.1 0 0 0.1 0 0.2 0.1l-0.3-0.1c0.2 0.3 0.5 1 0.1 1 0.5-0.1 0.3 0.6 0.3 0.9 0.1 0 0.2 0 0.3 0 0 0 0 0.1-0.1 0.1 0 0 0.1 0.1 0.1 0.2 0-0.1 0-0.2-0.1-0.3 0 0 0.1 0 0.1 0 0 0 0 0.2 0 0.2 0 0 0 0.2 0 0.2 0 0 0 0 0 0 0 0 0 0 0-0.1 0.1 0.5-0.1 1-0.1 1.5l-0.4 0.1c0 0.3 0.9 0.4 0.9 0.7l-0.2-0.1c0.1 0.6 0.1 0.9 0 1.4l-0.3 0c0.1 0.2 0.1 0.4 0.3 0.6 -0.7 0.4 0.4 1.6-0.3 2.4l0.5 0c0 0.3 0.1 0.7-0.3 0.8l0-0.1c-0.4 0 0 0.3-0.1 0.5 0.1 0.1 0.3 0.3 0.4 0.1 -0.2 0.8 0.1 1.9-0.3 2.4 0.2 0.8 0.7 1.3 0.7 2.1l-0.1 0c0 0.3-0.1 0.9-0.6 0.9 0.2 0.6 0.8 0.9 0.7 1.6l-0.2-0.1c-0.1 0.2 0.2 0.5 0.2 0.5 0 0.1-0.1 0-0.2 0 -0.1 0.2 0.1 0.3 0.2 0.4l-0.2 0c-0.2 0.6 0.5 1.4 0.5 2.1 -0.1-0.1-0.2 0-0.3 0 0.5 0.2 0.5 1 0.7 1.3l-0.2-0.2c0.4 0.5-0.4 0.6 0 1.1l0.2-0.4c0 0.2 0.1 0.4 0.3 0.3 -0.1 0.3-0.4 0.1-0.3 0.5 -0.1 0-0.1-0.3-0.3-0.2L242.1 370h0c0 0 0 0.1 0 0.1 0 0 0 0.2 0.1 0.4 0.6-0.2 0.1 0.4 0.7 0 0.2 0.7 0.1 1.5 0.6 1.8 -0.2 0.2-0.1 0.4 0 0.5 0.2 0.1 0.5 0.3 0.2 0.6 0.4 0.2 0.7 0.2 1.1 0 0-0.1-0.2 0-0.3-0.1 0.2-0.1 0.6 0.1 0.8 0.2 -0.3 0-0.8 0-1.1 0.2 0.4 0.1 1 0.1 1.2 0.1l0 0.4c0.4-0.1-0.4 0.4 0.6 0.2v-0.1c0 0.3 0.6-0.1 1.1 0.1l-0.2 0.1c0.1 0.1 0.5-0.1 0.5 0.3l-0.3-0.1c-0.1 0.3 0.1 0.5 0.1 0.7 0.4 0.1 0.3-0.3 0.5-0.3 0 0.3 0 0.1-0.3 0.3 0.4 0.1 1 0.2 1.4 0.1 0 0 0 0.1 0 0.1 0.4 0.2 0.9 0 1 0.3l-0.1 0c0.1 0.5 1 0.1 0.7 0.7 0.1 0.2-0.3-0.2-0.2 0.2 0.4 0.4 0.5-0.3 0.9 0 0 0 0 0-0.1 0 0.3 0.1 0.7 0.3 1.1 0.4 0 0 0 0 0-0.1l0.1 0.1 -0.1 0c0.2 0.7 1.3 0.5 1.5 1.2 0-0.3 0.2-0.2 0.3-0.3 0 0 0 0 0 0.1 0.2 0.1 0.3-0.1 0.4-0.1 0 0 0 0 0 0 0.1 0 0.1 0 0.1 0.1 0-0.1-0.1-0.1-0.1 0 0.1 0.2 0.5 0 0.6 0.2 0.1-0.1 0.2 0 0.3 0 -0.4 0-0.2 0.2-0.4 0.3 0.4 0.3 0.8-0.3 1.2 0l0.1 0.4c0.2-0.3 0.6 0 0.6-0.1 0 0.1 0.1 0.3 0 0.4 0.2 0 0.4 0.3 0.6 0.1l-0.1-0.2c0.5 0.4 1.1 0.1 1.4 0.5l-0.3 0.5c0.2 0.4 0.7 0 0.8 0.4 0-0.2 0-0.2 0.2-0.3 -0.1-0.1-0.4 0-0.5-0.1l0.5-0.1 -0.7-0.1c0.4-0.1 0.3 0 0.3-0.3 0.5 0 0.3 0.4 0.7 0.4 0.1 0.1-0.1 0.3 0 0.4 0.4 0 0.4 0.7 0.8 0.5 0 0.1-0.1 0-0.2 0.1 0.2 0 0.4 0.1 0.5 0l-0.1-0.1c0.1 0.1 0.3-0.1 0.5 0.1 0.2 0 0.4-0.3 0.3-0.4 0.1 0 0.2 0.2 0.1 0.4 0.5 0.2 0.5-0.5 0.8 0 0 0-0.1 0-0.1 0.1 0.1 0.1 0.2 0.1 0.3 0.1 -0.4-0.1-0.1 0.5-0.5 0.2 -0.1 0.3 0.3 0.2 0.4 0.4 0.3-0.1 0.2-0.4 0.4-0.5 0 0.1 0 0.2 0.1 0.3l0-0.1c0.1 0 0.2 0.3 0.3 0.3h-0.2c0.2 0 0.3 0.4 0.8 0.3 -0.1 0-0.4-0.1-0.2 0.1 0.5 0 0 0.1 0.2 0.4 0.4 0.1 0.2-0.4 0.8 0 0.1 0 0.1-0.1 0-0.2 0 0 0 0-0.1-0.1 0 0 0.1 0 0.1 0.1 0.3 0.3 0.6 0.2 0.9 0.6 -0.1-0.1-0.2-0.3 0-0.3 -0.2 0.1 0.2 0.3 0.3 0.5l0.1-0.1c0.1 0.2-0.1 0.2-0.2 0.2 0 0-0.1 0-0.1 0 0 0 0.1 0 0.1 0 0 0 0-0.1-0.1-0.1 -0.2 0-0.4 0.4-0.1 0.6 0.4 0 0.4-0.3 0.4-0.4 0.4 0.3 0.6-0.3 1 0 0.1 0 0.2 0.6 0.5 0.8 0.3-0.2-0.3-0.4 0-0.5 0.2 0.8 1.2 0.1 1.7 0.7l-0.2 0.3c0.1 0.1 0.3 0.2 0.5 0.2l-0.1-0.3c0.2 0 0.5 0.2 0.3 0.4 0.5-0.1 0.5 0.1 0.7 0.3 -0.3-0.2 0 0-0.3 0 0.3 0.3 0.4 0.2 0.6 0.3 -0.1 0.1 0 0.3 0.1 0.3 0.3-0.1 0.7 0.1 1 0.2l0 0.1c0.6 0.1 0.6 0.8 1.6 0.7v-0.1V387c0 0 0 0 0.1 0l0 0c0.1-0.1 0.5 0.3 0.7 0.2 0 0.1 0 0.2 0.1 0.3 0.1-0.3 0.3 0 0.4-0.1 0.1 0.2-0.2 0.3 0.2 0.4 0.1 0 0.2-0.1 0.2-0.2 0 0.2 0.2 0.4 0.3 0.5 -0.1 0-0.1-0.1-0.2-0.1 -0.1 0.1 0.1 0.1 0 0.3 0.1 0.1 0.2-0.2 0.3 0l-0.3 0.1c0.1 0.1 0.2 0 0.2 0 -0.1 0-0.2 0.2-0.3 0.4 0.5 0 0.3-0.5 0.5-0.8 0.3 0.3 0.8 0.2 1.1 0.3l-0.2 0.2c0.2 0 0.3 0 0.4-0.1l-0.1 0 0.2-0.1c0 0-0.1 0.1-0.1 0.1l0.2 0.1c-0.2 0-0.3 0.1-0.4 0.3 0.3 0 0.6 0.3 0.8-0.1l0 0.1c0.3 0.3 1 0.6 0.9 0.7 0.4 0 0.8 0.4 0.9 0.1 -0.1 0-0.1 0-0.2 0.1 0.1-0.1 0.2-0.4 0.3-0.3 0 0.1 0 0.1 0 0.2 0.3 0 0.4 0.7 0.7 0.3 0.2 0.3 0 0.1-0.2 0.3 0.2 0.3 0.7-0.1 0.6 0.4 0.4 0 0-0.1 0.2-0.3 -0.1 0.5 0.5 0.3 0.7 0.7 0.2-0.1-0.1-0.2 0.2-0.3 -0.1 0.1 0 0.2 0.1 0.2l0.2-0.3 0 0.8c0.6-0.2 0.1-0.5 0.7-0.4l0 0c0 0.4 0.5-0.1 0.8 0.3 -0.1-0.1-0.1 0.1-0.2 0.2l0.3 0c0 0 0 0 0 0.1 0.1 0.3 0.2-0.1 0.4 0.2 -0.2 0-0.2 0.2-0.2 0.4l0.5-0.2 -0.3 0.3c0.3 0.2 1-0.3 1 0.3l-0.2 0c0 0.1 0 0.4 0.3 0.3 0.1 0 0.2-0.2 0.1-0.3l0.1 0.1c-0.2 0.2-0.6 0.2-0.9 0.2 0.1-0.1 0.4-0.1 0.3-0.3 -0.3 0-0.5 0.1-0.8 0.1 0 0-0.1 0-0.1 0l0 0 -0.1 0c0 0 0.1 0 0.1-0.1 0 0 0 0.1 0 0.1 0 0 0.1 0 0.1 0 0.1-0.1 0.2-0.2 0.3-0.3 -0.2-0.2-0.2 0.1-0.5 0.1 0-0.1-0.1-0.2 0-0.3 -0.3 0-0.5 0-0.7-0.2 0 0 0.4-0.1 0.2-0.3 -0.5 0-0.7 0.3-1.3 0.2 -0.7 0.2-1-0.7-1.5-0.5 -0.1 0.1 0.2 0.3-0.1 0.3 0.1-0.2-0.1-0.2-0.1-0.3 -0.4 0.2-0.4-0.2-0.7-0.1 0.1-0.1 0-0.2-0.1-0.3 0 0 0 0.1-0.1 0.1l0.1-0.1 0 0c0.1-0.3-0.3-0.2 0.3-0.5 -0.6 0.3-0.7-0.4-1.3 0.1l0.1 0.1 -0.4-0.3 0 0c0.1 0 0.1 0.1 0.2 0.2l-0.2-0.2c-0.2-0.1-0.2-0.1-0.3-0.5 0.1 0 0.3 0 0.4 0 -0.1-0.3-0.6 0-0.8-0.1 0.1-0.2 0.3 0 0.3-0.2 -0.2-0.1-0.4 0-0.6 0l0.1-0.1c-0.3-0.4-0.4 0.5-0.6 0 0 0.1-0.1 0.1-0.1 0.2 -0.1-0.2-0.3-0.5 0.1-0.5 -0.2-0.1-0.4 0-0.5 0.1 0.1 0.2 0.1 0.1 0.1 0.4l-0.7-0.1c-0.1 0 0.1-0.1 0.2 0 -0.5-0.9-1.7-0.1-2.2-1.2 0 0.2-0.1 0.1-0.3 0.2 -0.2-0.2-0.6-0.3-0.8-0.5l0.1-0.1c-0.7-0.1-1.2-0.1-1.6-0.4 0 0 0.1-0.2 0.2-0.2 -0.4 0.1-0.4-0.8-0.7-0.3l0.1 0.1c-0.6-0.4-1.4-0.3-2-0.5 0-0.4 0.4 0.1 0.4-0.3 -0.4-0.3-0.9-0.3-1.3-0.6 0.1 0 0.1 0 0.1 0 -0.4-0.4-0.1 0.3-0.4 0.1 0.1-0.1 0.1-0.2 0-0.3l-0.2 0.2c0 0 0.1-0.2 0.2-0.3 -0.3 0.2-0.7-0.2-1 0 0-0.1 0.2-0.3 0.2-0.4 -0.2-0.2-0.4 0-0.5 0 0 0 0 0-0.1-0.1 0 0-0.1 0-0.2 0 -0.1 0-0.2 0-0.3-0.1 0.1 0 0.2 0.1 0.3 0.1 0 0 0.1 0 0.1 0 -0.1-0.1-0.3-0.3-0.2-0.3 -0.3-0.3-0.1 0.1-0.5 0.1l0.2 0.3 -0.6-0.2 0.3 0c-0.2-0.2-0.5-0.1-0.8-0.2l0.1 0.2 -0.4 0c0.1-0.4-0.4-0.3 0-0.6 -0.5-0.4-1.1-0.2-1.6-0.4 0.1 0 0.1 0 0.1-0.1 -0.3-0.2-0.5-0.1-0.8 0 0.1-0.1 0.2-0.1 0.2-0.2 -0.4-0.2-0.3 0.1-0.8 0 0.2-0.1 0.2-0.2 0.1-0.3 0 0.1-0.2 0.2-0.3 0.2 0.6-0.5-0.3-0.5 0.1-0.9 -0.1 0.1-0.9 0.1-0.8 0.5l0.1 0c-0.1 0.2-0.2 0-0.3 0 -0.1 0-0.2 0-0.1 0 0 0 0 0 0.1 0 0.1 0 0.2 0 0.2-0.1 -0.7-0.1-1.2-0.5-1.9-0.7 0.1 0 0.4 0 0.3-0.2 -0.6-0.4-1.1-0.2-1.9-0.4 0.2-0.4 0.7 0.3 1-0.1 -0.7-0.2-1.5-0.4-2.4-0.6 0-0.8-0.9-0.1-1.1-0.8 -0.1 0.2-0.3 0.2-0.6 0.1l0 0 0 0 0 0c0.2-0.1-0.1-0.3 0-0.4 -0.3 0.1-1-0.1-0.8-0.5 -0.2 0.4-0.5-0.3-0.8-0.1 0.1 0.1 0.1 0.2 0.1 0.3l-0.2-0.2c0 0 0 0 0.1 0 -0.2-0.3-0.6-0.2-0.9-0.5 0 0.3-0.4-0.1-0.6 0 0 0 0.1 0 0.1 0 0-0.3-0.5 0-0.6-0.2 0-0.1 0.1-0.2 0-0.3 -0.1 0.2-0.7 0.1-0.8-0.2 0.1 0 0.1 0 0.2-0.1 -1.1-0.2-1.9-1-3-1.1l0.3-0.2c-0.4-0.7-0.6 0.3-1.1 0 -0.6-0.4-1.2-0.9-1.8-1.3 -0.3-0.2-0.6-0.4-1-0.6 -0.5-0.2-1-0.9-1.2-1.2 -0.2-0.1-0.1 0.1-0.2 0.2 -0.1-0.2 0.2-0.3-0.1-0.4l-0.1 0.1c0.1-0.9-1-1.9-0.4-2.6 -0.4-0.6 0-1.1-0.6-1.8 0.1-0.3 0.3 0.2 0.3-0.1l-0.4-0.7 0 0c-0.6-0.6 0.3-1.9-0.1-2.7l0 0c0.1 0 0.3-0.2 0.2-0.3 -0.1 0-0.1 0.1-0.2 0.2 -0.2-0.5-0.3-0.8-0.3-1.1 -0.1 0.2 0.1 0.4 0.1 0.5 0 0.1-0.1 0-0.2 0 -0.2 0.2 0.1 0.3 0.1 0.4l-0.1-0.1c-0.4 0.5 0.1 1.5-0.1 2.3 0-0.1-0.2-0.1-0.3 0 0.4 0.4 0.2 1.2 0.3 1.5l-0.2-0.2c0.2 0.7-0.6 0.4-0.4 1.1l0.3-0.3c-0.1 0.2-0.1 0.5 0.2 0.4 -0.2 0.3-0.4 0-0.5 0.4 -0.1 0 0-0.3-0.2-0.2l-0.5 0.5 0 0c0.4-0.4 0.3 0.4 0.6 0.2 -0.2 0.3-0.5-0.2-0.6-0.2 0 0 0 0 0 0 0 0-0.1 0.1-0.1 0.3 0.6 0.1-0.1 0.5 0.6 0.3 -0.2 0.9-0.7 1.5-1 2.4 -0.4 0-0.7 0.5-1.1 0.6 -0.4 0.2-0.6 0.2-0.7-0.1 -0.4 0.2-0.6 0.5-0.7 0.8 0.1 0 0.2-0.1 0.2-0.2 0 0.2-0.4 0.5-0.6 0.6 0.2-0.3 0.5-0.6 0.5-1 -0.3 0.2-0.6 0.7-0.8 0.9l-0.3-0.3c-0.2 0.4-0.4-0.2-0.5 0.3l0.1 0.1c-0.5 0.2-0.4 0.6-0.8 0.9l0-0.1c-0.2 0-0.3 0.5-0.6 0.2l0.3-0.2c-0.2-0.2-0.4-0.2-0.6-0.3 -0.3 0.2 0.1 0.5-0.1 0.6 -0.2-0.2-0.1-0.1-0.1-0.4 -0.3 0.3-0.8 0.6-0.9 1 0 0 0-0.1 0-0.1 -0.4 0.1-0.5 0.7-0.9 0.6l0.1-0.1c-0.5-0.2-0.6 0.7-1 0.2 -0.2 0 0.3-0.1 0-0.3 -0.5 0-0.1 0.6-0.5 0.7 0.1 0 0 0 0-0.1 -0.3 0.2-0.6 0.4-0.9 0.6 0 0 0 0 0.1 0l-0.1 0 0.1 0c-0.6-0.3-1.2 0.7-1.9 0.4 0.2 0.1 0 0.3 0 0.4 0 0 0-0.1 0-0.1 -0.2 0.1-0.1 0.3-0.1 0.4 0 0 0 0 0 0 -0.1 0.1-0.1 0-0.2 0.1 0.1 0 0.1 0 0.1-0.1 -0.2-0.1-0.4 0.4-0.5 0.3 0.1 0.1-0.1 0.2-0.2 0.2 0.2-0.3 0-0.3 0-0.6 -0.5 0.2-0.2 0.8-0.8 0.9l-0.4-0.1c0.1 0.4-0.4 0.4-0.3 0.6 0 0 0.1 0 0.1 0.1 -0.1 0-0.1-0.1-0.1-0.1 -0.1-0.1-0.3-0.1-0.3-0.3 -0.1 0.2-0.5 0.1-0.5 0.4l0.2 0c-0.6 0.1-0.7 0.8-1.3 0.8l-0.2-0.5c-0.4-0.1-0.4 0.6-0.8 0.3 0.2 0.1 0.2 0.1 0.1 0.3 0.1 0 0.3-0.3 0.5-0.3l-0.2 0.5 0.5-0.4c-0.2 0.3-0.2 0.3 0 0.4 -0.3 0.3-0.5-0.1-0.8 0.3 -0.2 0-0.1-0.3-0.3-0.3 -0.2 0.3-0.8-0.1-0.9 0.3 -0.1 0 0.1-0.1 0-0.2 -0.2 0.1-0.3 0.2-0.3 0.4l0.2 0c-0.2 0.1-0.1 0.3-0.4 0.3 -0.1 0.2-0.1 0.5 0.1 0.4 -0.1 0.1-0.3 0-0.3-0.2 -0.5 0.2 0.1 0.7-0.5 0.6 0 0 0-0.1 0-0.1 -0.1 0-0.2 0.1-0.3 0.1 0.4-0.2-0.3-0.4 0.2-0.5 -0.2-0.3-0.4 0.1-0.6 0.1 -0.1 0.3 0.2 0.4 0.1 0.6 0-0.1-0.1 0-0.3 0l0.2 0.2c-0.1 0-0.2 0.1-0.3 0.2l0.1-0.2c-0.2 0.1-0.7-0.1-0.9 0.2 0.1-0.1 0.2-0.4-0.1-0.4 -0.3 0.3-0.1 0-0.4-0.1 -0.4 0.2 0.1 0.4-0.5 0.6 -0.1 0 0.1 0.1 0.1 0.2 -0.4 0.1-0.6 0.3-1 0.4 0.2 0 0.4 0 0.2 0.2 0-0.2-0.4 0-0.6-0.1l0 0.1c-0.2-0.1-0.1-0.2 0-0.2 0 0 0-0.1 0.1-0.1 0 0 0 0.1-0.1 0.1 0 0 0.1 0.1 0.1 0 0.1-0.2-0.1-0.6-0.4-0.5 -0.3 0.2-0.1 0.5 0 0.6 -0.5 0.1-0.2 0.7-0.7 0.7 -0.1 0-0.6-0.2-0.9-0.2 0 0.3 0.5 0 0.4 0.3 -0.8-0.4-0.8 0.8-1.6 0.8l-0.1-0.3c-0.2 0.1-0.3 0.1-0.5 0.2l0.3 0.1c-0.1 0.1-0.5 0.2-0.5 0 -0.2 0.4-0.4 0.3-0.7 0.4 0.3-0.1 0 0 0.2-0.2 -0.4 0-0.4 0.1-0.6 0.3 0-0.1-0.2-0.2-0.3-0.2 -0.1 0.3-0.5 0.4-0.8 0.7l0-0.1c-0.5 0.4-1.2 0.7-1.7 0.7h0c0.3 0-0.3 0.4-0.4 0.6 -0.1-0.1-0.1-0.1-0.2-0.1 0.1 0.3-0.1 0.2-0.2 0.4 -0.2 0-0.1-0.3-0.4-0.2 -0.1 0.1-0.1 0.2 0 0.3 -0.1-0.1-0.4-0.1-0.6-0.1 0-0.1 0.2 0 0.2-0.1 0-0.2-0.1-0.1-0.2-0.2 -0.2 0 0.1 0.3-0.2 0.3l0.1-0.3c-0.1 0-0.2 0.1-0.2 0.1 0.1-0.1 0-0.3-0.1-0.4 -0.4 0.3 0.2 0.6 0.2 0.9 -0.5 0-0.7 0.4-1 0.6l0-0.3c-0.1 0.1-0.2 0.2-0.2 0.3l0.1 0 -0.1 0.2c0-0.1 0-0.1 0-0.1l-0.2 0.1c0.1-0.1 0.1-0.2 0-0.5 -0.2 0.2-0.6 0.3-0.5 0.6l0-0.1c-0.4 0-1.1 0.3-1.2 0.1 -0.3 0.3-0.9 0.3-0.7 0.6 0 0 0.1-0.1 0.1-0.2 0 0.1 0.1 0.4 0 0.4 -0.1-0.1-0.1-0.1-0.1-0.2 -0.2 0.2-0.7-0.2-0.7 0.3 -0.4-0.1-0.1-0.1-0.1-0.4 -0.4-0.1-0.4 0.6-0.7 0.1 -0.2 0.3 0.1 0.1 0.1 0.3 -0.2-0.4-0.6 0.2-1 0 -0.1 0.2 0.2 0.1 0 0.3 0-0.1-0.1-0.1-0.2-0.1l0.1 0.3 -0.6-0.6c-0.3 0.5 0.3 0.5-0.3 0.8l0 0c-0.3-0.2-0.3 0.4-0.8 0.3 0.2 0 0-0.2 0-0.3l-0.2 0.2c0 0 0 0 0-0.1 -0.3-0.1-0.1 0.2-0.4 0.1 0.1-0.1 0-0.3-0.1-0.4l-0.2 0.4 0-0.4c-0.3 0.1-0.6 0.9-1 0.4l0.1-0.1c0-0.1-0.2-0.4-0.4-0.1 -0.1 0.1 0 0.3 0.1 0.3l-0.2 0c0-0.3 0.4-0.5 0.6-0.6 0 0.1-0.2 0.3-0.1 0.4 0.2-0.1 0.4-0.4 0.6-0.6 0 0 0-0.1 0.1-0.1l0 0.1 0.1 0c0 0 0 0.1 0 0.1 0 0 0-0.1 0-0.1 0 0-0.1 0-0.1 0.1 -0.1 0.1-0.1 0.3-0.1 0.4 0.3 0.1 0.1-0.2 0.3-0.3 0.1 0.1 0.2 0.1 0.2 0.2 0.2-0.2 0.4-0.3 0.7-0.2 0 0-0.2 0.3 0 0.4 0.4-0.3 0.4-0.7 0.8-1 0.4-0.6 1.2-0.2 1.5-0.6 0-0.1-0.4-0.1-0.1-0.3 0 0.2 0.2 0.1 0.3 0.2 0.1-0.4 0.4-0.1 0.5-0.4 0 0.1 0.2 0.1 0.3 0.2l0-0.1c0 0 0 0 0 0.1 0 0 0 0 0 0l0 0.1c0 0 0 0 0 0 0.1 0 0.4-0.1 0.1 0.5 0.2-0.6 0.8-0.3 0.8-1.1l-0.1-0.1 0.5-0.2c0 0 0 0 0 0h0l0 0c0.2 0 0.2 0.1 0.5 0.3 -0.1 0.1-0.2 0.4-0.3 0.5 0.3 0.2 0.4-0.4 0.6-0.5 0.1 0.2-0.2 0.2 0 0.4 0.2 0 0.3-0.3 0.4-0.4l0 0.1c0.5 0.1-0.1-0.6 0.4-0.4 0-0.1 0-0.2-0.1-0.2 0.2 0.1 0.5 0.2 0.3 0.4 0.2-0.1 0.3-0.2 0.3-0.4 -0.2-0.1-0.2 0-0.3-0.2l0.6-0.4c0.1 0 0 0.1-0.1 0.2 1 0.3 1.2-1.1 2.3-0.8 -0.2-0.1 0-0.2 0-0.3 0.3-0.1 0.7-0.3 0.9-0.3l0 0.2c0.5-0.4 0.9-0.8 1.3-0.9 0-0.1 0.1 0.2 0 0.2 0.2-0.4 0.9 0.2 0.7-0.3l-0.1 0c0.6-0.2 1.1-0.8 1.7-1.2 0.3 0.2-0.3 0.2-0.1 0.5 0.5-0.1 0.8-0.5 1.3-0.6 -0.1 0.1 0 0.1-0.1 0.1 0.5 0-0.2-0.3 0.2-0.4 0 0.2 0.1 0.2 0.2 0.2l0-0.3c0 0 0.1 0.2 0.1 0.3 0-0.4 0.6-0.4 0.6-0.8 0.1 0.1 0.1 0.4 0.2 0.5 0.2 0 0.4-0.2 0.4-0.4v0c0 0.1 0.6-0.1 0.5 0 0.4-0.1 0-0.2 0.2-0.5l-0.4 0 0.5-0.3 -0.1 0.2c0.3 0 0.4-0.4 0.7-0.5l-0.2-0.1 0.3-0.2c0.2 0.3 0.4-0.1 0.5 0.4 0.7-0.1 0.8-0.7 1.4-1 -0.1 0 0 0.1 0 0.2 0.3-0.1 0.5-0.3 0.6-0.6 0 0.1 0 0.2 0 0.3 0.4-0.2 0.1-0.3 0.5-0.6 0 0.2 0 0.3 0.2 0.2 -0.1-0.1 0-0.2 0-0.3 0 0.8 0.6 0.1 0.6 0.7 0-0.2 0.4-0.7 0.1-0.9l-0.1 0.1c-0.1-0.2 0.1-0.2 0.2-0.2 0.1-0.1 0.1-0.1 0 0 0 0 0 0 0 0 0 0.1-0.1 0.1-0.1 0.2 0.5-0.5 1.2-0.6 1.7-1.1 0 0.1-0.2 0.3 0 0.3 0.7-0.2 0.9-0.7 1.5-1.2 0.2 0.4-0.7 0.4-0.5 0.8 0.6-0.4 1.3-0.9 1.9-1.5 0.6 0.5 0.6-0.6 1.3-0.3 -0.1-0.2 0.1-0.4 0.3-0.5l0 0 0 0 0 0c0 0.2 0.3 0.1 0.3 0.2 0.1-0.3 0.7-0.7 0.9-0.3 -0.1-0.4 0.5-0.2 0.5-0.6 -0.1 0-0.2 0-0.3-0.1l0.3 0c0 0 0 0.1 0 0.1 0.4 0 0.6-0.4 1-0.4 -0.2-0.2 0.3-0.3 0.4-0.5 0 0-0.1 0.1 0 0.1 0.2 0.2 0.3-0.4 0.6-0.4 0.1 0 0.1 0.2 0.2 0.2 -0.1-0.2 0.4-0.6 0.7-0.5 -0.1 0 0 0.1-0.1 0.2 0.8-0.8 2-0.9 2.8-1.7l0 0.4c0.8 0.1 0.2-0.7 0.7-0.9 0.7-0.2 1.4-0.4 2.1-0.7 0.3-0.1 0.7-0.3 1-0.4 0.1-0.1 0.1-0.1 0.2-0.3 -0.1-0.1-0.1 0-0.2-0.1 0.1 0 0.3 0.1 0.2-0.1l-0.2 0c0.7-0.2 0.2-1.6 1-1.8 -0.1-0.6 0.4-1 0.1-1.7 0.2-0.2 0.3 0.3 0.4 0l-0.2-0.7 0 0c-0.4-0.7 0.8-1.6 0.5-2.5l0 0c0.1 0 0.3-0.1 0.3-0.3 -0.1-0.1-0.1 0-0.2 0.1 -0.1-0.8-0.1-0.9-0.1-1.5 0.2 0.3 0.2-0.2 0.4-0.2 -0.2-0.2-0.3 0.1-0.4-0.3 0-0.5 0.3-0.9 0.4-1.3 -0.2-0.2-0.1-0.4-0.4-0.4 0-0.6-0.1-0.9 0-1.5l0.1 0c-0.3-0.2 0.2-0.6 0-0.7 0.1 0 0.2 0.1 0.3 0.1l-0.1-0.3c0.1 0.2 0.4 0.3 0.5 0 -0.2-0.3-0.2 0.1-0.4-0.1l0.3-0.1c0-0.2-0.4-0.3-0.5 0 0-0.7-0.1-1.4 0-2l0.2 0.1c-0.1-0.3 0-0.8 0.2-1 -0.1 0-0.2-0.1-0.2-0.1 -0.3-0.4 0.4 0 0.1-0.5 0.1 0.1 0.1 0.3 0.2 0.3l-0.2-0.8c0.2 0 0.5-0.5 0.4-0.8 -0.1 0-0.2 0.1-0.2 0.2l-0.1-0.2 0.4-0.2 -0.3-0.3 -0.1 0 0-0.1 0.1 0.1 0.3 0c-0.1-0.2-0.4-0.4-0.4-0.5 0.2-0.7 0.3-0.6 0.6-1.1 -0.6-0.1 0.1-0.8-0.4-1 0.4-0.5 0.3-1.3 0.3-2.1 -25.5-0.5-46-16.6-46-36.3 0-20 21.2-36.3 47.2-36.3 26 0 47.2 16.3 47.2 36.3C286.9 332 266.4 348.1 241.1 348.6zM281 390.7l-0.4-0.2c0.5 0.3 0.1-0.5 0.5 0C280.9 390.4 281 390.6 281 390.7zM279.4 389.8c-0.1-0.2-0.1-0.2 0.1-0.2C279.5 389.7 279.6 389.8 279.4 389.8zM272.9 387.2c-0.1-0.1-0.2-0.1-0.2-0.2L272.9 387.2zM270.4 385.6l-0.1 0.2C270.4 385.7 270.2 385.5 270.4 385.6zM267.8 384.1h-0.1l-0.2 0L267.8 384.1zM262.1 381.2l0 0C262.1 381.2 262.1 381.2 262.1 381.2zM252.5 377.3l0.1-0.3C252.8 377 252.6 377.3 252.5 377.3zM245.9 374.1c-0.1 0-0.2-0.2-0.3-0.3C245.8 373.8 245.9 374 245.9 374.1zM241.3 355.3l-0.1-0.1 0-0.1L241.3 355.3zM242.7 370.1c-0.1 0.4-0.5 0-0.6 0.1C242.3 369.8 242.5 370.4 242.7 370.1zM194 391.6l0.1 0 -0.1 0.1C194 391.6 194 391.6 194 391.6zM195.7 391c0.1-0.1 0.4 0 0.5 0 -0.1 0.2-0.5-0.1-0.5 0.1L195.7 391zM210.2 384.9l0.2 0.1 -0.2 0.2L210.2 384.9zM213.1 383.9c0.1-0.1 0.1-0.1 0.3-0.1C213.3 383.8 213.2 383.9 213.1 383.9c0 0.1-0.1 0.1-0.1 0.2C212.9 383.9 213 383.9 213.1 383.9zM326 184.3c1.7 0 3 1.3 3 3s-1.3 3-3 3 -3-1.3-3-3S324.3 184.3 326 184.3zM351.7 201.7c-2.1 8.6-9.5 22.3-24 12.8 -11.5-7.5-23.5 1.3-22.2-17.3 0.9-12.5 6.3-17.8 14.9-19 -6 2.8-10.2 8.9-10.2 16 0 9.8 7.8 17.7 17.5 17.7 9.7 0 17.5-7.9 17.5-17.7 0-4.3-1.5-8.2-4-11.2C348.4 187.8 353.2 195.2 351.7 201.7z"/><path d="M240.5 342.9c0 0 0 0 0 0 0 0 0 0 0 0C240.5 342.9 240.5 342.9 240.5 342.9z"/><path d="M239.3 362.8c0-0.1 0-0.2 0.1-0.4 0 0-0.1 0-0.1 0C239.3 362.6 239.3 362.7 239.3 362.8z"/><polygon points="240.3 341.7 240.3 341.7 240.3 341.7 "/><path d="M240.8 341.8c0 0 0 0-0.1 0 0 0 0 0.1 0 0.1 0 0 0 0.1 0 0.1C240.8 341.9 240.8 341.9 240.8 341.8z"/><path d="M238.9 348.2l0.1 0.1c0.3-0.4-0.5-0.4-0.4-0.8l0.1 0.1c0.1-0.2 0.1-0.6 0.1-0.9 -0.1 0-0.2 0-0.4 0 0 0.3 0 0.6-0.1 0.8l-0.1-0.1c-0.1 0.4 0.6 0.5 0.3 0.9l0-0.1c0 0.2 0 0.3 0 0.5 0.2 0 0.3 0 0.5 0C238.9 348.5 238.9 348.4 238.9 348.2z"/><path d="M240.3 343c-0.1 0.1-0.1 0.2 0 0.4C240.3 343.3 240.3 343.2 240.3 343z"/><path d="M238.4 345.4c0 0 0 0 0 0 -0.1-0.1-0.4 0.1-0.3-0.1 0.1 0.1 0.2 0 0.2 0l-0.3-0.3c0.1-0.3 0.2-0.6 0.2-0.9H238v-9.8c-0.1 0-0.1-0.1-0.1-0.2 0 0 0 0 0.1 0.1 0 0 0 0 0-0.1 0 0 0 0.1 0.1 0.1V333v-2.6c0 0 0 0 0 0 0 0 0 0 0 0V289.3c-1.1-1.4-7-8-15.7-4.1 -0.2 0.1-13.7 5.1-15.5 13.2 -0.7 3.2 0.6 6.6 3.8 10 2.3-1.8 5.3-2.9 8.7-2.9 7.1 0 12.8 4.9 12.8 10.8s-5.8 10.8-12.8 10.8 -12.8-4.9-12.8-10.8c0-2.5 1-4.8 2.7-6.6 -0.1-0.1-0.4-0.4 0 0 -3.7-3.9-5.2-7.9-4.3-11.8 2-9.1 16.1-14.4 16.7-14.6 8.9-4 15.4 1.8 17.5 4.1 2.4-2.2 10-8.2 18.9-4.1 0.5 0.2 14 5.3 16 14.4 0.8 3.6-0.4 7.2-3.4 10.8 0.3-0.3 0.2-0.1 0 0 2.4 2 3.9 4.7 3.9 7.7 0 6-5.8 10.8-12.8 10.8 -7.1 0-12.8-4.9-12.8-10.8s5.8-10.8 12.8-10.8c2.7 0 5.2 0.7 7.3 1.9 2.7-3.2 3.7-6.3 3.1-9.2 -1.7-8-14.7-12.9-14.8-12.9 -8.6-3.9-15.8 2.7-17.2 4.1v36.6c0.2 0 0.4 0.4 0.5 0.6 0 0.2 0 0.3-0.1 0.3 -0.1 0.1-0.3 0.1-0.4 0.1v0.5l0.1 0.4h0l0-0.1L240 327.8v0.1c0 0 0.1 0 0.1 0 0 0 0 0-0.1 0v0.7l0.1-0.1c0 0 0 0 0 0l0 0c0.3 0.4 0 0.7-0.2 1v0.7l0.3 0.3L240 330.7v0.1c0.2 0.2 0.4 0.2 0.3 0.6 -0.5 1.3 0.1 2.6-0.2 3.9 0 0 0.1-0.1 0.1-0.1 0 0 0 0.1 0 0.1 0 0 0 0 0.1-0.1 -0.1 0.1-0.1 0.2-0.2 0.3v0.6c0.2 0.6 0.7 1.1 0.4 1.8l0 0c0 0 0 0 0 0l-0.1 0c0 0.2 0 0.2 0 0.2 0 0.1-0.1 0-0.1 0 0 0 0 0-0.1 0.1v0.1c0.3 0.1 0.3 0.6 0.4 0.9 -0.1 0-0.1-0.1-0.1-0.2 0 0 0 0 0 0 0 0.1 0 0.2 0.1 0.3 -0.1 0-0.1-0.1-0.1-0.2 -0.1 0-0.2 0.1-0.2 0.2 0.5 0.3 0.5 1 0.7 1.6 -0.2 0.1-0.4 0.4-0.7 0.7v0.2c0.1 0 0.2 0.1 0.2 0.1 0 0 0 0 0 0 0 0 0 0 0 0 0 0 0 0 0 0 0-0.1 0-0.1 0-0.1 0.1-0.1 0.2-0.1 0.2-0.1 0.1-0.1 0.2 0.1 0.4 0 0 0.2 0.1 0.5-0.1 0.6 0 0.1 0 0.2-0.1 0.3 0 0.1 0.1 0.1 0 0.2l0 0c0 0-0.1 0-0.1 0 -0.1 0.3 0.3 0.8 0.5 1.1 -0.1-0.1-0.2-0.1-0.3-0.1 0 0.1 0.1 0.1 0.1 0.1 -0.1-0.1-0.1-0.1-0.2-0.1 -0.1 0.1-0.1 0.1-0.3 0.1 0 0 0 0 0-0.1 0 0-0.1 0-0.1 0.1 0 0.1 0.1 0.3 0 0.5 0 0-0.1-0.1-0.2-0.1 -0.1 0.2 0.1 0.4 0.3 0.4 -0.3 0.1-0.4 0.5-0.3 0.7 0.2 0.2 0.3 0.1 0.3 0.5l-0.2-0.1c-0.1 0.3 0.2 0.3 0.1 0.5 0 0-0.1 0-0.2 0 0.1 0.3 0.2 0.4 0.5 0.6 24.4-0.4 44.1-15.7 44.1-34.3 0-18.9-20.3-34.3-45.2-34.3s-45.2 15.4-45.2 34.3c0 18.6 19.6 33.8 44 34.3 0-0.4-0.2-0.8-0.3-1.1C238.2 345.6 238.3 345.6 238.4 345.4z"/><path d="M251.8 316.3c0 4.3 4.4 7.8 9.8 7.8 5.4 0 9.8-3.5 9.8-7.8s-4.4-7.8-9.8-7.8C256.2 308.5 251.8 312 251.8 316.3z"/></svg>