<?xml version="1.0" encoding="utf-8"?>
<!-- Generator: Adobe Illustrator 16.0.0, SVG Export Plug-In . SVG Version: 6.00 Build 0)  -->
<!DOCTYPE svg PUBLIC "-//W3C//DTD SVG 1.1//EN" "http://www.w3.org/Graphics/SVG/1.1/DTD/svg11.dtd">
<svg version="1.1" id="mug_x5F_body" xmlns="http://www.w3.org/2000/svg" xmlns:xlink="http://www.w3.org/1999/xlink" x="0px"
	 y="0px" width="353.667px" height="257.335px" viewBox="0 0 353.667 257.335" enable-background="new 0 0 353.667 257.335"
	 xml:space="preserve">
<path id="mug" fill="#FFFFFF" d="M300,60.668c-10.577,1.016-19.551,3.482-26.88,7.187c0.029-6.314,0.046-10.17,0.046-10.187
	c0-30.375-60.218-55-134.5-55s-134.5,24.625-134.5,55c0,0.09-0.5,116.193-0.5,116.193c0,1.246,0,2.501,0,3.766
	c0,34.495,60.287,62.459,134.5,62.459c72.628,0,131.601-26.783,134.095-60.259c0.129-0.292,0.274-14.362,0.41-32.85
	c7.046,3.021,16.012,4.983,27.329,5.691c29.561,1.85,52.1-23.976,51.5-46.667C350.667,74.501,329.5,57.834,300,60.668z
	 M138.917,105.668c-69.726,0-126.25-21.714-126.25-48.5s56.524-48.5,126.25-48.5c69.727,0,126.25,21.714,126.25,48.5
	S208.643,105.668,138.917,105.668z M304,134.001c-17.053,0.806-29.299-10.292-31.096-23.868c0.013-2.372,0.026-4.722,0.038-7.043
	c2.011-13.403,15.145-23.755,31.058-23.755c17.305,0,31.497,10.666,31.333,27.333C335.185,121.763,321.665,133.167,304,134.001z"/>
</svg>
