<svg xmlns="http://www.w3.org/2000/svg" viewBox="0 0 511.3 526.7"><path d="M503.2 360.7c0 0-51-20.3-52.2-21.7 0 0-1.7 6.7-20.2-2.7 0 0-1.5 5.3-6-2 0 0-37.3-12.3-38.3-13.2 0 0-1.2 5.3-5.8-1.3 0 0-20.7-6.2-23.5-9 0 0-1.5-6 0.4-10.1l-2.9 4.9c0 0-6.7 1.8-15.5-3.5 0 0 0.8 5.2-1.2 6 0 0-4.2 1.2-7.3 0.2 0 0-0.8 4.2-5 0 0 0-33.4-0.6-43.9-6l-0.5 91c0 0-1.7 30.9-6.7 53.8 13.7 17.6 71.6 54.1 76.1 60.4 0 0 1 10.9-1.6 14.5 0 0-38.7-5.5-87.6-17.8 -1.8 6.2-3.7 11.4-5.5 14.7l-2.8 0c-1.8-3.3-3.6-8.6-5.5-14.7 -48.9 12.2-87.6 17.7-87.6 17.7 -2.6-3.5-1.6-14.5-1.6-14.5 4.5-6.3 62.3-42.8 76.1-60.4 -5-22.9-6.7-53.8-6.7-53.8l-0.6-90c-12.4 4.4-41.4 5-41.4 5 -4.2 4.2-5 0-5 0 -3.2 1-7.3-0.2-7.3-0.2 -2-0.8-1.2-6-1.2-6 -8.8 5.3-15.5 3.5-15.5 3.5l-2.9-4.9c1.9 4 0.4 10.1 0.4 10.1 -2.8 2.8-23.5 9-23.5 9 -4.7 6.7-5.8 1.3-5.8 1.3 -1 0.8-38.3 13.2-38.3 13.2 -4.5 7.3-6 2-6 2 -18.5 9.3-20.2 2.7-20.2 2.7 -1.2 1.3-52.2 21.7-52.2 21.7 -5.7 0-4.4-26.3-4.4-26.3l200.8-136.5c8.8-6.1 15.9-12 21.6-17.3l-0.3-3.2V84c2-32.3 8.1-50.8 8.1-50.8C244.4 3 254.5 2.8 254.5 2.8s9.6 0.3 20 30.4c0 0 5.5 18.5 7.5 50.8v93.3l0.2 0.9c6.1 5.9 14.3 12.6 24.4 19.6l200.8 136.5C507.5 334.3 508.8 360.7 503.2 360.7zM162 508.3v5.2l80.3-31.7 -2.5-15.6C217.6 476.7 162 508.3 162 508.3zM268.8 466.2l-2.6 15.6 79.9 31.7v-5.2C346 508.3 290.9 476.7 268.8 466.2zM261.5 40.3h-6.5 -6.5c-6.4 0-6.3 1.5-6.5 6.5 0.2 5.5 0.4 6.5 6.5 6.5h6.5 6.5c6.1 0 6.3-1 6.5-6.5C267.8 41.8 267.9 40.3 261.5 40.3zM131 289.7c0-1.3-1-2.3-2.3-2.3h-0.3c-1.3 0-2.3 1-2.3 2.3v14.3c0 1.3 1 2.3 2.3 2.3h0.3c1.3 0 2.3-1 2.3-2.3V289.7zM385 289.7c0-1.3-1-2.3-2.3-2.3h-0.3c-1.3 0-2.3 1-2.3 2.3v14.3c0 1.3 1 2.3 2.3 2.3h0.3c1.3 0 2.3-1 2.3-2.3V289.7zM87 311.7c0-1.3-1-2.3-2.3-2.3h-0.3c-1.3 0-2.3 1-2.3 2.3v10.3c0 1.3 1 2.3 2.3 2.3h0.3c1.3 0 2.3-1 2.3-2.3V311.7zM429 311.7c0-1.3-1-2.3-2.3-2.3h-0.3c-1.3 0-2.3 1-2.3 2.3v10.3c0 1.3 1 2.3 2.3 2.3h0.3c1.3 0 2.3-1 2.3-2.3V311.7zM153.5 212.5l2.5 15.4 19.9-13.6c0.1-0.4 0.1-0.9 0.2-1.2 3-1.7 3.9-4.9 3.9-10.3v-19c0-11-0.9-14.2-15-13.6 -14-0.6-15 2.6-15 13.6v19C150 207.7 151.2 210.7 153.5 212.5zM334.2 213.6l20.6 14 2.1-14.3c3.1-1.7 4.1-4.8 4.1-10.4v-19c0-11-0.9-14.2-15-13.6 -14-0.6-15 2.6-15 13.6v19c0 4.6 1.1 7.6 3.2 9.4C334.2 212.6 334.2 213 334.2 213.6z"/></svg>
