<svg xmlns="http://www.w3.org/2000/svg" viewBox="0 0 423.3 396.3"><path d="M410 60.3H15c-6.7 0-13.2 5.5-13.2 12.9v300.1c0 7.4 6.5 13.9 13.2 13.9h395.1c6.7 0 11.7-6.5 11.7-13.9V73.2C421.8 65.8 416.8 60.3 410 60.3zM149.8 189.3l-77.9 29.3 77.9 29.1v16.8l-97-38.3v-15.2l97-38.3V189.3zM184.6 295.3H167.1l72.1-155h17.4L184.6 295.3zM375.8 226.2l-97 38.3v-16.8l77.9-29 -77.9-29.3v-16.7l97 38.3V226.2zM91.1 57.3c-1 0-1.8 0.3-2.5 0.4 1.5-2.8 3.9-4.4 6.5-4.4h8.3c2.6 0 5 1.6 6.5 4.4 -0.7-0.2-1.6-0.4-2.5-0.4H91.1zM62.8 57.9v-0.4c0-0.7 0.6-1.3 1.3-1.3h9.4c0.7 0 1.3 0.6 1.3 1.3v0.4c0 0.7-0.6 1.3-1.3 1.3h-9.4C63.3 59.3 62.8 58.7 62.8 57.9zM316.1 57.3c-1 0-1.8 0.3-2.5 0.4 1.5-2.8 3.9-4.4 6.5-4.4h8.3c2.6 0 5 1.6 6.5 4.4 -0.7-0.2-1.6-0.4-2.5-0.4H316.1zM348.8 57.9v-0.4c0-0.7 0.6-1.3 1.3-1.3h9.4c0.7 0 1.3 0.6 1.3 1.3v0.4c0 0.7-0.6 1.3-1.3 1.3h-9.4C349.3 59.3 348.8 58.7 348.8 57.9zM32.8 388.3h21v2h-21V388.3zM17.8 389.3h11.3c-0.3 2.2-2.7 5-5.6 5S18 391.5 17.8 389.3zM369.8 388.3h21v2h-21V388.3zM394.4 389.3h11.3c-0.3 2.2-2.7 5-5.6 5S394.7 391.5 394.4 389.3zM151.8 57.3h-3v-9h4.2l0-20.2c0.5-14.7 13-24.8 24.8-25.8h38 38c11.9 1 24.3 11.1 24.8 25.8l0 20.2h4.2v9h-3v-6h-1.2l0 2H259.2c0.1-0.6 0.6-1.3 0.6-2V51.3h-2v6h-3v-9h4.6l0-12c-0.4-8-9.3-13.8-17.8-14l-25.8 0.4 -25.8-0.4c-8.5 0.2-17.4 6-17.8 14l0 12h4.6v9h-3v-6h-2v0c0 0.7 0.5 1.3 0.6 2h-19.4l0-2h-1.2V57.3z"/></svg>
