<svg xmlns="http://www.w3.org/2000/svg" viewBox="0 0 353.7 257.3"><path d="M300 60.7c-10.6 1-19.6 3.5-26.9 7.2 0-6.3 0-10.2 0-10.2 0-30.4-60.2-55-134.5-55 -74.3 0-134.5 24.6-134.5 55 0 0.1-0.5 116.2-0.5 116.2 0 1.2 0 2.5 0 3.8 0 34.5 60.3 62.5 134.5 62.5 72.6 0 131.6-26.8 134.1-60.3 0.1-0.3 0.3-14.4 0.4-32.9 7 3 16 5 27.3 5.7 29.6 1.9 52.1-24 51.5-46.7C350.7 74.5 329.5 57.8 300 60.7zM138.9 105.7c-69.7 0-126.2-21.7-126.2-48.5s56.5-48.5 126.3-48.5c69.7 0 126.3 21.7 126.3 48.5S208.6 105.7 138.9 105.7zM304 134c-17.1 0.8-29.3-10.3-31.1-23.9 0-2.4 0-4.7 0-7 2-13.4 15.1-23.8 31.1-23.8 17.3 0 31.5 10.7 31.3 27.3C335.2 121.8 321.7 133.2 304 134z"/></svg>
