<svg xmlns="http://www.w3.org/2000/svg" viewBox="0 0 541 546"><path d="M524.5 195.5c-2.5-15.2 13.5-55.5-38.5-107.5 -1.9-21.7-69.9-31-105.1-37.9 -3.5-0.7-3-17.5-5.1-19.1C345 8 270 6 270 6s-75 2-105.8 25c-2.1 1.6-1.6 18.4-5.1 19.1C123.8 57 55.9 66.3 54 88 2 140 18 180.3 15.5 195.5c-22.5 59.8 0 230 41.9 228 38.2-4.6 29.9-35.2 58.4-139 13.9-2.2 29.6-7.7 68.9 19 13.8 28.5 31.8 247 84.8 237.2 0.2 0 0.3-0.1 0.5-0.1 0.2 0 0.3 0.1 0.5 0.1 53 9.8 71-208.7 84.8-237.2 39.3-26.7 55-21.2 68.9-19 28.5 103.8 20.3 134.4 58.4 139C524.5 425.5 547 255.3 524.5 195.5zM133.5 196H117v17.2c0 10.8-2.1 12.8-12.9 12.8h-7.7C82.6 226 82 223.2 82 213.2V196H67.4C57.2 196 55 192.4 55 181.6v-7.7C55 160.1 57.9 161 67.4 161H82v-17.7C82 131.8 87.3 132 96.4 132h7.7c12.1 0 12.9 0 12.9 11.3V161h16.5c10.9 0 10.5 3.8 10.5 12.9v7.7C144 193.7 144.2 196 133.5 196zM455.5 104.5c9.3 0 16.8 7.5 16.8 16.8S464.8 138 455.5 138s-16.7-7.5-16.7-16.7S446.2 104.5 455.5 104.5zM269 170.1c12 0 21.7 9.7 21.7 21.7s-9.7 21.7-21.7 21.7 -21.7-9.7-21.7-21.7S257 170.1 269 170.1zM268.5 367.8c-33 0-59.7-26.8-59.7-59.7s26.8-59.7 59.8-59.7 59.8 26.8 59.8 59.8S301.5 367.8 268.5 367.8zM375.3 210c-12.6 0-22.7-10.2-22.7-22.7s10.2-22.7 22.8-22.7S398 174.7 398 187.3 387.8 210 375.3 210zM414.3 252c-12.6 0-22.7-10.2-22.7-22.7s10.2-22.7 22.8-22.7S437 216.7 437 229.3 426.8 252 414.3 252zM423.5 170c-9.3 0-16.7-7.5-16.7-16.7s7.5-16.7 16.8-16.7 16.8 7.5 16.8 16.8S432.8 170 423.5 170zM457.5 203c-9.3 0-16.7-7.5-16.7-16.7s7.5-16.7 16.8-16.7 16.8 7.5 16.8 16.8S466.8 203 457.5 203zM489.5 172c-9.3 0-16.7-7.5-16.7-16.7s7.5-16.7 16.8-16.7 16.8 7.5 16.8 16.8S498.8 172 489.5 172zM270.1 337.6c-15.8 0-28.6-12.8-28.6-28.6s12.8-28.6 28.6-28.6c15.8 0 28.6 12.8 28.6 28.6S285.9 337.6 270.1 337.6zM270.1 281.4c-15.2 0-27.6 12.4-27.6 27.6s12.4 27.6 27.6 27.6S297.8 324.2 297.8 309 285.4 281.4 270.1 281.4zM270.1 330.5c-11.8 0-21.5-9.6-21.5-21.5s9.6-21.5 21.5-21.5c11.8 0 21.5 9.6 21.5 21.5S282 330.5 270.1 330.5zM270.1 288.5c-11.3 0-20.5 9.2-20.5 20.5s9.2 20.5 20.5 20.5 20.5-9.2 20.5-20.5S281.4 288.5 270.1 288.5zM270.1 323.5c-8 0-14.5-6.5-14.5-14.5s6.5-14.5 14.5-14.5 14.5 6.5 14.5 14.5S278.1 323.5 270.1 323.5zM270.1 295.5c-7.4 0-13.5 6-13.5 13.5s6 13.5 13.5 13.5c7.4 0 13.5-6 13.5-13.5S277.6 295.5 270.1 295.5zM270.1 317.2c-4.5 0-8.2-3.7-8.2-8.2s3.7-8.2 8.2-8.2 8.2 3.7 8.2 8.2S274.7 317.2 270.1 317.2zM270.1 301.8c-4 0-7.2 3.2-7.2 7.2s3.2 7.2 7.2 7.2c4 0 7.2-3.2 7.2-7.2S274.1 301.8 270.1 301.8zM270.1 312.6c-2 0-3.6-1.6-3.6-3.6s1.6-3.6 3.6-3.6 3.6 1.6 3.6 3.6S272.1 312.6 270.1 312.6zM270.1 306.4c-1.4 0-2.6 1.2-2.6 2.6s1.2 2.6 2.6 2.6 2.6-1.2 2.6-2.6S271.6 306.4 270.1 306.4z"/></svg>
