<svg xmlns="http://www.w3.org/2000/svg" viewBox="0 0 483 426"><path d="M269 307.4l0 0C268.9 307.6 268.8 307.7 269 307.4zM269 307.4C269 307.4 269 307.4 269 307.4l1.6 1.1C270.1 308.2 269.6 307.8 269 307.4zM219.3 324.2c5.4 0 9.8-3.5 9.8-7.8s-4.4-7.8-9.8-7.8 -9.8 3.5-9.8 7.8S213.9 324.2 219.3 324.2zM209.2 309.7l1.5-1.4C210.1 308.8 209.6 309.3 209.2 309.7zM239.6 363.4c0 0 0 0.1 0.1 0.1 0-0.1 0.1-0.1 0.1-0.1C239.7 363.4 239.6 363.4 239.6 363.4zM240.5 348.7c0 0-0.1 0-0.1 0 0 0 0 0 0 0C240.4 348.7 240.4 348.7 240.5 348.7zM427.5 283.5c-2.7 2.4 2 52.8-7.5 54.5 0 0-16.5 0.5-22-146.5 0 0-1.5 79.2-29.7 123.2 -21.1 50-9.7 55.8-45.8 88.8 -31.5 28.8-39.5 6.8-82 15 -42.5-8.2-50.5 13.8-82-15 -36.1-33-24.7-38.8-45.8-88.8C84.5 270.7 83 191.5 83 191.5 77.5 338.5 61 338 61 338c-9.5-1.7-4.8-52.1-7.5-54.5C36 267.9 3.5 197.7 4 180.5c1.3-42.5 29-73 29-73 8.1-6 24.8-7.5 24.8-7.5 47-62.2 65.3-62.5 65.3-62.5 7.5-2.5 22.3 0.3 22.3 0.3C198.8 11.3 240.5 8.5 240.5 8.5s41.8 2.8 95.3 29.3c0 0 14.8-2.7 22.3-0.2 0 0 18.3 0.3 65.3 62.5 0 0 16.6 1.5 24.8 7.5 0 0 27.7 30.5 29 73C477.5 197.7 445 267.9 427.5 283.5zM152 187.3c0 1.7 1.3 3 3 3s3-1.3 3-3 -1.3-3-3-3S152 185.7 152 187.3zM175.5 197.2c-0.9-12.5-6.3-17.8-14.8-19 6 2.8 10.2 8.9 10.2 16 0 9.8-7.8 17.7-17.5 17.7s-17.5-7.9-17.5-17.7c0-4.3 1.5-8.2 4-11.2 -7.2 4.8-12.1 12.3-10.5 18.7 2.1 8.6 9.5 22.3 24 12.8C164.9 207 176.9 215.8 175.5 197.2zM192.9 392l-0.2 0.1c-0.1 0.1 0 0.3 0.1 0.2L192.9 392zM193.7 391.8c-0.1 0.3-0.1 0.2-0.2 0.6 -0.1 0.1-0.2-0.1-0.2-0.2 0 0.1-0.2 0-0.2 0.2 0.2 0.2 0.4 0.2 0.6-0.1 0.1 0.1 0 0.2 0 0.2C193.8 392.4 193.9 392 193.7 391.8zM194 391.7c0 0-0.1 0-0.1 0.1L194 391.7zM198.7 391.4l-0.4 0.1c0.1 0.1 0.3 0.2 0.1 0.3C199 391.8 198.2 391.5 198.7 391.4zM200.1 391c-0.2 0.1 0.1 0.1 0.1 0.2C200.3 391 200.3 391 200.1 391zM206.7 388.1c0-0.1-0.1 0-0.2 0L206.7 388.1zM209.3 387l0.1 0.2C209.5 387.1 209.3 387.1 209.3 387zM212.4 386l-0.2 0.1 -0.1 0.1L212.4 386zM227.3 378.9l-0.2-0.3C227.1 378.7 227.2 379.1 227.3 378.9zM234.1 375.4c-0.2 0.1-0.4 0-0.4 0.1C233.9 375.5 234.1 375.5 234.1 375.4zM268.3 386.3l-0.3 0 0.1 0.2L268.3 386.3zM282.7 392.7c-0.1 0.1-0.3-0.4-0.5-0.2 0.1 0.1 0.2 0.3 0.4 0.3L282.7 392.7zM284.5 393.3l-0.1 0 0.1 0C284.5 393.3 284.5 393.3 284.5 393.3zM284.8 393.2l-0.2 0C284.6 393.3 284.7 393.3 284.8 393.2zM285.9 393c-0.2-0.3-0.4-0.3-0.7-0.2 0-0.1 0-0.2 0.1-0.2 -0.2 0.1-0.5 0.3-0.4 0.7 0.2-0.3 0.3-0.1 0.5-0.5 0.1 0 0.2 0.2 0.2 0.3C285.6 393.1 285.8 393.2 285.9 393zM286.1 393.2l-0.1 0.3 0.3-0.1C286.3 393.3 286.3 393.1 286.1 393.2zM286.9 312.3c0-20-21.2-36.3-47.2-36.3 -26 0-47.2 16.3-47.2 36.3 0 19.7 20.5 35.8 46 36.3 0 0.7 0 1.5-0.3 2.1 0.4 0.1-0.2 0.9 0.4 1 -0.3 0.5-0.4 0.3-0.6 1.1 0 0.2 0.4 0.3 0.4 0.5l-0.3 0 -0.1-0.1 0 0.1 0.1 0 0.3 0.3 -0.4 0.2 0.1 0.2c0-0.1 0.1-0.2 0.2-0.2 0.1 0.4-0.3 0.8-0.4 0.8l0.2 0.8c-0.1 0-0.2-0.2-0.2-0.3 0.3 0.5-0.3 0.1-0.1 0.5 0.1 0 0.2 0 0.2 0.1 -0.2 0.2-0.2 0.6-0.2 1l-0.2-0.1c-0.1 0.6 0 1.3 0 2 0.1-0.2 0.5-0.2 0.5 0l-0.3 0.1c0.2 0.1 0.1-0.2 0.4 0.1 -0.1 0.3-0.4 0.1-0.5 0l0.1 0.3c-0.1 0-0.1-0.1-0.3-0.1 0.2 0.1-0.4 0.5 0 0.7l-0.1 0c-0.1 0.7 0 1 0 1.5 0.3 0 0.2 0.2 0.4 0.4 -0.1 0.4-0.4 0.8-0.4 1.3 0.1 0.4 0.2 0.1 0.4 0.3 -0.3 0-0.3 0.5-0.4 0.2 0 0.6 0 0.8 0.1 1.5 0.1-0.1 0.2-0.2 0.3-0.1 0 0.1-0.1 0.3-0.3 0.3l0 0c0.3 0.9-1 1.8-0.5 2.5l0 0 0.2 0.7c-0.1 0.3-0.2-0.2-0.4 0 0.3 0.8-0.3 1.1-0.1 1.7 -0.8 0.3-0.3 1.6-1 1.8l0.2 0.1c0.1 0.2-0.2 0.1-0.2 0.1 0.1 0.1 0.2 0 0.2 0.1 -0.1 0.2-0.1 0.3-0.2 0.3 -0.2 0.1-0.7 0.3-1 0.4 -0.7 0.2-1.4 0.4-2.1 0.7 -0.5 0.2 0.1 1-0.6 0.9l0-0.4c-0.8 0.8-2 0.9-2.8 1.7 0-0.1 0-0.2 0.1-0.2 -0.3-0.1-0.7 0.3-0.7 0.5 -0.2 0.1-0.1-0.1-0.2-0.2 -0.3 0-0.4 0.5-0.6 0.4 0 0 0-0.1 0.1-0.1 -0.1 0.2-0.6 0.3-0.4 0.5 -0.4 0.1-0.6 0.4-1 0.4 0 0 0-0.1 0-0.1l-0.3 0c0.1 0.1 0.2 0.1 0.3 0.1 0 0.4-0.7 0.2-0.5 0.6 -0.2-0.4-0.8 0-0.9 0.3 0-0.2-0.3 0-0.2-0.2l0 0 0 0 0 0c-0.3 0.1-0.4 0.3-0.3 0.5 -0.7-0.3-0.8 0.8-1.3 0.4 -0.7 0.6-1.3 1.1-1.9 1.5 -0.2-0.4 0.7-0.4 0.5-0.8 -0.6 0.5-0.8 1-1.5 1.2 -0.2 0 0-0.2 0-0.3 -0.6 0.5-1.3 0.6-1.7 1.1 0 0 0-0.1 0.1-0.2 0 0 0 0 0 0 0.1-0.1 0 0 0 0 -0.1 0.1-0.3 0.1-0.2 0.2l0.1-0.1c0.3 0.2-0.2 0.8-0.1 0.9 -0.1-0.6-0.6 0.1-0.6-0.7 -0.1 0.1-0.1 0.2 0 0.3 -0.1 0-0.2 0-0.2-0.2 -0.4 0.3-0.1 0.4-0.5 0.6 0-0.1 0-0.2 0-0.3 -0.1 0.3-0.2 0.5-0.6 0.6 0-0.1-0.1-0.1 0-0.2 -0.5 0.3-0.7 0.9-1.4 1 0-0.5-0.3 0-0.4-0.4l-0.3 0.2 0.2 0.1c-0.3 0.1-0.4 0.5-0.7 0.5l0.1-0.2 -0.5 0.3 0.4 0c-0.2 0.3 0.2 0.4-0.2 0.5 0.1-0.1-0.5 0.1-0.5 0v0c0 0.2-0.2 0.4-0.4 0.4 -0.1-0.1-0.1-0.4-0.2-0.4 0 0.3-0.6 0.4-0.6 0.8 0-0.1-0.1-0.3-0.1-0.3l0 0.3c-0.2 0-0.2 0-0.2-0.2 -0.4 0.1 0.3 0.4-0.2 0.4 0 0 0-0.1 0.1-0.1 -0.5 0.1-0.8 0.6-1.3 0.6 -0.3-0.3 0.3-0.3 0.1-0.5 -0.6 0.3-1.1 1-1.7 1.2l0.1 0c0.1 0.5-0.5 0-0.7 0.3 0.1-0.1 0-0.3 0-0.2 -0.4 0.1-0.8 0.5-1.3 0.9l0-0.2c-0.3 0-0.7 0.2-0.9 0.3 0 0.2-0.2 0.2 0 0.3 -1.1-0.4-1.4 1.1-2.3 0.8 0.1 0 0.2-0.2 0.1-0.2l-0.6 0.4c0.1 0.2 0.1 0.1 0.3 0.2 0 0.2-0.2 0.3-0.3 0.4 0.2-0.3-0.1-0.3-0.3-0.4 0 0.1 0 0.1 0.1 0.2 -0.5-0.2 0.1 0.5-0.4 0.4l0-0.1c-0.1 0.1-0.2 0.3-0.4 0.4 -0.2-0.2 0.1-0.2 0-0.4 -0.2 0.1-0.3 0.7-0.6 0.5 0.1-0.1 0.2-0.4 0.3-0.5 -0.4-0.2-0.4-0.3-0.5-0.3l0 0h0c0 0 0 0 0 0l-0.5 0.2 0.1 0.1c0 0.8-0.6 0.5-0.8 1.1 0.2-0.6 0-0.5-0.1-0.5 0 0 0 0 0 0l0-0.1c0 0 0 0 0 0 0 0 0 0 0-0.1l0 0.1c-0.1 0-0.3-0.1-0.3-0.2 -0.1 0.3-0.4 0-0.5 0.4 0-0.1-0.2 0.1-0.3-0.2 -0.2 0.2 0.1 0.1 0.1 0.3 -0.3 0.5-1.1 0-1.5 0.6 -0.4 0.4-0.4 0.7-0.8 1 -0.2-0.1 0-0.4 0-0.4 -0.3 0-0.5 0.1-0.7 0.2 0-0.1-0.1-0.1-0.2-0.2 -0.2 0.1 0 0.4-0.3 0.3 0-0.1 0-0.3 0.1-0.4 0 0 0.1 0 0.1-0.1 0 0 0 0.1 0 0.1 0-0.1 0-0.1 0-0.1l-0.1 0 0-0.1c0 0-0.1 0.1-0.1 0.1 -0.2 0.2-0.4 0.4-0.6 0.6 -0.1-0.1 0.1-0.3 0.1-0.4 -0.2 0.2-0.6 0.3-0.6 0.6l0.2 0c-0.1 0-0.1-0.2-0.1-0.3 0.2-0.3 0.3 0 0.4 0.1l-0.1 0.1c0.3 0.5 0.6-0.3 1-0.4l0 0.4 0.2-0.4c0.1 0.1 0.2 0.3 0.1 0.4 0.3 0.1 0.2-0.2 0.4-0.1 0 0 0 0 0 0.1l0.2-0.2c0 0.1 0.1 0.3 0 0.3 0.5 0.1 0.6-0.5 0.8-0.3l0 0c0.5-0.4-0.1-0.3 0.3-0.8l0.6 0.6 -0.1-0.3c0.1 0 0.2 0 0.2 0.1 0.1-0.3-0.1-0.1 0-0.3 0.4 0.1 0.7-0.4 1 0 0-0.3-0.3-0.1-0.1-0.3 0.3 0.5 0.3-0.2 0.7-0.1 0 0.3-0.3 0.3 0.1 0.4 0-0.5 0.5-0.1 0.7-0.3 0 0.1 0.1 0.1 0.1 0.2 0.1 0 0-0.3 0-0.4 0 0.1 0 0.2-0.1 0.2 -0.1-0.3 0.4-0.3 0.7-0.6 0 0.1 0.8-0.1 1.2-0.1l0 0.1c-0.1-0.4 0.3-0.5 0.5-0.6 0.1 0.2 0.1 0.3 0 0.5l0.2-0.1c0 0 0 0.1 0 0.1l0.1-0.2 -0.1 0c0-0.1 0.1-0.2 0.2-0.3l0 0.3c0.3-0.2 0.5-0.6 1-0.6 -0.1-0.2-0.6-0.5-0.2-0.9 0.1 0.1 0.2 0.3 0.1 0.4 0 0 0.1-0.2 0.2-0.1l-0.1 0.3c0.2 0 0-0.2 0.2-0.3 0.1 0.2 0.2 0.1 0.2 0.2 0 0-0.2 0-0.2 0.1 0.2 0 0.4 0 0.6 0.1 -0.1-0.1-0.1-0.2 0-0.3 0.3-0.2 0.2 0.2 0.4 0.2 0-0.2 0.3-0.1 0.2-0.4 0.1 0 0.2 0 0.2 0.1 0.1-0.2 0.8-0.6 0.4-0.6h0c0.4 0 1.2-0.3 1.7-0.7l0 0.1c0.3-0.2 0.7-0.4 0.8-0.7 0.1 0 0.3 0.1 0.3 0.2 0.2-0.2 0.2-0.3 0.6-0.3 -0.2 0.3 0.1 0.1-0.2 0.2 0.4-0.1 0.5 0 0.7-0.4 0 0.3 0.4 0.2 0.5 0l-0.3-0.1c0.2-0.1 0.3-0.2 0.5-0.2l0.1 0.3c0.8 0.1 0.9-1.2 1.7-0.8 0.1-0.3-0.4 0-0.4-0.3 0.3-0.1 0.8 0.2 0.9 0.2 0.5 0 0.2-0.6 0.7-0.7 -0.1-0.1-0.3-0.3 0-0.6 0.3-0.1 0.6 0.3 0.4 0.5 -0.1 0-0.1 0-0.1 0 0 0 0.1-0.1 0.1-0.1 -0.1 0-0.1 0.1-0.1 0.1 -0.1 0.1-0.2 0.2 0 0.3l0-0.1c0.2 0 0.6-0.2 0.6 0.1 0.2-0.2 0-0.2-0.2-0.2 0.5 0 0.6-0.3 1-0.4 -0.1 0-0.2-0.1-0.1-0.2 0.6-0.1 0.2-0.3 0.5-0.5 0.3 0.1 0.1 0.4 0.4 0.1 0.3 0 0.2 0.3 0.1 0.4 0.3-0.4 0.7-0.2 1-0.2l-0.1 0.2c0.1-0.1 0.2-0.1 0.3-0.2l-0.2-0.2c0.1 0 0.2-0.1 0.3 0 0-0.2-0.3-0.3-0.1-0.6 0.2 0 0.4-0.3 0.6-0.1 -0.5 0.1 0.2 0.3-0.2 0.5 0.1-0.1 0.2-0.1 0.3-0.1 0 0 0 0.1 0 0.1 0.6 0 0.1-0.4 0.5-0.6 0 0.2 0.3 0.3 0.3 0.2 -0.2 0.1-0.2-0.2-0.1-0.4 0.4 0 0.3-0.2 0.4-0.3l-0.2 0c0-0.2 0.1-0.2 0.3-0.4 0.1 0.1-0.1 0.2 0 0.2 0.1-0.4 0.7 0 0.9-0.3 0.2 0 0.2 0.3 0.3 0.3 0.3-0.4 0.5 0 0.8-0.3 -0.2-0.2-0.2-0.1 0-0.4l-0.5 0.4 0.2-0.5c-0.2 0.1-0.3 0.3-0.5 0.3 0.1-0.3 0.1-0.2-0.1-0.3 0.4 0.2 0.4-0.4 0.8-0.3l0.2 0.5c0.6 0 0.6-0.6 1.3-0.8l-0.2 0c0-0.2 0.3-0.2 0.5-0.4 0.1 0.2 0.2 0.2 0.3 0.3 0 0 0 0.1 0.1 0.1 0 0-0.1-0.1-0.1-0.1 -0.1-0.1 0.4-0.2 0.3-0.6l0.4 0.1c0.5-0.1 0.3-0.8 0.8-0.9 0 0.3 0.2 0.3 0 0.6 0.1-0.1 0.3-0.1 0.2-0.2 0.1 0.1 0.3-0.4 0.5-0.3 0 0 0 0.1-0.1 0.1 0.1 0 0.1 0 0.2-0.1 0 0 0 0 0 0 0-0.1 0-0.3 0.1-0.4 0 0 0 0.1 0 0.1 0-0.1 0.2-0.2 0-0.4 0.7 0.3 1.2-0.7 1.9-0.4l-0.1 0 0.1 0c0 0 0 0-0.1 0 0.3-0.2 0.7-0.5 0.9-0.6 0 0.1 0 0.1 0 0.1 0.5 0 0-0.6 0.5-0.7 0.4 0.2-0.2 0.3 0 0.3 0.3 0.6 0.5-0.3 1-0.2l-0.1 0.1c0.3 0.1 0.5-0.5 0.9-0.6 0 0 0 0.1 0 0.1 0.1-0.4 0.6-0.8 0.9-1 0 0.3-0.1 0.2 0.1 0.4 0.1-0.1-0.2-0.3 0.1-0.6 0.2 0.1 0.5 0.1 0.6 0.3l-0.3 0.2c0.3 0.2 0.4-0.2 0.6-0.2l0 0.1c0.5-0.3 0.3-0.6 0.8-0.9l-0.1-0.1c0.1-0.5 0.3 0.1 0.5-0.3l0.3 0.3c0.1-0.2 0.5-0.7 0.8-0.9 -0.1 0.4-0.4 0.7-0.5 1 0.2-0.1 0.6-0.3 0.6-0.6 -0.1 0.1-0.1 0.2-0.2 0.2 0.1-0.4 0.3-0.7 0.7-0.8 0.2 0.3 0.4 0.3 0.7 0.1 0.4-0.2 0.8-0.6 1.1-0.6 0.2-1 0.8-1.5 1-2.4 -0.7 0.2 0-0.3-0.6-0.3 0-0.2 0-0.3 0.1-0.3 0 0 0 0 0 0 0.1 0 0.3 0.5 0.6 0.2 -0.3 0.2-0.2-0.5-0.6-0.2l0 0 0.5-0.5c0.2-0.1 0.1 0.2 0.2 0.2 0.1-0.4 0.3-0.1 0.5-0.4 -0.2 0-0.3-0.2-0.2-0.4l-0.3 0.3c-0.2-0.7 0.6-0.4 0.4-1.1l0.2 0.2c-0.1-0.3 0.2-1.2-0.3-1.5 0.1 0 0.3-0.1 0.3 0 0.2-0.7-0.3-1.7 0.1-2.3l0.1 0.1c0-0.1-0.3-0.3-0.1-0.4 0.1 0 0.1 0.1 0.2 0 0-0.1-0.2-0.3-0.1-0.5 0.1 0.3 0.1 0.6 0.3 1.1 0.1-0.1 0.1-0.2 0.2-0.2 0.1 0.1-0.1 0.3-0.2 0.3l0 0c0.5 0.8-0.5 2.1 0.1 2.7l0 0 0.4 0.7c0 0.3-0.2-0.2-0.3 0.1 0.6 0.7 0.2 1.2 0.6 1.8 -0.6 0.7 0.5 1.7 0.4 2.6l0.1-0.1c0.2 0.1 0 0.3 0.1 0.5 0.1-0.1 0-0.3 0.2-0.2 0.3 0.4 0.7 1 1.2 1.2 0.4 0.2 0.7 0.4 1 0.6 0.6 0.4 1.2 0.9 1.8 1.3 0.5 0.3 0.7-0.7 1.1 0l-0.3 0.2c1.1 0.1 2 1 3 1.1 -0.1 0-0.1 0.1-0.2 0.1 0.1 0.3 0.7 0.4 0.8 0.2 0.1 0.1 0 0.2 0 0.3 0.1 0.2 0.6 0 0.6 0.2 0 0-0.1 0-0.1 0 0.2 0 0.6 0.3 0.6 0 0.3 0.3 0.7 0.2 0.9 0.5 0 0 0 0-0.1 0l0.2 0.2c0-0.1-0.1-0.2-0.1-0.3 0.3-0.2 0.5 0.4 0.8 0.1 -0.2 0.4 0.5 0.6 0.8 0.5 -0.1 0.1 0.1 0.2 0 0.4l0 0 0 0 0 0c0.3 0.1 0.5 0.2 0.6-0.1 0.2 0.7 1.1 0.1 1.1 0.8 0.9 0.1 1.6 0.3 2.4 0.6 -0.2 0.4-0.8-0.3-0.9 0.1 0.7 0.1 1.3 0 1.9 0.4 0.1 0.1-0.2 0.1-0.3 0.2 0.7 0.1 1.2 0.6 1.9 0.7 0 0-0.1 0.1-0.2 0.1 0 0 0 0-0.1 0 -0.1 0 0 0 0.1 0 0.1 0 0.2 0.2 0.3 0l-0.1 0c-0.1-0.4 0.7-0.3 0.8-0.5 -0.4 0.4 0.5 0.4-0.1 0.9 0.1 0 0.2 0 0.3-0.2 0.1 0.1 0.1 0.2-0.1 0.3 0.5 0.1 0.4-0.2 0.8 0 0 0.1-0.1 0.1-0.2 0.2 0.3-0.1 0.5-0.2 0.8 0.1 0 0 0 0.1-0.1 0.1 0.5 0.2 1.1 0 1.6 0.4 -0.4 0.3 0.1 0.2 0 0.6l0.4 0 0-0.2c0.3 0.1 0.6 0 0.8 0.2l-0.3 0 0.6 0.2 -0.2-0.3c0.4 0 0.2-0.4 0.5-0.1 -0.1 0 0.1 0.2 0.2 0.3 0 0-0.1 0-0.1 0 -0.1-0.1-0.2-0.1-0.3-0.1 0.1 0.1 0.2 0.1 0.3 0.1 0.1 0 0.1 0.1 0.2 0 0 0 0.1 0.1 0.1 0.1 0.2 0 0.4-0.2 0.5 0 0 0.1-0.2 0.3-0.2 0.4 0.3-0.2 0.7 0.2 1 0 -0.1 0-0.2 0.2-0.2 0.3l0.2-0.2c0.1 0.1 0.1 0.2 0 0.3 0.4 0.2 0.1-0.5 0.5-0.1 0 0 0 0-0.1 0 0.4 0.3 1 0.3 1.3 0.6 0 0.4-0.4-0.1-0.4 0.3 0.6 0.2 1.5 0.2 2 0.5l-0.1-0.1c0.3-0.4 0.3 0.4 0.7 0.3 -0.1 0-0.2 0.2-0.2 0.2 0.4 0.3 0.9 0.3 1.6 0.4l-0.1 0.1c0.2 0.2 0.6 0.3 0.8 0.5 0.1-0.1 0.3 0 0.3-0.2 0.5 1.1 1.7 0.3 2.2 1.2 -0.1 0-0.3 0-0.2 0.1l0.7 0.1c0-0.2 0-0.2-0.1-0.4 0.1-0.1 0.3-0.1 0.5-0.1 -0.3 0-0.1 0.3-0.1 0.5 0-0.1 0.1-0.1 0.1-0.2 0.2 0.5 0.2-0.4 0.6 0l-0.1 0.1c0.2 0 0.4-0.1 0.6 0 0 0.3-0.2 0-0.3 0.2 0.3 0.1 0.7-0.3 0.8 0.1 -0.1 0-0.3 0-0.4 0 0.1 0.4 0.2 0.3 0.3 0.5l0.2 0.2c-0.1-0.1-0.1-0.1-0.2-0.2l0 0 0.4 0.3 -0.1-0.1c0.6-0.5 0.7 0.1 1.3-0.1 -0.6 0.2-0.2 0.2-0.3 0.5l0 0 -0.1 0.1c0 0 0.1-0.1 0.1-0.1 0.1 0.1 0.2 0.3 0.1 0.3 0.3-0.1 0.3 0.3 0.7 0.1 0 0.1 0.2 0.1 0.1 0.3 0.3 0 0-0.2 0.1-0.3 0.5-0.1 0.8 0.7 1.5 0.5 0.6 0 0.8-0.3 1.3-0.2 0.1 0.2-0.2 0.3-0.2 0.3 0.2 0.2 0.4 0.3 0.7 0.2 -0.1 0.1 0 0.1 0 0.3 0.2 0 0.2-0.3 0.5-0.1 -0.1 0.1-0.2 0.2-0.3 0.3 0 0-0.1 0-0.1 0 0 0 0-0.1 0-0.1 0 0.1-0.1 0.1-0.1 0.1l0.1 0 0 0c0.1 0 0.1 0 0.1 0 0.3 0 0.5-0.1 0.8-0.1 0 0.2-0.2 0.2-0.3 0.3 0.3 0 0.8 0.1 0.9-0.2l-0.1-0.1c0.1 0 0 0.2-0.1 0.3 -0.3 0.1-0.3-0.2-0.3-0.3l0.2 0c0-0.6-0.7-0.1-1-0.3l0.3-0.3 -0.5 0.2c0-0.1 0-0.4 0.2-0.4 -0.2-0.3-0.3 0.1-0.4-0.2 0 0 0-0.1 0-0.1l-0.3 0c0.1-0.1 0.1-0.3 0.2-0.2 -0.3-0.4-0.8 0-0.8-0.3l0 0c-0.6-0.1-0.2 0.3-0.7 0.4l0-0.8 -0.2 0.3c-0.1 0-0.2-0.1-0.1-0.2 -0.3 0.1 0 0.1-0.2 0.3 -0.2-0.4-0.8-0.2-0.7-0.7 -0.2 0.2 0.2 0.3-0.2 0.3 0.1-0.5-0.4-0.1-0.6-0.4 0.2-0.2 0.4 0 0.2-0.3 -0.3 0.4-0.5-0.3-0.7-0.3 0 0 0-0.1 0.1-0.2 -0.1 0-0.2 0.2-0.3 0.3 0.1-0.1 0.1-0.1 0.2-0.1 -0.1 0.3-0.5-0.1-0.9-0.1 0.1-0.1-0.6-0.5-0.9-0.7l0-0.1c-0.2 0.3-0.5 0.1-0.8 0.1 0.1-0.2 0.2-0.3 0.4-0.3l-0.2-0.1c0 0 0.1-0.1 0.1-0.1l-0.2 0.1 0.1 0c-0.1 0.1-0.2 0.1-0.4 0.1l0.2-0.2c-0.3-0.1-0.8 0-1.1-0.3 -0.1 0.2 0 0.8-0.5 0.8 0-0.1 0.1-0.4 0.3-0.4 0 0-0.2 0-0.2 0l0.3-0.1c-0.1-0.2-0.2 0.1-0.3 0.1 0.1-0.2-0.1-0.2 0-0.3 0 0 0.1 0.1 0.2 0.1 -0.2-0.1-0.3-0.3-0.3-0.5 0 0.1-0.1 0.2-0.2 0.2 -0.3-0.1 0-0.3-0.2-0.4 -0.1 0.1-0.3-0.1-0.4 0.1 -0.1 0-0.1-0.2-0.1-0.3 -0.2 0-0.6-0.3-0.7-0.2l0 0c0 0-0.1 0-0.1 0v0.2 0.1c-1 0-1-0.6-1.6-0.7l0-0.1c-0.4 0-0.7-0.2-1-0.2 -0.1 0-0.1-0.3-0.1-0.3 -0.3 0-0.3 0-0.6-0.3 0.3 0 0-0.2 0.3 0 -0.3-0.2-0.3-0.4-0.7-0.3 0.2-0.2-0.1-0.4-0.3-0.4l0.1 0.3c-0.2 0-0.3-0.1-0.5-0.2l0.2-0.3c-0.5-0.7-1.4 0.1-1.7-0.7 -0.3 0.1 0.3 0.3 0 0.5 -0.3-0.2-0.4-0.8-0.5-0.8 -0.3-0.4-0.6 0.3-1 0 0 0.1-0.1 0.4-0.4 0.4 -0.3-0.2-0.2-0.6 0.1-0.6 0.1 0 0.1 0.1 0.1 0.1 -0.1 0-0.1 0-0.1 0 0.1 0 0.1 0 0.1 0 0.1 0 0.3 0 0.2-0.2l-0.1 0.1c-0.1-0.2-0.5-0.4-0.3-0.5 -0.3 0-0.2 0.1 0 0.3 -0.3-0.3-0.6-0.3-0.9-0.6 0 0 0-0.1-0.1-0.1 0 0 0 0 0.1 0.1 0 0.1 0 0.2 0 0.2 -0.5-0.4-0.3 0.1-0.8 0 -0.1-0.3 0.3-0.4-0.2-0.4 -0.2-0.2 0.1-0.1 0.2-0.1 -0.5 0-0.6-0.3-0.8-0.3h0.2c-0.1 0-0.2-0.3-0.3-0.3l0 0.1c-0.1-0.1-0.2-0.2-0.1-0.3 -0.2 0.1-0.1 0.4-0.4 0.5 -0.1-0.2-0.5-0.1-0.4-0.4 0.4 0.3 0.1-0.3 0.5-0.2 -0.1 0-0.2 0-0.3-0.1 0 0 0-0.1 0.1-0.1 -0.3-0.5-0.4 0.2-0.8 0 0.1-0.1 0-0.4-0.1-0.4 0.2 0.1 0 0.3-0.3 0.4 -0.2-0.3-0.4-0.1-0.5-0.1l0.1 0.1c-0.1 0.1-0.3 0-0.5 0 0-0.1 0.2 0 0.2-0.1 -0.4 0.2-0.4-0.5-0.8-0.5 -0.1-0.2 0.1-0.3 0-0.4 -0.5 0-0.3-0.4-0.7-0.4 0 0.3 0 0.2-0.3 0.3l0.7 0.1 -0.5 0.1c0.2 0.1 0.5 0.1 0.5 0.1 -0.3 0.1-0.2 0-0.2 0.3 -0.1-0.4-0.6 0-0.8-0.4l0.3-0.5c-0.3-0.4-0.9-0.1-1.4-0.5l0.1 0.2c-0.2 0.2-0.4-0.1-0.6-0.1 0.1-0.2 0-0.3 0-0.4 -0.1 0.1-0.4-0.2-0.6 0.1l-0.1-0.4c-0.4-0.3-0.8 0.3-1.2 0 0.2-0.1 0.1-0.4 0.4-0.3 -0.1-0.1-0.3-0.2-0.3 0 0-0.2-0.5 0-0.6-0.2 0 0 0.1 0 0.1 0.1 0 0 0-0.1-0.1-0.1 0 0 0 0 0 0 -0.1 0-0.2 0.2-0.4 0.1 0 0 0-0.1 0-0.1 0 0.1-0.3 0-0.3 0.3 -0.2-0.8-1.3-0.6-1.4-1.2l0.1 0 -0.1-0.1c0 0 0 0 0 0.1 -0.3-0.1-0.8-0.2-1.1-0.4 0 0 0-0.1 0.1 0 -0.3-0.4-0.5 0.4-0.9 0 -0.1-0.4 0.3 0 0.2-0.2 0.2-0.6-0.6-0.2-0.7-0.7l0.1 0c-0.1-0.3-0.7-0.1-1-0.3 0 0 0 0 0-0.1 -0.4 0.2-1 0-1.4-0.1 0.2-0.2 0.2 0 0.3-0.3 -0.2 0-0.1 0.4-0.5 0.3 0-0.2-0.2-0.4-0.1-0.7l0.3 0.1c0-0.4-0.4-0.2-0.5-0.3l0.2-0.1c-0.5-0.2-1.1 0.2-1.1-0.1v0.1c-1 0.2-0.2-0.3-0.6-0.2l0-0.4c-0.2 0-0.8 0-1.2-0.1 0.3-0.2 0.8-0.1 1.1-0.2 -0.2-0.1-0.6-0.3-0.8-0.2 0.1 0 0.2 0 0.3 0.1 -0.4 0.2-0.7 0.2-1.1 0 0.2-0.3-0.1-0.5-0.2-0.6 -0.1-0.1-0.2-0.3 0-0.5 -0.5-0.3-0.3-1.1-0.6-1.8 -0.5 0.4-0.1-0.2-0.7 0 -0.1-0.2-0.1-0.3-0.1-0.4 0 0 0-0.1 0-0.1h0l0.2-0.5c0.1-0.2 0.2 0.2 0.3 0.2 0-0.4 0.2-0.2 0.3-0.5 -0.2 0.1-0.3-0.1-0.3-0.3l-0.2 0.4c-0.4-0.5 0.4-0.6 0-1.1l0.2 0.2c-0.2-0.3-0.2-1.1-0.7-1.3 0.1-0.1 0.2-0.2 0.3 0 0-0.7-0.7-1.5-0.5-2.1l0.2 0c-0.1-0.1-0.3-0.2-0.2-0.4 0.1 0 0.2 0 0.2 0 -0.1-0.1-0.3-0.3-0.2-0.5l0.2 0.1c0.1-0.7-0.5-1.1-0.7-1.6 0.4 0 0.5-0.6 0.6-0.9l0.1 0c0-0.8-0.5-1.4-0.7-2.1 0.4-0.5 0.1-1.6 0.3-2.4 -0.1 0.1-0.3 0-0.4-0.1 0.1-0.2-0.3-0.5 0.1-0.5l0 0.1c0.4-0.2 0.3-0.5 0.3-0.8l-0.5 0c0.7-0.8-0.4-2 0.3-2.4 -0.1-0.2-0.1-0.4-0.3-0.6l0.3 0c0.1-0.5 0.1-0.8 0-1.4l0.2 0.1c0-0.4-0.8-0.4-0.9-0.7l0.4-0.1c0-0.5 0.2-1 0.1-1.5 0 0 0 0.1 0 0.1 0 0 0 0 0 0 0 0 0-0.2 0-0.2 0 0 0-0.2 0-0.2 0 0-0.1 0-0.1 0 0.1 0.1 0.1 0.2 0.1 0.3 0-0.1-0.1-0.2-0.1-0.2 0 0 0-0.1 0.1-0.1 -0.1 0-0.2 0-0.3 0 0.1-0.3 0.3-1-0.3-0.9 0.4 0 0.1-0.6-0.1-1l0.3 0.1c-0.1-0.1-0.1-0.1-0.2-0.1 0.1 0 0.3 0.1 0.4 0.1 0 0 0.1 0.2 0.1 0.2h-0.3c0.2 0 0.5 1.1 0.2 1.1 0.4-0.1 0.4-0.1 0.4 0.5C266.4 348.1 286.9 332 286.9 312.3zM281.1 390.4c-0.4-0.5 0 0.3-0.5 0l0.4 0.2C281 390.6 280.9 390.4 281.1 390.4zM279.5 389.6c-0.2 0-0.2 0-0.1 0.2C279.6 389.8 279.5 389.7 279.5 389.6zM272.8 387c-0.1 0.1 0.1 0.1 0.2 0.2L272.8 387zM270.3 385.8l0.1-0.2C270.2 385.5 270.4 385.7 270.3 385.8zM267.5 384.1l0.2 0h0.1L267.5 384.1zM262 381.2l0 0C262.1 381.2 262.1 381.2 262 381.2zM252.6 377l-0.1 0.3C252.6 377.3 252.8 377 252.6 377zM245.6 373.9c0.1 0.1 0.2 0.3 0.3 0.3C245.9 374 245.8 373.8 245.6 373.9zM241.2 355l0 0.1 0.1 0.1L241.2 355zM242.1 370.2c0.1-0.1 0.5 0.3 0.6-0.1C242.5 370.4 242.3 369.8 242.1 370.2zM194 391.6l0.1-0.1 -0.1 0C194 391.6 194 391.6 194 391.6zM195.7 391.1c0-0.2 0.4 0.1 0.5-0.1 -0.1 0-0.4-0.1-0.5 0L195.7 391.1zM210.2 385.2l0.2-0.2 -0.2-0.1L210.2 385.2zM213 384.1c0-0.1 0.1-0.1 0.1-0.2 0.1 0 0.2 0 0.3-0.1 -0.1 0-0.2 0-0.3 0.1C213 383.9 212.9 383.9 213 384.1zM323 187.3c0 1.7 1.3 3 3 3s3-1.3 3-3 -1.3-3-3-3S323 185.7 323 187.3zM341.2 182.9c2.5 3.1 4 7 4 11.2 0 9.8-7.8 17.7-17.5 17.7 -9.7 0-17.5-7.9-17.5-17.7 0-7.1 4.2-13.2 10.2-16 -8.6 1.3-13.9 6.5-14.8 19 -1.4 18.6 10.6 9.8 22.2 17.3 14.5 9.5 21.9-4.2 24-12.8C353.2 195.2 348.4 187.8 341.2 182.9zM240.5 342.9c0 0 0 0 0 0 0 0 0 0 0 0C240.5 342.9 240.5 342.9 240.5 342.9zM239.3 362.8c0-0.1 0-0.2 0.1-0.4 0 0-0.1 0-0.1 0C239.3 362.6 239.3 362.7 239.3 362.8zM240.3 341.7c0 0 0 0 0 0l0 0C240.3 341.7 240.3 341.7 240.3 341.7zM240.8 341.8c0 0 0 0-0.1 0 0 0 0 0.1 0 0.1 0 0 0 0.1 0 0.1C240.8 341.9 240.8 341.9 240.8 341.8zM238.9 348.2l0.1 0.1c0.3-0.4-0.5-0.4-0.4-0.8l0.1 0.1c0.1-0.2 0.1-0.6 0.1-0.9 -0.1 0-0.2 0-0.4 0 0 0.3 0 0.6-0.1 0.8l-0.1-0.1c-0.1 0.4 0.6 0.5 0.3 0.9l0-0.1c0 0.2 0 0.3 0 0.5 0.2 0 0.3 0 0.5 0C238.9 348.5 238.9 348.4 238.9 348.2zM240.3 343c-0.1 0.1-0.1 0.2 0 0.4C240.3 343.3 240.3 343.2 240.3 343zM238.4 345.4c0 0 0 0 0 0 -0.1-0.1-0.4 0.1-0.3-0.1 0.1 0.1 0.2 0 0.2 0l-0.3-0.3c0.1-0.3 0.2-0.6 0.2-0.9H238v-9.8c-0.1 0-0.1-0.1-0.1-0.2 0 0 0 0 0.1 0.1 0 0 0 0 0-0.1 0 0 0 0.1 0.1 0.1V333v-2.6c0 0 0 0 0 0 0 0 0 0 0 0V289.3c-1.1-1.4-7-8-15.7-4.1 -0.2 0.1-13.7 5.1-15.5 13.2 -0.7 3.2 0.6 6.6 3.8 10 2.3-1.8 5.3-2.9 8.7-2.9 7.1 0 12.8 4.9 12.8 10.8s-5.8 10.8-12.8 10.8 -12.8-4.9-12.8-10.8c0-2.5 1-4.8 2.7-6.6 -0.1-0.1-0.4-0.4 0 0 -3.7-3.9-5.2-7.9-4.3-11.8 2-9.1 16.1-14.4 16.7-14.6 8.9-4 15.4 1.8 17.5 4.1 2.4-2.2 10-8.2 18.9-4.1 0.5 0.2 14 5.3 16 14.4 0.8 3.6-0.4 7.2-3.4 10.8 0.3-0.3 0.2-0.1 0 0 2.4 2 3.9 4.7 3.9 7.7 0 6-5.8 10.8-12.8 10.8 -7.1 0-12.8-4.9-12.8-10.8s5.8-10.8 12.8-10.8c2.7 0 5.2 0.7 7.3 1.9 2.7-3.2 3.7-6.3 3.1-9.2 -1.7-8-14.7-12.9-14.8-12.9 -8.6-3.9-15.8 2.7-17.2 4.1v36.6c0.2 0 0.4 0.4 0.5 0.6 0 0.2 0 0.3-0.1 0.3 -0.1 0.1-0.3 0.1-0.4 0.1v0.5l0.1 0.4h0l0-0.1L240 327.8v0.1c0 0 0.1 0 0.1 0 0 0 0 0-0.1 0v0.7l0.1-0.1c0 0 0 0 0 0l0 0c0.3 0.4 0 0.7-0.2 1v0.7l0.3 0.3L240 330.7v0.1c0.2 0.2 0.4 0.2 0.3 0.6 -0.5 1.3 0.1 2.6-0.2 3.9 0 0 0.1-0.1 0.1-0.1 0 0 0 0.1 0 0.1 0 0 0 0 0.1-0.1 -0.1 0.1-0.1 0.2-0.2 0.3v0.6c0.2 0.6 0.7 1.1 0.4 1.8l0 0c0 0 0 0 0 0l-0.1 0c0 0.2 0 0.2 0 0.2 0 0.1-0.1 0-0.1 0 0 0 0 0-0.1 0.1v0.1c0.3 0.1 0.3 0.6 0.4 0.9 -0.1 0-0.1-0.1-0.1-0.2 0 0 0 0 0 0 0 0.1 0 0.2 0.1 0.3 -0.1 0-0.1-0.1-0.1-0.2 -0.1 0-0.2 0.1-0.2 0.2 0.5 0.3 0.5 1 0.7 1.6 -0.2 0.1-0.4 0.4-0.7 0.7v0.2c0.1 0 0.2 0.1 0.2 0.1 0 0 0 0 0 0 0 0 0 0 0 0 0 0 0 0 0 0 0-0.1 0-0.1 0-0.1 0.1-0.1 0.2-0.1 0.2-0.1 0.1-0.1 0.2 0.1 0.4 0 0 0.2 0.1 0.5-0.1 0.6 0 0.1 0 0.2-0.1 0.3 0 0.1 0.1 0.1 0 0.2l0 0c0 0-0.1 0-0.1 0 -0.1 0.3 0.3 0.8 0.5 1.1 -0.1-0.1-0.2-0.1-0.3-0.1 0 0.1 0.1 0.1 0.1 0.1 -0.1-0.1-0.1-0.1-0.2-0.1 -0.1 0.1-0.1 0.1-0.3 0.1 0 0 0 0 0-0.1 0 0-0.1 0-0.1 0.1 0 0.1 0.1 0.3 0 0.5 0 0-0.1-0.1-0.2-0.1 -0.1 0.2 0.1 0.4 0.3 0.4 -0.3 0.1-0.4 0.5-0.3 0.7 0.2 0.2 0.3 0.1 0.3 0.5l-0.2-0.1c-0.1 0.3 0.2 0.3 0.1 0.5 0 0-0.1 0-0.2 0 0.1 0.3 0.2 0.4 0.5 0.6 24.4-0.4 44.1-15.7 44.1-34.3 0-18.9-20.3-34.3-45.2-34.3s-45.2 15.4-45.2 34.3c0 18.6 19.6 33.8 44 34.3 0-0.4-0.2-0.8-0.3-1.1C238.2 345.6 238.3 345.6 238.4 345.4zM251.8 316.3c0 4.3 4.4 7.8 9.8 7.8 5.4 0 9.8-3.5 9.8-7.8s-4.4-7.8-9.8-7.8C256.2 308.5 251.8 312 251.8 316.3z"/></svg>
