<svg xmlns="http://www.w3.org/2000/svg" viewBox="0 0 462 246"><path d="M444.4 7H18.4C11.5 7 6 11.9 6 18.7v207.8C6 233.2 11.5 240 18.4 240h426.1c6.8 0 12.6-6.8 12.6-13.6V18.7C457 11.9 451.3 7 444.4 7zM442 226H19V22h423V226zM19 22v204h423V22H19zM66.7 187.4C61.4 178.6 51 174.8 42 177V68.1c9 2.2 19.4-1.1 24.7-9.9C71.4 50.4 71.6 41 67.2 35h326.5c-4.4 6-5.3 15.4-0.6 23.2C398.3 66.8 408 70.1 416 68.3v108.6c-8-1.8-17.7 1.9-22.9 10.5 -4.7 7.8-3.7 18.6 0.6 23.6H67.2C71.6 206 71.4 195.1 66.7 187.4zM73.9 120.9c0-13.9 11.3-25.2 25.2-25.2 13.9 0 25.2 11.3 25.2 25.2 0 13.9-11.3 25.2-25.2 25.2C85.2 146.1 73.9 134.8 73.9 120.9zM361.8 146.1c-13.9 0-25.2-11.3-25.2-25.2 0-13.9 11.3-25.2 25.2-25.2 13.9 0 25.2 11.3 25.2 25.2C387.1 134.8 375.7 146.1 361.8 146.1zM176.6 123.1c0-39.5 24.1-71.5 53.9-71.5 29.8 0 53.9 32 53.9 71.5 0 39.5-24.1 71.5-53.9 71.5C200.7 194.6 176.6 162.6 176.6 123.1zM234 185v-16.4c15-2.4 23.2-13 23.2-24.3 0-12.7-7.1-20.2-21.9-26.2 -12.5-5.2-17.6-8.9-17.6-16.3 0-5.7 4.2-12.3 15.3-12.3 9.2 0 15.1 3.2 18.1 4.9l3.6-9.4c-4.2-2.4-10.6-4.7-18.6-5V66h-9v14.5c-13 2.1-21.5 11.2-21.5 23 0 12.5 9.1 19 23.7 24.8 10.6 4.3 16.2 9.2 16.2 17 0 8.2-6.9 14-17 14 -8 0-15.5-2.7-20.6-6.2l-3 9.6c5 3.6 14.3 6.2 22.3 6.3V185H234z"/></svg>
