<svg xmlns="http://www.w3.org/2000/svg" viewBox="0 0 484.3 96.3"><path d="M449.7 27.4c0 0-30.7 11.1-41 11.8 0 0-18.9 0.5-53.6-4.5H127.3c-34.7 5-53.6 4.5-53.6 4.5 -10.3-0.7-41-11.9-41-11.9C-2 16.3 6 8 6 8c6.3-3 49.7 13 49.7 13 15.6 7 34.9 7 34.9 7 29.9-3.8 38.7-4 38.7-4 12.3 1 121.9 0.5 121.9 0.5 31.3 0.2 89.2-0.1 102 0.4 0 0 37.9 3.8 40.9 3.1 0 0 15.3 0.7 32.6-7 0 0 43.3-16 49.7-13C476.3 8 484.3 16.4 449.7 27.4zM389.2 45l-3.6 8.5c-0.9-0.1-2.2-0.6-3.6-1.2 -0.6 1.8-1.7 4.4-3.6 7 5.1 3 8.5 8.6 8.5 14.9 0 9.6-7.8 17.3-17.3 17.3s-17.3-7.8-17.3-17.3c0-2.8 0.7-5.5 1.9-7.8 -3.1 0.6-5.8-0.7-2.7-5.9l-0.9-2.6c-0.7-0.4-1.2-1.2-1.2-2.1 0-0.3 0.1-0.5 0.1-0.8l-3.5-9.5c-0.9-6.6 4.7-5.8 11.3-5.8H377C392.3 38.7 392.3 39.2 389.2 45zM362 58.7c0 0 0 0 0 0h-2.4l-1.7 2.9C359 60.4 360.4 59.4 362 58.7zM362.4 53.2c1.2 0.2 2 1.5 2 2.7 0 0.8-0.4 1.5-0.9 2.1 1.9-0.7 4-1.1 6.2-1.1 0.2 0 0.4 0 0.5 0 1.2-1.3 4.4-4.9 6.1-7.5 -4.1-2-8-3.7-9.4-1.9l-3.2 3.4L362.4 53.2zM376.7 75.5c0-3.9-3.1-7-7-7s-7 3.1-7 7 3.1 7 7 7S376.7 79.4 376.7 75.5zM137.5 46.4l-3.5 9.5c0.1 0.2 0.1 0.5 0.1 0.8 0 0.9-0.5 1.7-1.2 2.1l-0.9 2.6c3.3 5.7-0.2 6.6-3.6 5.7l0 0c1 2.2 1.5 4.6 1.5 7.1 0 9.6-7.8 17.3-17.3 17.3s-17.3-7.8-17.3-17.3c0-6.5 3.6-12.2 9-15.2 -1.4-2.2-2.2-4.2-2.7-5.7 -1.4 0.6-2.6 1.1-3.6 1.2l-3.6-8.5c-3.1-5.8-3.1-6.3 12.2-5.3h19.6C132.8 40.7 138.4 39.8 137.5 46.4zM119.7 75.5c0-3.9-3.1-7-7-7s-7 3.1-7 7 3.1 7 7 7S119.7 79.4 119.7 75.5zM121.2 54.2l-1.4-2.4 -3.2-3.4c-1.4-1.8-5.3-0.2-9.4 1.9 1.3 2.1 3.7 4.8 5.2 6.5 0.1 0 0.1 0 0.2 0 2.4 0 4.8 0.5 6.9 1.4 -0.2-0.4-0.4-0.9-0.4-1.3C119.2 55.7 120 54.4 121.2 54.2zM126.5 63.7l-2.4-4h-1.9C123.8 60.8 125.3 62.1 126.5 63.7zM112.7 72.5c-1.8 0-3.3 1.5-3.3 3.3s1.5 3.3 3.3 3.3S116 77.7 116 75.8 114.5 72.5 112.7 72.5zM369.7 72.5c-1.8 0-3.3 1.5-3.3 3.3s1.5 3.3 3.3 3.3S373 77.7 373 75.8 371.5 72.5 369.7 72.5z"/></svg>
