<?xml version="1.0" encoding="utf-8"?>
<!-- Generator: Adobe Illustrator 16.0.0, SVG Export Plug-In . SVG Version: 6.00 Build 0)  -->
<!DOCTYPE svg PUBLIC "-//W3C//DTD SVG 1.1//EN" "http://www.w3.org/Graphics/SVG/1.1/DTD/svg11.dtd">
<svg version="1.1" id="brief-case" xmlns="http://www.w3.org/2000/svg" xmlns:xlink="http://www.w3.org/1999/xlink" x="0px" y="0px"
	 width="423.25px" height="396.25px" viewBox="0 0 423.25 396.25" enable-background="new 0 0 423.25 396.25" xml:space="preserve">
<g id="case">
	<path id="case_x5F_body" d="M410.032,60.25H14.972c-6.748,0-13.222,5.517-13.222,12.938v300.123
		c0,7.421,6.474,13.938,13.222,13.938h395.061c6.747,0,11.718-6.518,11.718-13.938V73.188
		C421.75,65.767,416.779,60.25,410.032,60.25z M149.75,189.324l-77.894,29.325l77.894,29.05v16.771l-97-38.307v-15.212l97-38.306
		V189.324z M184.593,295.25H167.09l72.121-155h17.411L184.593,295.25z M375.75,226.163l-97,38.307v-16.771l77.895-29.05
		l-77.895-29.325v-16.679l97,38.306V226.163z"/>
	<path id="left_x5F_lock" d="M107.417,57.25c0.966,0,1.795,0.289,2.529,0.442c-1.526-2.825-3.881-4.442-6.529-4.442h-8.333
		c-2.648,0-5.002,1.617-6.529,4.442c0.733-0.153,1.562-0.442,2.529-0.442H107.417z"/>
	<path id="left_x5F_latch" d="M64.067,59.25h9.366c0.728,0,1.317-0.589,1.317-1.317v-0.366c0-0.728-0.589-1.317-1.317-1.317h-9.366
		c-0.728,0-1.317,0.589-1.317,1.317v0.366C62.75,58.661,63.339,59.25,64.067,59.25z"/>
	<path id="right_x5F_lock" d="M332.416,57.25c0.967,0,1.796,0.289,2.529,0.442c-1.526-2.825-3.881-4.442-6.529-4.442h-8.332
		c-2.648,0-5.003,1.617-6.529,4.442c0.733-0.153,1.562-0.442,2.529-0.442H332.416z"/>
	<path id="right_x5F_latch" d="M350.066,59.25h9.367c0.727,0,1.316-0.589,1.316-1.317v-0.366c0-0.728-0.59-1.317-1.316-1.317h-9.367
		c-0.727,0-1.316,0.589-1.316,1.317v0.366C348.75,58.661,349.34,59.25,350.066,59.25z"/>
	<rect id="left_x5F_hinge" x="32.75" y="388.25" width="21" height="2"/>
	<path id="left_x5F_leg" d="M23.415,394.25c2.961,0,5.388-2.756,5.645-5H17.77C18.026,391.494,20.454,394.25,23.415,394.25z"/>
	<rect id="right_x5F_hinge" x="369.75" y="388.25" width="21" height="2"/>
	<path id="right_x5F_leg" d="M400.086,394.25c2.961,0,5.389-2.756,5.645-5h-11.29C394.697,391.494,397.125,394.25,400.086,394.25z"
		/>
	<path id="handle" d="M151.75,51.25h1.175l0.001,2h19.394c-0.067-0.627-0.57-1.273-0.57-1.958V51.25h2v6h3v-9h-4.587l-0.013-12
		c0.39-8.041,9.255-13.833,17.756-14l25.844,0.375l25.844-0.375c8.501,0.167,17.366,5.959,17.756,14l-0.013,12h-4.587v9h3v-6h2
		v0.042c0,0.685-0.503,1.331-0.57,1.958h19.395l0.002-2h1.174v6h3v-9h-4.172l0.016-20.222C278.049,13.317,265.643,3.25,253.747,2.25
		H215.75h-37.997c-11.896,1-24.302,11.067-24.846,25.778l0.016,20.222h-4.172v9h3V51.25z"/>
</g>
</svg>
