<?xml version="1.0" encoding="utf-8"?>
<!-- Generator: Adobe Illustrator 16.0.0, SVG Export Plug-In . SVG Version: 6.00 Build 0)  -->
<!DOCTYPE svg PUBLIC "-//W3C//DTD SVG 1.1//EN" "http://www.w3.org/Graphics/SVG/1.1/DTD/svg11.dtd">
<svg version="1.1" id="camera_x5F_body" xmlns="http://www.w3.org/2000/svg" xmlns:xlink="http://www.w3.org/1999/xlink" x="0px"
	 y="0px" width="491.333px" height="354.667px" viewBox="0 0 491.333 354.667" enable-background="new 0 0 491.333 354.667"
	 xml:space="preserve">
<g>
	<path d="M485,115.335c-3.335-8.583-13.833-20.083-24.583-21.083l-0.066-0.006c1.806-1.776,3.075-4.126,3.464-6.827l0.143-0.99
		c0.945-6.56-3.606-12.644-10.166-13.588l-30.683-4.421c-6.56-0.945-12.644,3.606-13.589,10.166l-0.143,0.99
		c-0.417,2.89,0.236,5.687,1.655,7.993c-16.171-5.672-28.812-17.858-33.365-41.816c0,0-6.507-41.02-56.75-40.582l-28.125-0.668
		c0,0-42-2.75-63.875,11.5c0,0-16.75,13.375-29.031,48.969c0,0-1.584,5.426-7.776,10.922c0.129-0.969,0.165-1.967,0.067-2.987
		l-0.887-9.284c-0.653-6.836-6.455-12.229-12.917-11.611l-65.328,6.24c-6.462,0.617-10.672,6.965-10.019,13.802l0.887,9.284
		c0.405,4.239,2.6,7.801,5.748,9.752c-3.15,0.609-6.171,1.316-8.951,2.136c-2.431-2.293-5.753-4.324-9.761-5.973
		c-3.406,4.262-14.227,8.265-27.363,9.712c-16.289,1.793-29.965-1.022-30.569-6.292c-4.245,2.835-6.963,6.249-7.557,9.956
		l-2.751,0.041C10,101.667,2.624,129.292,3,140.502c1.663,163.509,1.427,161.141,2.792,176.5c1.157,13.023,4.188,33.25,19.5,33.25
		l439.375,0.875c7.25,0,21.5-10.25,21.125-17C485.792,334.126,492.19,133.84,485,115.335z M63.667,316.251
		c0,2.623-2.126,4.75-4.75,4.75h-0.5c-2.624,0-4.75-2.127-4.75-4.75v-156.5c0-2.624,2.126-4.75,4.75-4.75h0.5
		c2.624,0,4.75,2.126,4.75,4.75V316.251z M294.167,325.501c-64.894,0-117.5-52.606-117.5-117.5s52.606-117.5,117.5-117.5
		s117.5,52.606,117.5,117.5S359.06,325.501,294.167,325.501z"/>
	<path d="M292.167,148.501c-33.966,0-61.5,27.535-61.5,61.5c0,33.966,27.534,61.5,61.5,61.5s61.5-27.534,61.5-61.5
		C353.667,176.036,326.132,148.501,292.167,148.501z M292.167,230.501c-10.77,0-19.5-8.73-19.5-19.5s8.73-19.5,19.5-19.5
		s19.5,8.73,19.5,19.5S302.936,230.501,292.167,230.501z"/>
	<path d="M62.346,89.989c10.335-0.77,18.823-3.023,20.587-5.304c-5.331-1.29-11.332-2.018-17.683-2.018
		c-9.239,0-17.739,1.538-24.503,4.112c-0.003,0.046-0.025,0.093-0.021,0.139C40.916,89.489,50.596,90.864,62.346,89.989z"/>
</g>
</svg>
