<?xml version="1.0" encoding="utf-8"?>
<!-- Generator: Adobe Illustrator 16.0.0, SVG Export Plug-In . SVG Version: 6.00 Build 0)  -->
<!DOCTYPE svg PUBLIC "-//W3C//DTD SVG 1.1//EN" "http://www.w3.org/Graphics/SVG/1.1/DTD/svg11.dtd">
<svg version="1.1" id="Gcap" xmlns="http://www.w3.org/2000/svg" xmlns:xlink="http://www.w3.org/1999/xlink" x="0px" y="0px"
	 width="344px" height="426.25px" viewBox="0 0 344 426.25" enable-background="new 0 0 344 426.25" xml:space="preserve">
<text transform="matrix(1 0 0 1 44.875 418.0264)" font-family="'HelveticaNeue'" font-size="424.231">G</text>
<g>
	<path d="M173.896,40.686L162.6,59.777l-32.465,54.868l-63.235,8.104l-22.088,2.831l35.175,47.257
		c4.202-7.735,8.999-14.975,14.402-21.713c12.018-14.987,27.005-26.939,44.968-35.848c17.957-8.909,38.957-13.363,62.999-13.363
		c3.801,0,7.547,0.114,11.25,0.319L173.896,40.686z"/>
	<path d="M31.375,184.625c0-2.67-1.399-5.008-3.5-6.337v-50.894l-8,1.025v49.869c-2.101,1.329-3.5,3.667-3.5,6.337
		c0,2.686,1.417,5.036,3.539,6.361c-1.246,1.055-2.039,2.628-2.039,4.389v28.25c0,3,12,3,12,0v-28.25
		c0-1.761-0.793-3.334-2.039-4.389C29.958,189.662,31.375,187.312,31.375,184.625z"/>
	<polygon points="127.492,110.628 159.955,55.76 192.419,0.892 129.184,8.997 65.949,17.101 33.484,71.968 1.02,126.835 
		64.257,118.732 	"/>
</g>
</svg>
