<?xml version="1.0" encoding="utf-8"?>
<!-- Generator: Adobe Illustrator 16.0.0, SVG Export Plug-In . SVG Version: 6.00 Build 0)  -->
<!DOCTYPE svg PUBLIC "-//W3C//DTD SVG 1.1//EN" "http://www.w3.org/Graphics/SVG/1.1/DTD/svg11.dtd">
<svg version="1.1" id="head" xmlns="http://www.w3.org/2000/svg" xmlns:xlink="http://www.w3.org/1999/xlink" x="0px" y="0px"
	 width="483px" height="426px" viewBox="0 0 483 426" enable-background="new 0 0 483 426" xml:space="preserve">
<g>
	<path d="M268.989,307.449l-0.017-0.012C268.777,307.668,268.883,307.564,268.989,307.449z"/>
	<path d="M268.99,307.448C268.989,307.449,268.989,307.449,268.99,307.448l1.63,1.139C270.115,308.17,269.57,307.79,268.99,307.448z
		"/>
	<path d="M219.333,324.167c5.422,0,9.833-3.515,9.833-7.834s-4.411-7.834-9.833-7.834s-9.833,3.515-9.833,7.834
		S213.911,324.167,219.333,324.167z"/>
	<path d="M209.166,309.748l1.477-1.363C210.105,308.804,209.612,309.258,209.166,309.748z"/>
	<path d="M239.569,363.407c0.019,0.048,0.038,0.095,0.052,0.145c0.033-0.051,0.076-0.093,0.141-0.105
		C239.683,363.385,239.625,363.399,239.569,363.407z"/>
	<path d="M240.479,348.65c-0.043-0.024-0.091-0.038-0.125-0.045c0.009,0.016,0.013,0.031,0.021,0.047
		C240.41,348.652,240.444,348.651,240.479,348.65z"/>
	<path d="M477,180.5c-1.332-42.5-29-73-29-73c-8.125-6-24.75-7.5-24.75-7.5C376.25,37.75,358,37.5,358,37.5
		c-7.483-2.482-22.25,0.25-22.25,0.25C282.25,11.25,240.5,8.5,240.5,8.5s-41.75,2.75-95.25,29.25c0,0-14.767-2.732-22.25-0.25
		c0,0-18.25,0.25-65.25,62.5c0,0-16.625,1.5-24.75,7.5c0,0-27.667,30.5-29,73c-0.539,17.187,32,87.375,49.5,103
		c2.667,2.381-2,52.75,7.5,54.5c0,0,16.5,0.5,22-146.5c0,0,1.499,79.166,29.666,123.166c21.115,50.002,9.735,55.79,45.834,88.834
		c31.498,28.833,39.498,6.833,82,15c42.502-8.167,50.502,13.833,82-15c36.099-33.044,24.719-38.832,45.834-88.834
		C396.501,270.666,398,191.5,398,191.5c5.5,147,22,146.5,22,146.5c9.5-1.75,4.833-52.119,7.5-54.5
		C445,267.875,477.539,197.687,477,180.5z M155,184.333c1.657,0,3,1.343,3,3s-1.343,3-3,3s-3-1.343-3-3S153.343,184.333,155,184.333
		z M153.333,214.5c-14.5,9.5-21.92-4.236-24-12.833c-1.555-6.428,3.263-13.9,10.5-18.742c-2.499,3.055-4,6.971-4,11.242
		c0,9.757,7.835,17.667,17.5,17.667s17.5-7.91,17.5-17.667c0-7.116-4.177-13.233-10.183-16.032
		c8.565,1.256,13.938,6.504,14.849,19.032C176.855,215.812,164.851,206.954,153.333,214.5z M192.85,392.315
		c-0.115,0.055-0.151-0.146-0.1-0.23l0.159-0.109L192.85,392.315z M193.657,392.553c-0.002-0.062,0.025-0.156-0.04-0.217
		c-0.175,0.259-0.42,0.306-0.607,0.057c0.043-0.216,0.198-0.064,0.235-0.166c0,0.124,0.124,0.244,0.249,0.177
		c0.082-0.407,0.146-0.286,0.214-0.627C193.88,392.049,193.782,392.36,193.657,392.553z M193.862,391.798
		c0.01-0.087,0.071-0.096,0.118-0.109L193.862,391.798z M198.381,391.719c0.181-0.099,0.031-0.197-0.082-0.27l0.446-0.089
		C198.184,391.537,199.026,391.814,198.381,391.719z M200.164,391.192c-0.012-0.061-0.278-0.069-0.074-0.206
		C200.292,391.006,200.268,391.043,200.164,391.192z M206.43,388.058c0.11-0.022,0.218-0.101,0.248,0.004L206.43,388.058z
		 M209.338,387.225l-0.084-0.243C209.298,387.134,209.491,387.114,209.338,387.225z M212.167,386.237l0.058-0.066l0.183-0.146
		L212.167,386.237z M227.162,378.645l0.187,0.259C227.204,379.079,227.074,378.749,227.162,378.645z M233.716,375.441
		c0.057-0.072,0.256-0.034,0.412-0.086C234.083,375.549,233.856,375.549,233.716,375.441z M268.09,386.441l-0.097-0.219l0.272,0.042
		L268.09,386.441z M282.658,392.751c-0.19-0.001-0.308-0.251-0.42-0.317c0.173-0.119,0.332,0.36,0.463,0.247L282.658,392.751z
		 M284.485,393.302l-0.061-0.03l0.081-0.011C284.498,393.27,284.49,393.283,284.485,393.302z M284.586,393.249l0.167-0.024
		C284.698,393.292,284.637,393.265,284.586,393.249z M285.586,393.137c0.046-0.115-0.031-0.28-0.177-0.274
		c-0.257,0.33-0.269,0.191-0.515,0.461c-0.034-0.319,0.233-0.547,0.426-0.668c-0.024,0.057-0.094,0.13-0.059,0.213
		c0.289-0.15,0.488-0.09,0.663,0.177C285.82,393.241,285.642,393.07,285.586,393.137z M286.25,393.415l-0.268,0.064l0.135-0.319
		C286.277,393.139,286.299,393.328,286.25,393.415z M241.059,348.638c0.04-0.625,0.057-0.602-0.361-0.514
		c0.378-0.018,0.019-1.124-0.156-1.124h0.279c-0.042,0-0.07-0.189-0.105-0.215c-0.137,0.002-0.274-0.062-0.412-0.061
		c0.049,0.039,0.097,0.041,0.16,0.095l-0.277-0.077c0.158,0.34,0.48,0.975,0.103,0.972c0.532-0.082,0.332,0.598,0.276,0.939
		c0.103-0.001,0.204-0.007,0.306-0.009c-0.019-0.034-0.03,0.109-0.054,0.075c0.04,0.006,0.099,0.146,0.143,0.225
		c-0.021-0.101-0.036-0.202-0.089-0.302c0.044-0.001,0.088-0.001,0.132-0.002c0.005,0.009,0.018,0.189,0.02,0.201
		c0-0.006,0.002,0.158,0.002,0.158c-0.008,0-0.015,0-0.021,0c-0.01,0-0.025-0.023-0.043-0.056c0.099,0.479-0.084,0.97-0.062,1.452
		l-0.419,0.113c0.028,0.327,0.866,0.39,0.86,0.745l-0.207-0.121c0.092,0.626,0.066,0.881,0.015,1.393l-0.283,0.002
		c0.14,0.176,0.147,0.403,0.287,0.581c-0.671,0.446,0.436,1.629-0.293,2.426l0.529,0.021c0.004,0.291,0.13,0.656-0.259,0.813
		l0.005-0.064c-0.404-0.007,0.006,0.291-0.073,0.477c0.053,0.135,0.323,0.257,0.396,0.135c-0.225,0.786,0.123,1.911-0.319,2.421
		c0.225,0.761,0.686,1.311,0.696,2.143l-0.062-0.005c-0.05,0.286-0.143,0.857-0.582,0.895c0.154,0.591,0.791,0.915,0.667,1.642
		l-0.183-0.137c-0.068,0.188,0.17,0.456,0.229,0.522c-0.003,0.063-0.095,0.026-0.157,0.024c-0.132,0.186,0.116,0.261,0.174,0.392
		l-0.154-0.039c-0.242,0.601,0.458,1.419,0.48,2.144c-0.062-0.127-0.218-0.035-0.28,0.028c0.526,0.229,0.528,1.043,0.69,1.319
		l-0.219-0.152c0.412,0.521-0.427,0.584-0.002,1.098l0.217-0.384c-0.042,0.248,0.092,0.408,0.295,0.313
		c-0.107,0.295-0.362,0.076-0.328,0.488c-0.133,0.047-0.149-0.326-0.298-0.158L242.081,370h0.002c-0.001,0-0.003,0.114-0.004,0.117
		c-0.028,0.029-0.026,0.21,0.055,0.376c0.583-0.19,0.145,0.448,0.654,0.029c0.223,0.717,0.071,1.542,0.569,1.824
		c-0.218,0.219-0.116,0.392,0.023,0.48c0.176,0.117,0.458,0.31,0.236,0.627c0.361,0.187,0.726,0.195,1.087,0.028
		c-0.046-0.091-0.178-0.05-0.268-0.052c0.182-0.128,0.64,0.06,0.822,0.152c-0.317,0.038-0.757-0.019-1.075,0.151
		c0.365,0.097,0.979,0.067,1.206,0.073l-0.038,0.396c0.407-0.122-0.352,0.401,0.648,0.189v-0.132c0,0.277,0.576-0.072,1.076,0.116
		l-0.194,0.13c0.137,0.136,0.543-0.076,0.545,0.322l-0.317-0.14c-0.09,0.264,0.095,0.489,0.141,0.667
		c0.362,0.097,0.314-0.348,0.496-0.3c-0.043,0.267-0.044,0.133-0.271,0.305c0.41,0.099,0.955,0.242,1.362,0.073
		c-0.001,0.044-0.045,0.087-0.045,0.087c0.363,0.229,0.906-0.025,1.044,0.287l-0.091-0.002c0.142,0.49,0.952,0.064,0.731,0.679
		c0.093,0.18-0.319-0.184-0.226,0.217c0.368,0.407,0.541-0.343,0.862,0.017c-0.046-0.045-0.045-0.001-0.09,0.043
		c0.298,0.129,0.712,0.259,1.062,0.354c-0.005-0.023-0.014-0.045-0.016-0.07l0.092,0.091l-0.076-0.021
		c0.163,0.668,1.265,0.466,1.45,1.239c-0.05-0.267,0.224-0.174,0.267-0.261c0,0-0.043,0.042-0.043,0.087
		c0.158,0.095,0.269-0.082,0.368-0.13c-0.005-0.014-0.007-0.025-0.008-0.042c0.091,0.002,0.093,0.046,0.138,0.092
		c-0.043-0.07-0.086-0.071-0.13-0.05c0.054,0.234,0.545,0.038,0.577,0.19c0.062-0.122,0.179-0.025,0.325,0.047
		c-0.362-0.004-0.223,0.219-0.448,0.349c0.412,0.272,0.767-0.3,1.179,0.018l0.142,0.355c0.222-0.33,0.578,0.018,0.632-0.119
		c0.025,0.148,0.11,0.269,0.008,0.438c0.225,0.002,0.412,0.315,0.59,0.141l-0.139-0.18c0.505,0.406,1.089,0.058,1.413,0.504
		l-0.263,0.528c0.188,0.357,0.679-0.036,0.777,0.407c-0.003-0.221-0.048-0.176,0.223-0.263c-0.093-0.09-0.363-0.049-0.546-0.14
		l0.54-0.126l-0.683-0.14c0.362-0.085,0.318-0.042,0.313-0.308c0.453,0.005,0.279,0.446,0.731,0.407
		c0.093,0.135-0.131,0.264-0.036,0.442c0.405-0.04,0.419,0.668,0.778,0.494c0.047,0.089-0.137-0.046-0.179,0.087
		c0.228,0.047,0.364,0.137,0.499,0.005l-0.146-0.142c0.146,0.087,0.274-0.119,0.508,0.145c0.227-0.043,0.447-0.262,0.266-0.352
		c0.09,0,0.186,0.223,0.052,0.355c0.453,0.223,0.487-0.466,0.808-0.004c-0.038,0.003-0.083,0.017-0.081,0.056
		c0.092,0.09,0.183,0.139,0.274,0.14c-0.411-0.138-0.081,0.493-0.495,0.18c-0.084,0.309,0.322,0.239,0.417,0.417
		c0.314-0.087,0.217-0.367,0.396-0.454c-0.044,0.088,0.049,0.193,0.141,0.281l-0.006-0.144c0.093,0.044,0.184,0.331,0.319,0.331
		h-0.228c0.186,0,0.332,0.381,0.784,0.34c-0.136,0.043-0.405-0.112-0.219,0.11c0.454,0.045,0.049,0.132,0.191,0.399
		c0.41,0.134,0.248-0.353,0.757,0.048c0.062,0.03,0.063-0.123,0.029-0.211c-0.021-0.019-0.042-0.036-0.066-0.057
		c0.028-0.014,0.051,0.015,0.066,0.057c0.341,0.286,0.624,0.235,0.931,0.568c-0.14-0.134-0.232-0.267,0.038-0.266
		c-0.178,0.133,0.234,0.31,0.33,0.487l0.088-0.089c0.063,0.171-0.084,0.158-0.197,0.153c-0.016,0.025-0.054,0.045-0.115,0.024
		c0-0.032,0.053-0.029,0.115-0.024c0.02-0.035,0.002-0.085-0.073-0.109c-0.228,0-0.352,0.442-0.074,0.62
		c0.364,0.046,0.446-0.266,0.442-0.398c0.371,0.312,0.626-0.31,0.953,0.046c0.092,0.043,0.198,0.62,0.476,0.797
		c0.267-0.177-0.281-0.354-0.014-0.486c0.205,0.841,1.18,0.085,1.653,0.749l-0.22,0.265c0.141,0.088,0.278,0.177,0.462,0.22
		l-0.146-0.266c0.182,0,0.506,0.219,0.286,0.396c0.45-0.092,0.455,0.085,0.735,0.306c-0.323-0.176,0.012-0.046-0.304-0.001
		c0.283,0.309,0.355,0.218,0.628,0.261c-0.088,0.089-0.036,0.305,0.058,0.348c0.314-0.09,0.682,0.118,1.046,0.158l-0.048,0.068
		c0.584,0.123,0.619,0.766,1.619,0.735v-0.083V387c0,0,0.046,0,0.057,0l-0.003,0.013c0.113-0.075,0.516,0.256,0.692,0.219
		c0.004,0.089-0.035,0.222,0.057,0.265c0.125-0.268,0.27-0.048,0.402-0.14c0.144,0.175-0.167,0.313,0.155,0.44
		c0.134,0.031,0.21-0.104,0.24-0.213c0.007,0.167,0.163,0.362,0.316,0.468c-0.088,0.046-0.14-0.086-0.186-0.085
		c-0.084,0.134,0.052,0.132-0.03,0.311c0.14,0.086,0.17-0.226,0.315-0.05l-0.267,0.138c0.052,0.087,0.186,0.039,0.229,0.039
		c-0.136,0.002-0.215,0.227-0.254,0.36c0.502,0.032,0.336-0.539,0.462-0.764c0.335,0.347,0.779,0.205,1.103,0.329l-0.169,0.226
		c0.172,0.028,0.271,0.003,0.374-0.08l-0.062-0.026l0.168-0.075c-0.037,0.04-0.072,0.074-0.105,0.102l0.24,0.101
		c-0.177,0.031-0.257,0.091-0.354,0.289c0.284,0.039,0.606,0.252,0.816-0.058l-0.034,0.052c0.287,0.268,0.967,0.639,0.896,0.74
		c0.412,0.041,0.795,0.431,0.944,0.099c-0.06-0.001-0.125,0.031-0.202,0.125c0.069-0.104,0.197-0.355,0.252-0.319
		c-0.012,0.083-0.028,0.146-0.05,0.194c0.25,0.012,0.387,0.669,0.717,0.309c0.168,0.328-0.023,0.097-0.205,0.314
		c0.17,0.327,0.663-0.134,0.555,0.386c0.363-0.026-0.03-0.129,0.158-0.303c-0.117,0.478,0.533,0.302,0.718,0.669
		c0.2-0.134-0.086-0.163,0.211-0.272c-0.066,0.105,0.043,0.173,0.099,0.206l0.167-0.263l0.02,0.815
		c0.561-0.168,0.099-0.521,0.724-0.434l-0.044,0.012c0.047,0.353,0.493-0.071,0.826,0.306c-0.122-0.108-0.108,0.116-0.184,0.182
		l0.274-0.031c-0.026,0.008-0.043,0.023-0.033,0.065c0.128,0.291,0.219-0.054,0.391,0.222c-0.186,0.003-0.213,0.239-0.174,0.366
		l0.456-0.21l-0.273,0.347c0.333,0.151,1.029-0.32,1.041,0.272l-0.189,0.01c-0.017,0.097,0.001,0.419,0.296,0.286
		c0.088-0.025,0.2-0.246,0.099-0.263l0.148,0.144c-0.154,0.234-0.616,0.181-0.916,0.17c0.12-0.078,0.359-0.101,0.344-0.282
		c-0.271,0.017-0.55,0.106-0.812,0.115c-0.047,0.026-0.095,0.043-0.146,0.043l0.024-0.047l-0.084-0.013
		c0.041-0.002,0.072-0.028,0.109-0.091c0.009,0.029-0.006,0.066-0.025,0.104c0.04,0.004,0.079,0.005,0.121,0.004
		c0.13-0.071,0.24-0.218,0.318-0.307c-0.211-0.223-0.25,0.112-0.454,0.07c-0.039-0.129-0.065-0.214,0.011-0.277
		c-0.278,0.025-0.479-0.02-0.684-0.248c0,0,0.353-0.083,0.248-0.287c-0.517-0.017-0.725,0.262-1.292,0.248
		c-0.742,0.2-1.021-0.691-1.54-0.545c-0.067,0.104,0.219,0.32-0.068,0.287c0.136-0.21-0.098-0.209-0.074-0.305
		c-0.414,0.218-0.384-0.241-0.675-0.096c0.078-0.06-0.05-0.213-0.125-0.335c-0.017,0.03-0.035,0.063-0.069,0.103l0.067-0.104
		l0.002,0.002c0.146-0.268-0.264-0.236,0.308-0.472c-0.593,0.255-0.694-0.41-1.272,0.105l0.074,0.123l-0.365-0.307l0.015,0.014
		c0.051,0.039,0.111,0.094,0.187,0.187l-0.187-0.187c-0.162-0.121-0.222-0.06-0.344-0.451c0.134-0.024,0.285,0.038,0.42,0.014
		c-0.121-0.339-0.553,0.013-0.806-0.08c0.098-0.197,0.288,0.039,0.319-0.238c-0.162-0.106-0.374-0.023-0.562-0.036l0.07-0.102
		c-0.325-0.44-0.405,0.479-0.562-0.036c-0.019,0.07-0.09,0.125-0.099,0.198c-0.067-0.169-0.258-0.487,0.077-0.511
		c-0.151-0.064-0.365-0.041-0.497,0.052c0.057,0.22,0.125,0.149,0.082,0.383l-0.66-0.149c-0.067-0.03,0.098-0.086,0.184-0.05
		c-0.455-0.905-1.666-0.13-2.154-1.198c0.01,0.222-0.13,0.135-0.263,0.225c-0.235-0.172-0.649-0.3-0.841-0.518l0.132-0.091
		c-0.687-0.125-1.2-0.121-1.574-0.382c-0.044,0.045,0.084-0.178,0.174-0.18c-0.404,0.092-0.438-0.792-0.739-0.348l0.094,0.089
		c-0.558-0.352-1.373-0.303-2.016-0.521c-0.013-0.354,0.367,0.132,0.398-0.268c-0.374-0.308-0.916-0.263-1.335-0.572
		c0.092,0,0.091-0.043,0.135-0.045c-0.375-0.396-0.081,0.312-0.45,0.091c0.087-0.132,0.084-0.174-0.011-0.307l-0.221,0.183
		c-0.002-0.045,0.083-0.213,0.174-0.257c-0.312,0.223-0.733-0.202-1,0.018c-0.001-0.088,0.219-0.271,0.216-0.406
		c-0.166-0.178-0.36-0.013-0.547-0.012c-0.012,0-0.043-0.029-0.077-0.066c-0.05,0.023-0.103-0.004-0.163-0.048
		c-0.095-0.001-0.185-0.028-0.262-0.127c0.102,0,0.188,0.071,0.262,0.127c0.035,0,0.072-0.011,0.108-0.016
		c-0.117-0.142-0.257-0.346-0.196-0.345c-0.326-0.267-0.134,0.057-0.496,0.101l0.235,0.266l-0.551-0.178l0.271-0.044
		c-0.188-0.222-0.548-0.091-0.822-0.226l0.05,0.224l-0.364-0.048c0.127-0.353-0.37-0.266-0.013-0.575
		c-0.511-0.444-1.096-0.183-1.645-0.408c0.093,0.045,0.089-0.043,0.134-0.088c-0.277-0.223-0.548-0.137-0.817-0.05
		c0.088-0.087,0.179-0.087,0.223-0.176c-0.368-0.179-0.315,0.087-0.771-0.005c0.18-0.088,0.178-0.177,0.084-0.266
		c-0.041,0.133-0.177,0.176-0.269,0.176c0.624-0.526-0.328-0.49,0.117-0.93c-0.088,0.132-0.86,0.125-0.806,0.479l0.135,0.003
		c-0.075,0.191-0.191,0.047-0.312,0.006c-0.101,0.003-0.183-0.013-0.052-0.011c0.018,0,0.035,0.005,0.052,0.011
		c0.073-0.003,0.155-0.016,0.175-0.053c-0.683-0.052-1.191-0.543-1.92-0.685c0.09-0.043,0.408-0.04,0.269-0.175
		c-0.597-0.405-1.138-0.233-1.867-0.376c0.175-0.441,0.731,0.274,0.95-0.121c-0.729-0.23-1.503-0.42-2.369-0.564
		c0.035-0.753-0.863-0.101-1.1-0.815c-0.057,0.231-0.327,0.194-0.585,0.077l-0.003,0.004l-0.036-0.023l0.039,0.02
		c0.17-0.129-0.098-0.263,0.036-0.351c-0.315,0.084-1-0.149-0.778-0.544c-0.248,0.365-0.471-0.251-0.79-0.062
		c0.052,0.066,0.093,0.15,0.111,0.27l-0.183-0.224c0.023-0.024,0.048-0.032,0.071-0.046c-0.211-0.284-0.645-0.211-0.94-0.501
		c0.004,0.31-0.409-0.053-0.59-0.012c0.045,0.001,0.136,0.002,0.135-0.041c-0.002-0.267-0.499-0.01-0.637-0.234
		c-0.047-0.134,0.134-0.218-0.004-0.31c-0.089,0.175-0.726,0.119-0.819-0.193c0.092,0.045,0.137-0.043,0.226-0.084
		c-1.089-0.156-1.913-1.016-3.048-1.13l0.315-0.214c-0.413-0.675-0.634,0.295-1.089,0.019c-0.615-0.392-1.208-0.86-1.817-1.286
		c-0.325-0.224-0.566-0.389-0.978-0.616c-0.539-0.249-0.965-0.852-1.215-1.224c-0.152-0.079-0.067,0.125-0.172,0.218
		c-0.059-0.182,0.184-0.333-0.065-0.45l-0.142,0.118c0.078-0.926-0.999-1.95-0.377-2.63c-0.422-0.576-0.019-1.106-0.572-1.793
		c0.118-0.265,0.349,0.228,0.34-0.103l-0.386-0.658l0.032,0.034c-0.632-0.608,0.345-1.865-0.129-2.66l0.03,0.033
		c0.124,0.006,0.254-0.185,0.197-0.316c-0.093-0.038-0.128,0.059-0.223,0.152c-0.217-0.545-0.284-0.775-0.347-1.103
		c-0.056,0.18,0.089,0.446,0.129,0.519c-0.015,0.063-0.098,0.007-0.158-0.008c-0.168,0.157,0.057,0.285,0.085,0.429l-0.143-0.072
		c-0.36,0.542,0.122,1.522-0.052,2.263c-0.025-0.144-0.2-0.093-0.277-0.048c0.445,0.372,0.203,1.201,0.263,1.534l-0.16-0.225
		c0.218,0.668-0.595,0.441-0.386,1.104l0.342-0.298c-0.124,0.232-0.077,0.463,0.151,0.444c-0.217,0.261-0.374-0.035-0.507,0.393
		c-0.137-0.011-0.03-0.332-0.232-0.226l-0.483,0.519l0.001,0.001c0.363-0.353,0.275,0.386,0.58,0.166
		c-0.236,0.31-0.463-0.183-0.58-0.166c-0.002,0.003-0.005,0.005-0.007,0.007c-0.04,0.015-0.062,0.084-0.072,0.278
		c0.607,0.09-0.091,0.504,0.562,0.346c-0.194,0.902-0.749,1.456-0.983,2.417c-0.364,0.026-0.672,0.487-1.12,0.645
		c-0.372,0.177-0.573,0.206-0.728-0.139c-0.368,0.174-0.596,0.457-0.684,0.846c0.1,0.019,0.15-0.114,0.208-0.185
		c-0.009,0.222-0.435,0.468-0.62,0.556c0.164-0.274,0.485-0.601,0.543-0.955c-0.298,0.229-0.635,0.715-0.778,0.891l-0.259-0.312
		c-0.152,0.397-0.375-0.17-0.483,0.316l0.105,0.08c-0.526,0.227-0.359,0.583-0.814,0.862l-0.048-0.149
		c-0.191,0.024-0.273,0.475-0.589,0.232l0.305-0.166c-0.153-0.231-0.445-0.224-0.614-0.297c-0.298,0.227,0.082,0.462-0.067,0.576
		c-0.184-0.198-0.079-0.116-0.075-0.401c-0.329,0.264-0.778,0.605-0.896,1.031c-0.034-0.028-0.041-0.09-0.041-0.09
		c-0.404,0.146-0.539,0.731-0.871,0.647l0.058-0.071c-0.474-0.191-0.639,0.711-0.987,0.157c-0.199-0.038,0.342-0.138-0.031-0.312
		c-0.547,0.038-0.064,0.639-0.546,0.668c0.064-0.008,0.029-0.035,0.022-0.097c-0.285,0.154-0.645,0.398-0.937,0.614
		c0.021,0.011,0.044,0.018,0.065,0.031l-0.128,0.016l0.063-0.047c-0.625-0.284-1.152,0.703-1.874,0.367
		c0.24,0.128-0.003,0.284,0.038,0.372c0,0-0.006-0.061-0.042-0.088c-0.172,0.064-0.103,0.261-0.127,0.369
		c0.014,0.005,0.024,0.01,0.038,0.02c-0.058,0.07-0.093,0.044-0.157,0.051c0.082,0.011,0.109-0.023,0.12-0.07
		c-0.217-0.104-0.37,0.402-0.51,0.332c0.057,0.125-0.091,0.156-0.24,0.225c0.229-0.28-0.032-0.31,0.008-0.567
		c-0.47,0.152-0.246,0.786-0.751,0.911l-0.367-0.112c0.119,0.38-0.376,0.44-0.304,0.567c0.038,0.021,0.076,0.045,0.109,0.085
		c-0.067-0.034-0.094-0.06-0.109-0.085c-0.132-0.072-0.278-0.082-0.346-0.269c-0.143,0.174-0.505,0.124-0.48,0.372l0.227,0.005
		c-0.633,0.139-0.73,0.812-1.282,0.784l-0.246-0.537c-0.396-0.079-0.4,0.55-0.807,0.348c0.173,0.137,0.167,0.073,0.064,0.338
		c0.128-0.016,0.267-0.252,0.453-0.337l-0.244,0.501l0.54-0.443c-0.162,0.335-0.168,0.273,0.042,0.438
		c-0.291,0.349-0.523-0.064-0.778,0.312c-0.164-0.013-0.123-0.269-0.321-0.308c-0.226,0.34-0.784-0.099-0.876,0.291
		c-0.099-0.021,0.122-0.077,0.045-0.194c-0.18,0.147-0.336,0.196-0.32,0.385l0.203-0.024c-0.161,0.058-0.083,0.288-0.435,0.302
		c-0.111,0.203-0.082,0.513,0.104,0.429c-0.058,0.069-0.29,0.003-0.308-0.185c-0.46,0.21,0.051,0.674-0.511,0.627
		c0.022-0.03,0.042-0.072,0.01-0.097c-0.128,0.015-0.221,0.057-0.28,0.126c0.369-0.23-0.324-0.372,0.183-0.492
		c-0.185-0.261-0.378,0.106-0.576,0.066c-0.134,0.298,0.167,0.42,0.121,0.614c-0.04-0.09-0.134-0.047-0.261-0.032l0.208,0.164
		c-0.094,0.043-0.186,0.085-0.274,0.189l0.146-0.175c-0.221,0.058-0.691-0.14-0.95,0.234c0.054-0.132,0.16-0.395-0.13-0.394
		c-0.327,0.32-0.133-0.047-0.431-0.107c-0.366,0.229,0.112,0.415-0.523,0.55c-0.062,0.028,0.054,0.128,0.144,0.158
		c-0.439,0.078-0.583,0.329-1.035,0.351c0.191-0.021,0.354-0.008,0.178,0.199c0.014-0.221-0.389-0.02-0.587-0.062l0.011,0.126
		c-0.171-0.062-0.067-0.167,0.01-0.25c-0.01-0.029,0-0.07,0.055-0.104c0.025,0.02-0.011,0.059-0.055,0.104
		c0.014,0.037,0.064,0.056,0.131,0.014c0.147-0.173-0.113-0.553-0.427-0.455c-0.27,0.248-0.085,0.512,0.019,0.594
		c-0.478,0.083-0.168,0.679-0.651,0.7c-0.094,0.042-0.603-0.247-0.918-0.152c-0.038,0.317,0.454,0.015,0.381,0.305
		c-0.775-0.389-0.835,0.843-1.65,0.771l-0.058-0.34c-0.159,0.05-0.315,0.098-0.468,0.208l0.296,0.062
		c-0.119,0.139-0.5,0.239-0.489-0.043c-0.227,0.399-0.364,0.287-0.715,0.354c0.346-0.128,0.025,0.039,0.198-0.229
		c-0.418,0.012-0.4,0.123-0.612,0.302c-0.009-0.125-0.211-0.233-0.305-0.19c-0.139,0.297-0.548,0.426-0.821,0.672l-0.04-0.1
		c-0.482,0.355-1.248,0.688-1.667,0.688h0.029c0.313,0-0.329,0.416-0.44,0.609c-0.068-0.059-0.141-0.147-0.235-0.107
		c0.114,0.272-0.146,0.232-0.168,0.393c-0.227-0.011-0.119-0.334-0.431-0.18c-0.112,0.078-0.065,0.225-0.005,0.32
		c-0.128-0.107-0.378-0.125-0.561-0.084c0.026-0.096,0.159-0.044,0.189-0.078c-0.042-0.153-0.132-0.052-0.208-0.233
		c-0.158,0.045,0.05,0.278-0.177,0.266l0.08-0.289c-0.099-0.021-0.155,0.109-0.185,0.142c0.091-0.101-0.02-0.311-0.092-0.431
		c-0.364,0.346,0.167,0.612,0.247,0.856c-0.483,0.012-0.684,0.436-0.997,0.588l-0.049-0.277c-0.139,0.105-0.189,0.194-0.2,0.326
		l0.063-0.027l-0.062,0.174c-0.004-0.055-0.005-0.104-0.001-0.146l-0.24,0.104c0.1-0.149,0.111-0.249,0.035-0.455
		c-0.226,0.18-0.604,0.266-0.525,0.632l-0.014-0.061c-0.392,0.026-1.135,0.257-1.159,0.133c-0.321,0.265-0.868,0.264-0.739,0.604
		c0.044-0.042,0.066-0.111,0.056-0.231c0.024,0.122,0.111,0.391,0.047,0.404c-0.051-0.067-0.083-0.123-0.103-0.173
		c-0.186,0.174-0.747-0.198-0.732,0.287c-0.352-0.117-0.051-0.085-0.073-0.367c-0.351-0.117-0.386,0.559-0.668,0.108
		c-0.244,0.272,0.111,0.072,0.095,0.328c-0.246-0.426-0.595,0.158-0.984,0.009c-0.057,0.233,0.175,0.062,0.029,0.343
		c-0.022-0.122-0.149-0.098-0.212-0.085l0.053,0.307l-0.562-0.59c-0.305,0.502,0.277,0.456-0.254,0.809l0.026-0.037
		c-0.269-0.237-0.335,0.375-0.839,0.305c0.165,0.003,0.009-0.16,0.025-0.259l-0.192,0.202c0.015-0.022,0.019-0.046-0.016-0.07
		c-0.282-0.141-0.138,0.182-0.448,0.069c0.146-0.115,0.019-0.317-0.089-0.395l-0.232,0.442l0.007-0.441
		c-0.337,0.083-0.642,0.879-0.981,0.377l0.148-0.109c-0.042-0.089-0.226-0.353-0.389-0.084c-0.056,0.067-0.037,0.315,0.056,0.275
		l-0.194-0.043c0.011-0.284,0.398-0.478,0.63-0.628c-0.046,0.132-0.221,0.273-0.11,0.418c0.207-0.147,0.37-0.403,0.563-0.561
		c0.02-0.05,0.046-0.091,0.084-0.121l0.01,0.052l0.07-0.039c-0.03,0.025-0.038,0.065-0.028,0.137
		c-0.024-0.018-0.035-0.056-0.042-0.098c-0.033,0.021-0.064,0.043-0.095,0.069c-0.056,0.134-0.057,0.317-0.066,0.436
		c0.296,0.052,0.129-0.24,0.31-0.328c0.107,0.08,0.18,0.131,0.16,0.228c0.202-0.184,0.379-0.276,0.678-0.233
		c0,0-0.215,0.292-0.007,0.382c0.407-0.325,0.386-0.665,0.811-1.026c0.403-0.649,1.207-0.163,1.479-0.636
		c-0.024-0.122-0.374-0.079-0.147-0.254c0.047,0.246,0.212,0.085,0.261,0.171c0.144-0.444,0.439-0.089,0.543-0.396
		c-0.013,0.096,0.17,0.125,0.307,0.157l-0.007-0.058c0.003,0.041,0.01,0.032,0.018,0.061c-0.003-0.001-0.007-0.002-0.011-0.003
		l0.013,0.112c0,0,0.001,0,0.002,0c0.083,0,0.354-0.109,0.111,0.455c0.245-0.59,0.781-0.322,0.822-1.092l-0.139-0.13l0.468-0.231
		c-0.006,0-0.01-0.002-0.017-0.002h0.021l-0.004,0.002c0.18,0.005,0.192,0.081,0.545,0.262c-0.076,0.111-0.227,0.367-0.303,0.479
		c0.328,0.152,0.377-0.4,0.616-0.521c0.075,0.207-0.227,0.181-0.049,0.396c0.188-0.043,0.276-0.255,0.414-0.381l0.025,0.121
		c0.543,0.069-0.066-0.623,0.413-0.381c-0.038-0.062-0.029-0.151-0.076-0.208c0.168,0.068,0.531,0.15,0.318,0.408
		c0.151-0.064,0.281-0.236,0.303-0.395c-0.199-0.11-0.194-0.014-0.334-0.205l0.556-0.378c0.068-0.029-0.003,0.13-0.087,0.169
		c0.971,0.28,1.221-1.125,2.333-0.772c-0.17-0.142-0.013-0.188,0.009-0.346c0.285-0.059,0.656-0.279,0.946-0.275l-0.021,0.158
		c0.549-0.429,0.885-0.816,1.327-0.922c-0.005-0.062,0.078,0.18,0.02,0.249c0.197-0.363,0.884,0.196,0.748-0.324l-0.128,0.012
		c0.63-0.189,1.127-0.836,1.711-1.177c0.275,0.223-0.339,0.191-0.058,0.476c0.477-0.08,0.795-0.522,1.302-0.638
		c-0.059,0.069-0.026,0.096-0.054,0.131c0.545-0.025-0.183-0.264,0.224-0.399c0.044,0.151,0.079,0.179,0.242,0.193l0.007-0.283
		c0.036,0.028,0.114,0.207,0.09,0.305c0.033-0.381,0.641-0.415,0.645-0.761c0.068,0.056,0.093,0.367,0.197,0.45
		c0.244-0.012,0.416-0.19,0.416-0.362v0.002c0,0.132,0.58-0.062,0.521,0.007c0.414-0.077-0.012-0.187,0.188-0.491l-0.354,0.009
		l0.49-0.306l-0.141,0.234c0.291,0.001,0.42-0.361,0.7-0.484l-0.204-0.105l0.27-0.248c0.189,0.323,0.44-0.113,0.45,0.358
		c0.667-0.106,0.84-0.723,1.362-1.002c-0.094,0.042-0.024,0.096-0.018,0.158c0.348-0.07,0.453-0.334,0.557-0.598
		c0.012,0.124-0.046,0.193-0.005,0.284c0.371-0.17,0.133-0.299,0.493-0.592c-0.046,0.194,0.023,0.25,0.151,0.233
		c-0.076-0.115-0.023-0.247,0.035-0.317c0.011,0.816,0.585,0.058,0.644,0.68c-0.047-0.151,0.447-0.744,0.139-0.928l-0.087,0.104
		c-0.101-0.18,0.084-0.178,0.192-0.245c0.061-0.079,0.125-0.134,0.041-0.033c-0.011,0.014-0.025,0.024-0.041,0.033
		c-0.044,0.06-0.087,0.13-0.07,0.169c0.471-0.495,1.173-0.576,1.74-1.054c-0.023,0.097-0.226,0.342-0.033,0.318
		c0.689-0.208,0.897-0.734,1.463-1.213c0.234,0.414-0.671,0.396-0.501,0.814c0.637-0.421,1.268-0.906,1.921-1.488
		c0.565,0.498,0.617-0.611,1.321-0.35c-0.146-0.188,0.052-0.376,0.304-0.504l-0.001-0.005l0.04-0.014l-0.039,0.019
		c-0.005,0.213,0.266,0.088,0.25,0.247c0.131-0.3,0.737-0.69,0.909-0.271c-0.132-0.423,0.489-0.213,0.538-0.58
		c-0.084-0.001-0.175-0.021-0.28-0.081l0.289-0.004c0.004,0.033-0.004,0.058-0.009,0.085c0.353,0.011,0.564-0.375,0.975-0.428
		c-0.246-0.188,0.293-0.288,0.373-0.455c-0.028,0.034-0.085,0.105-0.05,0.131c0.21,0.164,0.315-0.385,0.576-0.354
		c0.134,0.046,0.089,0.239,0.245,0.188c-0.083-0.178,0.354-0.644,0.657-0.524c-0.092,0.043-0.05,0.134-0.073,0.229
		c0.792-0.76,1.975-0.882,2.759-1.707l-0.025,0.38c0.786,0.088,0.154-0.681,0.65-0.871c0.685-0.246,1.416-0.43,2.122-0.653
		c0.331-0.102,0.748-0.257,0.982-0.355c0.131-0.054,0.133-0.08,0.211-0.323c-0.053-0.104-0.125-0.021-0.249-0.084
		c0.069-0.028,0.329,0.053,0.223-0.131l-0.173-0.05c0.663-0.234,0.185-1.582,1.007-1.834c-0.149-0.63,0.405-0.956,0.109-1.747
		c0.193-0.202,0.259,0.315,0.353,0.014l-0.169-0.714l0.021,0.04c-0.432-0.718,0.83-1.645,0.54-2.523l0.023,0.038
		c0.12,0.033,0.287-0.121,0.26-0.26c-0.082-0.057-0.137,0.028-0.25,0.097c-0.125-0.759-0.122-0.922-0.105-1.51
		c0.16,0.271,0.182-0.219,0.438-0.221c-0.152-0.17-0.272,0.063-0.38-0.291c0.022-0.489,0.278-0.921,0.402-1.319
		c-0.213-0.183-0.134-0.394-0.414-0.427c0.028-0.553-0.063-0.868-0.011-1.546l0.098-0.011c-0.338-0.206,0.217-0.576,0.024-0.716
		c0.122,0.026,0.168,0.103,0.267,0.091l-0.092-0.315c0.096,0.152,0.423,0.258,0.477,0.006c-0.229-0.281-0.172,0.062-0.365-0.08
		l0.33-0.06c-0.023-0.202-0.387-0.281-0.501-0.043c0.047-0.68-0.069-1.36,0.019-1.963l0.208,0.076
		c-0.061-0.341-0.035-0.794,0.162-0.984c-0.062-0.012-0.17-0.101-0.244-0.051c-0.268-0.415,0.353-0.024,0.061-0.478
		c0.073,0.112,0.109,0.252,0.232,0.276l-0.22-0.832c0.159,0,0.535-0.482,0.412-0.835c-0.088-0.018-0.212,0.076-0.235,0.164
		l-0.069-0.226l0.376-0.154l-0.309-0.335l-0.071-0.002l0.012-0.063l0.06,0.065l0.308,0.008c-0.052-0.239-0.442-0.351-0.407-0.54
		c0.227-0.708,0.324-0.558,0.637-1.056c-0.586-0.08,0.053-0.81-0.366-0.955c0.385-0.545,0.296-1.312,0.336-2.061
		c-25.47-0.509-45.989-16.595-45.989-36.309c0-20.034,21.187-36.334,47.229-36.334c26.042,0,47.229,16.3,47.229,36.334
		C286.861,332.001,266.441,348.056,241.059,348.638z M280.995,390.7l-0.382-0.238c0.523,0.255,0.105-0.519,0.506-0.015
		C280.922,390.398,280.963,390.571,280.995,390.7z M279.398,389.801c-0.129-0.157-0.085-0.165,0.092-0.199
		C279.455,389.653,279.638,389.843,279.398,389.801z M272.947,387.211c-0.09-0.066-0.22-0.094-0.162-0.186L272.947,387.211z
		 M270.405,385.589l-0.128,0.224C270.362,385.679,270.223,385.546,270.405,385.589z M267.819,384.097h-0.088l-0.229-0.044
		L267.819,384.097z M262.057,381.201l-0.008-0.01C262.096,381.19,262.133,381.202,262.057,381.201z M252.48,377.318l0.087-0.308
		C252.795,377.015,252.617,377.322,252.48,377.318z M245.929,374.131c-0.092-0.001-0.184-0.183-0.319-0.273
		C245.79,373.773,245.928,373.954,245.929,374.131z M241.349,355.294l-0.113-0.14l0.012-0.129L241.349,355.294z M242.677,370.115
		c-0.089,0.354-0.495,0.044-0.594,0.102C242.271,369.768,242.487,370.428,242.677,370.115z M194.03,391.592l0.062-0.006
		l-0.056,0.052C194.037,391.625,194.037,391.609,194.03,391.592z M195.718,390.999c0.142-0.12,0.384-0.002,0.51-0.023
		c-0.053,0.203-0.473-0.065-0.498,0.105L195.718,390.999z M210.211,384.917l0.229,0.069l-0.209,0.18L210.211,384.917z
		 M213.135,383.879c0.062-0.072,0.141-0.122,0.266-0.118C213.335,383.838,213.226,383.857,213.135,383.879
		c-0.049,0.058-0.087,0.13-0.126,0.204C212.945,383.937,213.025,383.905,213.135,383.879z M326,184.333c1.656,0,3,1.343,3,3
		s-1.344,3-3,3s-3-1.343-3-3S324.344,184.333,326,184.333z M351.666,201.667c-2.08,8.598-9.5,22.333-24,12.833
		c-11.518-7.546-23.521,1.312-22.166-17.333c0.911-12.528,6.283-17.776,14.85-19.032c-6.006,2.799-10.184,8.916-10.184,16.032
		c0,9.757,7.836,17.667,17.5,17.667c9.666,0,17.5-7.91,17.5-17.667c0-4.271-1.501-8.188-4-11.243
		C348.403,187.766,353.222,195.238,351.666,201.667z"/>
	<path d="M240.45,342.922c-0.003,0.003-0.009,0.005-0.012,0.008c0.004,0.01,0.008,0.019,0.012,0.028
		C240.45,342.945,240.45,342.935,240.45,342.922z"/>
	<path d="M239.327,362.821c0.011-0.121,0.028-0.24,0.052-0.357c-0.043,0.009-0.079,0.035-0.128,0.03
		C239.26,362.608,239.291,362.716,239.327,362.821z"/>
	<polygon points="240.288,341.672 240.283,341.682 240.294,341.688 	"/>
	<path d="M240.774,341.785c-0.021-0.012-0.05-0.016-0.076-0.023c0,0.036-0.006,0.066-0.011,0.099
		c0.006,0.03,0.015,0.068,0.018,0.094C240.762,341.938,240.816,341.898,240.774,341.785z"/>
	<path d="M238.881,348.206l0.054,0.071c0.263-0.39-0.459-0.422-0.352-0.839l0.09,0.102c0.135-0.243,0.142-0.564,0.089-0.89
		c-0.119-0.002-0.237-0.005-0.356-0.007c0.029,0.311,0.01,0.614-0.132,0.838l-0.085-0.105c-0.131,0.407,0.589,0.481,0.304,0.854
		l-0.05-0.074c-0.027,0.159-0.041,0.322-0.05,0.486c0.156,0.003,0.312,0.008,0.468,0.01
		C238.86,348.502,238.864,348.353,238.881,348.206z"/>
	<path d="M240.263,343.034c-0.07,0.127-0.06,0.242-0.018,0.36C240.251,343.291,240.257,343.17,240.263,343.034z"/>
	<path d="M238.356,345.446c-0.013-0.005-0.015-0.022-0.017-0.038c-0.124-0.096-0.388,0.116-0.275-0.15
		c0.055,0.072,0.186,0.02,0.19-0.045l-0.287-0.285c0.089-0.293,0.172-0.607,0.237-0.928H238v-9.773
		c-0.062-0.028-0.11-0.077-0.108-0.201c0,0,0.022,0.034,0.051,0.073c-0.009-0.029-0.028-0.044-0.027-0.089
		c0,0,0.036,0.06,0.084,0.114V333v-2.586c-0.008-0.004-0.013-0.011-0.021-0.016c0.009,0.001,0.013-0.003,0.021-0.002V289.34
		c-1.133-1.413-7.024-7.997-15.672-4.095c-0.206,0.078-13.729,5.088-15.517,13.154c-0.71,3.206,0.594,6.562,3.833,9.984
		c2.289-1.784,5.336-2.885,8.689-2.885c7.077,0,12.833,4.86,12.833,10.834s-5.757,10.834-12.833,10.834s-12.833-4.86-12.833-10.834
		c0-2.479,1.001-4.757,2.666-6.584c-0.097-0.101-0.392-0.409,0-0.001c-3.718-3.93-5.171-7.892-4.307-11.785
		c2.028-9.136,16.116-14.352,16.715-14.568c8.889-4.018,15.372,1.808,17.49,4.133c2.413-2.25,9.952-8.163,18.931-4.104
		c0.514,0.189,14.039,5.34,15.999,14.365c0.774,3.565-0.363,7.189-3.374,10.799c0.296-0.296,0.155-0.13,0.019,0.018
		c2.379,1.967,3.861,4.703,3.861,7.729c0,5.974-5.757,10.834-12.834,10.834c-7.076,0-12.833-4.86-12.833-10.834
		s5.757-10.834,12.833-10.834c2.715,0,5.23,0.72,7.307,1.938c2.676-3.157,3.711-6.253,3.067-9.222
		c-1.726-7.96-14.676-12.896-14.807-12.945c-8.646-3.901-15.823,2.699-17.233,4.129v36.617c0.152,0.044,0.444,0.39,0.498,0.604
		c-0.007,0.18-0.05,0.271-0.109,0.321c-0.102,0.102-0.261,0.058-0.389,0.092v0.533l0.118,0.434h-0.027l0.002-0.084L240,327.832
		v0.136c0.027,0.016,0.054,0.028,0.066,0.036c-0.035-0.006-0.047,0.021-0.066,0.038v0.66l0.126-0.053
		c0.002,0.003,0.002,0.005,0.004,0.008l0.028-0.013c0.303,0.422,0.028,0.732-0.158,1.037v0.668l0.252,0.271L240,330.687v0.062
		c0.169,0.175,0.355,0.242,0.258,0.57c-0.528,1.263,0.105,2.623-0.228,3.903c0.049-0.019,0.073-0.056,0.115-0.126
		c-0.02,0.03-0.022,0.056-0.039,0.085c0.017-0.02,0.031-0.043,0.052-0.076c-0.08,0.118-0.123,0.229-0.158,0.337v0.631
		c0.186,0.603,0.744,1.111,0.354,1.798l-0.023-0.014c-0.006,0.011-0.005,0.021-0.012,0.032l-0.075-0.048
		c0.02,0.173,0.004,0.196-0.033,0.179c-0.018,0.058-0.075-0.028-0.15-0.03c-0.02,0.01-0.04,0.031-0.061,0.063v0.081
		c0.317,0.105,0.264,0.642,0.397,0.926c-0.076-0.046-0.069-0.148-0.124-0.233c-0.001,0.001-0.002,0.001-0.003,0.002
		c0.016,0.093,0.033,0.182,0.064,0.253c-0.073-0.047-0.068-0.144-0.115-0.229c-0.097,0.042-0.235,0.08-0.178,0.204
		c0.532,0.323,0.488,1.034,0.653,1.556c-0.208,0.058-0.397,0.402-0.695,0.651v0.187c0.072,0.038,0.151,0.078,0.242,0.121
		c0.001-0.002,0.002-0.003,0.004-0.005c0,0.004,0.003,0.005,0.004,0.008c0.004,0.003,0.008,0.005,0.012,0.007
		c-0.009-0.087-0.021-0.138-0.038-0.115c0.106-0.094,0.153-0.094,0.2-0.073c0.146-0.095,0.155,0.057,0.399,0.04
		c-0.008,0.171,0.097,0.524-0.115,0.567c-0.002,0.104-0.032,0.172-0.072,0.279c0.044,0.064,0.069,0.134,0.045,0.211l-0.029-0.034
		c-0.04,0.013-0.063,0.029-0.088,0.046c-0.115,0.338,0.315,0.802,0.514,1.074c-0.145-0.107-0.236-0.114-0.312-0.086
		c0.035,0.05,0.073,0.104,0.102,0.146c-0.074-0.06-0.133-0.087-0.185-0.1c-0.075,0.053-0.146,0.121-0.261,0.123
		c0.006,0.009,0.011-0.015,0.015-0.056c-0.028,0.02-0.058,0.038-0.089,0.054c0.048,0.141,0.076,0.298,0.012,0.495
		c-0.03-0.034-0.091-0.102-0.186-0.074c-0.068,0.191,0.142,0.362,0.296,0.402c-0.251,0.053-0.425,0.464-0.308,0.663
		c0.212,0.172,0.307,0.144,0.293,0.465l-0.182-0.137c-0.125,0.342,0.17,0.327,0.139,0.545c-0.027-0.049-0.136-0.035-0.161,0.035
		c0.097,0.346,0.195,0.4,0.464,0.595c24.44-0.439,44.146-15.656,44.146-34.312c0-18.932-20.289-34.334-45.229-34.334
		s-45.229,15.402-45.229,34.334c0,18.619,19.629,33.812,44.002,34.31c-0.037-0.41-0.168-0.834-0.303-1.122
		C238.183,345.618,238.345,345.58,238.356,345.446z"/>
	<path d="M251.833,316.333c0,4.319,4.411,7.834,9.833,7.834c5.423,0,9.834-3.515,9.834-7.834s-4.411-7.834-9.834-7.834
		C256.244,308.499,251.833,312.014,251.833,316.333z"/>
</g>
</svg>
