<?xml version="1.0" encoding="utf-8"?>
<!-- Generator: Adobe Illustrator 16.0.0, SVG Export Plug-In . SVG Version: 6.00 Build 0)  -->
<!DOCTYPE svg PUBLIC "-//W3C//DTD SVG 1.1//EN" "http://www.w3.org/Graphics/SVG/1.1/DTD/svg11.dtd">
<svg version="1.1" id="board" xmlns="http://www.w3.org/2000/svg" xmlns:xlink="http://www.w3.org/1999/xlink" x="0px" y="0px"
	 width="484.332px" height="96.334px" viewBox="0 0 484.332 96.334" enable-background="new 0 0 484.332 96.334"
	 xml:space="preserve">
<g>
	<path d="M476.342,8c-6.334-3-49.656,13-49.656,13c-17.334,7.667-32.646,7-32.646,7c-3,0.667-40.872-3.083-40.872-3.083
		c-12.834-0.5-70.689-0.209-102.001-0.425c0,0-109.618,0.473-121.917-0.492c0,0-8.835,0.209-38.708,4.042c0,0-19.25,0-34.894-7.042
		c0,0-43.323-16-49.656-13c0,0-7.995,8.333,26.672,19.333c0,0,30.67,11.205,41.003,11.871c0,0,18.917,0.463,53.584-4.537h227.833
		c34.667,5,53.584,4.5,53.584,4.5C419,38.5,449.67,27.416,449.67,27.416C484.336,16.416,476.342,8,476.342,8z"/>
	<path d="M377,39.666h-19.584c-6.627,0-12.25-0.825-11.334,5.758l3.471,9.476c-0.082,0.247-0.137,0.522-0.137,0.797
		c0,0.891,0.469,1.698,1.17,2.141l0.913,2.62c-3.053,5.191-0.371,6.425,2.727,5.86c-1.201,2.358-1.893,5.02-1.893,7.848
		c0,9.572,7.761,17.333,17.333,17.333S387,83.738,387,74.166c0-6.359-3.436-11.903-8.542-14.919c1.854-2.629,2.95-5.163,3.566-6.996
		c1.401,0.628,2.639,1.137,3.56,1.207l3.583-8.458C392.25,39.166,392.25,38.666,377,39.666z M357.803,61.553l1.717-2.887h2.396
		c0.012,0,0.022-0.004,0.035-0.004C360.426,59.422,359.032,60.397,357.803,61.553z M363.729,50.855l3.188-3.352
		c1.375-1.841,5.326-0.159,9.385,1.863c-1.678,2.572-4.922,6.196-6.104,7.493c-0.178-0.005-0.352-0.027-0.53-0.027
		c-2.175,0-4.247,0.418-6.164,1.149c0.554-0.527,0.914-1.29,0.914-2.065c0-1.225-0.882-2.489-2.045-2.704L363.729,50.855z
		 M369.667,82.5c-3.866,0-7-3.134-7-7s3.134-7,7-7s7,3.134,7,7S373.533,82.5,369.667,82.5z"/>
	<path d="M126.167,40.666h-19.584c-15.25-1-15.25-0.5-12.167,5.333L98,54.458c0.92-0.069,2.158-0.579,3.56-1.207
		c0.518,1.54,1.375,3.575,2.731,5.743c-5.339,2.954-8.957,8.639-8.957,15.172c0,9.572,7.76,17.333,17.333,17.333
		S130,83.738,130,74.166c0-2.522-0.551-4.913-1.521-7.075l0.021,0.034c3.417,0.958,6.917,0,3.584-5.667l0.913-2.62
		c0.701-0.443,1.17-1.25,1.17-2.141c0-0.275-0.055-0.55-0.137-0.797l3.471-9.476C138.417,39.841,132.794,40.666,126.167,40.666z
		 M112.667,82.5c-3.866,0-7-3.134-7-7s3.134-7,7-7s7,3.134,7,7S116.533,82.5,112.667,82.5z M119.167,56.917
		c0,0.463,0.135,0.921,0.354,1.331c-2.103-0.907-4.419-1.414-6.854-1.414c-0.066,0-0.13,0.009-0.196,0.01
		c-1.49-1.673-3.842-4.411-5.189-6.476c4.06-2.022,8.01-3.705,9.385-1.863l3.188,3.352l1.357,2.357
		C120.048,54.427,119.167,55.691,119.167,56.917z M122.148,59.666h1.915l2.409,4.049C125.271,62.132,123.814,60.757,122.148,59.666z
		"/>
	<circle cx="112.667" cy="75.833" r="3.333"/>
	<circle cx="369.667" cy="75.833" r="3.333"/>
</g>
</svg>
