<?xml version="1.0" encoding="utf-8"?>
<!-- Generator: Adobe Illustrator 16.0.0, SVG Export Plug-In . SVG Version: 6.00 Build 0)  -->
<!DOCTYPE svg PUBLIC "-//W3C//DTD SVG 1.1//EN" "http://www.w3.org/Graphics/SVG/1.1/DTD/svg11.dtd">
<svg version="1.1" id="main" xmlns="http://www.w3.org/2000/svg" xmlns:xlink="http://www.w3.org/1999/xlink" x="0px" y="0px"
	 width="421px" height="421.5px" viewBox="44.667 52.833 421 421.5" enable-background="new 44.667 52.833 421 421.5"
	 xml:space="preserve">
<path id="main_1_" d="M244.756,402.704l1.75,10.732l-55.32,21.863v-3.558C191.187,431.742,229.492,409.936,244.756,402.704z
	 M264.182,113.939c-0.108-3.465-0.096-4.476-4.477-4.476h-4.477h-4.476c-4.38,0-4.368,1.011-4.476,4.476
	c0.129,3.766,0.302,4.476,4.476,4.476h4.476h4.477C263.879,118.416,264.052,117.705,264.182,113.939z M137.933,294.705h-0.229
	c-0.888,0-1.606,0.72-1.606,1.607v7.114c0,0.888,0.72,1.607,1.606,1.607h0.229c0.888,0,1.606-0.72,1.606-1.607v-7.114
	C139.539,295.425,138.819,294.705,137.933,294.705z M168.232,279.555h-0.23c-0.888,0-1.607,0.72-1.607,1.607v9.87
	c0,0.888,0.719,1.606,1.607,1.606h0.23c0.888,0,1.606-0.719,1.606-1.606v-9.87C169.839,280.274,169.12,279.555,168.232,279.555z
	 M373.444,294.705h-0.229c-0.888,0-1.607,0.72-1.607,1.607v7.114c0,0.888,0.72,1.607,1.607,1.607h0.229
	c0.888,0,1.607-0.72,1.607-1.607v-7.114C375.051,295.425,374.332,294.705,373.444,294.705z M262.889,413.437l55.006,21.863v-3.558
	c0,0-37.933-21.807-53.197-29.038L262.889,413.437z M463.167,263.333c0,114.599-92.901,207.5-207.5,207.5
	c-114.599,0-207.5-92.901-207.5-207.5c0-114.599,92.901-207.5,207.5-207.5C370.265,55.833,463.167,148.734,463.167,263.333z
	 M307.566,221.365c0,3.168,0.767,5.202,2.181,6.468c-0.005,0.251,0.009,0.564,0.041,0.924l14.176,9.634l1.455-9.858
	c2.134-1.153,2.806-3.339,2.806-7.168v-13.084c0-7.564-0.65-9.768-10.319-9.373c-9.66-0.395-10.339,1.809-10.339,9.373V221.365z
	 M182.923,221.366c0,3.342,0.826,5.43,2.415,6.675l1.725,10.616l13.731-9.336c0.042-0.304,0.079-0.595,0.106-0.858
	c2.039-1.171,2.681-3.343,2.681-7.097v-13.084c0-7.564-0.65-9.768-10.32-9.373c-9.66-0.395-10.339,1.809-10.339,9.373V221.366z
	 M429.109,311.922l-138.301-93.998c-7.002-4.823-12.642-9.473-16.817-13.516l-0.168-0.602v-64.271
	c-1.378-22.266-5.193-35.007-5.193-35.007c-7.145-20.745-13.773-20.945-13.773-20.945s-6.901,0.2-14.044,20.945
	c0,0-4.175,12.742-5.552,35.007v64.269l0.186,2.222c-3.928,3.646-8.763,7.705-14.848,11.896L82.341,311.921
	c0,0-0.897,18.137,3.005,18.137c0,0,35.13-14.003,35.934-14.921c0,0,1.154,4.591,13.894-1.837c0,0,1.036,3.673,4.134-1.377
	c0,0,25.71-8.492,26.399-9.066c0,0,0.804,3.672,4.018-0.919c0,0,14.232-4.245,16.183-6.196c0,0,1.012-4.165-0.281-6.927l2.004,3.365
	c0,0,4.591,1.263,10.674-2.41c0,0-0.574,3.559,0.804,4.132c0,0,2.869,0.803,5.049,0.114c0,0,0.574,2.869,3.443,0
	c0,0,19.97-0.361,28.54-3.426l0.382,61.958c0,0,1.196,21.306,4.646,37.047c-9.481,12.1-49.311,37.243-52.392,41.572
	c0,0-0.689,7.521,1.09,9.961c0,0,26.666-3.809,60.312-12.221c1.268,4.235,2.557,7.842,3.781,10.126l1.954-0.001
	c1.223-2.285,2.512-5.893,3.779-10.13c33.654,8.416,60.328,12.226,60.328,12.226c1.779-2.439,1.09-9.961,1.09-9.961
	c-3.083-4.333-42.974-29.512-52.415-41.601c3.443-15.739,4.61-37.019,4.61-37.019l0.362-62.675
	c7.228,3.728,30.225,4.143,30.225,4.143c2.869,2.869,3.443,0,3.443,0c2.181,0.688,5.049-0.114,5.049-0.114
	c1.378-0.573,0.805-4.132,0.805-4.132c6.083,3.673,10.674,2.41,10.674,2.41l2.003-3.365c-1.292,2.762-0.28,6.927-0.28,6.927
	c1.952,1.951,16.183,6.196,16.183,6.196c3.214,4.591,4.018,0.919,4.018,0.919c0.688,0.574,26.396,9.066,26.396,9.066
	c3.1,5.05,4.132,1.377,4.132,1.377c12.74,6.428,13.889,1.837,13.889,1.837c0.803,0.918,35.923,14.921,35.923,14.921
	C430.028,330.058,429.109,311.922,429.109,311.922z M343.144,279.555h-0.229c-0.887,0-1.606,0.72-1.606,1.607v9.87
	c0,0.888,0.72,1.606,1.606,1.606h0.229c0.888,0,1.607-0.719,1.607-1.606v-9.87C344.751,280.274,344.032,279.555,343.144,279.555z"/>
</svg>
