<?xml version="1.0" encoding="utf-8"?>
<!-- Generator: Adobe Illustrator 16.0.0, SVG Export Plug-In . SVG Version: 6.00 Build 0)  -->
<!DOCTYPE svg PUBLIC "-//W3C//DTD SVG 1.1//EN" "http://www.w3.org/Graphics/SVG/1.1/DTD/svg11.dtd">
<svg version="1.1" id="brief-case" xmlns="http://www.w3.org/2000/svg" xmlns:xlink="http://www.w3.org/1999/xlink" x="0px" y="0px"
	 width="364.667px" height="364.667px" viewBox="28.792 22.625 364.667 364.667"
	 enable-background="new 28.792 22.625 364.667 364.667" xml:space="preserve">
<path id="main" d="M118.155,205.727l57.099-22.549v9.818l-45.852,17.262l45.852,17.101v9.872l-57.099-22.55V205.727z
	 M185.461,255.349h10.303l42.4-91.24h-10.249L185.461,255.349z M390.125,205.125c0,98.583-79.917,178.5-178.5,178.5
	s-178.5-79.917-178.5-178.5s79.917-178.5,178.5-178.5S390.125,106.542,390.125,205.125z M292.395,115.653
	c0,0.428,0.348,0.775,0.775,0.775h5.514c0.428,0,0.774-0.347,0.774-0.775v-0.216c0-0.428-0.347-0.775-0.774-0.775h-5.514
	c-0.428,0-0.775,0.347-0.775,0.775V115.653z M271.678,115.511c0.432-0.09,0.919-0.26,1.488-0.26h9.614
	c0.569,0,1.057,0.17,1.488,0.26c-0.898-1.663-2.284-2.615-3.843-2.615h-4.905C273.962,112.896,272.576,113.848,271.678,115.511z
	 M174.666,115.25h1.766v-3.532h0.692l0,1.177h11.416c-0.039-0.369-0.335-0.75-0.335-1.152v-0.025h1.178v3.532h1.766v-5.298h-2.7
	l-0.008-7.063c0.23-4.733,5.448-8.143,10.453-8.241l15.212,0.221l15.213-0.221c5.005,0.098,10.223,3.508,10.452,8.241l-0.008,7.063
	h-2.699v5.298h1.766v-3.532h1.177v0.025c0,0.403-0.296,0.783-0.335,1.152h11.416l0.001-1.177h0.69v3.532h1.767v-5.298h-2.456
	l0.009-11.904c-0.32-8.659-7.623-14.585-14.626-15.174h-22.366h-22.367c-7.002,0.589-14.305,6.515-14.625,15.174l0.009,11.904
	h-2.456V115.25z M139.231,115.511c0.432-0.09,0.92-0.26,1.488-0.26h9.614c0.569,0,1.058,0.17,1.489,0.26
	c-0.899-1.663-2.285-2.615-3.843-2.615h-4.905C141.516,112.896,140.129,113.848,139.231,115.511z M124.042,115.653
	c0,0.428,0.347,0.775,0.775,0.775h5.513c0.429,0,0.775-0.347,0.775-0.775v-0.216c0-0.428-0.347-0.775-0.775-0.775h-5.513
	c-0.429,0-0.775,0.347-0.775,0.775V115.653z M104.21,310.682h-6.646c0.15,1.321,1.58,2.943,3.323,2.943
	S104.059,312.003,104.21,310.682z M118.744,310.093h-12.361v1.178h12.361V310.093z M317.118,310.093h-12.361v1.178h12.361V310.093z
	 M325.937,310.682h-6.646c0.15,1.321,1.579,2.943,3.322,2.943S325.785,312.003,325.937,310.682z M335.367,124.632
	c-0.001-4.368-2.927-7.616-6.898-7.616H95.917c-3.972,0-7.783,3.248-7.783,7.616v176.667c0,4.369,3.811,8.205,7.783,8.205h232.551
	c3.972,0,6.898-3.837,6.898-8.205V124.632z M251.189,192.996l45.853,17.262l-45.853,17.101v9.872l57.099-22.55v-8.954
	l-57.099-22.549V192.996z"/>
</svg>
