<?xml version="1.0" encoding="utf-8"?>
<!-- Generator: Adobe Illustrator 16.0.0, SVG Export Plug-In . SVG Version: 6.00 Build 0)  -->
<!DOCTYPE svg PUBLIC "-//W3C//DTD SVG 1.1//EN" "http://www.w3.org/Graphics/SVG/1.1/DTD/svg11.dtd">
<svg version="1.1" id="camera_x5F_body" xmlns="http://www.w3.org/2000/svg" xmlns:xlink="http://www.w3.org/1999/xlink" x="0px"
	 y="0px" width="341.333px" height="341.333px" viewBox="74.833 15.833 341.333 341.333"
	 enable-background="new 74.833 15.833 341.333 341.333" xml:space="preserve">
<path id="main" d="M270.533,133.027c-33.249,0-60.202,26.953-60.202,60.202c0,33.248,26.953,60.202,60.202,60.202
	c33.247,0,60.201-26.954,60.201-60.202C330.734,159.98,303.781,133.027,270.533,133.027z M269.507,225.763
	c-17.402,0-31.509-14.107-31.509-31.51s14.107-31.509,31.509-31.509s31.51,14.107,31.51,31.509S286.91,225.763,269.507,225.763z
	 M152.435,168.508v80.184c0,1.343-1.089,2.433-2.434,2.433h-0.256c-1.344,0-2.434-1.09-2.434-2.433v-80.184
	c0-1.345,1.089-2.434,2.434-2.434h0.256C151.346,166.074,152.435,167.163,152.435,168.508z M245.667,18.835
	c-92.461,0-167.417,74.955-167.417,167.417c0,92.462,74.955,167.416,167.417,167.416c92.461,0,167.416-74.954,167.416-167.416
	C413.083,93.79,338.127,18.835,245.667,18.835z M140.691,131.121c3.466-1.319,7.821-2.107,12.554-2.107
	c3.254,0,6.329,0.373,9.06,1.034c-0.904,1.169-5.252,2.323-10.548,2.717c-6.019,0.448-10.979-0.256-11.077-1.573
	C140.679,131.168,140.69,131.145,140.691,131.121z M357.888,266.559l-225.115-0.448c-7.845,0-9.398-10.363-9.991-17.035
	c-0.699-7.869-0.578-6.656-1.431-90.43c-0.192-5.744,3.587-19.897,10.098-20.408l1.41-0.021c0.304-1.899,1.697-3.648,3.872-5.101
	c0.309,2.7,7.316,4.143,15.662,3.224c6.73-0.742,12.274-2.792,14.02-4.977c2.053,0.845,3.755,1.886,5.001,3.061
	c1.424-0.419,2.972-0.782,4.586-1.094c-1.613-1-2.738-2.825-2.945-4.997l-0.454-4.756c-0.335-3.503,1.822-6.755,5.133-7.072
	l33.471-3.197c3.311-0.316,6.284,2.447,6.618,5.949l0.455,4.757c0.05,0.522,0.032,1.034-0.034,1.53
	c3.172-2.816,3.983-5.596,3.983-5.596c6.292-18.237,14.875-25.09,14.875-25.09c11.208-7.301,32.726-5.892,32.726-5.892l14.41,0.342
	c25.742-0.225,29.076,20.792,29.076,20.792c2.332,12.275,8.81,18.519,17.095,21.424c-0.728-1.181-1.062-2.614-0.849-4.095
	l0.073-0.507c0.485-3.361,3.602-5.693,6.964-5.208l15.72,2.265c3.361,0.484,5.692,3.601,5.207,6.962l-0.072,0.507
	c-0.198,1.384-0.85,2.587-1.774,3.498l0.034,0.003c5.507,0.512,10.886,6.404,12.595,10.802c3.684,9.481,0.406,112.098,0.406,112.098
	C368.904,261.307,361.602,266.559,357.888,266.559z M279.499,194.766c0,5.518-4.473,9.991-9.991,9.991
	c-5.518,0-9.991-4.474-9.991-9.991c0-5.519,4.474-9.991,9.991-9.991C275.026,184.775,279.499,189.248,279.499,194.766z"/>
</svg>
