<?xml version="1.0" encoding="utf-8"?>
<!-- Generator: Adobe Illustrator 16.0.0, SVG Export Plug-In . SVG Version: 6.00 Build 0)  -->
<!DOCTYPE svg PUBLIC "-//W3C//DTD SVG 1.1//EN" "http://www.w3.org/Graphics/SVG/1.1/DTD/svg11.dtd">
<svg version="1.1" id="mug_x5F_body" xmlns="http://www.w3.org/2000/svg" xmlns:xlink="http://www.w3.org/1999/xlink" x="0px"
	 y="0px" width="211.5px" height="212.5px" viewBox="62.833 13.167 211.5 212.5" enable-background="new 62.833 13.167 211.5 212.5"
	 xml:space="preserve">
<path d="M216.4,92.422c0,12.011-25.346,21.748-56.613,21.748c-31.266,0-56.612-9.737-56.612-21.748s25.346-21.749,56.612-21.749
	C191.054,70.674,216.4,80.411,216.4,92.422z M233.813,102.362c-7.135,0-13.025,4.642-13.927,10.652
	c-0.005,1.041-0.011,2.095-0.018,3.158c0.806,6.088,6.297,11.064,13.944,10.703c7.921-0.374,13.983-5.488,14.051-12.257
	C247.937,107.145,241.573,102.362,233.813,102.362z M271.844,119.376c0,57.026-46.229,103.255-103.256,103.255
	c-57.026,0-103.255-46.229-103.255-103.255S111.562,16.121,168.588,16.121C225.615,16.121,271.844,62.35,271.844,119.376z
	 M255.113,114.32c-0.373-14.125-9.865-21.599-23.094-20.328c-4.742,0.456-8.767,1.561-12.053,3.223
	c0.013-2.831,0.021-4.56,0.021-4.568c0-13.621-27.003-24.663-60.312-24.663S99.363,79.026,99.363,92.646
	c0,0.04-0.224,52.103-0.224,52.103c0,0.559,0,1.12,0,1.688c0,15.469,27.033,28.007,60.312,28.007
	c32.567,0,59.012-12.01,60.13-27.021c0.059-0.131,0.123-6.44,0.185-14.73c3.158,1.354,7.18,2.235,12.254,2.552
	C245.274,136.076,255.381,124.495,255.113,114.32z"/>
</svg>
