<?xml version="1.0" encoding="utf-8"?>
<!-- Generator: Adobe Illustrator 16.0.0, SVG Export Plug-In . SVG Version: 6.00 Build 0)  -->
<!DOCTYPE svg PUBLIC "-//W3C//DTD SVG 1.1//EN" "http://www.w3.org/Graphics/SVG/1.1/DTD/svg11.dtd">
<svg version="1.1" id="controller" xmlns="http://www.w3.org/2000/svg" xmlns:xlink="http://www.w3.org/1999/xlink" x="0px" y="0px"
	 width="432.834px" height="432.999px" viewBox="53.167 48.5 432.834 432.999" enable-background="new 53.167 48.5 432.834 432.999"
	 xml:space="preserve">
<path id="main" d="M270.097,292.19c-2.635,0-4.78,2.144-4.78,4.778c0,2.636,2.145,4.779,4.78,4.779c2.635,0,4.78-2.144,4.78-4.779
	C274.877,294.334,272.731,292.19,270.097,292.19z M270.097,299.352c-1.313,0-2.383-1.07-2.383-2.383
	c0-1.313,1.069-2.382,2.383-2.382s2.383,1.068,2.383,2.382C272.479,298.281,271.41,299.352,270.097,299.352z M270.097,288.058
	c-4.915,0-8.912,3.997-8.912,8.911s3.999,8.911,8.912,8.911c4.914,0,8.911-3.997,8.911-8.911S275.011,288.058,270.097,288.058z
	 M270.097,302.409c-3.001,0-5.441-2.439-5.441-5.44c0-3,2.441-5.44,5.441-5.44c3,0,5.44,2.44,5.44,5.44
	C275.537,299.97,273.097,302.409,270.097,302.409z M270.097,283.43c-7.466,0-13.54,6.074-13.54,13.539
	c0,7.466,6.074,13.539,13.54,13.539s13.539-6.073,13.539-13.539C283.636,289.504,277.562,283.43,270.097,283.43z M270.097,306.542
	c-5.279,0-9.573-4.294-9.573-9.573c0-5.278,4.294-9.572,9.573-9.572c5.277,0,9.573,4.294,9.573,9.572
	C279.67,302.248,275.375,306.542,270.097,306.542z M270.097,278.72c-10.063,0-18.25,8.187-18.25,18.249
	c0,10.063,8.187,18.25,18.25,18.25s18.25-8.187,18.25-18.25C288.347,286.906,280.16,278.72,270.097,278.72z M270.097,311.17
	c-7.831,0-14.201-6.371-14.201-14.201s6.371-14.201,14.201-14.201c7.829,0,14.201,6.371,14.201,14.201
	S277.927,311.17,270.097,311.17z M186.695,207.628v5.088c0,7.995,0.153,9.543-6.92,9.543h-10.931v11.354
	c0,7.131-1.374,8.48-8.551,8.48h-5.087c-9.084,0-9.501-1.859-9.501-8.48v-11.354h-9.656c-6.752,0-8.195-2.366-8.195-9.543v-5.088
	c0-9.084,1.926-8.509,8.195-8.509h9.656v-11.685c0-7.64,3.505-7.488,9.501-7.488h5.087c7.995,0,8.551,0.018,8.551,7.488v11.685
	h10.931C187.009,199.119,186.695,201.633,186.695,207.628z M271.818,296.969c0,0.949-0.772,1.722-1.722,1.722
	c-0.95,0-1.722-0.772-1.722-1.722c0-0.948,0.772-1.722,1.722-1.722C271.046,295.247,271.818,296.021,271.818,296.969z
	 M381.569,172.839c0-6.117,4.957-11.075,11.073-11.075c6.117,0,11.074,4.958,11.074,11.075c0,6.116-4.957,11.074-11.074,11.074
	C386.526,183.913,381.569,178.955,381.569,172.839z M255.001,219.449c0-7.918,6.419-14.337,14.337-14.337
	c7.919,0,14.338,6.419,14.338,14.337c0,7.919-6.419,14.338-14.338,14.338C261.42,233.787,255.001,227.368,255.001,219.449z
	 M380.411,244.242c0,8.307-6.734,15.042-15.04,15.042c-8.308,0-15.041-6.735-15.041-15.042s6.733-15.041,15.041-15.041
	C373.677,229.202,380.411,235.936,380.411,244.242z M405.039,215.813c0,6.117-4.958,11.074-11.074,11.074
	s-11.074-4.958-11.074-11.074c0-6.116,4.958-11.074,11.074-11.074S405.039,209.697,405.039,215.813z M426.195,195.317
	c0,6.117-4.957,11.074-11.073,11.074c-6.117,0-11.074-4.958-11.074-11.074c0-6.116,4.957-11.074,11.074-11.074
	C421.238,184.244,426.195,189.201,426.195,195.317z M269.426,50.605C151.002,50.605,55,146.607,55,265.032
	s96.002,214.426,214.426,214.426s214.426-96.002,214.426-214.426S387.851,50.605,269.426,50.605z M410.537,372.671
	c-25.249-3.059-19.768-23.251-38.637-91.9c-9.174-1.433-19.587-5.124-45.537,12.562c-9.09,18.844-20.991,163.304-56.032,156.803
	c-0.112-0.021-0.221-0.061-0.331-0.088c-0.11,0.027-0.219,0.067-0.33,0.088c-35.041,6.501-46.942-137.959-56.033-156.803
	c-25.95-17.686-36.363-13.994-45.537-12.562c-18.87,68.649-13.388,88.842-38.636,91.9c-27.727,1.321-42.603-111.239-27.727-150.742
	c1.653-10.083-8.93-36.699,25.444-71.073c1.25-14.38,46.187-20.5,69.514-25.083c2.314-0.454,2.003-11.568,3.386-12.603
	C220.414,97.963,270,96.641,270,96.641s49.587,1.322,69.918,16.529c1.385,1.034,1.072,12.148,3.387,12.603
	c23.326,4.583,68.264,10.703,69.514,25.083c34.374,34.375,23.791,60.991,25.443,71.073
	C453.138,261.432,438.262,373.992,410.537,372.671z M269.008,256.804c-21.817,0-39.503,17.687-39.503,39.504
	c0,21.816,17.686,39.502,39.503,39.502c21.818,0,39.503-17.686,39.503-39.502C308.512,274.491,290.826,256.804,269.008,256.804z
	 M270.097,315.88c-10.428,0-18.912-8.484-18.912-18.911s8.484-18.911,18.912-18.911c10.427,0,18.911,8.484,18.911,18.911
	S280.523,315.88,270.097,315.88z M382.561,193.996c0,6.116-4.958,11.074-11.074,11.074s-11.074-4.958-11.074-11.074
	c0-6.117,4.958-11.075,11.074-11.075S382.561,187.879,382.561,193.996z M354.627,216.474c0,8.307-6.734,15.042-15.042,15.042
	c-8.306,0-15.04-6.735-15.04-15.042s6.734-15.041,15.04-15.041C347.893,201.434,354.627,208.167,354.627,216.474z"/>
</svg>
