<?xml version="1.0" encoding="utf-8"?>
<!-- Generator: Adobe Illustrator 16.0.0, SVG Export Plug-In . SVG Version: 6.00 Build 0)  -->
<!DOCTYPE svg PUBLIC "-//W3C//DTD SVG 1.1//EN" "http://www.w3.org/Graphics/SVG/1.1/DTD/svg11.dtd">
<svg version="1.1" id="design_x5F_2" xmlns="http://www.w3.org/2000/svg" xmlns:xlink="http://www.w3.org/1999/xlink" x="0px"
	 y="0px" width="538.75px" height="540.5px" viewBox="0 0 538.75 540.5" enable-background="new 0 0 538.75 540.5"
	 xml:space="preserve">
<path id="circle_x5F_design" d="M430.838,207.457c-4.712-7.773-3.742-17.207,0.611-23.207H104.98c4.352,6,4.204,15.434-0.51,23.207
	c-5.322,8.777-15.721,12.108-24.721,9.918v108.882c9-2.19,19.398,1.575,24.721,10.353c4.713,7.773,4.862,18.641,0.51,23.641h326.469
	c-4.354-5-5.323-15.867-0.611-23.641c5.188-8.556,14.912-12.324,22.912-10.501V217.523
	C445.75,219.349,436.025,216.01,430.838,207.457z M136.875,295.357c-13.942,0-25.245-11.302-25.245-25.244
	c0-13.941,11.302-25.245,25.245-25.245c13.941,0,25.243,11.303,25.243,25.245C162.119,284.056,150.816,295.357,136.875,295.357z
	 M268.215,343.801c-29.769,0-53.9-31.998-53.9-71.469c0-39.473,24.131-71.471,53.9-71.471c29.768,0,53.899,31.998,53.899,71.471
	C322.114,311.803,297.983,343.801,268.215,343.801z M399.557,295.357c-13.943,0-25.246-11.302-25.246-25.244
	c0-13.941,11.303-25.245,25.246-25.245c13.94,0,25.243,11.303,25.243,25.245C424.8,284.056,413.497,295.357,399.557,295.357z
	 M294.989,293.546c0,11.31-8.239,21.905-23.239,24.338v16.366h-7v-15.938c-8-0.143-17.284-2.72-22.296-6.297l3.043-9.593
	c5.153,3.436,12.59,6.156,20.607,6.156c10.163,0,17.02-5.868,17.02-14.028c0-7.874-5.609-12.742-16.203-17.036
	c-14.603-5.726-23.676-12.312-23.676-24.767c0-11.882,8.505-20.9,21.505-23.047V215.25h9v13.878c8,0.286,14.487,2.577,18.64,5.011
	l-3.55,9.448c-3.008-1.717-8.914-4.868-18.075-4.868c-11.022,0-15.253,6.585-15.253,12.311c0,7.445,5.142,11.167,17.598,16.32
	C287.853,273.364,294.989,280.808,294.989,293.546z M269.25,3.25c-147.736,0-267.5,119.764-267.5,267.5s119.764,267.5,267.5,267.5
	s267.5-119.764,267.5-267.5S416.986,3.25,269.25,3.25z M482.182,389.25H56.12c-6.837,0-12.37-6.772-12.37-13.556V167.938
	c0-6.782,5.533-11.688,12.37-11.688h426.062c6.836,0,12.568,4.906,12.568,11.688v207.756
	C494.75,382.478,489.018,389.25,482.182,389.25z"/>
</svg>
