<?xml version="1.0" encoding="utf-8"?>
<!-- Generator: Adobe Illustrator 16.0.0, SVG Export Plug-In . SVG Version: 6.00 Build 0)  -->
<!DOCTYPE svg PUBLIC "-//W3C//DTD SVG 1.1//EN" "http://www.w3.org/Graphics/SVG/1.1/DTD/svg11.dtd">
<svg version="1.1" id="Gcap" xmlns="http://www.w3.org/2000/svg" xmlns:xlink="http://www.w3.org/1999/xlink" x="0px" y="0px"
	 width="283.251px" height="286.25px" viewBox="43.25 77.708 283.251 286.25" enable-background="new 43.25 77.708 283.251 286.25"
	 xml:space="preserve">
<path id="main" d="M184.5,79.221c-77.543,0-140.404,62.861-140.404,140.404S106.957,360.029,184.5,360.029
	s140.404-62.861,140.404-140.404S262.043,79.221,184.5,79.221z M103.852,144.168l15.828-26.75l30.829-3.951l30.828-3.951
	l-15.827,26.75l-15.827,26.75l-30.829,3.951l-30.83,3.951L103.852,144.168z M102.092,204.333v13.773c0,1.462-5.85,1.462-5.85,0
	v-13.773c0-0.858,0.387-1.625,0.994-2.14c-1.035-0.646-1.726-1.792-1.726-3.101c0-1.301,0.682-2.441,1.707-3.089v-24.312l3.9-0.5
	v24.812c1.024,0.648,1.706,1.788,1.706,3.089c0,1.31-0.691,2.456-1.725,3.101C101.706,202.707,102.092,203.474,102.092,204.333z
	 M120.143,168.925l30.829-3.951l15.828-26.75l5.507-9.308l19.359,30.005c-1.805-0.1-3.631-0.155-5.484-0.155
	c-11.721,0-21.959,2.171-30.713,6.515c-8.757,4.343-16.064,10.17-21.923,17.477c-2.634,3.285-4.973,6.815-7.021,10.586
	l-17.149-23.039L120.143,168.925z M253.562,312.881h-12.41l-5.171-18.407c-5.791,7.724-12.962,13.271-21.509,16.648
	c-8.551,3.378-17.167,5.068-25.854,5.068c-11.032,0-20.889-2.037-29.575-6.103c-8.687-4.064-16.064-9.545-22.13-16.441
	c-6.069-6.894-10.687-14.82-13.857-23.785c-3.173-8.962-4.757-18.269-4.757-27.921c0-10.756,1.48-20.993,4.447-30.714
	c2.963-9.72,7.374-18.232,13.237-25.542c5.859-7.307,13.166-13.133,21.923-17.477c8.754-4.343,18.993-6.515,30.713-6.515
	c7.995,0,15.545,0.931,22.647,2.792c7.1,1.861,13.443,4.792,19.027,8.79c5.584,4.001,10.27,9.068,14.064,15.202
	c3.79,6.137,6.376,13.547,7.756,22.233h-19.648c-0.967-5.652-2.76-10.512-5.377-14.581c-2.621-4.065-5.862-7.41-9.721-10.031
	c-3.862-2.618-8.241-4.582-13.133-5.895c-4.896-1.309-10.103-1.964-15.615-1.964c-8.965,0-16.649,1.793-23.061,5.377
	c-6.412,3.587-11.653,8.309-15.719,14.167c-4.069,5.862-7.068,12.549-8.997,20.062c-1.932,7.517-2.895,15.202-2.895,23.061
	c0,7.725,1.102,15.135,3.309,22.234c2.204,7.102,5.445,13.375,9.721,18.819c4.272,5.449,9.546,9.793,15.822,13.031
	c6.272,3.24,13.547,4.86,21.82,4.86c7.721,0,14.546-1.241,20.476-3.723c5.926-2.482,10.926-5.895,14.995-10.238
	c4.065-4.343,7.135-9.442,9.203-15.306c2.067-5.858,2.963-12.167,2.688-18.924h-47.155v-16.545h64.735V312.881z"/>
</svg>
