<?xml version="1.0" encoding="utf-8"?>
<!-- Generator: Adobe Illustrator 16.0.0, SVG Export Plug-In . SVG Version: 6.00 Build 0)  -->
<!DOCTYPE svg PUBLIC "-//W3C//DTD SVG 1.1//EN" "http://www.w3.org/Graphics/SVG/1.1/DTD/svg11.dtd">
<svg version="1.1" id="Layer_1" xmlns="http://www.w3.org/2000/svg" xmlns:xlink="http://www.w3.org/1999/xlink" x="0px" y="0px"
	 width="535px" height="537px" viewBox="-38 -193.75 535 537" enable-background="new -38 -193.75 535 537" xml:space="preserve">
<path id="main" d="M184.5,120.438c0.99-0.002,1.99-0.003,3-0.005v4.299h-3V120.438z M204.5,124.732h3v-4.336
	c-1.008,0.002-2.009,0.004-3,0.006V124.732z M184.5,106h3V73.605l-3,0.034V106z M184.5,114.449c0.989-0.002,1.989-0.003,3-0.004
	v-4.178h-3V114.449z M121.949,120.466c1.646,2.514,5.312,4.267,9.579,4.267H167.5v-4.271
	C147.993,120.484,133.204,120.483,121.949,120.466z M76.268,84.031c-4.317,7.272-1.922,14.449-0.089,19
	c1.834,4.55,5.421,10.424,14.684,11.074c1.775,0.124,2.714,0.26,21.064,0.328C113.27,109.573,117.712,106,123,106h44.5V73.832
	l-76.283,0.863C84.665,74.694,80.584,76.759,76.268,84.031z M122,114.461c10.708,0.02,25.354,0.024,45.5,0.007v-4.2h-35.972
	C127.303,110.268,123.67,111.986,122,114.461z M312.472,110.268H224.5v4.117c26.612-0.051,58.656-0.122,97.29-0.222
	C320.037,111.85,316.525,110.268,312.472,110.268z M348.238,72.589c-6.869-0.201-15.076-0.384-23.06-0.541L224.5,73.187V106H321
	c5.181,0,9.559,3.427,10.997,8.137c3.815-0.011,7.691-0.021,11.631-0.031c6.553-0.78,10.372-6.691,10.372-12.081V82.503
	C354,78.328,352.125,74.229,348.238,72.589z M204.5,114.42c0.991-0.002,1.991-0.004,3-0.005v-4.147h-3V114.42z M493.5,75.831
	c0,145.803-118.197,264-264,264c-145.803,0-264-118.197-264-264c0-145.803,118.197-264,264-264
	C375.303-188.169,493.5-69.972,493.5,75.831z M454.909,59.872c-0.546-28.581-3.694-51.7-7.031-51.636
	c-1.496,0.029-2.775,4.723-3.683,12.457c-16.143,29.123-78.57,28.558-78.57,28.558C363,50.375,293.25,53.5,293.25,53.5
	c-7.062,0.845-33.938,1.761-67.793,2.625c0.012-0.108,0.043-0.218,0.043-0.325v-0.6c0-1.491-1.181-2.2-2.561-2.2h-1.704
	c0.164-0.287,0.265-0.615,0.265-0.969v-0.062c0-1.087-0.881-1.969-1.969-1.969H218.5V39h3c1.104,0,2-0.896,2-2s-0.896-2-2-2h-11
	c-1.104,0-2,0.896-2,2s0.896,2,2,2h3v11h-0.031c-1.087,0-1.969,0.881-1.969,1.969v0.062c0,0.354,0.101,0.682,0.265,0.969h-2.704
	c-1.379,0-2.561,0.709-2.561,2.2v0.6c0,0.259,0.038,0.523,0.104,0.785c-0.405,0.009-0.809,0.019-1.215,0.028
	c0.071-0.27,0.111-0.544,0.111-0.813v-0.6c0-1.491-1.181-2.2-2.561-2.2h-1.704c0.164-0.287,0.265-0.615,0.265-0.969v-0.062
	c0-1.087-0.881-1.969-1.969-1.969H198.5V39h3c1.104,0,2-0.896,2-2s-0.896-2-2-2h-11c-1.104,0-2,0.896-2,2s0.896,2,2,2h3v11h-0.031
	c-1.087,0-1.969,0.881-1.969,1.969v0.062c0,0.354,0.101,0.682,0.265,0.969h-2.704c-1.379,0-2.561,0.709-2.561,2.2v0.6
	c0,0.409,0.09,0.832,0.248,1.232c-0.511,0.011-1.021,0.022-1.533,0.033c0.168-0.412,0.285-0.843,0.285-1.266v-0.6
	c0-1.491-1.181-2.2-2.561-2.2h-1.704c0.164-0.287,0.265-0.615,0.265-0.969v-0.062c0-1.087-0.881-1.969-1.969-1.969H178.5V39h3
	c1.104,0,2-0.896,2-2s-0.896-2-2-2h-11c-1.104,0-2,0.896-2,2s0.896,2,2,2h3v11h-0.031c-1.087,0-1.969,0.881-1.969,1.969v0.062
	c0,0.354,0.101,0.682,0.265,0.969h-2.704c-1.379,0-2.561,0.709-2.561,2.2v0.6c0,0.555,0.167,1.137,0.445,1.651
	C105.086,58.72,42.959,59.67,37.468,59.754C37.39,59.329,37.034,59,36.586,59h-0.172c-0.505,0-0.914,0.409-0.914,0.914V60h-3.577
	c-0.451-0.606-1.121-1-1.881-1h-0.084c-0.76,0-1.43,0.394-1.881,1H26c-0.658,0-1.279,0.144-1.843,0.392
	C22.762,58.345,20.413,57,17.749,57H14.4c-0.464-2.282-2.48-4-4.899-4c-2.761,0-5,2.239-5,5v6.751v0.497V71c0,2.761,2.239,5,5,5
	c2.049,0,3.806-1.236,4.578-3h3.671c3.009,0,5.612-1.718,6.896-4.224C25.075,68.909,25.524,69,26,69h1.985
	c0.447,0.624,1.162,1,1.973,1h0.084c0.812,0,1.526-0.376,1.973-1H35.5v0.086c0,0.505,0.409,0.914,0.914,0.914h0.172
	c0.417,0,0.754-0.284,0.864-0.665c3.793,0.007,22.933,0.045,49.191,0.132L84.209,69.5c-6.926,0-11.24,2.646-15.803,11.964
	c-4.563,9.318-2.032,18.515-0.094,24.347c1.938,5.83,5.73,13.356,15.522,14.189c2.048,0.174,3.041,0.365,28.061,0.443
	C113.196,125.366,117.668,129,123,129h44.5v17.25c0,1.706,0.411,3.309,1.112,4.704c-0.681,0.639-1.112,1.539-1.112,2.546
	c0,1.934,1.567,3.5,3.5,3.5h11c1.933,0,3.5-1.566,3.5-3.5c0-1.312-0.73-2.441-1.798-3.041c0.506-1.275,0.798-2.699,0.798-4.209V129
	h3v17.25c0,1.706,0.411,3.309,1.112,4.704c-0.681,0.639-1.112,1.539-1.112,2.546c0,1.934,1.567,3.5,3.5,3.5h11
	c1.933,0,3.5-1.566,3.5-3.5c0-1.312-0.73-2.441-1.798-3.041c0.506-1.275,0.798-2.699,0.798-4.209V129h3v17.25
	c0,1.706,0.411,3.309,1.112,4.704c-0.681,0.639-1.112,1.539-1.112,2.546c0,1.934,1.567,3.5,3.5,3.5h11c1.933,0,3.5-1.566,3.5-3.5
	c0-1.312-0.73-2.441-1.798-3.041c0.506-1.275,0.798-2.699,0.798-4.209V129H321c5.471,0,10.039-3.822,11.204-8.939
	c6.124-0.02,12.396-0.04,18.832-0.061c6.926-1,10.964-8.574,10.964-15.48V79.506c0-2.235-0.35-4.451-1.051-6.432
	c2.171,0.123,3.559,0.248,3.893,0.375c0,0,66.106-3.447,81.15,27.771c1.143,6.621,2.485,10.547,3.863,10.521
	C453.193,111.675,455.455,88.454,454.909,59.872z M204.5,106h3V73.379l-3,0.034V106z M224.5,124.732h87.972
	c4.476,0,8.288-1.929,9.804-4.642c-38.604,0.119-70.834,0.207-97.775,0.269V124.732z"/>
</svg>
