<?xml version="1.0" encoding="utf-8"?>
<!-- Generator: Adobe Illustrator 16.0.0, SVG Export Plug-In . SVG Version: 6.00 Build 0)  -->
<!DOCTYPE svg PUBLIC "-//W3C//DTD SVG 1.1//EN" "http://www.w3.org/Graphics/SVG/1.1/DTD/svg11.dtd">
<svg version="1.1" id="head" xmlns="http://www.w3.org/2000/svg" xmlns:xlink="http://www.w3.org/1999/xlink" x="0px" y="0px"
	 width="303.75px" height="305px" viewBox="89.5 60.5 303.75 305" enable-background="new 89.5 60.5 303.75 305"
	 xml:space="preserve">
<path id="main" d="M226.333,300.129l0.091-0.073l-0.121,0.106L226.333,300.129z M220.428,302.439
	c0.01,0.024,0.026,0.052,0.051,0.087c0.032-0.007-0.011-0.14-0.023-0.202c0,0-0.001,0.001-0.001,0.001
	C220.46,302.384,220.449,302.418,220.428,302.439z M232.496,295.798l0.001,0.003l0.02-0.01L232.496,295.798z M259.793,301.898
	c0.011-0.025,0.02-0.056,0.025-0.098c-0.027-0.019-0.091,0.105-0.125,0.158l0.001,0.001
	C259.731,301.914,259.765,301.897,259.793,301.898z M233.207,295.457c0.052,0.03,0.098,0.04,0.14,0.041
	c0.002-0.014,0.007-0.026,0.004-0.043L233.207,295.457z M262.674,303.664l-0.084,0.013
	C262.615,303.685,262.646,303.698,262.674,303.664z M232.953,296.812c0.032-0.003,0.049,0.01,0.079-0.025
	c-0.007-0.005-0.012-0.008-0.019-0.01C233.008,296.801,232.994,296.818,232.953,296.812z M233.911,296.487l-0.094-0.129
	C233.773,296.411,233.838,296.576,233.911,296.487z M261.414,303.268c0.056,0.033,0.114,0.159,0.21,0.159l0.021-0.035
	C261.58,303.448,261.5,303.208,261.414,303.268z M237.307,294.71c-0.078,0.026-0.178,0.007-0.207,0.044
	C237.171,294.808,237.285,294.808,237.307,294.71z M229.418,297.458c0.007-0.005,0.015-0.011,0.021-0.017
	C229.48,297.391,229.449,297.418,229.418,297.458z M251.3,297.637l0.002,0.003c0.036,0,0.021-0.005-0.002-0.005
	C251.3,297.636,251.301,297.635,251.3,297.637C251.3,297.636,251.3,297.637,251.3,297.637z M254.325,300.266l0.087-0.089
	l-0.136-0.021L254.325,300.266z M262.54,303.703c0.002-0.01,0.006-0.017,0.01-0.021l-0.04,0.005L262.54,303.703z M246.3,295.56
	c0.001,0.013,0.006,0.023,0.009,0.035l0.038,0.011L246.3,295.56z M261.902,303.462l0.042,0.007c0.01-0.019,0.017-0.037,0.012-0.052
	C261.938,303.447,261.923,303.461,261.902,303.462z M261.932,303.492c0.025,0,0.05-0.009,0.073-0.021c-0.021,0-0.041,0-0.061-0.002
	L261.932,303.492z M247.327,296.042c0.001,0.009,0.002,0.015,0.004,0.021c0.022-0.011,0.044-0.011,0.065,0.024
	C247.374,296.065,247.373,296.043,247.327,296.042z M240.766,281.509c0,0-0.001-0.083-0.001-0.08
	c-0.001-0.006-0.007-0.096-0.01-0.101c-0.022,0.001-0.044,0.001-0.066,0.001c0.026,0.051,0.034,0.101,0.045,0.151
	c0.009,0.017,0.017,0.028,0.022,0.028C240.759,281.509,240.762,281.509,240.766,281.509z M220.55,301.549
	c0.003,0,0.005,0.001,0.009,0.001l0.002-0.001H220.55z M263.29,303.791l0.134-0.031c0.024-0.044,0.014-0.139-0.066-0.128
	L263.29,303.791z M262.929,303.485c-0.018-0.041,0.018-0.078,0.029-0.107c-0.096,0.062-0.229,0.176-0.213,0.336
	c0.123-0.136,0.129-0.066,0.258-0.231c0.073-0.003,0.112,0.08,0.089,0.137c0.027-0.032,0.117,0.054,0.169-0.045
	C263.174,303.44,263.073,303.41,262.929,303.485z M239.542,292.343c-0.153,0.111-0.109-0.26-0.291-0.083
	C239.311,292.251,239.424,292.499,239.542,292.343z M259.798,302.623c0.017-0.02,0.026-0.036,0.034-0.052l-0.001-0.001
	L259.798,302.623z M219.916,301.965l0.003,0.028c0.001,0.001,0.003,0.001,0.005,0.002
	C219.921,301.981,219.917,301.985,219.916,301.965z M246.885,297.078l0.001-0.002l-0.02-0.01L246.885,297.078z M250.116,298.435
	c-0.009-0.003-0.017-0.005-0.026-0.005C250.024,298.429,250.065,298.437,250.116,298.435z M234.05,296.281
	c-0.011-0.007-0.021-0.01-0.033-0.016l-0.032,0.023L234.05,296.281z M217.215,302.846c0.003,0.009,0.003,0.017,0.003,0.023
	l0.028-0.026L217.215,302.846z M217.792,302.685c-0.019,0.015-0.032,0.035-0.042,0.06c0.015-0.013,0.031-0.024,0.046-0.034
	L217.792,302.685z M246.546,295.54l-0.043,0.154C246.571,295.696,246.66,295.542,246.546,295.54z M240.868,284.588l0.057,0.07
	l-0.05-0.135L240.868,284.588z M243.22,294.097c0-0.089-0.069-0.179-0.159-0.137C243.128,294.005,243.174,294.096,243.22,294.097z
	 M241.293,292.136c0.05-0.029,0.253,0.126,0.298-0.051C241.495,292.241,241.388,291.91,241.293,292.136z M218.316,302.538
	c-0.063,0.01-0.185-0.05-0.255,0.011l0.006,0.041C218.08,302.505,218.29,302.64,218.316,302.538z M224.844,300.535l0.042,0.122
	C224.962,300.603,224.866,300.612,224.844,300.535z M197.658,202.001c0.831,0,1.503-0.673,1.503-1.503
	c0-0.831-0.673-1.503-1.503-1.503c-0.83,0-1.503,0.673-1.503,1.503S196.828,202.001,197.658,202.001z M225.323,299.501l0.01,0.125
	l0.105-0.09L225.323,299.501z M290.94,198.289c1.253,1.531,2.005,3.494,2.005,5.633c0,4.889-3.926,8.853-8.769,8.853
	s-8.77-3.963-8.77-8.853c0-3.565,2.094-6.63,5.104-8.033c-4.292,0.63-6.984,3.259-7.441,9.537
	c-0.679,9.342,5.336,4.905,11.107,8.685c7.265,4.76,10.983-2.123,12.025-6.43C296.981,204.458,294.567,200.715,290.94,198.289z
	 M392,213c0,83.119-67.381,150.5-150.5,150.5C158.381,363.5,91,296.119,91,213c0-83.119,67.381-150.5,150.5-150.5
	C324.619,62.5,392,129.881,392,213z M359.003,197.074c-0.667-21.296-14.53-36.579-14.53-36.579
	c-4.071-3.006-12.402-3.758-12.402-3.758c-23.55-31.192-32.694-31.317-32.694-31.317c-3.75-1.244-11.149,0.125-11.149,0.125
	C261.42,112.268,240.5,110.89,240.5,110.89s-20.92,1.378-47.727,14.656c0,0-7.399-1.369-11.149-0.125c0,0-9.145,0.125-32.695,31.317
	c0,0-8.33,0.751-12.401,3.758c0,0-13.863,15.283-14.531,36.579c-0.27,8.612,16.034,43.781,24.803,51.61
	c1.336,1.192-1.002,26.432,3.758,27.308c0,0,8.268,0.251,11.024-73.406c0,0,0.751,39.668,14.865,61.715
	c10.58,25.055,4.877,27.955,22.966,44.512c15.783,14.447,19.792,3.424,41.088,7.517c21.297-4.093,25.305,6.931,41.088-7.517
	c18.088-16.557,12.386-19.457,22.966-44.512c14.114-22.047,14.865-61.715,14.865-61.715c2.756,73.657,11.023,73.406,11.023,73.406
	c4.76-0.876,2.422-26.115,3.758-27.308C342.969,240.855,359.273,205.686,359.003,197.074z M283.342,202.001
	c0.83,0,1.503-0.673,1.503-1.503c0-0.831-0.673-1.503-1.503-1.503s-1.504,0.673-1.504,1.503S282.512,202.001,283.342,202.001z
	 M226.725,299.084c0.02-0.038,0.039-0.073,0.063-0.103C226.733,298.994,226.693,299.011,226.725,299.084z M217.833,302.69
	l-0.035,0.02c0.003,0.021,0.009,0.04,0.021,0.05C217.814,302.724,217.818,302.704,217.833,302.69z M217.131,302.948l0.059-0.055
	C217.167,302.901,217.136,302.905,217.131,302.948z M219.578,302.729l-0.224,0.045c0.057,0.036,0.132,0.086,0.042,0.135
	C219.719,302.957,219.297,302.818,219.578,302.729z M216.624,303.208l0.03-0.169l-0.08,0.054
	C216.548,303.136,216.566,303.236,216.624,303.208z M216.947,303.252c-0.062,0.034-0.125-0.026-0.125-0.088
	c-0.019,0.051-0.096-0.025-0.118,0.083c0.094,0.124,0.216,0.101,0.304-0.028c0.033,0.03,0.019,0.077,0.02,0.108
	c0.063-0.097,0.112-0.252,0.025-0.39C217.02,303.109,216.988,303.049,216.947,303.252z M220.289,302.646
	c0.052-0.074,0.064-0.093-0.038-0.103C220.149,302.611,220.283,302.615,220.289,302.646z M223.429,301.075l0.124,0.002
	C223.538,301.025,223.483,301.064,223.429,301.075z M255.484,299.838c-0.091-0.021-0.021,0.046-0.063,0.112L255.484,299.838z
	 M259.991,301.948c0.12,0.021,0.028-0.074,0.046-0.1C259.948,301.866,259.927,301.87,259.991,301.948z M256.759,300.65l-0.082-0.093
	C256.647,300.604,256.713,300.617,256.759,300.65z M200.49,195.889c3.01,1.403,5.103,4.468,5.103,8.033
	c0,4.889-3.926,8.853-8.769,8.853s-8.769-3.963-8.769-8.853c0-2.14,0.752-4.102,2.004-5.633c-3.626,2.426-6.041,6.17-5.261,9.391
	c1.042,4.308,4.76,11.19,12.026,6.43c5.771-3.781,11.786,0.657,11.106-8.685C207.474,199.148,204.782,196.519,200.49,195.889z
	 M254.188,299.091l-0.158-0.022l0.114,0.022H254.188z M260.6,302.28l0.191,0.119c-0.017-0.065-0.037-0.151,0.062-0.127
	C260.652,302.02,260.862,302.407,260.6,302.28z M263.73,263.132c0,9.854-10.232,17.9-22.948,18.195
	c0.02-0.313,0.028-0.302-0.181-0.257c0.189-0.009,0.01-0.563-0.078-0.563h0.14c-0.021,0-0.035-0.095-0.053-0.107
	c-0.068,0-0.137-0.032-0.207-0.031c0.025,0.02,0.049,0.021,0.08,0.048l-0.139-0.038c0.08,0.17,0.241,0.488,0.052,0.486
	c0.267-0.041,0.167,0.3,0.138,0.471c0.052,0,0.103-0.003,0.153-0.004c-0.009-0.018-0.016,0.054-0.027,0.037
	c0.02,0.003,0.049,0.073,0.072,0.112c0.05,0.239-0.042,0.486-0.031,0.728l-0.21,0.057c0.014,0.164,0.434,0.195,0.431,0.373
	l-0.104-0.061c0.046,0.314,0.034,0.441,0.007,0.698l-0.142,0.001c0.07,0.088,0.074,0.202,0.144,0.291
	c-0.336,0.225,0.219,0.816-0.146,1.216l0.265,0.011c0.002,0.146,0.065,0.328-0.13,0.407l0.002-0.032
	c-0.202-0.003,0.003,0.146-0.037,0.239c0.026,0.067,0.162,0.128,0.199,0.067c-0.112,0.394,0.062,0.957-0.16,1.213
	c0.112,0.382,0.343,0.657,0.349,1.074l-0.031-0.003c-0.025,0.145-0.072,0.43-0.292,0.448c0.077,0.297,0.396,0.459,0.334,0.823
	l-0.092-0.069c-0.034,0.095,0.085,0.229,0.115,0.262c-0.001,0.032-0.047,0.013-0.079,0.012c-0.066,0.094,0.058,0.132,0.087,0.197
	l-0.077-0.02c-0.122,0.301,0.229,0.711,0.241,1.074c-0.031-0.063-0.11-0.018-0.141,0.014c0.264,0.114,0.265,0.522,0.346,0.661
	l-0.11-0.076c0.207,0.262-0.214,0.293-0.001,0.551l0.109-0.193c-0.021,0.125,0.046,0.205,0.147,0.157
	c-0.053,0.147-0.181,0.038-0.164,0.244c-0.067,0.023-0.076-0.163-0.15-0.079l-0.118,0.266h0.001c-0.001,0-0.002,0.057-0.002,0.059
	c-0.015,0.015-0.014,0.104,0.027,0.188c0.292-0.096,0.072,0.225,0.328,0.015c0.111,0.358,0.035,0.772,0.285,0.913
	c-0.109,0.109-0.059,0.196,0.012,0.241c0.088,0.059,0.229,0.155,0.118,0.313c0.181,0.094,0.364,0.099,0.545,0.015
	c-0.022-0.046-0.09-0.025-0.135-0.026c0.092-0.064,0.32,0.029,0.412,0.076c-0.159,0.02-0.38-0.009-0.538,0.076
	c0.182,0.048,0.49,0.033,0.604,0.036l-0.019,0.198c0.204-0.062-0.177,0.201,0.324,0.095v-0.066c0,0.14,0.289-0.035,0.539,0.059
	l-0.097,0.065c0.068,0.067,0.272-0.039,0.273,0.161l-0.159-0.07c-0.045,0.133,0.047,0.245,0.07,0.334
	c0.182,0.049,0.157-0.174,0.249-0.15c-0.021,0.134-0.022,0.066-0.136,0.153c0.205,0.049,0.479,0.121,0.682,0.037
	c0,0.021-0.022,0.043-0.022,0.043c0.182,0.114,0.454-0.013,0.523,0.144l-0.046-0.001c0.071,0.247,0.478,0.033,0.366,0.341
	c0.047,0.09-0.159-0.092-0.112,0.108c0.184,0.204,0.271-0.171,0.432,0.009c-0.023-0.022-0.022-0.001-0.045,0.021
	c0.148,0.063,0.356,0.129,0.532,0.177c0.081,0.335,0.633,0.233,0.726,0.621c-0.024-0.134,0.113-0.087,0.135-0.131
	c0,0-0.021,0.021-0.021,0.044c0.079,0.048,0.134-0.042,0.184-0.065c0.027,0.117,0.273,0.019,0.29,0.096
	c0.03-0.062,0.089-0.013,0.162,0.023c-0.181-0.002-0.111,0.109-0.225,0.175c0.207,0.137,0.385-0.149,0.591,0.009l0.071,0.178
	c0.111-0.165,0.29,0.009,0.317-0.06c0.013,0.074,0.055,0.135,0.004,0.22c0.112,0.001,0.206,0.158,0.295,0.07l-0.069-0.09
	c0.253,0.203,0.545,0.029,0.708,0.252l-0.132,0.265c0.094,0.179,0.34-0.018,0.389,0.204c-0.001-0.11-0.023-0.088,0.112-0.132
	c-0.047-0.045-0.182-0.024-0.273-0.07l0.271-0.062l-0.342-0.07c0.181-0.042,0.159-0.021,0.156-0.154
	c0.228,0.002,0.14,0.224,0.366,0.204c0.047,0.066-0.065,0.132-0.018,0.221c0.202-0.02,0.209,0.335,0.39,0.248
	c0.023,0.045-0.068-0.022-0.09,0.044c0.114,0.023,0.183,0.068,0.25,0.002l-0.073-0.07c0.073,0.043,0.138-0.06,0.254,0.072
	c0.114-0.021,0.226-0.131,0.134-0.177c0.045,0,0.094,0.111,0.026,0.178c0.227,0.112,0.244-0.23,0.404-0.003
	c-0.001,0-0.001,0-0.002,0l0.002,0.002c-0.02,0.002-0.041,0.009-0.04,0.027c0.046,0.045,0.091,0.069,0.137,0.07
	c-0.206-0.069-0.04,0.247-0.248,0.09c-0.042,0.155,0.162,0.12,0.21,0.209c0.157-0.043,0.107-0.184,0.198-0.228
	c-0.022,0.044,0.024,0.097,0.07,0.142l-0.003-0.073c0.046,0.022,0.092,0.166,0.16,0.166h-0.115c0.094,0,0.167,0.191,0.394,0.171
	c-0.068,0.021-0.203-0.057-0.109,0.055c0.228,0.022,0.023,0.065,0.095,0.2c0.206,0.067,0.125-0.177,0.38,0.024
	c0.03,0.015,0.031-0.062,0.015-0.105c0.171,0.143,0.312,0.117,0.466,0.284c-0.07-0.067-0.116-0.134,0.02-0.134
	c-0.09,0.066,0.117,0.155,0.166,0.244l0.044-0.045c0.031,0.086-0.042,0.079-0.1,0.077c0.01-0.018,0.001-0.043-0.036-0.055
	c-0.114,0-0.176,0.222-0.037,0.311c0.183,0.023,0.224-0.133,0.222-0.199c0.186,0.156,0.313-0.155,0.478,0.023
	c0.046,0.021,0.1,0.31,0.238,0.398c0.134-0.088-0.142-0.177-0.007-0.243c0.103,0.422,0.591,0.043,0.828,0.375l-0.11,0.133
	c0.07,0.045,0.14,0.089,0.231,0.11l-0.073-0.133c0.091,0,0.254,0.109,0.144,0.198c0.226-0.046,0.228,0.043,0.368,0.153
	c-0.162-0.088,0.005-0.023-0.152,0c0.142,0.154,0.178,0.108,0.314,0.13c-0.044,0.045-0.018,0.153,0.029,0.175
	c0.158-0.045,0.342,0.06,0.524,0.079l-0.024,0.034c0.293,0.062,0.311,0.384,0.812,0.368v-0.042v-0.083c0,0,0.023,0,0.028,0
	l-0.001,0.007c0.057-0.038,0.258,0.129,0.346,0.109c0.002,0.045-0.018,0.111,0.029,0.133c0.062-0.135,0.135-0.023,0.201-0.069
	c0.071,0.087-0.083,0.156,0.078,0.22c0.066,0.016,0.104-0.052,0.12-0.106c0.003,0.084,0.082,0.182,0.158,0.234
	c-0.044,0.022-0.07-0.043-0.093-0.043c-0.043,0.067,0.025,0.066-0.016,0.156c0.07,0.043,0.085-0.113,0.158-0.024l-0.134,0.068
	c0.025,0.044,0.093,0.02,0.114,0.02c-0.067,0.001-0.107,0.113-0.127,0.181c0.252,0.016,0.168-0.27,0.231-0.383
	c0.168,0.174,0.391,0.103,0.553,0.165l-0.085,0.113c0.086,0.014,0.136,0.001,0.188-0.04l-0.031-0.014l0.085-0.037
	c-0.019,0.02-0.037,0.037-0.053,0.051l0.12,0.051c-0.089,0.016-0.129,0.046-0.178,0.145c0.143,0.02,0.304,0.127,0.409-0.029
	l-0.018,0.026c0.145,0.134,0.484,0.319,0.449,0.371c0.145,0.015,0.278,0.108,0.373,0.11c0,0.001-0.001,0.002-0.001,0.002
	c0.001-0.001,0.001,0,0.002-0.001c0.041,0,0.076-0.012,0.099-0.062c0.125,0.006,0.194,0.335,0.359,0.154
	c0.084,0.164-0.012,0.049-0.103,0.157c0.085,0.164,0.333-0.066,0.278,0.193c0.182-0.014-0.016-0.064,0.079-0.151
	c-0.059,0.239,0.267,0.151,0.359,0.335c0.101-0.066-0.043-0.081,0.106-0.137c-0.033,0.054,0.021,0.088,0.05,0.104l0.083-0.132
	l0.01,0.408c0.282-0.084,0.05-0.261,0.363-0.217l-0.022,0.006c0.024,0.177,0.247-0.035,0.414,0.153
	c-0.062-0.055-0.055,0.059-0.093,0.091l0.138-0.016c-0.013,0.004-0.021,0.012-0.016,0.033c0.063,0.146,0.109-0.027,0.195,0.111
	c-0.093,0.001-0.106,0.119-0.087,0.183l0.228-0.104L262,303.244c0.166,0.075,0.515-0.161,0.521,0.136l-0.095,0.005
	c-0.009,0.05,0,0.21,0.147,0.144c0.044-0.013,0.102-0.123,0.05-0.132l0.075,0.072c-0.078,0.117-0.31,0.091-0.459,0.085
	c0.06-0.039,0.18-0.05,0.172-0.142c-0.136,0.009-0.276,0.054-0.407,0.059c0.064-0.036,0.12-0.109,0.159-0.154
	c-0.105-0.111-0.125,0.056-0.228,0.035c-0.02-0.064-0.032-0.107,0.005-0.139c-0.139,0.013-0.24-0.01-0.342-0.124
	c0,0,0.176-0.042,0.123-0.145c-0.258-0.009-0.362,0.132-0.646,0.125c-0.372,0.1-0.512-0.347-0.771-0.273
	c-0.034,0.052,0.109,0.161-0.034,0.144c0.067-0.105-0.049-0.104-0.037-0.152c-0.207,0.108-0.192-0.121-0.339-0.048
	c0.04-0.03-0.024-0.107-0.062-0.168c0.074-0.135-0.131-0.119,0.155-0.236c-0.297,0.127-0.349-0.206-0.638,0.053l0.037,0.062
	l-0.184-0.153l0.008,0.007c-0.081-0.062-0.111-0.03-0.172-0.226c0.067-0.013,0.143,0.019,0.21,0.007
	c-0.061-0.171-0.277,0.006-0.403-0.041c0.048-0.099,0.144,0.021,0.16-0.119c-0.083-0.053-0.188-0.012-0.282-0.018l0.035-0.052
	c-0.163-0.22-0.203,0.24-0.282-0.018c-0.009,0.035-0.045,0.062-0.049,0.099c-0.034-0.084-0.13-0.244,0.038-0.255
	c-0.075-0.032-0.183-0.021-0.249,0.025c0.028,0.11,0.062,0.075,0.041,0.192l-0.33-0.075c-0.034-0.015,0.049-0.043,0.092-0.025
	c-0.228-0.453-0.834-0.064-1.079-0.6c0.005,0.111-0.065,0.067-0.132,0.112c-0.119-0.086-0.326-0.149-0.422-0.26l0.066-0.045
	c-0.344-0.062-0.601-0.061-0.789-0.191c-0.021,0.022,0.042-0.089,0.087-0.09c-0.202,0.045-0.219-0.397-0.369-0.175l0.047,0.044
	c-0.279-0.176-0.688-0.15-1.011-0.261c-0.007-0.178,0.185,0.065,0.2-0.135c-0.188-0.153-0.459-0.131-0.67-0.286
	c0.047,0,0.047-0.021,0.068-0.022c-0.188-0.198-0.04,0.156-0.226,0.046c0.044-0.066,0.042-0.087-0.006-0.153l-0.11,0.091
	c-0.001-0.022,0.041-0.106,0.087-0.129c-0.156,0.112-0.367-0.101-0.501,0.01c0-0.045,0.109-0.137,0.108-0.204
	c-0.083-0.089-0.181-0.006-0.273-0.006c-0.007,0-0.021-0.015-0.039-0.033c-0.025,0.012-0.052-0.002-0.082-0.023
	c0.018,0,0.036-0.006,0.054-0.009c-0.059-0.07-0.128-0.173-0.098-0.172c-0.163-0.134-0.067,0.028-0.248,0.05l0.117,0.134
	l-0.276-0.09l0.137-0.021c-0.095-0.111-0.275-0.046-0.412-0.114l0.024,0.113l-0.183-0.024c0.064-0.177-0.185-0.133-0.006-0.288
	c-0.256-0.222-0.549-0.091-0.824-0.204c0.047,0.022,0.045-0.021,0.067-0.045c-0.14-0.111-0.274-0.068-0.41-0.024
	c0.045-0.044,0.09-0.044,0.112-0.088c-0.185-0.09-0.158,0.043-0.387-0.003c0.09-0.044,0.089-0.089,0.042-0.133
	c-0.021,0.066-0.088,0.088-0.135,0.088c0.313-0.264-0.164-0.246,0.059-0.466c-0.044,0.065-0.431,0.062-0.403,0.24l0.067,0.001
	c-0.038,0.097-0.097,0.023-0.156,0.003c0.036-0.001,0.077-0.008,0.088-0.026c-0.343-0.025-0.597-0.272-0.962-0.344
	c0.045-0.021,0.205-0.02,0.134-0.087c-0.298-0.203-0.569-0.117-0.936-0.188c0.089-0.221,0.367,0.137,0.477-0.061
	c-0.365-0.115-0.753-0.21-1.187-0.283c0.018-0.377-0.434-0.05-0.552-0.408c-0.028,0.116-0.164,0.098-0.293,0.039
	c0.085-0.064-0.049-0.132,0.019-0.176c-0.158,0.042-0.502-0.074-0.391-0.272c-0.124,0.183-0.235-0.126-0.396-0.031
	c0.025,0.034,0.046,0.076,0.056,0.136l-0.092-0.112c0.012-0.013,0.023-0.017,0.035-0.023c-0.105-0.143-0.322-0.105-0.471-0.251
	c0.002,0.154-0.205-0.026-0.295-0.006c0.022,0,0.067,0.001,0.067-0.021c-0.001-0.134-0.25-0.005-0.319-0.117
	c-0.023-0.067,0.066-0.11-0.002-0.156c-0.045,0.089-0.363,0.061-0.41-0.096c0.046,0.022,0.068-0.021,0.112-0.042
	c-0.545-0.079-0.958-0.51-1.526-0.566l0.157-0.107c-0.207-0.338-0.317,0.147-0.546,0.01c-0.308-0.196-0.604-0.431-0.91-0.645
	c-0.163-0.112-0.284-0.194-0.49-0.309c-0.27-0.125-0.483-0.427-0.608-0.613c-0.076-0.04-0.034,0.062-0.086,0.108
	c-0.029-0.09,0.092-0.166-0.032-0.225l-0.071,0.059c0.039-0.464-0.5-0.977-0.189-1.317c-0.211-0.288-0.009-0.555-0.287-0.898
	c0.059-0.133,0.175,0.113,0.17-0.052l-0.193-0.33l0.016,0.017c-0.317-0.304,0.173-0.934-0.065-1.332l0.015,0.017
	c0.062,0.003,0.127-0.093,0.099-0.158c-0.046-0.02-0.064,0.028-0.112,0.075c-0.108-0.272-0.143-0.389-0.174-0.552
	c-0.028,0.09,0.045,0.224,0.065,0.26c-0.007,0.031-0.049,0.004-0.079-0.004c-0.084,0.079,0.028,0.143,0.042,0.215l-0.072-0.036
	c-0.181,0.271,0.061,0.764-0.026,1.135c-0.013-0.073-0.101-0.048-0.139-0.024c0.224,0.186,0.102,0.602,0.132,0.769l-0.08-0.113
	c0.109,0.335-0.298,0.222-0.193,0.554l0.171-0.149c-0.062,0.116-0.039,0.231,0.076,0.222c-0.109,0.132-0.188-0.017-0.254,0.197
	c-0.068-0.005-0.015-0.166-0.116-0.112l-0.242,0.26h0c-0.001,0.002-0.002,0.003-0.004,0.004c-0.019,0.007-0.03,0.042-0.036,0.139
	c0.305,0.045-0.045,0.253,0.282,0.174c-0.097,0.452-0.375,0.729-0.493,1.211c-0.183,0.014-0.336,0.244-0.561,0.323
	c-0.187,0.088-0.287,0.103-0.365-0.069c-0.184,0.087-0.298,0.229-0.343,0.424c0.051,0.009,0.076-0.058,0.104-0.093
	c-0.005,0.111-0.218,0.234-0.311,0.278c0.082-0.137,0.243-0.301,0.272-0.479c-0.15,0.115-0.318,0.358-0.39,0.446l-0.129-0.156
	c-0.076,0.199-0.188-0.085-0.242,0.158l0.053,0.04c-0.263,0.114-0.18,0.292-0.408,0.433l-0.024-0.075
	c-0.096,0.013-0.137,0.238-0.295,0.116l0.153-0.083c-0.077-0.116-0.223-0.112-0.308-0.148c-0.149,0.113,0.041,0.231-0.034,0.289
	c-0.092-0.1-0.039-0.06-0.038-0.201c-0.165,0.131-0.39,0.303-0.449,0.516c-0.017-0.014-0.021-0.045-0.021-0.045
	c-0.203,0.073-0.27,0.366-0.436,0.324l0.029-0.035c-0.237-0.096-0.32,0.356-0.495,0.078c-0.099-0.02,0.171-0.068-0.016-0.155
	c-0.273,0.019-0.032,0.319-0.273,0.334c0.032-0.004,0.015-0.018,0.011-0.049c-0.143,0.077-0.323,0.2-0.47,0.308
	c-0.313-0.142-0.578,0.353-0.939,0.185c0.12,0.063-0.002,0.143,0.019,0.187c0,0-0.003-0.03-0.021-0.044
	c-0.086,0.031-0.051,0.13-0.063,0.185l0,0c-0.108-0.051-0.185,0.201-0.255,0.166c0.028,0.062-0.046,0.079-0.121,0.113
	c0.115-0.141-0.016-0.155,0.004-0.284c-0.235,0.076-0.123,0.394-0.376,0.456l-0.184-0.056c0.06,0.189-0.189,0.221-0.152,0.284
	c-0.066-0.037-0.139-0.041-0.173-0.135c-0.072,0.087-0.253,0.062-0.24,0.187l0.113,0.003c-0.317,0.068-0.366,0.406-0.642,0.392
	l-0.124-0.269c-0.198-0.039-0.2,0.275-0.404,0.175c0.087,0.068,0.084,0.036,0.032,0.169c0.064-0.008,0.134-0.126,0.227-0.169
	l-0.123,0.251l0.271-0.222c-0.081,0.168-0.084,0.138,0.021,0.22c-0.145,0.174-0.262-0.032-0.39,0.156
	c-0.082-0.007-0.062-0.135-0.161-0.154c-0.113,0.17-0.393-0.05-0.439,0.146c-0.05-0.01,0.061-0.038,0.022-0.097
	c-0.09,0.074-0.169,0.099-0.16,0.192l0.102-0.012c-0.081,0.028-0.042,0.145-0.218,0.151c-0.055,0.102-0.042,0.257,0.052,0.215
	c-0.029,0.034-0.145,0.001-0.154-0.093c-0.23,0.105,0.026,0.338-0.256,0.314c0.011-0.016,0.021-0.036,0.005-0.049
	c-0.064,0.007-0.111,0.028-0.14,0.063c0.185-0.116-0.163-0.187,0.092-0.247c-0.093-0.131-0.189,0.053-0.289,0.033
	c-0.067,0.149,0.084,0.211,0.061,0.308c-0.02-0.045-0.067-0.023-0.131-0.016l0.104,0.082c-0.047,0.021-0.093,0.042-0.137,0.095
	l0.073-0.088c-0.111,0.028-0.346-0.07-0.476,0.117c0.027-0.066,0.081-0.198-0.065-0.197c-0.164,0.161-0.067-0.023-0.215-0.054
	c-0.184,0.114,0.056,0.208-0.262,0.275c-0.031,0.014,0.027,0.063,0.072,0.079c-0.22,0.04-0.292,0.166-0.519,0.176
	c0.096-0.011,0.178-0.004,0.089,0.1c0.007-0.11-0.195-0.01-0.294-0.03l0.006,0.062c-0.086-0.031-0.034-0.084,0.005-0.125
	c0.007,0.019,0.032,0.028,0.065,0.007c0.074-0.086-0.056-0.277-0.214-0.229c-0.135,0.125-0.042,0.257,0.01,0.299
	c-0.239,0.041-0.084,0.34-0.326,0.351c-0.047,0.021-0.302-0.124-0.46-0.076c-0.019,0.159,0.228,0.008,0.191,0.152
	c-0.388-0.194-0.418,0.422-0.827,0.387l-0.029-0.171c-0.079,0.025-0.158,0.05-0.234,0.104l0.148,0.031
	c-0.06,0.069-0.25,0.119-0.245-0.021c-0.114,0.2-0.183,0.145-0.358,0.177c0.173-0.063,0.013,0.02,0.099-0.114
	c-0.21,0.006-0.2,0.062-0.307,0.151c-0.004-0.062-0.105-0.117-0.153-0.096c-0.069,0.149-0.275,0.214-0.411,0.337l-0.02-0.05
	c-0.241,0.178-0.625,0.345-0.835,0.345h0.015c0.157,0-0.165,0.208-0.221,0.305c-0.034-0.028-0.071-0.073-0.118-0.054
	c0.057,0.137-0.074,0.117-0.084,0.197c-0.113-0.006-0.06-0.167-0.216-0.09c-0.056,0.039-0.032,0.111-0.002,0.16
	c-0.064-0.054-0.189-0.062-0.281-0.042c0.013-0.049,0.08-0.022,0.094-0.039c-0.021-0.077-0.066-0.025-0.104-0.117
	c-0.079,0.022,0.025,0.14-0.088,0.134l0.04-0.146c-0.049-0.01-0.078,0.056-0.092,0.071c0.045-0.05-0.01-0.155-0.046-0.216
	c-0.182,0.173,0.084,0.307,0.124,0.43c-0.242,0.006-0.343,0.218-0.5,0.294l-0.024-0.139c-0.069,0.053-0.095,0.097-0.1,0.163
	l0.032-0.014l-0.031,0.087c-0.001-0.026-0.002-0.051,0-0.072l-0.12,0.052c0.05-0.075,0.056-0.125,0.017-0.228
	c-0.112,0.09-0.302,0.133-0.263,0.316l-0.007-0.03c-0.196,0.014-0.568,0.128-0.581,0.066c-0.112,0.093-0.272,0.122-0.342,0.188
	l0-0.001c0,0.001,0,0.001,0,0.002c-0.03,0.028-0.047,0.062-0.027,0.114c-0.093,0.087-0.374-0.1-0.367,0.144
	c-0.176-0.059-0.025-0.042-0.036-0.184c-0.175-0.06-0.193,0.279-0.335,0.054c-0.122,0.137,0.056,0.036,0.048,0.165
	c-0.123-0.214-0.298,0.078-0.493,0.004c-0.029,0.117,0.087,0.031,0.015,0.172c-0.011-0.061-0.075-0.049-0.106-0.043l0.027,0.154
	l-0.282-0.296c-0.153,0.252,0.139,0.229-0.127,0.406l0.013-0.019c-0.134-0.119-0.168,0.188-0.42,0.152
	c0.082,0.001,0.004-0.08,0.013-0.13l-0.096,0.102c0.007-0.012,0.009-0.023-0.008-0.035c-0.141-0.07-0.069,0.09-0.225,0.034
	c0.073-0.058,0.01-0.159-0.044-0.198l-0.116,0.222l0.003-0.221c-0.168,0.042-0.322,0.44-0.492,0.188l0.074-0.054
	c-0.021-0.045-0.113-0.178-0.195-0.042c-0.027,0.033-0.019,0.157,0.028,0.137l-0.097-0.021c0.005-0.142,0.199-0.239,0.315-0.314
	c-0.023,0.066-0.111,0.137-0.055,0.21c0.104-0.075,0.185-0.202,0.282-0.28c-0.028,0.066-0.029,0.158-0.033,0.218
	c0.149,0.025,0.065-0.121,0.155-0.165c0.054,0.041,0.091,0.065,0.08,0.114c0.101-0.092,0.19-0.138,0.34-0.116
	c0,0-0.108,0.146-0.003,0.191c0.204-0.163,0.193-0.334,0.406-0.515c0.202-0.325,0.605-0.082,0.741-0.318
	c-0.012-0.062-0.188-0.04-0.074-0.128c0.024,0.124,0.106,0.043,0.131,0.086c0.072-0.223,0.22-0.044,0.272-0.198
	c-0.006,0.048,0.085,0.062,0.154,0.078l0.006,0.057h0.001c0.042,0,0.177-0.055,0.056,0.229c0.122-0.296,0.391-0.162,0.412-0.548
	l-0.07-0.064l0.235-0.116c0.09,0.002,0.096,0.041,0.273,0.132c-0.038,0.055-0.114,0.184-0.152,0.239
	c0.164,0.076,0.189-0.201,0.309-0.261c0.038,0.104-0.113,0.091-0.024,0.198c0.095-0.021,0.138-0.128,0.208-0.19l0.012,0.061
	c0.272,0.034-0.033-0.312,0.207-0.191c-0.019-0.031-0.015-0.075-0.038-0.104c0.085,0.034,0.266,0.075,0.159,0.205
	c0.076-0.032,0.141-0.119,0.152-0.198c-0.1-0.055-0.098-0.007-0.167-0.103l0.278-0.189c0.034-0.015-0.001,0.065-0.043,0.085
	c0.487,0.141,0.612-0.564,1.169-0.387c-0.085-0.071-0.006-0.095,0.004-0.174c0.143-0.029,0.329-0.14,0.474-0.138l-0.01,0.079
	c0.275-0.215,0.443-0.41,0.665-0.462c-0.002-0.032,0.039,0.091,0.01,0.125c0.099-0.183,0.443,0.099,0.375-0.163l-0.064,0.006
	c0.315-0.095,0.565-0.419,0.857-0.589c0.138,0.111-0.17,0.096-0.029,0.238c0.239-0.04,0.399-0.263,0.652-0.319
	c-0.029,0.034-0.013,0.048-0.027,0.065c0.273-0.013-0.092-0.132,0.112-0.2c0.022,0.076,0.04,0.09,0.121,0.097l0.003-0.142
	c0.018,0.014,0.058,0.104,0.045,0.152c0.016-0.19,0.321-0.208,0.323-0.381c0.035,0.027,0.046,0.184,0.099,0.226
	c0.123-0.006,0.208-0.096,0.208-0.182v0.001c0,0.066,0.291-0.031,0.261,0.004c0.208-0.039-0.006-0.094,0.094-0.246l-0.177,0.005
	l0.246-0.154l-0.071,0.117c0.146,0.001,0.21-0.181,0.351-0.242l-0.103-0.053l0.135-0.124c0.095,0.162,0.221-0.058,0.226,0.18
	c0.334-0.054,0.421-0.362,0.683-0.502c-0.047,0.021-0.013,0.048-0.009,0.078c0.175-0.035,0.227-0.167,0.279-0.299
	c0.006,0.062-0.023,0.097-0.002,0.143c0.186-0.086,0.066-0.15,0.247-0.297c-0.023,0.097,0.011,0.125,0.075,0.116
	c-0.038-0.058-0.012-0.124,0.018-0.158c0.005,0.409,0.293,0.028,0.323,0.341c-0.024-0.077,0.224-0.373,0.069-0.465l-0.043,0.052
	c-0.05-0.09,0.042-0.089,0.096-0.123c-0.022,0.03-0.044,0.065-0.035,0.085c0.236-0.248,0.587-0.289,0.872-0.528
	c-0.012,0.048-0.113,0.171-0.017,0.159c0.345-0.104,0.449-0.367,0.733-0.607c0.117,0.207-0.336,0.198-0.251,0.407
	c0.319-0.211,0.635-0.454,0.962-0.745c0.283,0.249,0.309-0.307,0.662-0.176c-0.073-0.094,0.026-0.188,0.152-0.252
	c-0.003,0.106,0.133,0.044,0.125,0.123c0.066-0.149,0.37-0.346,0.456-0.136c-0.065-0.212,0.245-0.106,0.27-0.29
	c0.177,0.005,0.283-0.188,0.489-0.215c-0.123-0.094,0.147-0.145,0.187-0.228c-0.014,0.017-0.042,0.053-0.025,0.065
	c0.105,0.083,0.158-0.192,0.289-0.178c0.067,0.023,0.045,0.12,0.123,0.095c-0.041-0.089,0.177-0.322,0.329-0.263
	c-0.046,0.021-0.025,0.066-0.037,0.114c0.397-0.38,0.989-0.441,1.382-0.855l-0.012,0.19c0.394,0.045,0.077-0.341,0.326-0.437
	c0.343-0.123,0.709-0.215,1.063-0.326c0.166-0.051,0.375-0.129,0.492-0.179c0.065-0.026,0.066-0.04,0.105-0.161
	c-0.026-0.053-0.062-0.011-0.125-0.042c0.035-0.015,0.165,0.026,0.112-0.066l-0.087-0.024c0.332-0.118,0.093-0.793,0.505-0.919
	c-0.075-0.316,0.203-0.479,0.054-0.876c0.097-0.101,0.13,0.158,0.177,0.008l-0.085-0.358l0.011,0.021
	c-0.217-0.359,0.416-0.824,0.271-1.265l0.011,0.019c0.061,0.017,0.144-0.061,0.13-0.13c-0.041-0.028-0.068,0.015-0.125,0.049
	c-0.062-0.381-0.061-0.462-0.052-0.757c0.08,0.136,0.091-0.109,0.219-0.11c-0.076-0.085-0.137,0.031-0.19-0.146
	c0.011-0.245,0.139-0.461,0.202-0.661c-0.107-0.091-0.068-0.196-0.208-0.214c0.014-0.276-0.031-0.435-0.005-0.774l0.049-0.005
	c-0.169-0.104,0.108-0.289,0.012-0.359c0.061,0.015,0.085,0.052,0.134,0.046l-0.046-0.158c0.048,0.076,0.212,0.13,0.239,0.003
	c-0.115-0.141-0.086,0.031-0.183-0.04l0.166-0.029c-0.012-0.102-0.194-0.141-0.251-0.021c0.024-0.341-0.035-0.682,0.009-0.984
	l0.104,0.038c-0.031-0.17-0.018-0.397,0.081-0.493c-0.031-0.006-0.085-0.05-0.122-0.025c-0.134-0.208,0.177-0.012,0.03-0.239
	c0.037,0.056,0.055,0.127,0.117,0.139l-0.11-0.417c0.08,0,0.268-0.242,0.207-0.419c-0.044-0.009-0.107,0.038-0.118,0.082
	l-0.034-0.112l0.188-0.077l-0.155-0.168l-0.035-0.001l0.006-0.032l0.03,0.033l0.154,0.004c-0.026-0.12-0.221-0.176-0.204-0.271
	c0.114-0.355,0.163-0.28,0.319-0.529c-0.293-0.04,0.027-0.405-0.183-0.479c0.193-0.273,0.148-0.658,0.168-1.033
	c-12.762-0.255-23.044-8.315-23.044-18.193c0-10.038,10.616-18.206,23.665-18.206C253.114,244.926,263.73,253.094,263.73,263.132z
	 M240.427,281.307c0.004,0.008,0.007,0.016,0.011,0.023c0.018,0,0.034-0.001,0.052-0.001
	C240.468,281.317,240.444,281.31,240.427,281.307z M239.54,280.722l0.045,0.051c0.068-0.121,0.071-0.282,0.045-0.445
	c-0.06-0.001-0.119-0.003-0.179-0.004c0.015,0.156,0.005,0.308-0.066,0.42l-0.043-0.053c-0.065,0.204,0.295,0.241,0.153,0.429
	l-0.025-0.037c-0.014,0.079-0.021,0.161-0.025,0.243c0.078,0.001,0.156,0.004,0.234,0.005c0-0.075,0.001-0.149,0.01-0.224
	l0.027,0.036C239.848,280.946,239.486,280.931,239.54,280.722z M239.938,288.251c-0.021,0.004-0.04,0.018-0.064,0.015
	c0.004,0.057,0.02,0.111,0.038,0.164C239.918,288.369,239.926,288.31,239.938,288.251z M240.13,288.743
	c-0.04-0.031-0.069-0.024-0.097-0.02c0.01,0.023,0.02,0.047,0.026,0.072C240.076,288.771,240.098,288.749,240.13,288.743z
	 M262.728,263.133c0-9.486-10.167-17.204-22.663-17.204c-12.497,0-22.663,7.718-22.663,17.204c0,9.329,9.836,16.941,22.048,17.191
	c-0.019-0.205-0.084-0.418-0.152-0.562c0.041,0.047,0.123,0.028,0.128-0.039c-0.007-0.002-0.008-0.011-0.009-0.019
	c-0.062-0.049-0.194,0.058-0.138-0.076c0.028,0.037,0.093,0.01,0.095-0.022l-0.144-0.143c0.045-0.146,0.086-0.305,0.119-0.465
	h-0.103v-4.897c-0.031-0.014-0.055-0.038-0.054-0.101c0,0,0.011,0.018,0.025,0.037c-0.004-0.015-0.014-0.022-0.014-0.045
	c0,0,0.018,0.03,0.042,0.058v-0.563v-1.296c-0.004-0.002-0.006-0.006-0.01-0.008c0.004,0,0.006-0.002,0.01-0.001V251.61
	c-0.567-0.708-3.519-4.007-7.853-2.052c-0.103,0.039-6.879,2.55-7.775,6.591c-0.356,1.607,0.297,3.288,1.92,5.003
	c1.147-0.894,2.674-1.445,4.354-1.445c3.546,0,6.43,2.435,6.43,5.429c0,2.993-2.885,5.429-6.43,5.429
	c-3.546,0-6.431-2.436-6.431-5.429c0-1.242,0.502-2.384,1.336-3.3c-1.863-1.97-2.591-3.954-2.158-5.905
	c1.016-4.577,8.076-7.191,8.375-7.299c4.454-2.014,7.703,0.905,8.764,2.07c1.209-1.127,4.986-4.091,9.486-2.057
	c0.257,0.095,7.034,2.676,8.017,7.198c0.388,1.786-0.183,3.602-1.69,5.411c0.147-0.148,0.077-0.065,0.009,0.009
	c1.192,0.985,1.935,2.356,1.935,3.873c0,2.993-2.884,5.429-6.431,5.429c-3.546,0-6.43-2.436-6.43-5.429
	c0-2.994,2.884-5.429,6.43-5.429c1.36,0,2.621,0.361,3.661,0.971c-0.098,0.115-0.045,0.063,0.009,0.006l-0.009-0.006
	c1.341-1.581,1.859-3.133,1.537-4.621c-0.864-3.988-7.354-6.461-7.42-6.485c-4.332-1.955-7.928,1.353-8.634,2.068v18.348
	c0.076,0.021,0.222,0.195,0.25,0.303c-0.004,0.09-0.025,0.136-0.055,0.16c-0.051,0.052-0.131,0.029-0.195,0.047v0.267l0.059,0.218
	h-0.014l0.001-0.042l-0.046-0.043v0.068c0.013,0.009,0.027,0.015,0.033,0.019c-0.018-0.003-0.024,0.011-0.033,0.019v0.331
	l0.063-0.027c0.001,0.002,0.001,0.003,0.002,0.005l0.014-0.007c0.152,0.212,0.014,0.367-0.079,0.52v0.335l0.126,0.136l-0.126,0.033
	v0.031c0.084,0.088,0.178,0.121,0.129,0.285c-0.265,0.634,0.052,1.314-0.114,1.956c0.024-0.01,0.037-0.028,0.058-0.063
	c-0.01,0.016-0.011,0.028-0.02,0.043c0.008-0.01,0.016-0.021,0.026-0.038c-0.04,0.059-0.062,0.115-0.079,0.169v0.316
	c0.093,0.302,0.373,0.557,0.177,0.9l-0.011-0.007c-0.003,0.006-0.002,0.011-0.006,0.016l-0.038-0.023
	c0.01,0.087,0.002,0.099-0.017,0.089c-0.009,0.03-0.037-0.014-0.075-0.015c-0.01,0.005-0.021,0.017-0.031,0.032v0.04
	c0.159,0.053,0.132,0.321,0.199,0.465c-0.038-0.023-0.034-0.075-0.062-0.117c0,0-0.001,0-0.001,0.001
	c0.008,0.047,0.017,0.092,0.032,0.127c-0.037-0.023-0.034-0.072-0.058-0.115c-0.049,0.021-0.118,0.041-0.089,0.103
	c0.267,0.161,0.245,0.518,0.327,0.779c-0.104,0.029-0.199,0.202-0.348,0.326v0.094c0.036,0.02,0.076,0.039,0.121,0.061
	c0-0.001,0.001-0.002,0.002-0.003c0,0.003,0.002,0.003,0.002,0.005c0.002,0.001,0.004,0.002,0.006,0.003
	c-0.004-0.043-0.011-0.069-0.019-0.058c0.053-0.047,0.077-0.047,0.1-0.036c0.073-0.048,0.078,0.028,0.2,0.02
	c-0.004,0.086,0.049,0.263-0.058,0.284c-0.001,0.053-0.016,0.087-0.036,0.141c0.022,0.031,0.035,0.066,0.023,0.105l-0.015-0.018
	c-0.02,0.007-0.032,0.015-0.044,0.023c-0.058,0.169,0.158,0.401,0.257,0.538c-0.072-0.054-0.118-0.058-0.156-0.043
	c0.018,0.025,0.037,0.053,0.051,0.073c-0.037-0.03-0.067-0.044-0.093-0.05c-0.038,0.026-0.073,0.061-0.131,0.062
	c0.003,0.004,0.005-0.008,0.007-0.028c-0.014,0.01-0.029,0.02-0.044,0.027c0.024,0.07,0.038,0.149,0.006,0.247
	c-0.015-0.017-0.045-0.051-0.093-0.036c-0.034,0.095,0.071,0.182,0.148,0.201c-0.126,0.026-0.213,0.232-0.154,0.332
	c0.106,0.087,0.154,0.072,0.147,0.233l-0.091-0.068c-0.062,0.171,0.085,0.163,0.07,0.272c-0.014-0.024-0.068-0.018-0.081,0.018
	c0.048,0.174,0.097,0.2,0.232,0.298C252.854,280.105,262.728,272.48,262.728,263.133z M240.372,278.695
	c0.003-0.052,0.006-0.112,0.009-0.18C240.346,278.579,240.351,278.636,240.372,278.695z M240.397,277.841
	c-0.001-0.002-0.002-0.006-0.003-0.008c-0.001,0.001-0.002,0.004-0.002,0.005L240.397,277.841z M240.475,278.477
	c0-0.006,0-0.011,0-0.018c-0.002,0.001-0.005,0.002-0.006,0.004C240.471,278.468,240.473,278.473,240.475,278.477z M240.603,277.975
	c0.029-0.009,0.056-0.028,0.035-0.085c-0.01-0.006-0.025-0.008-0.038-0.012c0,0.018-0.003,0.033-0.005,0.05
	C240.597,277.942,240.601,277.962,240.603,277.975z M251.105,261.211c-2.717,0-4.927,1.761-4.927,3.925s2.21,3.926,4.927,3.926
	c2.718,0,4.928-1.762,4.928-3.926S253.823,261.211,251.105,261.211z M224.967,265.136c0,2.164,2.21,3.926,4.927,3.926
	c2.716,0,4.927-1.762,4.927-3.926s-2.21-3.925-4.927-3.925C227.177,261.211,224.967,262.972,224.967,265.136z"/>
</svg>
