<?xml version="1.0" encoding="utf-8"?>
<!-- Generator: Adobe Illustrator 16.0.0, SVG Export Plug-In . SVG Version: 6.00 Build 0)  -->
<!DOCTYPE svg PUBLIC "-//W3C//DTD SVG 1.1//EN" "http://www.w3.org/Graphics/SVG/1.1/DTD/svg11.dtd">
<svg version="1.1" id="board" xmlns="http://www.w3.org/2000/svg" xmlns:xlink="http://www.w3.org/1999/xlink" x="0px" y="0px"
	 width="529px" height="528px" viewBox="-24.334 -216.333 529 528" enable-background="new -24.334 -216.333 529 528"
	 xml:space="preserve">
<path d="M361.917,58.666c0.012,0,0.022-0.004,0.035-0.004c-1.526,0.76-2.92,1.735-4.148,2.891l1.718-2.887H361.917z M364.417,55.917
	c0,0.775-0.36,1.538-0.914,2.064c1.917-0.73,3.989-1.148,6.164-1.148c0.179,0,0.353,0.021,0.53,0.027
	c1.183-1.297,4.427-4.922,6.104-7.493c-4.059-2.022-8.01-3.705-9.385-1.863l-3.188,3.353l-1.356,2.356
	C363.535,53.427,364.417,54.692,364.417,55.917z M116.666,48.504c-1.375-1.841-5.326-0.159-9.385,1.863
	c1.347,2.065,3.7,4.803,5.189,6.476c0.066,0,0.13-0.01,0.196-0.01c2.436,0,4.751,0.507,6.854,1.414
	c-0.22-0.41-0.354-0.867-0.354-1.331c0.001-1.226,0.882-2.489,2.045-2.703l-1.357-2.356L116.666,48.504z M122.147,59.666
	c1.667,1.091,3.124,2.466,4.324,4.049l-2.409-4.049H122.147z M376.667,75.5c0,3.866-3.134,7-7,7s-7-3.134-7-7s3.134-7,7-7
	S376.667,71.634,376.667,75.5z M373,75.833c0-1.841-1.493-3.333-3.333-3.333c-1.841,0-3.333,1.492-3.333,3.333
	s1.492,3.333,3.333,3.333S373,77.674,373,75.833z M119.667,75.5c0,3.866-3.134,7-7,7s-7-3.134-7-7s3.134-7,7-7
	S119.667,71.634,119.667,75.5z M116,75.833c0-1.841-1.493-3.333-3.333-3.333c-1.841,0-3.333,1.492-3.333,3.333
	s1.492,3.333,3.333,3.333S116,77.674,116,75.833z M500.667,47.167c0,143.318-116.183,259.5-259.5,259.5
	c-143.318,0-259.5-116.183-259.5-259.5s116.182-259.5,259.5-259.5C384.484-212.333,500.667-96.15,500.667,47.167z M126.167,40.667
	h-19.584c-15.25-1-15.25-0.5-12.167,5.333l3.583,8.458c0.92-0.07,2.158-0.579,3.56-1.207c0.518,1.539,1.375,3.575,2.731,5.743
	c-5.339,2.954-8.957,8.639-8.957,15.172c0,9.571,7.76,17.333,17.333,17.333c9.573,0,17.333-7.762,17.333-17.333
	c0-2.522-0.552-4.913-1.521-7.075l0.021,0.034c3.417,0.958,6.917,0,3.584-5.667l0.913-2.62c0.701-0.442,1.17-1.25,1.17-2.141
	c0-0.275-0.055-0.55-0.137-0.798l3.471-9.476C138.417,39.841,132.794,40.666,126.167,40.667z M377,39.665h-19.583
	c-6.627,0-12.25-0.825-11.334,5.758l3.471,9.477c-0.082,0.246-0.137,0.521-0.137,0.797c0,0.891,0.469,1.697,1.17,2.141l0.913,2.62
	c-3.052,5.19-0.371,6.424,2.727,5.86c-1.201,2.358-1.893,5.02-1.893,7.848c0,9.572,7.761,17.333,17.333,17.333
	S387,83.737,387,74.165c0-6.359-3.436-11.902-8.542-14.919c1.853-2.629,2.95-5.163,3.566-6.996c1.401,0.628,2.639,1.138,3.56,1.207
	l3.583-8.458C392.25,39.166,392.25,38.666,377,39.665z M476.341,8c-6.334-3-49.656,13-49.656,13c-17.334,7.667-32.646,7-32.646,7
	c-3,0.667-40.872-3.083-40.872-3.083c-12.834-0.5-70.688-0.209-102.001-0.425c0,0-109.618,0.473-121.917-0.492
	c0,0-8.835,0.209-38.708,4.042c0,0-19.25,0-34.894-7.042c0,0-43.323-16-49.656-13c0,0-7.994,8.333,26.672,19.332
	c0,0,30.67,11.205,41.003,11.871c0,0,18.917,0.463,53.584-4.537h227.832c34.667,5,53.584,4.5,53.584,4.5
	C419,38.5,449.67,27.416,449.67,27.416C484.336,16.416,476.342,8,476.341,8z"/>
</svg>
