<svg xmlns="http://www.w3.org/2000/svg" viewBox="44.7 52.8 421 421.5"><path d="M244.8 402.7l1.8 10.7 -55.3 21.9v-3.6C191.2 431.7 229.5 409.9 244.8 402.7zM264.2 113.9c-0.1-3.5-0.1-4.5-4.5-4.5h-4.5 -4.5c-4.4 0-4.4 1-4.5 4.5 0.1 3.8 0.3 4.5 4.5 4.5h4.5 4.5C263.9 118.4 264.1 117.7 264.2 113.9zM137.9 294.7h-0.2c-0.9 0-1.6 0.7-1.6 1.6v7.1c0 0.9 0.7 1.6 1.6 1.6h0.2c0.9 0 1.6-0.7 1.6-1.6v-7.1C139.5 295.4 138.8 294.7 137.9 294.7zM168.2 279.6h-0.2c-0.9 0-1.6 0.7-1.6 1.6v9.9c0 0.9 0.7 1.6 1.6 1.6h0.2c0.9 0 1.6-0.7 1.6-1.6v-9.9C169.8 280.3 169.1 279.6 168.2 279.6zM373.4 294.7h-0.2c-0.9 0-1.6 0.7-1.6 1.6v7.1c0 0.9 0.7 1.6 1.6 1.6h0.2c0.9 0 1.6-0.7 1.6-1.6v-7.1C375.1 295.4 374.3 294.7 373.4 294.7zM262.9 413.4l55 21.9v-3.6c0 0-37.9-21.8-53.2-29L262.9 413.4zM463.2 263.3c0 114.6-92.9 207.5-207.5 207.5 -114.6 0-207.5-92.9-207.5-207.5 0-114.6 92.9-207.5 207.5-207.5C370.3 55.8 463.2 148.7 463.2 263.3zM307.6 221.4c0 3.2 0.8 5.2 2.2 6.5 0 0.3 0 0.6 0 0.9l14.2 9.6 1.5-9.9c2.1-1.2 2.8-3.3 2.8-7.2v-13.1c0-7.6-0.6-9.8-10.3-9.4 -9.7-0.4-10.3 1.8-10.3 9.4V221.4zM182.9 221.4c0 3.3 0.8 5.4 2.4 6.7l1.7 10.6 13.7-9.3c0-0.3 0.1-0.6 0.1-0.9 2-1.2 2.7-3.3 2.7-7.1v-13.1c0-7.6-0.6-9.8-10.3-9.4 -9.7-0.4-10.3 1.8-10.3 9.4V221.4zM429.1 311.9l-138.3-94c-7-4.8-12.6-9.5-16.8-13.5l-0.2-0.6v-64.3c-1.4-22.3-5.2-35-5.2-35 -7.1-20.7-13.8-20.9-13.8-20.9s-6.9 0.2-14 20.9c0 0-4.2 12.7-5.6 35v64.3l0.2 2.2c-3.9 3.6-8.8 7.7-14.8 11.9L82.3 311.9c0 0-0.9 18.1 3 18.1 0 0 35.1-14 35.9-14.9 0 0 1.2 4.6 13.9-1.8 0 0 1 3.7 4.1-1.4 0 0 25.7-8.5 26.4-9.1 0 0 0.8 3.7 4-0.9 0 0 14.2-4.2 16.2-6.2 0 0 1-4.2-0.3-6.9l2 3.4c0 0 4.6 1.3 10.7-2.4 0 0-0.6 3.6 0.8 4.1 0 0 2.9 0.8 5 0.1 0 0 0.6 2.9 3.4 0 0 0 20-0.4 28.5-3.4l0.4 62c0 0 1.2 21.3 4.6 37 -9.5 12.1-49.3 37.2-52.4 41.6 0 0-0.7 7.5 1.1 10 0 0 26.7-3.8 60.3-12.2 1.3 4.2 2.6 7.8 3.8 10.1l2 0c1.2-2.3 2.5-5.9 3.8-10.1 33.7 8.4 60.3 12.2 60.3 12.2 1.8-2.4 1.1-10 1.1-10 -3.1-4.3-43-29.5-52.4-41.6 3.4-15.7 4.6-37 4.6-37l0.4-62.7c7.2 3.7 30.2 4.1 30.2 4.1 2.9 2.9 3.4 0 3.4 0 2.2 0.7 5-0.1 5-0.1 1.4-0.6 0.8-4.1 0.8-4.1 6.1 3.7 10.7 2.4 10.7 2.4l2-3.4c-1.3 2.8-0.3 6.9-0.3 6.9 2 2 16.2 6.2 16.2 6.2 3.2 4.6 4 0.9 4 0.9 0.7 0.6 26.4 9.1 26.4 9.1 3.1 5.1 4.1 1.4 4.1 1.4 12.7 6.4 13.9 1.8 13.9 1.8 0.8 0.9 35.9 14.9 35.9 14.9C430 330.1 429.1 311.9 429.1 311.9zM343.1 279.6h-0.2c-0.9 0-1.6 0.7-1.6 1.6v9.9c0 0.9 0.7 1.6 1.6 1.6h0.2c0.9 0 1.6-0.7 1.6-1.6v-9.9C344.8 280.3 344 279.6 343.1 279.6z"/></svg>
