<svg xmlns="http://www.w3.org/2000/svg" viewBox="28.8 22.6 364.7 364.7"><path d="M118.2 205.7l57.1-22.5v9.8l-45.9 17.3 45.9 17.1v9.9l-57.1-22.5V205.7zM185.5 255.3h10.3l42.4-91.2h-10.2L185.5 255.3zM390.1 205.1c0 98.6-79.9 178.5-178.5 178.5s-178.5-79.9-178.5-178.5 79.9-178.5 178.5-178.5S390.1 106.5 390.1 205.1zM292.4 115.7c0 0.4 0.3 0.8 0.8 0.8h5.5c0.4 0 0.8-0.3 0.8-0.8v-0.2c0-0.4-0.3-0.8-0.8-0.8h-5.5c-0.4 0-0.8 0.3-0.8 0.8V115.7zM271.7 115.5c0.4-0.1 0.9-0.3 1.5-0.3h9.6c0.6 0 1.1 0.2 1.5 0.3 -0.9-1.7-2.3-2.6-3.8-2.6h-4.9C274 112.9 272.6 113.8 271.7 115.5zM174.7 115.3h1.8v-3.5h0.7l0 1.2h11.4c0-0.4-0.3-0.7-0.3-1.2v0h1.2v3.5h1.8v-5.3h-2.7l0-7.1c0.2-4.7 5.4-8.1 10.5-8.2l15.2 0.2 15.2-0.2c5 0.1 10.2 3.5 10.5 8.2l0 7.1h-2.7v5.3h1.8v-3.5h1.2v0c0 0.4-0.3 0.8-0.3 1.2h11.4l0-1.2h0.7v3.5h1.8v-5.3h-2.5l0-11.9c-0.3-8.7-7.6-14.6-14.6-15.2h-22.4 -22.4c-7 0.6-14.3 6.5-14.6 15.2l0 11.9h-2.5V115.3zM139.2 115.5c0.4-0.1 0.9-0.3 1.5-0.3h9.6c0.6 0 1.1 0.2 1.5 0.3 -0.9-1.7-2.3-2.6-3.8-2.6h-4.9C141.5 112.9 140.1 113.8 139.2 115.5zM124 115.7c0 0.4 0.3 0.8 0.8 0.8h5.5c0.4 0 0.8-0.3 0.8-0.8v-0.2c0-0.4-0.3-0.8-0.8-0.8h-5.5c-0.4 0-0.8 0.3-0.8 0.8V115.7zM104.2 310.7h-6.6c0.2 1.3 1.6 2.9 3.3 2.9S104.1 312 104.2 310.7zM118.7 310.1h-12.4v1.2h12.4V310.1zM317.1 310.1h-12.4v1.2h12.4V310.1zM325.9 310.7h-6.6c0.2 1.3 1.6 2.9 3.3 2.9S325.8 312 325.9 310.7zM335.4 124.6c0-4.4-2.9-7.6-6.9-7.6H95.9c-4 0-7.8 3.2-7.8 7.6v176.7c0 4.4 3.8 8.2 7.8 8.2h232.6c4 0 6.9-3.8 6.9-8.2V124.6zM251.2 193l45.9 17.3 -45.9 17.1v9.9l57.1-22.5v-9l-57.1-22.5V193z"/></svg>
