<svg xmlns="http://www.w3.org/2000/svg" viewBox="74.8 15.8 341.3 341.3"><path d="M270.5 133c-33.2 0-60.2 27-60.2 60.2 0 33.2 27 60.2 60.2 60.2 33.2 0 60.2-27 60.2-60.2C330.7 160 303.8 133 270.5 133zM269.5 225.8c-17.4 0-31.5-14.1-31.5-31.5s14.1-31.5 31.5-31.5 31.5 14.1 31.5 31.5S286.9 225.8 269.5 225.8zM152.4 168.5v80.2c0 1.3-1.1 2.4-2.4 2.4h-0.3c-1.3 0-2.4-1.1-2.4-2.4v-80.2c0-1.3 1.1-2.4 2.4-2.4h0.3C151.3 166.1 152.4 167.2 152.4 168.5zM245.7 18.8c-92.5 0-167.4 75-167.4 167.4 0 92.5 75 167.4 167.4 167.4 92.5 0 167.4-75 167.4-167.4C413.1 93.8 338.1 18.8 245.7 18.8zM140.7 131.1c3.5-1.3 7.8-2.1 12.6-2.1 3.3 0 6.3 0.4 9.1 1 -0.9 1.2-5.3 2.3-10.5 2.7 -6 0.4-11-0.3-11.1-1.6C140.7 131.2 140.7 131.1 140.7 131.1zM357.9 266.6l-225.1-0.4c-7.8 0-9.4-10.4-10-17 -0.7-7.9-0.6-6.7-1.4-90.4 -0.2-5.7 3.6-19.9 10.1-20.4l1.4 0c0.3-1.9 1.7-3.6 3.9-5.1 0.3 2.7 7.3 4.1 15.7 3.2 6.7-0.7 12.3-2.8 14-5 2.1 0.8 3.8 1.9 5 3.1 1.4-0.4 3-0.8 4.6-1.1 -1.6-1-2.7-2.8-2.9-5l-0.5-4.8c-0.3-3.5 1.8-6.8 5.1-7.1l33.5-3.2c3.3-0.3 6.3 2.4 6.6 5.9l0.5 4.8c0.1 0.5 0 1 0 1.5 3.2-2.8 4-5.6 4-5.6 6.3-18.2 14.9-25.1 14.9-25.1 11.2-7.3 32.7-5.9 32.7-5.9l14.4 0.3c25.7-0.2 29.1 20.8 29.1 20.8 2.3 12.3 8.8 18.5 17.1 21.4 -0.7-1.2-1.1-2.6-0.8-4.1l0.1-0.5c0.5-3.4 3.6-5.7 7-5.2l15.7 2.3c3.4 0.5 5.7 3.6 5.2 7l-0.1 0.5c-0.2 1.4-0.8 2.6-1.8 3.5l0 0c5.5 0.5 10.9 6.4 12.6 10.8 3.7 9.5 0.4 112.1 0.4 112.1C368.9 261.3 361.6 266.6 357.9 266.6zM279.5 194.8c0 5.5-4.5 10-10 10 -5.5 0-10-4.5-10-10 0-5.5 4.5-10 10-10C275 184.8 279.5 189.2 279.5 194.8z"/></svg>
