<svg xmlns="http://www.w3.org/2000/svg" viewBox="62.8 13.2 211.5 212.5"><path d="M216.4 92.4c0 12-25.3 21.7-56.6 21.7 -31.3 0-56.6-9.7-56.6-21.7s25.3-21.7 56.6-21.7C191.1 70.7 216.4 80.4 216.4 92.4zM233.8 102.4c-7.1 0-13 4.6-13.9 10.7 0 1 0 2.1 0 3.2 0.8 6.1 6.3 11.1 13.9 10.7 7.9-0.4 14-5.5 14.1-12.3C247.9 107.1 241.6 102.4 233.8 102.4zM271.8 119.4c0 57-46.2 103.3-103.3 103.3 -57 0-103.3-46.2-103.3-103.3S111.6 16.1 168.6 16.1C225.6 16.1 271.8 62.4 271.8 119.4zM255.1 114.3c-0.4-14.1-9.9-21.6-23.1-20.3 -4.7 0.5-8.8 1.6-12.1 3.2 0-2.8 0-4.6 0-4.6 0-13.6-27-24.7-60.3-24.7S99.4 79 99.4 92.6c0 0-0.2 52.1-0.2 52.1 0 0.6 0 1.1 0 1.7 0 15.5 27 28 60.3 28 32.6 0 59-12 60.1-27 0.1-0.1 0.1-6.4 0.2-14.7 3.2 1.4 7.2 2.2 12.3 2.6C245.3 136.1 255.4 124.5 255.1 114.3z"/></svg>
