<svg xmlns="http://www.w3.org/2000/svg" viewBox="53.2 48.5 432.8 433"><path d="M270.1 292.2c-2.6 0-4.8 2.1-4.8 4.8 0 2.6 2.1 4.8 4.8 4.8 2.6 0 4.8-2.1 4.8-4.8C274.9 294.3 272.7 292.2 270.1 292.2zM270.1 299.4c-1.3 0-2.4-1.1-2.4-2.4 0-1.3 1.1-2.4 2.4-2.4s2.4 1.1 2.4 2.4C272.5 298.3 271.4 299.4 270.1 299.4zM270.1 288.1c-4.9 0-8.9 4-8.9 8.9s4 8.9 8.9 8.9c4.9 0 8.9-4 8.9-8.9S275 288.1 270.1 288.1zM270.1 302.4c-3 0-5.4-2.4-5.4-5.4 0-3 2.4-5.4 5.4-5.4 3 0 5.4 2.4 5.4 5.4C275.5 300 273.1 302.4 270.1 302.4zM270.1 283.4c-7.5 0-13.5 6.1-13.5 13.5 0 7.5 6.1 13.5 13.5 13.5s13.5-6.1 13.5-13.5C283.6 289.5 277.6 283.4 270.1 283.4zM270.1 306.5c-5.3 0-9.6-4.3-9.6-9.6 0-5.3 4.3-9.6 9.6-9.6 5.3 0 9.6 4.3 9.6 9.6C279.7 302.2 275.4 306.5 270.1 306.5zM270.1 278.7c-10.1 0-18.2 8.2-18.2 18.2 0 10.1 8.2 18.3 18.3 18.3s18.3-8.2 18.3-18.2C288.3 286.9 280.2 278.7 270.1 278.7zM270.1 311.2c-7.8 0-14.2-6.4-14.2-14.2s6.4-14.2 14.2-14.2c7.8 0 14.2 6.4 14.2 14.2S277.9 311.2 270.1 311.2zM186.7 207.6v5.1c0 8 0.2 9.5-6.9 9.5h-10.9v11.4c0 7.1-1.4 8.5-8.6 8.5h-5.1c-9.1 0-9.5-1.9-9.5-8.5v-11.4h-9.7c-6.8 0-8.2-2.4-8.2-9.5v-5.1c0-9.1 1.9-8.5 8.2-8.5h9.7v-11.7c0-7.6 3.5-7.5 9.5-7.5h5.1c8 0 8.6 0 8.6 7.5v11.7h10.9C187 199.1 186.7 201.6 186.7 207.6zM271.8 297c0 0.9-0.8 1.7-1.7 1.7 -0.9 0-1.7-0.8-1.7-1.7 0-0.9 0.8-1.7 1.7-1.7C271 295.2 271.8 296 271.8 297zM381.6 172.8c0-6.1 5-11.1 11.1-11.1 6.1 0 11.1 5 11.1 11.1 0 6.1-5 11.1-11.1 11.1C386.5 183.9 381.6 179 381.6 172.8zM255 219.4c0-7.9 6.4-14.3 14.3-14.3 7.9 0 14.3 6.4 14.3 14.3 0 7.9-6.4 14.3-14.3 14.3C261.4 233.8 255 227.4 255 219.4zM380.4 244.2c0 8.3-6.7 15-15 15 -8.3 0-15-6.7-15-15s6.7-15 15-15C373.7 229.2 380.4 235.9 380.4 244.2zM405 215.8c0 6.1-5 11.1-11.1 11.1s-11.1-5-11.1-11.1c0-6.1 5-11.1 11.1-11.1S405 209.7 405 215.8zM426.2 195.3c0 6.1-5 11.1-11.1 11.1 -6.1 0-11.1-5-11.1-11.1 0-6.1 5-11.1 11.1-11.1C421.2 184.2 426.2 189.2 426.2 195.3zM269.4 50.6C151 50.6 55 146.6 55 265s96 214.4 214.4 214.4 214.4-96 214.4-214.4S387.9 50.6 269.4 50.6zM410.5 372.7c-25.2-3.1-19.8-23.3-38.6-91.9 -9.2-1.4-19.6-5.1-45.5 12.6 -9.1 18.8-21 163.3-56 156.8 -0.1 0-0.2-0.1-0.3-0.1 -0.1 0-0.2 0.1-0.3 0.1 -35 6.5-46.9-138-56-156.8 -25.9-17.7-36.4-14-45.5-12.6 -18.9 68.6-13.4 88.8-38.6 91.9 -27.7 1.3-42.6-111.2-27.7-150.7 1.7-10.1-8.9-36.7 25.4-71.1 1.3-14.4 46.2-20.5 69.5-25.1 2.3-0.5 2-11.6 3.4-12.6C220.4 98 270 96.6 270 96.6s49.6 1.3 69.9 16.5c1.4 1 1.1 12.1 3.4 12.6 23.3 4.6 68.3 10.7 69.5 25.1 34.4 34.4 23.8 61 25.4 71.1C453.1 261.4 438.3 374 410.5 372.7zM269 256.8c-21.8 0-39.5 17.7-39.5 39.5 0 21.8 17.7 39.5 39.5 39.5 21.8 0 39.5-17.7 39.5-39.5C308.5 274.5 290.8 256.8 269 256.8zM270.1 315.9c-10.4 0-18.9-8.5-18.9-18.9s8.5-18.9 18.9-18.9c10.4 0 18.9 8.5 18.9 18.9S280.5 315.9 270.1 315.9zM382.6 194c0 6.1-5 11.1-11.1 11.1s-11.1-5-11.1-11.1c0-6.1 5-11.1 11.1-11.1S382.6 187.9 382.6 194zM354.6 216.5c0 8.3-6.7 15-15 15 -8.3 0-15-6.7-15-15s6.7-15 15-15C347.9 201.4 354.6 208.2 354.6 216.5z"/></svg>
