<svg xmlns="http://www.w3.org/2000/svg" viewBox="89.5 60.5 303.75 305"><path d="M226.33 300.13l0.09-0.07 -0.12 0.11L226.33 300.13zM220.43 302.44c0.01 0.02 0.03 0.05 0.05 0.09 0.03-0.01-0.01-0.14-0.02-0.2 0 0 0 0 0 0C220.46 302.38 220.45 302.42 220.43 302.44zM232.5 295.8l0 0 0.02-0.01L232.5 295.8zM259.79 301.9c0.01-0.02 0.02-0.06 0.03-0.1 -0.03-0.02-0.09 0.11-0.12 0.16l0 0C259.73 301.91 259.77 301.9 259.79 301.9zM233.21 295.46c0.05 0.03 0.1 0.04 0.14 0.04 0-0.01 0.01-0.03 0-0.04L233.21 295.46zM262.67 303.66l-0.08 0.01C262.62 303.69 262.65 303.7 262.67 303.66zM232.95 296.81c0.03 0 0.05 0.01 0.08-0.02 -0.01 0-0.01-0.01-0.02-0.01C233.01 296.8 232.99 296.82 232.95 296.81zM233.91 296.49l-0.09-0.13C233.77 296.41 233.84 296.58 233.91 296.49zM261.41 303.27c0.06 0.03 0.11 0.16 0.21 0.16l0.02-0.04C261.58 303.45 261.5 303.21 261.41 303.27zM237.31 294.71c-0.08 0.03-0.18 0.01-0.21 0.04C237.17 294.81 237.29 294.81 237.31 294.71zM229.42 297.46c0.01 0 0.02-0.01 0.02-0.02C229.48 297.39 229.45 297.42 229.42 297.46zM251.3 297.64l0 0c0.04 0 0.02 0 0 0C251.3 297.64 251.3 297.64 251.3 297.64 251.3 297.64 251.3 297.64 251.3 297.64zM254.33 300.27l0.09-0.09 -0.14-0.02L254.33 300.27zM262.54 303.7c0-0.01 0.01-0.02 0.01-0.02l-0.04 0.01L262.54 303.7zM246.3 295.56c0 0.01 0.01 0.02 0.01 0.04l0.04 0.01L246.3 295.56zM261.9 303.46l0.04 0.01c0.01-0.02 0.02-0.04 0.01-0.05C261.94 303.45 261.92 303.46 261.9 303.46zM261.93 303.49c0.03 0 0.05-0.01 0.07-0.02 -0.02 0-0.04 0-0.06 0L261.93 303.49zM247.33 296.04c0 0.01 0 0.02 0 0.02 0.02-0.01 0.04-0.01 0.07 0.02C247.37 296.07 247.37 296.04 247.33 296.04zM240.77 281.51c0 0 0-0.08 0-0.08 0-0.01-0.01-0.1-0.01-0.1 -0.02 0-0.04 0-0.07 0 0.03 0.05 0.03 0.1 0.05 0.15 0.01 0.02 0.02 0.03 0.02 0.03C240.76 281.51 240.76 281.51 240.77 281.51zM220.55 301.55c0 0 0.01 0 0.01 0l0 0H220.55zM263.29 303.79l0.13-0.03c0.02-0.04 0.01-0.14-0.07-0.13L263.29 303.79zM262.93 303.49c-0.02-0.04 0.02-0.08 0.03-0.11 -0.1 0.06-0.23 0.18-0.21 0.34 0.12-0.14 0.13-0.07 0.26-0.23 0.07 0 0.11 0.08 0.09 0.14 0.03-0.03 0.12 0.05 0.17-0.04C263.17 303.44 263.07 303.41 262.93 303.49zM239.54 292.34c-0.15 0.11-0.11-0.26-0.29-0.08C239.31 292.25 239.42 292.5 239.54 292.34zM259.8 302.62c0.02-0.02 0.03-0.04 0.03-0.05l0 0L259.8 302.62zM219.92 301.96l0 0.03c0 0 0 0 0.01 0C219.92 301.98 219.92 301.99 219.92 301.96zM246.89 297.08l0 0 -0.02-0.01L246.89 297.08zM250.12 298.44c-0.01 0-0.02 0-0.03 0C250.02 298.43 250.07 298.44 250.12 298.44zM234.05 296.28c-0.01-0.01-0.02-0.01-0.03-0.02l-0.03 0.02L234.05 296.28zM217.22 302.85c0 0.01 0 0.02 0 0.02l0.03-0.03L217.22 302.85zM217.79 302.69c-0.02 0.02-0.03 0.04-0.04 0.06 0.02-0.01 0.03-0.02 0.05-0.03L217.79 302.69zM246.55 295.54l-0.04 0.15C246.57 295.7 246.66 295.54 246.55 295.54zM240.87 284.59l0.06 0.07 -0.05-0.13L240.87 284.59zM243.22 294.1c0-0.09-0.07-0.18-0.16-0.14C243.13 294.01 243.17 294.1 243.22 294.1zM241.29 292.14c0.05-0.03 0.25 0.13 0.3-0.05C241.5 292.24 241.39 291.91 241.29 292.14zM218.32 302.54c-0.06 0.01-0.18-0.05-0.25 0.01l0.01 0.04C218.08 302.51 218.29 302.64 218.32 302.54zM224.84 300.54l0.04 0.12C224.96 300.6 224.87 300.61 224.84 300.54zM197.66 202c0.83 0 1.5-0.67 1.5-1.5 0-0.83-0.67-1.5-1.5-1.5 -0.83 0-1.5 0.67-1.5 1.5S196.83 202 197.66 202zM225.32 299.5l0.01 0.13 0.11-0.09L225.32 299.5zM290.94 198.29c1.25 1.53 2.01 3.49 2.01 5.63 0 4.89-3.93 8.85-8.77 8.85s-8.77-3.96-8.77-8.85c0-3.56 2.09-6.63 5.1-8.03 -4.29 0.63-6.98 3.26-7.44 9.54 -0.68 9.34 5.34 4.91 11.11 8.69 7.27 4.76 10.98-2.12 12.03-6.43C296.98 204.46 294.57 200.72 290.94 198.29zM392 213c0 83.12-67.38 150.5-150.5 150.5C158.38 363.5 91 296.12 91 213c0-83.12 67.38-150.5 150.5-150.5C324.62 62.5 392 129.88 392 213zM359 197.07c-0.67-21.3-14.53-36.58-14.53-36.58 -4.07-3.01-12.4-3.76-12.4-3.76 -23.55-31.19-32.69-31.32-32.69-31.32 -3.75-1.24-11.15 0.13-11.15 0.13C261.42 112.27 240.5 110.89 240.5 110.89s-20.92 1.38-47.73 14.66c0 0-7.4-1.37-11.15-0.12 0 0-9.14 0.13-32.69 31.32 0 0-8.33 0.75-12.4 3.76 0 0-13.86 15.28-14.53 36.58 -0.27 8.61 16.03 43.78 24.8 51.61 1.34 1.19-1 26.43 3.76 27.31 0 0 8.27 0.25 11.02-73.41 0 0 0.75 39.67 14.87 61.72 10.58 25.06 4.88 27.96 22.97 44.51 15.78 14.45 19.79 3.42 41.09 7.52 21.3-4.09 25.31 6.93 41.09-7.52 18.09-16.56 12.39-19.46 22.97-44.51 14.11-22.05 14.87-61.71 14.87-61.71 2.76 73.66 11.02 73.41 11.02 73.41 4.76-0.88 2.42-26.11 3.76-27.31C342.97 240.86 359.27 205.69 359 197.07zM283.34 202c0.83 0 1.5-0.67 1.5-1.5 0-0.83-0.67-1.5-1.5-1.5s-1.5 0.67-1.5 1.5S282.51 202 283.34 202zM226.73 299.08c0.02-0.04 0.04-0.07 0.06-0.1C226.73 298.99 226.69 299.01 226.73 299.08zM217.83 302.69l-0.04 0.02c0 0.02 0.01 0.04 0.02 0.05C217.81 302.72 217.82 302.7 217.83 302.69zM217.13 302.95l0.06-0.05C217.17 302.9 217.14 302.9 217.13 302.95zM219.58 302.73l-0.22 0.05c0.06 0.04 0.13 0.09 0.04 0.14C219.72 302.96 219.3 302.82 219.58 302.73zM216.62 303.21l0.03-0.17 -0.08 0.05C216.55 303.14 216.57 303.24 216.62 303.21zM216.95 303.25c-0.06 0.03-0.12-0.03-0.12-0.09 -0.02 0.05-0.1-0.02-0.12 0.08 0.09 0.12 0.22 0.1 0.3-0.03 0.03 0.03 0.02 0.08 0.02 0.11 0.06-0.1 0.11-0.25 0.03-0.39C217.02 303.11 216.99 303.05 216.95 303.25zM220.29 302.65c0.05-0.07 0.06-0.09-0.04-0.1C220.15 302.61 220.28 302.62 220.29 302.65zM223.43 301.08l0.12 0C223.54 301.02 223.48 301.06 223.43 301.08zM255.48 299.84c-0.09-0.02-0.02 0.05-0.06 0.11L255.48 299.84zM259.99 301.95c0.12 0.02 0.03-0.07 0.05-0.1C259.95 301.87 259.93 301.87 259.99 301.95zM256.76 300.65l-0.08-0.09C256.65 300.6 256.71 300.62 256.76 300.65zM200.49 195.89c3.01 1.4 5.1 4.47 5.1 8.03 0 4.89-3.93 8.85-8.77 8.85s-8.77-3.96-8.77-8.85c0-2.14 0.75-4.1 2-5.63 -3.63 2.43-6.04 6.17-5.26 9.39 1.04 4.31 4.76 11.19 12.03 6.43 5.77-3.78 11.79 0.66 11.11-8.68C207.47 199.15 204.78 196.52 200.49 195.89zM254.19 299.09l-0.16-0.02 0.11 0.02H254.19zM260.6 302.28l0.19 0.12c-0.02-0.06-0.04-0.15 0.06-0.13C260.65 302.02 260.86 302.41 260.6 302.28zM263.73 263.13c0 9.85-10.23 17.9-22.95 18.2 0.02-0.31 0.03-0.3-0.18-0.26 0.19-0.01 0.01-0.56-0.08-0.56h0.14c-0.02 0-0.04-0.09-0.05-0.11 -0.07 0-0.14-0.03-0.21-0.03 0.03 0.02 0.05 0.02 0.08 0.05l-0.14-0.04c0.08 0.17 0.24 0.49 0.05 0.49 0.27-0.04 0.17 0.3 0.14 0.47 0.05 0 0.1 0 0.15 0 -0.01-0.02-0.02 0.05-0.03 0.04 0.02 0 0.05 0.07 0.07 0.11 0.05 0.24-0.04 0.49-0.03 0.73l-0.21 0.06c0.01 0.16 0.43 0.2 0.43 0.37l-0.1-0.06c0.05 0.31 0.03 0.44 0.01 0.7l-0.14 0c0.07 0.09 0.07 0.2 0.14 0.29 -0.34 0.23 0.22 0.82-0.15 1.22l0.27 0.01c0 0.15 0.07 0.33-0.13 0.41l0-0.03c-0.2 0 0 0.15-0.04 0.24 0.03 0.07 0.16 0.13 0.2 0.07 -0.11 0.39 0.06 0.96-0.16 1.21 0.11 0.38 0.34 0.66 0.35 1.07l-0.03 0c-0.02 0.14-0.07 0.43-0.29 0.45 0.08 0.3 0.4 0.46 0.33 0.82l-0.09-0.07c-0.03 0.1 0.09 0.23 0.12 0.26 0 0.03-0.05 0.01-0.08 0.01 -0.07 0.09 0.06 0.13 0.09 0.2l-0.08-0.02c-0.12 0.3 0.23 0.71 0.24 1.07 -0.03-0.06-0.11-0.02-0.14 0.01 0.26 0.11 0.27 0.52 0.35 0.66l-0.11-0.08c0.21 0.26-0.21 0.29 0 0.55l0.11-0.19c-0.02 0.13 0.05 0.21 0.15 0.16 -0.05 0.15-0.18 0.04-0.16 0.24 -0.07 0.02-0.08-0.16-0.15-0.08l-0.12 0.27h0c0 0 0 0.06 0 0.06 -0.01 0.02-0.01 0.1 0.03 0.19 0.29-0.1 0.07 0.23 0.33 0.02 0.11 0.36 0.04 0.77 0.28 0.91 -0.11 0.11-0.06 0.2 0.01 0.24 0.09 0.06 0.23 0.16 0.12 0.31 0.18 0.09 0.36 0.1 0.55 0.02 -0.02-0.05-0.09-0.02-0.13-0.03 0.09-0.06 0.32 0.03 0.41 0.08 -0.16 0.02-0.38-0.01-0.54 0.08 0.18 0.05 0.49 0.03 0.6 0.04l-0.02 0.2c0.2-0.06-0.18 0.2 0.32 0.1v-0.07c0 0.14 0.29-0.04 0.54 0.06l-0.1 0.07c0.07 0.07 0.27-0.04 0.27 0.16l-0.16-0.07c-0.04 0.13 0.05 0.25 0.07 0.33 0.18 0.05 0.16-0.17 0.25-0.15 -0.02 0.13-0.02 0.07-0.14 0.15 0.21 0.05 0.48 0.12 0.68 0.04 0 0.02-0.02 0.04-0.02 0.04 0.18 0.11 0.45-0.01 0.52 0.14l-0.05 0c0.07 0.25 0.48 0.03 0.37 0.34 0.05 0.09-0.16-0.09-0.11 0.11 0.18 0.2 0.27-0.17 0.43 0.01 -0.02-0.02-0.02 0-0.04 0.02 0.15 0.06 0.36 0.13 0.53 0.18 0.08 0.34 0.63 0.23 0.73 0.62 -0.02-0.13 0.11-0.09 0.14-0.13 0 0-0.02 0.02-0.02 0.04 0.08 0.05 0.13-0.04 0.18-0.06 0.03 0.12 0.27 0.02 0.29 0.1 0.03-0.06 0.09-0.01 0.16 0.02 -0.18 0-0.11 0.11-0.22 0.18 0.21 0.14 0.39-0.15 0.59 0.01l0.07 0.18c0.11-0.16 0.29 0.01 0.32-0.06 0.01 0.07 0.06 0.14 0 0.22 0.11 0 0.21 0.16 0.3 0.07l-0.07-0.09c0.25 0.2 0.55 0.03 0.71 0.25l-0.13 0.27c0.09 0.18 0.34-0.02 0.39 0.2 0-0.11-0.02-0.09 0.11-0.13 -0.05-0.04-0.18-0.02-0.27-0.07l0.27-0.06 -0.34-0.07c0.18-0.04 0.16-0.02 0.16-0.15 0.23 0 0.14 0.22 0.37 0.2 0.05 0.07-0.06 0.13-0.02 0.22 0.2-0.02 0.21 0.34 0.39 0.25 0.02 0.05-0.07-0.02-0.09 0.04 0.11 0.02 0.18 0.07 0.25 0l-0.07-0.07c0.07 0.04 0.14-0.06 0.25 0.07 0.11-0.02 0.23-0.13 0.13-0.18 0.05 0 0.09 0.11 0.03 0.18 0.23 0.11 0.24-0.23 0.4 0 0 0 0 0 0 0l0 0c-0.02 0-0.04 0.01-0.04 0.03 0.05 0.05 0.09 0.07 0.14 0.07 -0.21-0.07-0.04 0.25-0.25 0.09 -0.04 0.16 0.16 0.12 0.21 0.21 0.16-0.04 0.11-0.18 0.2-0.23 -0.02 0.04 0.02 0.1 0.07 0.14l0-0.07c0.05 0.02 0.09 0.17 0.16 0.17h-0.11c0.09 0 0.17 0.19 0.39 0.17 -0.07 0.02-0.2-0.06-0.11 0.06 0.23 0.02 0.02 0.07 0.1 0.2 0.21 0.07 0.13-0.18 0.38 0.02 0.03 0.02 0.03-0.06 0.02-0.1 0.17 0.14 0.31 0.12 0.47 0.28 -0.07-0.07-0.12-0.13 0.02-0.13 -0.09 0.07 0.12 0.16 0.17 0.24l0.04-0.04c0.03 0.09-0.04 0.08-0.1 0.08 0.01-0.02 0-0.04-0.04-0.05 -0.11 0-0.18 0.22-0.04 0.31 0.18 0.02 0.22-0.13 0.22-0.2 0.19 0.16 0.31-0.15 0.48 0.02 0.05 0.02 0.1 0.31 0.24 0.4 0.13-0.09-0.14-0.18-0.01-0.24 0.1 0.42 0.59 0.04 0.83 0.38l-0.11 0.13c0.07 0.05 0.14 0.09 0.23 0.11l-0.07-0.13c0.09 0 0.25 0.11 0.14 0.2 0.23-0.05 0.23 0.04 0.37 0.15 -0.16-0.09 0.01-0.02-0.15 0 0.14 0.15 0.18 0.11 0.31 0.13 -0.04 0.05-0.02 0.15 0.03 0.18 0.16-0.04 0.34 0.06 0.52 0.08l-0.02 0.03c0.29 0.06 0.31 0.38 0.81 0.37v-0.04 -0.08c0 0 0.02 0 0.03 0l0 0.01c0.06-0.04 0.26 0.13 0.35 0.11 0 0.05-0.02 0.11 0.03 0.13 0.06-0.13 0.14-0.02 0.2-0.07 0.07 0.09-0.08 0.16 0.08 0.22 0.07 0.02 0.1-0.05 0.12-0.11 0 0.08 0.08 0.18 0.16 0.23 -0.04 0.02-0.07-0.04-0.09-0.04 -0.04 0.07 0.03 0.07-0.02 0.16 0.07 0.04 0.09-0.11 0.16-0.02l-0.13 0.07c0.03 0.04 0.09 0.02 0.11 0.02 -0.07 0-0.11 0.11-0.13 0.18 0.25 0.02 0.17-0.27 0.23-0.38 0.17 0.17 0.39 0.1 0.55 0.17l-0.08 0.11c0.09 0.01 0.14 0 0.19-0.04l-0.03-0.01 0.09-0.04c-0.02 0.02-0.04 0.04-0.05 0.05l0.12 0.05c-0.09 0.02-0.13 0.05-0.18 0.14 0.14 0.02 0.3 0.13 0.41-0.03l-0.02 0.03c0.14 0.13 0.48 0.32 0.45 0.37 0.14 0.02 0.28 0.11 0.37 0.11 0 0 0 0 0 0 0 0 0 0 0 0 0.04 0 0.08-0.01 0.1-0.06 0.13 0.01 0.19 0.34 0.36 0.15 0.08 0.16-0.01 0.05-0.1 0.16 0.09 0.16 0.33-0.07 0.28 0.19 0.18-0.01-0.02-0.06 0.08-0.15 -0.06 0.24 0.27 0.15 0.36 0.34 0.1-0.07-0.04-0.08 0.11-0.14 -0.03 0.05 0.02 0.09 0.05 0.1l0.08-0.13 0.01 0.41c0.28-0.08 0.05-0.26 0.36-0.22l-0.02 0.01c0.02 0.18 0.25-0.04 0.41 0.15 -0.06-0.05-0.05 0.06-0.09 0.09l0.14-0.02c-0.01 0-0.02 0.01-0.02 0.03 0.06 0.15 0.11-0.03 0.2 0.11 -0.09 0-0.11 0.12-0.09 0.18l0.23-0.1L262 303.24c0.17 0.08 0.52-0.16 0.52 0.14l-0.09 0.01c-0.01 0.05 0 0.21 0.15 0.14 0.04-0.01 0.1-0.12 0.05-0.13l0.08 0.07c-0.08 0.12-0.31 0.09-0.46 0.09 0.06-0.04 0.18-0.05 0.17-0.14 -0.14 0.01-0.28 0.05-0.41 0.06 0.06-0.04 0.12-0.11 0.16-0.15 -0.1-0.11-0.12 0.06-0.23 0.04 -0.02-0.06-0.03-0.11 0.01-0.14 -0.14 0.01-0.24-0.01-0.34-0.12 0 0 0.18-0.04 0.12-0.14 -0.26-0.01-0.36 0.13-0.65 0.13 -0.37 0.1-0.51-0.35-0.77-0.27 -0.03 0.05 0.11 0.16-0.03 0.14 0.07-0.1-0.05-0.1-0.04-0.15 -0.21 0.11-0.19-0.12-0.34-0.05 0.04-0.03-0.02-0.11-0.06-0.17 0.07-0.13-0.13-0.12 0.16-0.24 -0.3 0.13-0.35-0.21-0.64 0.05l0.04 0.06 -0.18-0.15 0.01 0.01c-0.08-0.06-0.11-0.03-0.17-0.23 0.07-0.01 0.14 0.02 0.21 0.01 -0.06-0.17-0.28 0.01-0.4-0.04 0.05-0.1 0.14 0.02 0.16-0.12 -0.08-0.05-0.19-0.01-0.28-0.02l0.04-0.05c-0.16-0.22-0.2 0.24-0.28-0.02 -0.01 0.04-0.04 0.06-0.05 0.1 -0.03-0.08-0.13-0.24 0.04-0.25 -0.07-0.03-0.18-0.02-0.25 0.03 0.03 0.11 0.06 0.08 0.04 0.19l-0.33-0.07c-0.03-0.01 0.05-0.04 0.09-0.02 -0.23-0.45-0.83-0.06-1.08-0.6 0.01 0.11-0.06 0.07-0.13 0.11 -0.12-0.09-0.33-0.15-0.42-0.26l0.07-0.04c-0.34-0.06-0.6-0.06-0.79-0.19 -0.02 0.02 0.04-0.09 0.09-0.09 -0.2 0.05-0.22-0.4-0.37-0.17l0.05 0.04c-0.28-0.18-0.69-0.15-1.01-0.26 -0.01-0.18 0.19 0.07 0.2-0.13 -0.19-0.15-0.46-0.13-0.67-0.29 0.05 0 0.05-0.02 0.07-0.02 -0.19-0.2-0.04 0.16-0.23 0.05 0.04-0.07 0.04-0.09-0.01-0.15l-0.11 0.09c0-0.02 0.04-0.11 0.09-0.13 -0.16 0.11-0.37-0.1-0.5 0.01 0-0.04 0.11-0.14 0.11-0.2 -0.08-0.09-0.18-0.01-0.27-0.01 -0.01 0-0.02-0.01-0.04-0.03 -0.02 0.01-0.05 0-0.08-0.02 0.02 0 0.04-0.01 0.05-0.01 -0.06-0.07-0.13-0.17-0.1-0.17 -0.16-0.13-0.07 0.03-0.25 0.05l0.12 0.13 -0.28-0.09 0.14-0.02c-0.09-0.11-0.28-0.05-0.41-0.11l0.02 0.11 -0.18-0.02c0.06-0.18-0.18-0.13-0.01-0.29 -0.26-0.22-0.55-0.09-0.82-0.2 0.05 0.02 0.05-0.02 0.07-0.04 -0.14-0.11-0.27-0.07-0.41-0.02 0.05-0.04 0.09-0.04 0.11-0.09 -0.18-0.09-0.16 0.04-0.39 0 0.09-0.04 0.09-0.09 0.04-0.13 -0.02 0.07-0.09 0.09-0.13 0.09 0.31-0.26-0.16-0.25 0.06-0.47 -0.04 0.07-0.43 0.06-0.4 0.24l0.07 0c-0.04 0.1-0.1 0.02-0.16 0 0.04 0 0.08-0.01 0.09-0.03 -0.34-0.02-0.6-0.27-0.96-0.34 0.05-0.02 0.21-0.02 0.13-0.09 -0.3-0.2-0.57-0.12-0.94-0.19 0.09-0.22 0.37 0.14 0.48-0.06 -0.36-0.11-0.75-0.21-1.19-0.28 0.02-0.38-0.43-0.05-0.55-0.41 -0.03 0.12-0.16 0.1-0.29 0.04 0.09-0.06-0.05-0.13 0.02-0.18 -0.16 0.04-0.5-0.07-0.39-0.27 -0.12 0.18-0.23-0.13-0.4-0.03 0.03 0.03 0.05 0.08 0.06 0.14l-0.09-0.11c0.01-0.01 0.02-0.02 0.04-0.02 -0.1-0.14-0.32-0.1-0.47-0.25 0 0.15-0.2-0.03-0.29-0.01 0.02 0 0.07 0 0.07-0.02 0-0.13-0.25 0-0.32-0.12 -0.02-0.07 0.07-0.11 0-0.16 -0.04 0.09-0.36 0.06-0.41-0.1 0.05 0.02 0.07-0.02 0.11-0.04 -0.55-0.08-0.96-0.51-1.53-0.57l0.16-0.11c-0.21-0.34-0.32 0.15-0.55 0.01 -0.31-0.2-0.6-0.43-0.91-0.64 -0.16-0.11-0.28-0.19-0.49-0.31 -0.27-0.12-0.48-0.43-0.61-0.61 -0.08-0.04-0.03 0.06-0.09 0.11 -0.03-0.09 0.09-0.17-0.03-0.22l-0.07 0.06c0.04-0.46-0.5-0.98-0.19-1.32 -0.21-0.29-0.01-0.56-0.29-0.9 0.06-0.13 0.18 0.11 0.17-0.05l-0.19-0.33 0.02 0.02c-0.32-0.3 0.17-0.93-0.06-1.33l0.02 0.02c0.06 0 0.13-0.09 0.1-0.16 -0.05-0.02-0.06 0.03-0.11 0.08 -0.11-0.27-0.14-0.39-0.17-0.55 -0.03 0.09 0.05 0.22 0.07 0.26 -0.01 0.03-0.05 0-0.08 0 -0.08 0.08 0.03 0.14 0.04 0.22l-0.07-0.04c-0.18 0.27 0.06 0.76-0.03 1.14 -0.01-0.07-0.1-0.05-0.14-0.02 0.22 0.19 0.1 0.6 0.13 0.77l-0.08-0.11c0.11 0.34-0.3 0.22-0.19 0.55l0.17-0.15c-0.06 0.12-0.04 0.23 0.08 0.22 -0.11 0.13-0.19-0.02-0.25 0.2 -0.07 0-0.01-0.17-0.12-0.11l-0.24 0.26h0c0 0 0 0 0 0 -0.02 0.01-0.03 0.04-0.04 0.14 0.31 0.05-0.04 0.25 0.28 0.17 -0.1 0.45-0.37 0.73-0.49 1.21 -0.18 0.01-0.34 0.24-0.56 0.32 -0.19 0.09-0.29 0.1-0.36-0.07 -0.18 0.09-0.3 0.23-0.34 0.42 0.05 0.01 0.08-0.06 0.1-0.09 0 0.11-0.22 0.23-0.31 0.28 0.08-0.14 0.24-0.3 0.27-0.48 -0.15 0.12-0.32 0.36-0.39 0.45l-0.13-0.16c-0.08 0.2-0.19-0.08-0.24 0.16l0.05 0.04c-0.26 0.11-0.18 0.29-0.41 0.43l-0.02-0.07c-0.1 0.01-0.14 0.24-0.29 0.12l0.15-0.08c-0.08-0.12-0.22-0.11-0.31-0.15 -0.15 0.11 0.04 0.23-0.03 0.29 -0.09-0.1-0.04-0.06-0.04-0.2 -0.16 0.13-0.39 0.3-0.45 0.52 -0.02-0.01-0.02-0.04-0.02-0.04 -0.2 0.07-0.27 0.37-0.44 0.32l0.03-0.04c-0.24-0.1-0.32 0.36-0.49 0.08 -0.1-0.02 0.17-0.07-0.02-0.15 -0.27 0.02-0.03 0.32-0.27 0.33 0.03 0 0.02-0.02 0.01-0.05 -0.14 0.08-0.32 0.2-0.47 0.31 -0.31-0.14-0.58 0.35-0.94 0.19 0.12 0.06 0 0.14 0.02 0.19 0 0 0-0.03-0.02-0.04 -0.09 0.03-0.05 0.13-0.06 0.19l0 0c-0.11-0.05-0.18 0.2-0.25 0.17 0.03 0.06-0.05 0.08-0.12 0.11 0.12-0.14-0.02-0.15 0-0.28 -0.23 0.08-0.12 0.39-0.38 0.46l-0.18-0.06c0.06 0.19-0.19 0.22-0.15 0.28 -0.07-0.04-0.14-0.04-0.17-0.13 -0.07 0.09-0.25 0.06-0.24 0.19l0.11 0c-0.32 0.07-0.37 0.41-0.64 0.39l-0.12-0.27c-0.2-0.04-0.2 0.28-0.4 0.18 0.09 0.07 0.08 0.04 0.03 0.17 0.06-0.01 0.13-0.13 0.23-0.17l-0.12 0.25 0.27-0.22c-0.08 0.17-0.08 0.14 0.02 0.22 -0.14 0.17-0.26-0.03-0.39 0.16 -0.08-0.01-0.06-0.13-0.16-0.15 -0.11 0.17-0.39-0.05-0.44 0.15 -0.05-0.01 0.06-0.04 0.02-0.1 -0.09 0.07-0.17 0.1-0.16 0.19l0.1-0.01c-0.08 0.03-0.04 0.14-0.22 0.15 -0.05 0.1-0.04 0.26 0.05 0.22 -0.03 0.03-0.14 0-0.15-0.09 -0.23 0.11 0.03 0.34-0.26 0.31 0.01-0.02 0.02-0.04 0.01-0.05 -0.06 0.01-0.11 0.03-0.14 0.06 0.19-0.12-0.16-0.19 0.09-0.25 -0.09-0.13-0.19 0.05-0.29 0.03 -0.07 0.15 0.08 0.21 0.06 0.31 -0.02-0.04-0.07-0.02-0.13-0.02l0.1 0.08c-0.05 0.02-0.09 0.04-0.14 0.1l0.07-0.09c-0.11 0.03-0.35-0.07-0.48 0.12 0.03-0.07 0.08-0.2-0.06-0.2 -0.16 0.16-0.07-0.02-0.21-0.05 -0.18 0.11 0.06 0.21-0.26 0.28 -0.03 0.01 0.03 0.06 0.07 0.08 -0.22 0.04-0.29 0.17-0.52 0.18 0.1-0.01 0.18 0 0.09 0.1 0.01-0.11-0.19-0.01-0.29-0.03l0.01 0.06c-0.09-0.03-0.03-0.08 0.01-0.12 0.01 0.02 0.03 0.03 0.07 0.01 0.07-0.09-0.06-0.28-0.21-0.23 -0.13 0.13-0.04 0.26 0.01 0.3 -0.24 0.04-0.08 0.34-0.33 0.35 -0.05 0.02-0.3-0.12-0.46-0.08 -0.02 0.16 0.23 0.01 0.19 0.15 -0.39-0.19-0.42 0.42-0.83 0.39l-0.03-0.17c-0.08 0.03-0.16 0.05-0.23 0.1l0.15 0.03c-0.06 0.07-0.25 0.12-0.24-0.02 -0.11 0.2-0.18 0.14-0.36 0.18 0.17-0.06 0.01 0.02 0.1-0.11 -0.21 0.01-0.2 0.06-0.31 0.15 0-0.06-0.1-0.12-0.15-0.1 -0.07 0.15-0.28 0.21-0.41 0.34l-0.02-0.05c-0.24 0.18-0.62 0.35-0.83 0.35h0.02c0.16 0-0.16 0.21-0.22 0.31 -0.03-0.03-0.07-0.07-0.12-0.05 0.06 0.14-0.07 0.12-0.08 0.2 -0.11-0.01-0.06-0.17-0.22-0.09 -0.06 0.04-0.03 0.11 0 0.16 -0.06-0.05-0.19-0.06-0.28-0.04 0.01-0.05 0.08-0.02 0.09-0.04 -0.02-0.08-0.07-0.02-0.1-0.12 -0.08 0.02 0.03 0.14-0.09 0.13l0.04-0.15c-0.05-0.01-0.08 0.06-0.09 0.07 0.05-0.05-0.01-0.15-0.05-0.22 -0.18 0.17 0.08 0.31 0.12 0.43 -0.24 0.01-0.34 0.22-0.5 0.29l-0.02-0.14c-0.07 0.05-0.09 0.1-0.1 0.16l0.03-0.01 -0.03 0.09c0-0.03 0-0.05 0-0.07l-0.12 0.05c0.05-0.07 0.06-0.12 0.02-0.23 -0.11 0.09-0.3 0.13-0.26 0.32l-0.01-0.03c-0.2 0.01-0.57 0.13-0.58 0.07 -0.11 0.09-0.27 0.12-0.34 0.19l0 0c0 0 0 0 0 0 -0.03 0.03-0.05 0.06-0.03 0.11 -0.09 0.09-0.37-0.1-0.37 0.14 -0.18-0.06-0.02-0.04-0.04-0.18 -0.17-0.06-0.19 0.28-0.33 0.05 -0.12 0.14 0.06 0.04 0.05 0.17 -0.12-0.21-0.3 0.08-0.49 0 -0.03 0.12 0.09 0.03 0.02 0.17 -0.01-0.06-0.07-0.05-0.11-0.04l0.03 0.15 -0.28-0.3c-0.15 0.25 0.14 0.23-0.13 0.41l0.01-0.02c-0.13-0.12-0.17 0.19-0.42 0.15 0.08 0 0-0.08 0.01-0.13l-0.1 0.1c0.01-0.01 0.01-0.02-0.01-0.04 -0.14-0.07-0.07 0.09-0.22 0.03 0.07-0.06 0.01-0.16-0.04-0.2l-0.12 0.22 0-0.22c-0.17 0.04-0.32 0.44-0.49 0.19l0.07-0.05c-0.02-0.04-0.11-0.18-0.19-0.04 -0.03 0.03-0.02 0.16 0.03 0.14l-0.1-0.02c0.01-0.14 0.2-0.24 0.32-0.31 -0.02 0.07-0.11 0.14-0.05 0.21 0.1-0.07 0.19-0.2 0.28-0.28 -0.03 0.07-0.03 0.16-0.03 0.22 0.15 0.03 0.07-0.12 0.16-0.16 0.05 0.04 0.09 0.07 0.08 0.11 0.1-0.09 0.19-0.14 0.34-0.12 0 0-0.11 0.15 0 0.19 0.2-0.16 0.19-0.33 0.41-0.51 0.2-0.32 0.61-0.08 0.74-0.32 -0.01-0.06-0.19-0.04-0.07-0.13 0.02 0.12 0.11 0.04 0.13 0.09 0.07-0.22 0.22-0.04 0.27-0.2 -0.01 0.05 0.09 0.06 0.15 0.08l0.01 0.06h0c0.04 0 0.18-0.05 0.06 0.23 0.12-0.3 0.39-0.16 0.41-0.55l-0.07-0.06 0.24-0.12c0.09 0 0.1 0.04 0.27 0.13 -0.04 0.06-0.11 0.18-0.15 0.24 0.16 0.08 0.19-0.2 0.31-0.26 0.04 0.1-0.11 0.09-0.02 0.2 0.1-0.02 0.14-0.13 0.21-0.19l0.01 0.06c0.27 0.03-0.03-0.31 0.21-0.19 -0.02-0.03-0.01-0.07-0.04-0.1 0.09 0.03 0.27 0.08 0.16 0.21 0.08-0.03 0.14-0.12 0.15-0.2 -0.1-0.05-0.1-0.01-0.17-0.1l0.28-0.19c0.03-0.01 0 0.07-0.04 0.09 0.49 0.14 0.61-0.56 1.17-0.39 -0.08-0.07-0.01-0.09 0-0.17 0.14-0.03 0.33-0.14 0.47-0.14l-0.01 0.08c0.28-0.21 0.44-0.41 0.67-0.46 0-0.03 0.04 0.09 0.01 0.13 0.1-0.18 0.44 0.1 0.38-0.16l-0.06 0.01c0.32-0.09 0.56-0.42 0.86-0.59 0.14 0.11-0.17 0.1-0.03 0.24 0.24-0.04 0.4-0.26 0.65-0.32 -0.03 0.03-0.01 0.05-0.03 0.07 0.27-0.01-0.09-0.13 0.11-0.2 0.02 0.08 0.04 0.09 0.12 0.1l0-0.14c0.02 0.01 0.06 0.1 0.05 0.15 0.02-0.19 0.32-0.21 0.32-0.38 0.04 0.03 0.05 0.18 0.1 0.23 0.12-0.01 0.21-0.1 0.21-0.18v0c0 0.07 0.29-0.03 0.26 0 0.21-0.04-0.01-0.09 0.09-0.25l-0.18 0.01 0.25-0.15 -0.07 0.12c0.15 0 0.21-0.18 0.35-0.24l-0.1-0.05 0.14-0.12c0.1 0.16 0.22-0.06 0.23 0.18 0.33-0.05 0.42-0.36 0.68-0.5 -0.05 0.02-0.01 0.05-0.01 0.08 0.18-0.04 0.23-0.17 0.28-0.3 0.01 0.06-0.02 0.1 0 0.14 0.19-0.09 0.07-0.15 0.25-0.3 -0.02 0.1 0.01 0.13 0.08 0.12 -0.04-0.06-0.01-0.12 0.02-0.16 0.01 0.41 0.29 0.03 0.32 0.34 -0.02-0.08 0.22-0.37 0.07-0.46l-0.04 0.05c-0.05-0.09 0.04-0.09 0.1-0.12 -0.02 0.03-0.04 0.07-0.04 0.09 0.24-0.25 0.59-0.29 0.87-0.53 -0.01 0.05-0.11 0.17-0.02 0.16 0.35-0.1 0.45-0.37 0.73-0.61 0.12 0.21-0.34 0.2-0.25 0.41 0.32-0.21 0.64-0.45 0.96-0.74 0.28 0.25 0.31-0.31 0.66-0.18 -0.07-0.09 0.03-0.19 0.15-0.25 0 0.11 0.13 0.04 0.13 0.12 0.07-0.15 0.37-0.35 0.46-0.14 -0.06-0.21 0.25-0.11 0.27-0.29 0.18 0.01 0.28-0.19 0.49-0.21 -0.12-0.09 0.15-0.14 0.19-0.23 -0.01 0.02-0.04 0.05-0.02 0.07 0.11 0.08 0.16-0.19 0.29-0.18 0.07 0.02 0.05 0.12 0.12 0.1 -0.04-0.09 0.18-0.32 0.33-0.26 -0.05 0.02-0.02 0.07-0.04 0.11 0.4-0.38 0.99-0.44 1.38-0.85l-0.01 0.19c0.39 0.05 0.08-0.34 0.33-0.44 0.34-0.12 0.71-0.21 1.06-0.33 0.17-0.05 0.38-0.13 0.49-0.18 0.07-0.03 0.07-0.04 0.11-0.16 -0.03-0.05-0.06-0.01-0.12-0.04 0.04-0.01 0.17 0.03 0.11-0.07l-0.09-0.02c0.33-0.12 0.09-0.79 0.51-0.92 -0.07-0.32 0.2-0.48 0.05-0.88 0.1-0.1 0.13 0.16 0.18 0.01l-0.08-0.36 0.01 0.02c-0.22-0.36 0.42-0.82 0.27-1.26l0.01 0.02c0.06 0.02 0.14-0.06 0.13-0.13 -0.04-0.03-0.07 0.02-0.12 0.05 -0.06-0.38-0.06-0.46-0.05-0.76 0.08 0.14 0.09-0.11 0.22-0.11 -0.08-0.08-0.14 0.03-0.19-0.15 0.01-0.24 0.14-0.46 0.2-0.66 -0.11-0.09-0.07-0.2-0.21-0.21 0.01-0.28-0.03-0.43 0-0.77l0.05 0c-0.17-0.1 0.11-0.29 0.01-0.36 0.06 0.02 0.09 0.05 0.13 0.05l-0.05-0.16c0.05 0.08 0.21 0.13 0.24 0 -0.11-0.14-0.09 0.03-0.18-0.04l0.17-0.03c-0.01-0.1-0.19-0.14-0.25-0.02 0.02-0.34-0.04-0.68 0.01-0.98l0.1 0.04c-0.03-0.17-0.02-0.4 0.08-0.49 -0.03-0.01-0.08-0.05-0.12-0.02 -0.13-0.21 0.18-0.01 0.03-0.24 0.04 0.06 0.06 0.13 0.12 0.14l-0.11-0.42c0.08 0 0.27-0.24 0.21-0.42 -0.04-0.01-0.11 0.04-0.12 0.08l-0.03-0.11 0.19-0.08 -0.15-0.17 -0.04 0 0.01-0.03 0.03 0.03 0.15 0c-0.03-0.12-0.22-0.18-0.2-0.27 0.11-0.35 0.16-0.28 0.32-0.53 -0.29-0.04 0.03-0.4-0.18-0.48 0.19-0.27 0.15-0.66 0.17-1.03 -12.76-0.25-23.04-8.31-23.04-18.19 0-10.04 10.62-18.21 23.67-18.21C253.11 244.93 263.73 253.09 263.73 263.13zM240.43 281.31c0 0.01 0.01 0.02 0.01 0.02 0.02 0 0.03 0 0.05 0C240.47 281.32 240.44 281.31 240.43 281.31zM239.54 280.72l0.05 0.05c0.07-0.12 0.07-0.28 0.05-0.44 -0.06 0-0.12 0-0.18 0 0.02 0.16 0.01 0.31-0.07 0.42l-0.04-0.05c-0.06 0.2 0.3 0.24 0.15 0.43l-0.02-0.04c-0.01 0.08-0.02 0.16-0.02 0.24 0.08 0 0.16 0 0.23 0.01 0-0.07 0-0.15 0.01-0.22l0.03 0.04C239.85 280.95 239.49 280.93 239.54 280.72zM239.94 288.25c-0.02 0-0.04 0.02-0.06 0.02 0 0.06 0.02 0.11 0.04 0.16C239.92 288.37 239.93 288.31 239.94 288.25zM240.13 288.74c-0.04-0.03-0.07-0.02-0.1-0.02 0.01 0.02 0.02 0.05 0.03 0.07C240.08 288.77 240.1 288.75 240.13 288.74zM262.73 263.13c0-9.49-10.17-17.2-22.66-17.2 -12.5 0-22.66 7.72-22.66 17.2 0 9.33 9.84 16.94 22.05 17.19 -0.02-0.2-0.08-0.42-0.15-0.56 0.04 0.05 0.12 0.03 0.13-0.04 -0.01 0-0.01-0.01-0.01-0.02 -0.06-0.05-0.19 0.06-0.14-0.08 0.03 0.04 0.09 0.01 0.1-0.02l-0.14-0.14c0.05-0.15 0.09-0.3 0.12-0.46h-0.1v-4.9c-0.03-0.01-0.05-0.04-0.05-0.1 0 0 0.01 0.02 0.03 0.04 0-0.01-0.01-0.02-0.01-0.04 0 0 0.02 0.03 0.04 0.06v-0.56 -1.3c0 0-0.01-0.01-0.01-0.01 0 0 0.01 0 0.01 0V251.61c-0.57-0.71-3.52-4.01-7.85-2.05 -0.1 0.04-6.88 2.55-7.77 6.59 -0.36 1.61 0.3 3.29 1.92 5 1.15-0.89 2.67-1.44 4.35-1.44 3.55 0 6.43 2.44 6.43 5.43 0 2.99-2.88 5.43-6.43 5.43 -3.55 0-6.43-2.44-6.43-5.43 0-1.24 0.5-2.38 1.34-3.3 -1.86-1.97-2.59-3.95-2.16-5.9 1.02-4.58 8.08-7.19 8.38-7.3 4.45-2.01 7.7 0.91 8.76 2.07 1.21-1.13 4.99-4.09 9.49-2.06 0.26 0.1 7.03 2.68 8.02 7.2 0.39 1.79-0.18 3.6-1.69 5.41 0.15-0.15 0.08-0.06 0.01 0.01 1.19 0.99 1.94 2.36 1.94 3.87 0 2.99-2.88 5.43-6.43 5.43 -3.55 0-6.43-2.44-6.43-5.43 0-2.99 2.88-5.43 6.43-5.43 1.36 0 2.62 0.36 3.66 0.97 -0.1 0.12-0.04 0.06 0.01 0.01l-0.01-0.01c1.34-1.58 1.86-3.13 1.54-4.62 -0.86-3.99-7.35-6.46-7.42-6.48 -4.33-1.95-7.93 1.35-8.63 2.07v18.35c0.08 0.02 0.22 0.2 0.25 0.3 0 0.09-0.02 0.14-0.05 0.16 -0.05 0.05-0.13 0.03-0.19 0.05v0.27l0.06 0.22h-0.01l0-0.04 -0.05-0.04v0.07c0.01 0.01 0.03 0.02 0.03 0.02 -0.02 0-0.02 0.01-0.03 0.02v0.33l0.06-0.03c0 0 0 0 0 0.01l0.01-0.01c0.15 0.21 0.01 0.37-0.08 0.52v0.34l0.13 0.14 -0.13 0.03v0.03c0.08 0.09 0.18 0.12 0.13 0.28 -0.26 0.63 0.05 1.31-0.11 1.96 0.02-0.01 0.04-0.03 0.06-0.06 -0.01 0.02-0.01 0.03-0.02 0.04 0.01-0.01 0.02-0.02 0.03-0.04 -0.04 0.06-0.06 0.12-0.08 0.17v0.32c0.09 0.3 0.37 0.56 0.18 0.9l-0.01-0.01c0 0.01 0 0.01-0.01 0.02l-0.04-0.02c0.01 0.09 0 0.1-0.02 0.09 -0.01 0.03-0.04-0.01-0.07-0.01 -0.01 0.01-0.02 0.02-0.03 0.03v0.04c0.16 0.05 0.13 0.32 0.2 0.47 -0.04-0.02-0.03-0.07-0.06-0.12 0 0 0 0 0 0 0.01 0.05 0.02 0.09 0.03 0.13 -0.04-0.02-0.03-0.07-0.06-0.11 -0.05 0.02-0.12 0.04-0.09 0.1 0.27 0.16 0.25 0.52 0.33 0.78 -0.1 0.03-0.2 0.2-0.35 0.33v0.09c0.04 0.02 0.08 0.04 0.12 0.06 0 0 0 0 0 0 0 0 0 0 0 0.01 0 0 0 0 0.01 0 0-0.04-0.01-0.07-0.02-0.06 0.05-0.05 0.08-0.05 0.1-0.04 0.07-0.05 0.08 0.03 0.2 0.02 0 0.09 0.05 0.26-0.06 0.28 0 0.05-0.02 0.09-0.04 0.14 0.02 0.03 0.04 0.07 0.02 0.11l-0.01-0.02c-0.02 0.01-0.03 0.02-0.04 0.02 -0.06 0.17 0.16 0.4 0.26 0.54 -0.07-0.05-0.12-0.06-0.16-0.04 0.02 0.03 0.04 0.05 0.05 0.07 -0.04-0.03-0.07-0.04-0.09-0.05 -0.04 0.03-0.07 0.06-0.13 0.06 0 0 0.01-0.01 0.01-0.03 -0.01 0.01-0.03 0.02-0.04 0.03 0.02 0.07 0.04 0.15 0.01 0.25 -0.01-0.02-0.04-0.05-0.09-0.04 -0.03 0.1 0.07 0.18 0.15 0.2 -0.13 0.03-0.21 0.23-0.15 0.33 0.11 0.09 0.15 0.07 0.15 0.23l-0.09-0.07c-0.06 0.17 0.09 0.16 0.07 0.27 -0.01-0.02-0.07-0.02-0.08 0.02 0.05 0.17 0.1 0.2 0.23 0.3C252.85 280.11 262.73 272.48 262.73 263.13zM240.37 278.7c0-0.05 0.01-0.11 0.01-0.18C240.35 278.58 240.35 278.64 240.37 278.7zM240.4 277.84c0 0 0-0.01 0-0.01 0 0 0 0 0 0.01L240.4 277.84zM240.48 278.48c0-0.01 0-0.01 0-0.02 0 0 0 0-0.01 0C240.47 278.47 240.47 278.47 240.48 278.48zM240.6 277.98c0.03-0.01 0.06-0.03 0.04-0.08 -0.01-0.01-0.02-0.01-0.04-0.01 0 0.02 0 0.03 0 0.05C240.6 277.94 240.6 277.96 240.6 277.98zM251.11 261.21c-2.72 0-4.93 1.76-4.93 3.93s2.21 3.93 4.93 3.93c2.72 0 4.93-1.76 4.93-3.93S253.82 261.21 251.11 261.21zM224.97 265.14c0 2.16 2.21 3.93 4.93 3.93 2.72 0 4.93-1.76 4.93-3.93s-2.21-3.92-4.93-3.92C227.18 261.21 224.97 262.97 224.97 265.14z"/></svg>
