<svg xmlns="http://www.w3.org/2000/svg" viewBox="0 0 538.8 540.5"><path d="M430.8 207.5c-4.7-7.8-3.7-17.2 0.6-23.2H105c4.4 6 4.2 15.4-0.5 23.2 -5.3 8.8-15.7 12.1-24.7 9.9v108.9c9-2.2 19.4 1.6 24.7 10.4 4.7 7.8 4.9 18.6 0.5 23.6h326.5c-4.4-5-5.3-15.9-0.6-23.6 5.2-8.6 14.9-12.3 22.9-10.5V217.5C445.8 219.3 436 216 430.8 207.5zM136.9 295.4c-13.9 0-25.2-11.3-25.2-25.2 0-13.9 11.3-25.2 25.2-25.2 13.9 0 25.2 11.3 25.2 25.2C162.1 284.1 150.8 295.4 136.9 295.4zM268.2 343.8c-29.8 0-53.9-32-53.9-71.5 0-39.5 24.1-71.5 53.9-71.5 29.8 0 53.9 32 53.9 71.5C322.1 311.8 298 343.8 268.2 343.8zM399.6 295.4c-13.9 0-25.2-11.3-25.2-25.2 0-13.9 11.3-25.2 25.2-25.2 13.9 0 25.2 11.3 25.2 25.2C424.8 284.1 413.5 295.4 399.6 295.4zM295 293.5c0 11.3-8.2 21.9-23.2 24.3v16.4h-7v-15.9c-8-0.1-17.3-2.7-22.3-6.3l3-9.6c5.2 3.4 12.6 6.2 20.6 6.2 10.2 0 17-5.9 17-14 0-7.9-5.6-12.7-16.2-17 -14.6-5.7-23.7-12.3-23.7-24.8 0-11.9 8.5-20.9 21.5-23V215.3h9v13.9c8 0.3 14.5 2.6 18.6 5l-3.5 9.4c-3-1.7-8.9-4.9-18.1-4.9 -11 0-15.3 6.6-15.3 12.3 0 7.4 5.1 11.2 17.6 16.3C287.9 273.4 295 280.8 295 293.5zM269.3 3.3c-147.7 0-267.5 119.8-267.5 267.5s119.8 267.5 267.5 267.5 267.5-119.8 267.5-267.5S417 3.3 269.3 3.3zM482.2 389.3H56.1c-6.8 0-12.4-6.8-12.4-13.6V167.9c0-6.8 5.5-11.7 12.4-11.7h426.1c6.8 0 12.6 4.9 12.6 11.7v207.8C494.8 382.5 489 389.3 482.2 389.3z"/></svg>
