<svg xmlns="http://www.w3.org/2000/svg" viewBox="43.3 77.7 283.3 286.3"><path d="M184.5 79.2c-77.5 0-140.4 62.9-140.4 140.4S107 360 184.5 360s140.4-62.9 140.4-140.4S262 79.2 184.5 79.2zM103.9 144.2l15.8-26.7 30.8-4 30.8-4 -15.8 26.8 -15.8 26.8 -30.8 4 -30.8 4L103.9 144.2zM102.1 204.3v13.8c0 1.5-5.8 1.5-5.8 0v-13.8c0-0.9 0.4-1.6 1-2.1 -1-0.6-1.7-1.8-1.7-3.1 0-1.3 0.7-2.4 1.7-3.1v-24.3l3.9-0.5v24.8c1 0.6 1.7 1.8 1.7 3.1 0 1.3-0.7 2.5-1.7 3.1C101.7 202.7 102.1 203.5 102.1 204.3zM120.1 168.9l30.8-4 15.8-26.7 5.5-9.3 19.4 30c-1.8-0.1-3.6-0.2-5.5-0.2 -11.7 0-22 2.2-30.7 6.5 -8.8 4.3-16.1 10.2-21.9 17.5 -2.6 3.3-5 6.8-7 10.6l-17.1-23L120.1 168.9zM253.6 312.9h-12.4l-5.2-18.4c-5.8 7.7-13 13.3-21.5 16.6 -8.6 3.4-17.2 5.1-25.9 5.1 -11 0-20.9-2-29.6-6.1 -8.7-4.1-16.1-9.5-22.1-16.4 -6.1-6.9-10.7-14.8-13.9-23.8 -3.2-9-4.8-18.3-4.8-27.9 0-10.8 1.5-21 4.4-30.7 3-9.7 7.4-18.2 13.2-25.5 5.9-7.3 13.2-13.1 21.9-17.5 8.8-4.3 19-6.5 30.7-6.5 8 0 15.5 0.9 22.6 2.8 7.1 1.9 13.4 4.8 19 8.8 5.6 4 10.3 9.1 14.1 15.2 3.8 6.1 6.4 13.5 7.8 22.2h-19.6c-1-5.7-2.8-10.5-5.4-14.6 -2.6-4.1-5.9-7.4-9.7-10 -3.9-2.6-8.2-4.6-13.1-5.9 -4.9-1.3-10.1-2-15.6-2 -9 0-16.6 1.8-23.1 5.4 -6.4 3.6-11.7 8.3-15.7 14.2 -4.1 5.9-7.1 12.5-9 20.1 -1.9 7.5-2.9 15.2-2.9 23.1 0 7.7 1.1 15.1 3.3 22.2 2.2 7.1 5.4 13.4 9.7 18.8 4.3 5.4 9.5 9.8 15.8 13 6.3 3.2 13.5 4.9 21.8 4.9 7.7 0 14.5-1.2 20.5-3.7 5.9-2.5 10.9-5.9 15-10.2 4.1-4.3 7.1-9.4 9.2-15.3 2.1-5.9 3-12.2 2.7-18.9h-47.2v-16.5h64.7V312.9z"/></svg>
