<svg xmlns="http://www.w3.org/2000/svg" viewBox="-38 -193.7 535 537"><path d="M184.5 120.4c1 0 2 0 3 0v4.3h-3V120.4zM204.5 124.7h3v-4.3c-1 0-2 0-3 0V124.7zM184.5 106h3V73.6l-3 0V106zM184.5 114.4c1 0 2 0 3 0v-4.2h-3V114.4zM121.9 120.5c1.6 2.5 5.3 4.3 9.6 4.3H167.5v-4.3C148 120.5 133.2 120.5 121.9 120.5zM76.3 84c-4.3 7.3-1.9 14.4-0.1 19 1.8 4.6 5.4 10.4 14.7 11.1 1.8 0.1 2.7 0.3 21.1 0.3C113.3 109.6 117.7 106 123 106h44.5V73.8l-76.3 0.9C84.7 74.7 80.6 76.8 76.3 84zM122 114.5c10.7 0 25.4 0 45.5 0v-4.2h-36C127.3 110.3 123.7 112 122 114.5zM312.5 110.3H224.5v4.1c26.6-0.1 58.7-0.1 97.3-0.2C320 111.9 316.5 110.3 312.5 110.3zM348.2 72.6c-6.9-0.2-15.1-0.4-23.1-0.5L224.5 73.2V106H321c5.2 0 9.6 3.4 11 8.1 3.8 0 7.7 0 11.6 0 6.6-0.8 10.4-6.7 10.4-12.1V82.5C354 78.3 352.1 74.2 348.2 72.6zM204.5 114.4c1 0 2 0 3 0v-4.1h-3V114.4zM493.5 75.8c0 145.8-118.2 264-264 264 -145.8 0-264-118.2-264-264 0-145.8 118.2-264 264-264C375.3-188.2 493.5-70 493.5 75.8zM454.9 59.9c-0.5-28.6-3.7-51.7-7-51.6 -1.5 0-2.8 4.7-3.7 12.5 -16.1 29.1-78.6 28.6-78.6 28.6C363 50.4 293.3 53.5 293.3 53.5c-7.1 0.8-33.9 1.8-67.8 2.6 0-0.1 0-0.2 0-0.3v-0.6c0-1.5-1.2-2.2-2.6-2.2h-1.7c0.2-0.3 0.3-0.6 0.3-1v-0.1c0-1.1-0.9-2-2-2H218.5V39h3c1.1 0 2-0.9 2-2s-0.9-2-2-2h-11c-1.1 0-2 0.9-2 2s0.9 2 2 2h3v11h0c-1.1 0-2 0.9-2 2v0.1c0 0.4 0.1 0.7 0.3 1h-2.7c-1.4 0-2.6 0.7-2.6 2.2v0.6c0 0.3 0 0.5 0.1 0.8 -0.4 0-0.8 0-1.2 0 0.1-0.3 0.1-0.5 0.1-0.8v-0.6c0-1.5-1.2-2.2-2.6-2.2h-1.7c0.2-0.3 0.3-0.6 0.3-1v-0.1c0-1.1-0.9-2-2-2H198.5V39h3c1.1 0 2-0.9 2-2s-0.9-2-2-2h-11c-1.1 0-2 0.9-2 2s0.9 2 2 2h3v11h0c-1.1 0-2 0.9-2 2v0.1c0 0.4 0.1 0.7 0.3 1h-2.7c-1.4 0-2.6 0.7-2.6 2.2v0.6c0 0.4 0.1 0.8 0.2 1.2 -0.5 0-1 0-1.5 0 0.2-0.4 0.3-0.8 0.3-1.3v-0.6c0-1.5-1.2-2.2-2.6-2.2h-1.7c0.2-0.3 0.3-0.6 0.3-1v-0.1c0-1.1-0.9-2-2-2H178.5V39h3c1.1 0 2-0.9 2-2s-0.9-2-2-2h-11c-1.1 0-2 0.9-2 2s0.9 2 2 2h3v11h0c-1.1 0-2 0.9-2 2v0.1c0 0.4 0.1 0.7 0.3 1h-2.7c-1.4 0-2.6 0.7-2.6 2.2v0.6c0 0.6 0.2 1.1 0.4 1.7C105.1 58.7 43 59.7 37.5 59.8 37.4 59.3 37 59 36.6 59h-0.2c-0.5 0-0.9 0.4-0.9 0.9V60h-3.6c-0.5-0.6-1.1-1-1.9-1h-0.1c-0.8 0-1.4 0.4-1.9 1H26c-0.7 0-1.3 0.1-1.8 0.4C22.8 58.3 20.4 57 17.7 57H14.4c-0.5-2.3-2.5-4-4.9-4 -2.8 0-5 2.2-5 5v6.8 0.5V71c0 2.8 2.2 5 5 5 2 0 3.8-1.2 4.6-3h3.7c3 0 5.6-1.7 6.9-4.2C25.1 68.9 25.5 69 26 69h2c0.4 0.6 1.2 1 2 1h0.1c0.8 0 1.5-0.4 2-1H35.5v0.1c0 0.5 0.4 0.9 0.9 0.9h0.2c0.4 0 0.8-0.3 0.9-0.7 3.8 0 22.9 0 49.2 0.1L84.2 69.5c-6.9 0-11.2 2.6-15.8 12 -4.6 9.3-2 18.5-0.1 24.3 1.9 5.8 5.7 13.4 15.5 14.2 2 0.2 3 0.4 28.1 0.4C113.2 125.4 117.7 129 123 129h44.5v17.3c0 1.7 0.4 3.3 1.1 4.7 -0.7 0.6-1.1 1.5-1.1 2.5 0 1.9 1.6 3.5 3.5 3.5h11c1.9 0 3.5-1.6 3.5-3.5 0-1.3-0.7-2.4-1.8-3 0.5-1.3 0.8-2.7 0.8-4.2V129h3v17.3c0 1.7 0.4 3.3 1.1 4.7 -0.7 0.6-1.1 1.5-1.1 2.5 0 1.9 1.6 3.5 3.5 3.5h11c1.9 0 3.5-1.6 3.5-3.5 0-1.3-0.7-2.4-1.8-3 0.5-1.3 0.8-2.7 0.8-4.2V129h3v17.3c0 1.7 0.4 3.3 1.1 4.7 -0.7 0.6-1.1 1.5-1.1 2.5 0 1.9 1.6 3.5 3.5 3.5h11c1.9 0 3.5-1.6 3.5-3.5 0-1.3-0.7-2.4-1.8-3 0.5-1.3 0.8-2.7 0.8-4.2V129H321c5.5 0 10-3.8 11.2-8.9 6.1 0 12.4 0 18.8-0.1 6.9-1 11-8.6 11-15.5V79.5c0-2.2-0.3-4.5-1.1-6.4 2.2 0.1 3.6 0.2 3.9 0.4 0 0 66.1-3.4 81.2 27.8 1.1 6.6 2.5 10.5 3.9 10.5C453.2 111.7 455.5 88.5 454.9 59.9zM204.5 106h3V73.4l-3 0V106zM224.5 124.7h88c4.5 0 8.3-1.9 9.8-4.6 -38.6 0.1-70.8 0.2-97.8 0.3V124.7z"/></svg>
