<svg xmlns="http://www.w3.org/2000/svg" viewBox="-24.3 -216.3 529 528"><path d="M361.9 58.7c0 0 0 0 0 0 -1.5 0.8-2.9 1.7-4.1 2.9l1.7-2.9H361.9zM364.4 55.9c0 0.8-0.4 1.5-0.9 2.1 1.9-0.7 4-1.1 6.2-1.1 0.2 0 0.4 0 0.5 0 1.2-1.3 4.4-4.9 6.1-7.5 -4.1-2-8-3.7-9.4-1.9l-3.2 3.4 -1.4 2.4C363.5 53.4 364.4 54.7 364.4 55.9zM116.7 48.5c-1.4-1.8-5.3-0.2-9.4 1.9 1.3 2.1 3.7 4.8 5.2 6.5 0.1 0 0.1 0 0.2 0 2.4 0 4.8 0.5 6.9 1.4 -0.2-0.4-0.4-0.9-0.4-1.3 0-1.2 0.9-2.5 2-2.7l-1.4-2.4L116.7 48.5zM122.1 59.7c1.7 1.1 3.1 2.5 4.3 4l-2.4-4H122.1zM376.7 75.5c0 3.9-3.1 7-7 7s-7-3.1-7-7 3.1-7 7-7S376.7 71.6 376.7 75.5zM373 75.8c0-1.8-1.5-3.3-3.3-3.3 -1.8 0-3.3 1.5-3.3 3.3s1.5 3.3 3.3 3.3S373 77.7 373 75.8zM119.7 75.5c0 3.9-3.1 7-7 7s-7-3.1-7-7 3.1-7 7-7S119.7 71.6 119.7 75.5zM116 75.8c0-1.8-1.5-3.3-3.3-3.3 -1.8 0-3.3 1.5-3.3 3.3s1.5 3.3 3.3 3.3S116 77.7 116 75.8zM500.7 47.2c0 143.3-116.2 259.5-259.5 259.5 -143.3 0-259.5-116.2-259.5-259.5s116.2-259.5 259.5-259.5C384.5-212.3 500.7-96.1 500.7 47.2zM126.2 40.7h-19.6c-15.2-1-15.2-0.5-12.2 5.3l3.6 8.5c0.9-0.1 2.2-0.6 3.6-1.2 0.5 1.5 1.4 3.6 2.7 5.7 -5.3 3-9 8.6-9 15.2 0 9.6 7.8 17.3 17.3 17.3 9.6 0 17.3-7.8 17.3-17.3 0-2.5-0.6-4.9-1.5-7.1l0 0c3.4 1 6.9 0 3.6-5.7l0.9-2.6c0.7-0.4 1.2-1.2 1.2-2.1 0-0.3-0.1-0.5-0.1-0.8l3.5-9.5C138.4 39.8 132.8 40.7 126.2 40.7zM377 39.7h-19.6c-6.6 0-12.2-0.8-11.3 5.8l3.5 9.5c-0.1 0.2-0.1 0.5-0.1 0.8 0 0.9 0.5 1.7 1.2 2.1l0.9 2.6c-3.1 5.2-0.4 6.4 2.7 5.9 -1.2 2.4-1.9 5-1.9 7.8 0 9.6 7.8 17.3 17.3 17.3S387 83.7 387 74.2c0-6.4-3.4-11.9-8.5-14.9 1.9-2.6 3-5.2 3.6-7 1.4 0.6 2.6 1.1 3.6 1.2l3.6-8.5C392.3 39.2 392.3 38.7 377 39.7zM476.3 8c-6.3-3-49.7 13-49.7 13 -17.3 7.7-32.6 7-32.6 7 -3 0.7-40.9-3.1-40.9-3.1 -12.8-0.5-70.7-0.2-102-0.4 0 0-109.6 0.5-121.9-0.5 0 0-8.8 0.2-38.7 4 0 0-19.2 0-34.9-7 0 0-43.3-16-49.7-13 0 0-8 8.3 26.7 19.3 0 0 30.7 11.2 41 11.9 0 0 18.9 0.5 53.6-4.5h227.8c34.7 5 53.6 4.5 53.6 4.5C419 38.5 449.7 27.4 449.7 27.4 484.3 16.4 476.3 8 476.3 8z"/></svg>
