<?xml version="1.0" encoding="utf-8"?>
<!-- Generator: Adobe Illustrator 16.0.0, SVG Export Plug-In . SVG Version: 6.00 Build 0)  -->
<!DOCTYPE svg PUBLIC "-//W3C//DTD SVG 1.1//EN" "http://www.w3.org/Graphics/SVG/1.1/DTD/svg11.dtd">
<svg version="1.1" id="main" xmlns="http://www.w3.org/2000/svg" xmlns:xlink="http://www.w3.org/1999/xlink" x="0px" y="0px"
	 width="511.333px" height="526.666px" viewBox="0 0 511.333 526.666" enable-background="new 0 0 511.333 526.666"
	 xml:space="preserve">
<path id="body_1_" d="M503.172,360.669c0,0-50.999-20.334-52.166-21.667c0,0-1.667,6.666-20.167-2.667c0,0-1.5,5.333-6-2
	c0,0-37.333-12.332-38.333-13.166c0,0-1.167,5.332-5.834-1.334c0,0-20.666-6.165-23.5-8.998c0,0-1.469-6.048,0.406-10.058
	l-2.908,4.886c0,0-6.666,1.834-15.5-3.5c0,0,0.833,5.167-1.167,6c0,0-4.167,1.166-7.333,0.166c0,0-0.834,4.166-5,0
	c0,0-33.395-0.604-43.89-6.015l-0.527,91.013c0,0-1.695,30.901-6.695,53.756c13.711,17.556,71.637,54.119,76.115,60.411
	c0,0,1.001,10.923-1.583,14.465c0,0-38.734-5.532-87.606-17.753c-1.839,6.152-3.71,11.391-5.487,14.709l-2.837,0.002
	c-1.777-3.317-3.65-8.554-5.491-14.705c-48.86,12.217-87.582,17.747-87.582,17.747c-2.583-3.542-1.583-14.465-1.583-14.465
	c4.475-6.287,62.313-42.799,76.082-60.37c-5.009-22.858-6.746-53.797-6.746-53.797l-0.556-89.972
	c-12.445,4.449-41.444,4.974-41.444,4.974c-4.167,4.166-5,0-5,0c-3.167,1-7.333-0.166-7.333-0.166c-2-0.833-1.167-6-1.167-6
	c-8.833,5.334-15.5,3.5-15.5,3.5l-2.91-4.887c1.877,4.01,0.408,10.059,0.408,10.059c-2.833,2.833-23.501,8.998-23.501,8.998
	c-4.667,6.666-5.834,1.334-5.834,1.334c-1,0.834-38.335,13.166-38.335,13.166c-4.5,7.333-6.004,2-6.004,2
	c-18.5,9.333-20.175,2.667-20.175,2.667c-1.167,1.333-52.182,21.667-52.182,21.667c-5.667,0-4.364-26.337-4.364-26.337
	l200.772-136.5c8.836-6.087,15.858-11.981,21.561-17.275l-0.27-3.227V84.001c2-32.333,8.062-50.836,8.062-50.836
	C244.442,3.04,254.463,2.75,254.463,2.75s9.625,0.291,20,30.416c0,0,5.541,18.502,7.541,50.836v93.331l0.245,0.874
	c6.063,5.871,14.254,12.623,24.421,19.627l200.835,136.5C507.505,334.333,508.839,360.669,503.172,360.669z M162.004,508.332v5.165
	l80.333-31.749l-2.542-15.584C217.629,476.664,162.004,508.332,162.004,508.332z M268.754,466.164l-2.626,15.584l79.876,31.749
	v-5.165C346.004,508.332,290.92,476.664,268.754,466.164z M261.504,40.332h-6.5h-6.5c-6.361,0-6.344,1.469-6.5,6.5
	c0.188,5.469,0.438,6.5,6.5,6.5h6.5h6.5c6.062,0,6.312-1.031,6.5-6.5C267.848,41.8,267.866,40.332,261.504,40.332z M131.004,289.665
	c0-1.288-1.044-2.333-2.333-2.333h-0.334c-1.289,0-2.333,1.045-2.333,2.333v14.334c0,1.288,1.044,2.333,2.333,2.333h0.334
	c1.289,0,2.333-1.045,2.333-2.333V289.665z M385.004,289.665c0-1.288-1.045-2.333-2.333-2.333h-0.334
	c-1.288,0-2.333,1.045-2.333,2.333v14.334c0,1.288,1.045,2.333,2.333,2.333h0.334c1.288,0,2.333-1.045,2.333-2.333V289.665z
	 M87.004,311.666c0-1.289-1.045-2.334-2.333-2.334h-0.333c-1.289,0-2.333,1.045-2.333,2.334v10.332c0,1.289,1.045,2.334,2.333,2.334
	h0.333c1.289,0,2.333-1.045,2.333-2.334V311.666z M429.004,311.666c0-1.289-1.045-2.334-2.334-2.334h-0.332
	c-1.289,0-2.334,1.045-2.334,2.334v10.332c0,1.289,1.045,2.334,2.334,2.334h0.332c1.289,0,2.334-1.045,2.334-2.334V311.666z
	 M153.511,212.526l2.505,15.415l19.94-13.557c0.061-0.441,0.115-0.864,0.155-1.247c2.961-1.7,3.893-4.855,3.893-10.305v-19
	c0-10.984-0.944-14.184-14.986-13.611c-14.027-0.573-15.014,2.627-15.014,13.611v19
	C150.004,207.685,151.203,210.718,153.511,212.526z M334.231,213.565l20.585,13.99l2.115-14.315
	c3.096-1.674,4.073-4.848,4.073-10.409v-19c0-10.984-0.944-14.184-14.986-13.611c-14.027-0.573-15.014,2.627-15.014,13.611v19
	c0,4.601,1.114,7.555,3.169,9.392C334.165,212.589,334.185,213.043,334.231,213.565z"/>
</svg>
