<?xml version="1.0" encoding="utf-8"?>
<!-- Generator: Adobe Illustrator 16.0.0, SVG Export Plug-In . SVG Version: 6.00 Build 0)  -->
<!DOCTYPE svg PUBLIC "-//W3C//DTD SVG 1.1//EN" "http://www.w3.org/Graphics/SVG/1.1/DTD/svg11.dtd">
<svg version="1.1" id="brief-case" xmlns="http://www.w3.org/2000/svg" xmlns:xlink="http://www.w3.org/1999/xlink" x="0px" y="0px"
	 width="423.25px" height="396.25px" viewBox="0 0 423.25 396.25" enable-background="new 0 0 423.25 396.25" xml:space="preserve">
<path id="case" d="M410.032,60.25H14.972c-6.748,0-13.222,5.517-13.222,12.938v300.123c0,7.421,6.474,13.938,13.222,13.938h395.061
	c6.747,0,11.718-6.518,11.718-13.938V73.188C421.75,65.767,416.779,60.25,410.032,60.25z M149.75,189.324l-77.894,29.325
	l77.894,29.05v16.771l-97-38.307v-15.212l97-38.306V189.324z M184.593,295.25H167.09l72.121-155h17.411L184.593,295.25z
	 M375.75,226.163l-97,38.307v-16.771l77.895-29.05l-77.895-29.325v-16.679l97,38.306V226.163z M91.083,57.25
	c-0.966,0-1.795,0.289-2.529,0.442c1.526-2.825,3.881-4.442,6.529-4.442h8.333c2.648,0,5.002,1.617,6.529,4.442
	c-0.733-0.153-1.562-0.442-2.529-0.442H91.083z M62.75,57.933v-0.366c0-0.728,0.589-1.317,1.317-1.317h9.366
	c0.728,0,1.317,0.589,1.317,1.317v0.366c0,0.728-0.589,1.317-1.317,1.317h-9.366C63.339,59.25,62.75,58.661,62.75,57.933z
	 M316.084,57.25c-0.967,0-1.796,0.289-2.529,0.442c1.526-2.825,3.881-4.442,6.529-4.442h8.332c2.648,0,5.003,1.617,6.529,4.442
	c-0.733-0.153-1.562-0.442-2.529-0.442H316.084z M348.75,57.933v-0.366c0-0.728,0.59-1.317,1.316-1.317h9.367
	c0.727,0,1.316,0.589,1.316,1.317v0.366c0,0.728-0.59,1.317-1.316,1.317h-9.367C349.34,59.25,348.75,58.661,348.75,57.933z
	 M32.75,388.25h21v2h-21V388.25z M17.77,389.25h11.29c-0.257,2.244-2.684,5-5.645,5S18.026,391.494,17.77,389.25z M369.75,388.25h21
	v2h-21V388.25z M394.44,389.25h11.29c-0.256,2.244-2.684,5-5.645,5S394.697,391.494,394.44,389.25z M151.75,57.25h-3v-9h4.172
	l-0.016-20.222c0.544-14.711,12.951-24.778,24.846-25.778h37.997h37.997c11.896,1,24.302,11.067,24.847,25.778l-0.016,20.222h4.172
	v9h-3v-6h-1.174l-0.002,2H259.18c0.067-0.627,0.57-1.273,0.57-1.958V51.25h-2v6h-3v-9h4.587l0.013-12
	c-0.39-8.041-9.255-13.833-17.756-14l-25.844,0.375l-25.844-0.375c-8.501,0.167-17.366,5.959-17.756,14l0.013,12h4.587v9h-3v-6h-2
	v0.042c0,0.685,0.503,1.331,0.57,1.958h-19.394l-0.001-2h-1.175V57.25z"/>
</svg>
