<?xml version="1.0" encoding="utf-8"?>
<!-- Generator: Adobe Illustrator 16.0.0, SVG Export Plug-In . SVG Version: 6.00 Build 0)  -->
<!DOCTYPE svg PUBLIC "-//W3C//DTD SVG 1.1//EN" "http://www.w3.org/Graphics/SVG/1.1/DTD/svg11.dtd">
<svg version="1.1" id="controller" xmlns="http://www.w3.org/2000/svg" xmlns:xlink="http://www.w3.org/1999/xlink" x="0px" y="0px"
	 width="541px" height="546px" viewBox="0 0 541 546" enable-background="new 0 0 541 546" xml:space="preserve">
<path id="main" d="M524.5,195.5c-2.5-15.25,13.508-55.508-38.484-107.5c-1.891-21.75-69.859-31.007-105.141-37.938
	c-3.5-0.688-3.029-17.498-5.121-19.062C345,8,270,6,270,6s-75,2-105.753,25c-2.092,1.564-1.622,18.375-5.122,19.062
	C123.843,56.993,55.875,66.25,53.984,88C1.992,139.992,18,180.25,15.5,195.5c-22.5,59.75,0,230,41.938,228
	c38.188-4.625,29.896-35.166,58.438-139c13.875-2.167,29.625-7.75,68.875,19c13.75,28.5,31.75,247,84.75,237.167
	c0.169-0.031,0.333-0.091,0.5-0.133c0.167,0.042,0.331,0.102,0.5,0.133c53,9.833,71-208.667,84.75-237.167
	c39.25-26.75,55-21.167,68.875-19c28.541,103.834,20.25,134.375,58.438,139C524.5,425.5,547,255.25,524.5,195.5z M133.533,196H117
	v17.174c0,10.786-2.079,12.826-12.934,12.826h-7.695C82.63,226,82,223.189,82,213.174V196H67.395C57.182,196,55,192.421,55,181.566
	v-7.695C55,160.13,57.912,161,67.395,161H82v-17.674C82,131.771,87.302,132,96.371,132h7.695c12.092,0,12.934,0.027,12.934,11.326
	V161h16.533c10.942,0,10.467,3.802,10.467,12.871v7.695C144,193.658,144.231,196,133.533,196z M455.5,104.5
	c9.251,0,16.75,7.499,16.75,16.75S464.751,138,455.5,138s-16.75-7.499-16.75-16.75S446.249,104.5,455.5,104.5z M269,170.064
	c11.977,0,21.686,9.709,21.686,21.686s-9.709,21.686-21.686,21.686s-21.686-9.709-21.686-21.686S257.023,170.064,269,170.064z
	 M268.5,367.75c-32.999,0-59.75-26.751-59.75-59.75s26.751-59.75,59.75-59.75s59.75,26.751,59.75,59.75S301.499,367.75,268.5,367.75
	z M375.25,210c-12.564,0-22.75-10.186-22.75-22.75s10.186-22.75,22.75-22.75S398,174.686,398,187.25S387.814,210,375.25,210z
	 M414.25,252c-12.564,0-22.75-10.186-22.75-22.75s10.186-22.75,22.75-22.75S437,216.686,437,229.25S426.814,252,414.25,252z
	 M423.5,170c-9.251,0-16.75-7.499-16.75-16.75s7.499-16.75,16.75-16.75s16.75,7.499,16.75,16.75S432.751,170,423.5,170z M457.5,203
	c-9.251,0-16.75-7.499-16.75-16.75s7.499-16.75,16.75-16.75s16.75,7.499,16.75,16.75S466.751,203,457.5,203z M489.5,172
	c-9.251,0-16.75-7.499-16.75-16.75s7.499-16.75,16.75-16.75s16.75,7.499,16.75,16.75S498.751,172,489.5,172z M270.146,337.604
	c-15.772,0-28.604-12.832-28.604-28.604s12.832-28.604,28.604-28.604c15.772,0,28.604,12.832,28.604,28.604
	S285.918,337.604,270.146,337.604z M270.146,281.396c-15.221,0-27.604,12.384-27.604,27.604s12.383,27.604,27.604,27.604
	S297.75,324.221,297.75,309S285.367,281.396,270.146,281.396z M270.146,330.479c-11.844,0-21.479-9.636-21.479-21.479
	s9.636-21.479,21.479-21.479c11.843,0,21.479,9.636,21.479,21.479S281.989,330.479,270.146,330.479z M270.146,288.521
	c-11.292,0-20.479,9.188-20.479,20.479s9.187,20.479,20.479,20.479s20.479-9.188,20.479-20.479S281.438,288.521,270.146,288.521z
	 M270.146,323.479c-7.984,0-14.479-6.495-14.479-14.479s6.496-14.479,14.479-14.479s14.479,6.495,14.479,14.479
	S278.13,323.479,270.146,323.479z M270.146,295.521c-7.433,0-13.479,6.047-13.479,13.479s6.047,13.479,13.479,13.479
	c7.432,0,13.479-6.047,13.479-13.479S277.578,295.521,270.146,295.521z M270.146,317.229c-4.538,0-8.229-3.691-8.229-8.229
	s3.692-8.229,8.229-8.229s8.229,3.691,8.229,8.229S274.684,317.229,270.146,317.229z M270.146,301.771
	c-3.986,0-7.229,3.243-7.229,7.229s3.243,7.229,7.229,7.229c3.986,0,7.229-3.243,7.229-7.229S274.132,301.771,270.146,301.771z
	 M270.146,312.604c-1.987,0-3.604-1.617-3.604-3.604s1.617-3.604,3.604-3.604s3.604,1.617,3.604,3.604
	S272.133,312.604,270.146,312.604z M270.146,306.396c-1.436,0-2.604,1.168-2.604,2.604s1.168,2.604,2.604,2.604
	s2.604-1.168,2.604-2.604S271.582,306.396,270.146,306.396z"/>
</svg>
