<?xml version="1.0" encoding="utf-8"?>
<!-- Generator: Adobe Illustrator 16.0.0, SVG Export Plug-In . SVG Version: 6.00 Build 0)  -->
<!DOCTYPE svg PUBLIC "-//W3C//DTD SVG 1.1//EN" "http://www.w3.org/Graphics/SVG/1.1/DTD/svg11.dtd">
<svg version="1.1" id="design_x5F_1" xmlns="http://www.w3.org/2000/svg" xmlns:xlink="http://www.w3.org/1999/xlink" x="0px"
	 y="0px" width="462px" height="246px" viewBox="0 0 462 246" enable-background="new 0 0 462 246" xml:space="preserve">
<path id="main_1_" d="M444.432,7H18.37C11.533,7,6,11.906,6,18.688v207.756C6,233.228,11.533,240,18.37,240h426.062
	c6.836,0,12.568-6.772,12.568-13.556V18.688C457,11.906,451.268,7,444.432,7z M442,226H19V22h423V226z M19,22v204h423V22H19z
	 M66.721,187.359C61.398,178.582,51,174.816,42,177.007V68.125c9,2.19,19.398-1.141,24.721-9.918C71.434,50.434,71.583,41,67.23,35
	h326.469c-4.354,6-5.323,15.434-0.611,23.207C398.275,66.76,408,70.099,416,68.273v108.585c-8-1.823-17.725,1.945-22.912,10.501
	c-4.712,7.773-3.742,18.641,0.611,23.641H67.23C71.583,206,71.434,195.133,66.721,187.359z M73.881,120.863
	c0-13.941,11.302-25.245,25.245-25.245c13.941,0,25.243,11.303,25.243,25.245c0,13.942-11.302,25.244-25.243,25.244
	C85.183,146.107,73.881,134.806,73.881,120.863z M361.807,146.107c-13.943,0-25.246-11.302-25.246-25.244
	c0-13.941,11.303-25.245,25.246-25.245c13.94,0,25.243,11.303,25.243,25.245C387.05,134.806,375.747,146.107,361.807,146.107z
	 M176.565,123.082c0-39.473,24.131-71.471,53.9-71.471c29.768,0,53.899,31.998,53.899,71.471c0,39.471-24.131,71.469-53.899,71.469
	C200.696,194.551,176.565,162.553,176.565,123.082z M234,185v-16.366c15-2.433,23.239-13.028,23.239-24.338
	c0-12.738-7.137-20.182-21.879-26.195c-12.456-5.154-17.598-8.875-17.598-16.32c0-5.726,4.23-12.311,15.253-12.311
	c9.161,0,15.067,3.15,18.075,4.868l3.55-9.448c-4.152-2.434-10.64-4.725-18.64-5.011V66h-9v14.451
	c-13,2.147-21.505,11.166-21.505,23.047c0,12.455,9.073,19.041,23.676,24.767c10.593,4.294,16.203,9.162,16.203,17.036
	c0,8.16-6.856,14.028-17.02,14.028c-8.017,0-15.454-2.721-20.607-6.156l-3.043,9.593c5.012,3.577,14.296,6.154,22.296,6.297V185H234
	z"/>
</svg>
