<?xml version="1.0" encoding="utf-8"?>
<!-- Generator: Adobe Illustrator 16.0.0, SVG Export Plug-In . SVG Version: 6.00 Build 0)  -->
<!DOCTYPE svg PUBLIC "-//W3C//DTD SVG 1.1//EN" "http://www.w3.org/Graphics/SVG/1.1/DTD/svg11.dtd">
<svg version="1.1" id="Gcap" xmlns="http://www.w3.org/2000/svg" xmlns:xlink="http://www.w3.org/1999/xlink" x="0px" y="0px"
	 width="344px" height="426.25px" viewBox="0 0 344 426.25" enable-background="new 0 0 344 426.25" xml:space="preserve">
<path id="main" d="M260.385,414.42c-17.539,6.928-35.211,10.395-53.029,10.395c-22.63,0-42.847-4.177-60.665-12.516
	c-17.818-8.338-32.951-19.58-45.393-33.726c-12.449-14.14-21.921-30.399-28.424-48.787c-6.509-18.381-9.757-37.472-9.757-57.271
	c0-22.061,3.036-43.06,9.121-62.999c6.079-19.938,15.126-37.398,27.151-52.392c12.018-14.987,27.005-26.939,44.968-35.848
	c17.957-8.909,38.957-13.363,62.999-13.363c16.399,0,31.884,1.909,46.453,5.727c14.563,3.818,27.575,9.83,39.029,18.03
	c11.454,8.206,21.065,18.6,28.848,31.181c7.775,12.587,13.078,27.787,15.909,45.604h-40.303
	c-1.981-11.593-5.66-21.562-11.029-29.908c-5.376-8.339-12.024-15.199-19.939-20.575c-7.921-5.369-16.903-9.399-26.938-12.09
	c-10.042-2.685-20.721-4.03-32.029-4.03c-18.388,0-34.15,3.679-47.302,11.03c-13.151,7.358-23.903,17.042-32.242,29.06
	c-8.345,12.024-14.497,25.739-18.454,41.15c-3.964,15.418-5.939,31.181-5.939,47.301c0,15.843,2.26,31.042,6.788,45.605
	c4.521,14.569,11.169,27.436,19.939,38.604c8.763,11.176,19.581,20.085,32.454,26.727c12.866,6.648,27.787,9.97,44.756,9.97
	c15.836,0,29.836-2.545,41.999-7.636c12.156-5.091,22.411-12.091,30.757-21c8.339-8.908,14.636-19.368,18.878-31.393
	c4.242-12.018,6.078-24.957,5.515-38.817h-96.725v-33.938h132.785v159.511H315.11l-10.606-37.757
	C292.626,396.112,277.917,407.493,260.385,414.42z M173.896,40.686L162.6,59.777l-32.465,54.868l-63.235,8.104l-22.088,2.831
	l35.175,47.257c4.202-7.735,8.999-14.975,14.402-21.713c12.018-14.987,27.005-26.939,44.968-35.848
	c17.957-8.909,38.957-13.363,62.999-13.363c3.801,0,7.547,0.114,11.25,0.319L173.896,40.686z M31.375,184.625
	c0-2.67-1.399-5.008-3.5-6.337v-50.894l-8,1.025v49.869c-2.101,1.329-3.5,3.667-3.5,6.337c0,2.686,1.417,5.036,3.539,6.361
	c-1.246,1.055-2.039,2.628-2.039,4.389v28.25c0,3,12,3,12,0v-28.25c0-1.761-0.793-3.334-2.039-4.389
	C29.958,189.662,31.375,187.312,31.375,184.625z M127.492,110.628l32.463-54.868l32.464-54.868l-63.235,8.104l-63.235,8.104
	L33.484,71.968L1.02,126.835l63.237-8.103L127.492,110.628z"/>
</svg>
