<?xml version="1.0" encoding="utf-8"?>
<!-- Generator: Adobe Illustrator 16.0.0, SVG Export Plug-In . SVG Version: 6.00 Build 0)  -->
<!DOCTYPE svg PUBLIC "-//W3C//DTD SVG 1.1//EN" "http://www.w3.org/Graphics/SVG/1.1/DTD/svg11.dtd">
<svg version="1.1" xmlns="http://www.w3.org/2000/svg" xmlns:xlink="http://www.w3.org/1999/xlink" x="0px" y="0px" width="460px"
	 height="161.5px" viewBox="0 0 460 161.5" enable-background="new 0 0 460 161.5" xml:space="preserve">
<g id="horn_x5F_shape">
	<path id="main_2_" fill="black" stroke="none" stroke-miterlimit="10" d="M454.909,59.872c-0.546-28.581-3.694-51.7-7.031-51.636
		c-1.496,0.029-2.775,4.723-3.683,12.457c-16.142,29.123-78.57,28.558-78.57,28.558C363,50.375,293.25,53.5,293.25,53.5
		c-22.45,2.685-245.155,6.092-255.782,6.254C37.39,59.329,37.034,59,36.586,59h-0.172c-0.505,0-0.914,0.409-0.914,0.914V60h-3.577
		c-0.451-0.606-1.121-1-1.881-1h-0.084c-0.76,0-1.43,0.394-1.881,1H26c-0.658,0-1.279,0.144-1.843,0.392
		C22.762,58.345,20.413,57,17.749,57h-3.349c-0.464-2.282-2.48-4-4.899-4c-2.761,0-5,2.239-5,5v6.751v0.497V71c0,2.761,2.239,5,5,5
		c2.049,0,3.806-1.236,4.578-3h3.671c3.009,0,5.612-1.718,6.896-4.224C25.075,68.909,25.524,69,26,69h1.985
		c0.447,0.624,1.162,1,1.973,1h0.084c0.812,0,1.526-0.376,1.973-1H35.5v0.086c0,0.505,0.409,0.914,0.914,0.914h0.172
		c0.417,0,0.754-0.284,0.864-0.665c13.856,0.026,232.537,0.466,254.9,2.167c0,0,69.82,0.935,72.492,1.946
		c0,0,66.106-3.447,81.15,27.771c1.143,6.621,2.486,10.547,3.863,10.521C453.193,111.675,455.455,88.454,454.909,59.872z"/>
</g>
<g id="tube-a">
	<path id="main" fill="none" stroke="black" stroke-width="10" stroke-miterlimit="10" d="M362,105.519
		c0,6.907-4.038,14.481-10.964,15.481c-263.306,0.851-262.685,0.384-267.202,0c-9.792-0.833-13.584-8.359-15.522-14.19
		s-4.469-15.028,0.094-24.346S77.283,70.5,84.209,70.5l267.577-3.669c6.926,0,10.214,6.768,10.214,13.675V105.519z"/>
</g>
<g id="tube-b">
	<path id="main_1_" fill="none" stroke="black" stroke-width="7" stroke-miterlimit="10" d="M332.5,118.5
		c0,6.352-5.148,11.5-11.5,11.5H123c-6.351,0-11.5-5.148-11.5-11.5l0,0c0-6.351,5.149-11.5,11.5-11.5h198
		C327.352,107,332.5,112.149,332.5,118.5L332.5,118.5z"/>
</g>
<g id="valves">
	<path id="value_x5F_3" fill="black" stroke="none" stroke-miterlimit="10" d="M225.5,55.8v-0.6c0-1.491-1.181-2.2-2.561-2.2
		h-1.704c0.164-0.287,0.265-0.615,0.265-0.969v-0.062c0-1.087-0.881-1.969-1.969-1.969H218.5V39h3c1.104,0,2-0.896,2-2s-0.896-2-2-2
		h-11c-1.104,0-2,0.896-2,2s0.896,2,2,2h3v11h-0.031c-1.087,0-1.969,0.881-1.969,1.969v0.062c0,0.354,0.101,0.682,0.265,0.969
		h-2.704c-1.379,0-2.561,0.709-2.561,2.2v0.6c0,1.075,0.618,2.254,1.478,2.834c-0.304,0.979-0.478,2.025-0.478,3.116v84.5
		c0,1.706,0.411,3.309,1.112,4.704c-0.681,0.639-1.112,1.539-1.112,2.546c0,1.933,1.567,3.5,3.5,3.5h11c1.933,0,3.5-1.567,3.5-3.5
		c0-1.312-0.73-2.441-1.798-3.041c0.506-1.275,0.798-2.699,0.798-4.209v-84.5c0-1.103-0.158-2.159-0.438-3.147
		C224.9,58.014,225.5,56.857,225.5,55.8z"/>
	<path id="value_x5F_2" fill="black" stroke="none" stroke-miterlimit="10" d="M205.5,55.8v-0.6c0-1.491-1.181-2.2-2.561-2.2
		h-1.704c0.164-0.287,0.265-0.615,0.265-0.969v-0.062c0-1.087-0.881-1.969-1.969-1.969H198.5V39h3c1.104,0,2-0.896,2-2s-0.896-2-2-2
		h-11c-1.104,0-2,0.896-2,2s0.896,2,2,2h3v11h-0.031c-1.087,0-1.969,0.881-1.969,1.969v0.062c0,0.354,0.101,0.682,0.265,0.969
		h-2.704c-1.379,0-2.561,0.709-2.561,2.2v0.6c0,1.075,0.618,2.254,1.478,2.834c-0.304,0.979-0.478,2.025-0.478,3.116v84.5
		c0,1.706,0.411,3.309,1.112,4.704c-0.681,0.639-1.112,1.539-1.112,2.546c0,1.933,1.567,3.5,3.5,3.5h11c1.933,0,3.5-1.567,3.5-3.5
		c0-1.312-0.73-2.441-1.798-3.041c0.506-1.275,0.798-2.699,0.798-4.209v-84.5c0-1.103-0.158-2.159-0.438-3.147
		C204.9,58.014,205.5,56.857,205.5,55.8z"/>
	<path id="value_x5F_1_2_" fill="black" stroke="none" stroke-miterlimit="10" d="M185.5,55.8v-0.6c0-1.491-1.181-2.2-2.561-2.2
		h-1.704c0.164-0.287,0.265-0.615,0.265-0.969v-0.062c0-1.087-0.881-1.969-1.969-1.969H178.5V39h3c1.104,0,2-0.896,2-2s-0.896-2-2-2
		h-11c-1.104,0-2,0.896-2,2s0.896,2,2,2h3v11h-0.031c-1.087,0-1.969,0.881-1.969,1.969v0.062c0,0.354,0.101,0.682,0.265,0.969
		h-2.704c-1.379,0-2.561,0.709-2.561,2.2v0.6c0,1.075,0.618,2.254,1.478,2.834c-0.304,0.979-0.478,2.025-0.478,3.116v84.5
		c0,1.706,0.411,3.309,1.112,4.704c-0.681,0.639-1.112,1.539-1.112,2.546c0,1.933,1.567,3.5,3.5,3.5h11c1.933,0,3.5-1.567,3.5-3.5
		c0-1.312-0.73-2.441-1.798-3.041c0.506-1.275,0.798-2.699,0.798-4.209v-84.5c0-1.103-0.158-2.159-0.438-3.147
		C184.9,58.014,185.5,56.857,185.5,55.8z"/>
</g>
</svg>
