<?xml version="1.0" encoding="utf-8"?>
<!-- Generator: Adobe Illustrator 16.0.0, SVG Export Plug-In . SVG Version: 6.00 Build 0)  -->
<!DOCTYPE svg PUBLIC "-//W3C//DTD SVG 1.1//EN" "http://www.w3.org/Graphics/SVG/1.1/DTD/svg11.dtd">
<svg version="1.1" id="head" xmlns="http://www.w3.org/2000/svg" xmlns:xlink="http://www.w3.org/1999/xlink" x="0px" y="0px"
	 width="483px" height="426px" viewBox="0 0 483 426" enable-background="new 0 0 483 426" xml:space="preserve">
<path id="main" d="M268.973,307.438l0.017,0.012C268.883,307.564,268.777,307.668,268.973,307.438z M268.99,307.448
	C268.989,307.449,268.989,307.449,268.99,307.448l1.63,1.139C270.115,308.17,269.57,307.79,268.99,307.448z M219.333,324.167
	c5.422,0,9.833-3.515,9.833-7.834s-4.411-7.834-9.833-7.834s-9.833,3.515-9.833,7.834S213.911,324.167,219.333,324.167z
	 M209.166,309.748l1.477-1.363C210.105,308.804,209.612,309.258,209.166,309.748z M239.569,363.407
	c0.019,0.048,0.038,0.095,0.052,0.145c0.033-0.051,0.076-0.093,0.141-0.105C239.683,363.385,239.625,363.399,239.569,363.407z
	 M240.479,348.65c-0.043-0.024-0.091-0.038-0.125-0.045c0.009,0.016,0.013,0.031,0.021,0.047
	C240.41,348.652,240.444,348.651,240.479,348.65z M427.5,283.5c-2.667,2.381,2,52.75-7.5,54.5c0,0-16.5,0.5-22-146.5
	c0,0-1.499,79.166-29.666,123.166c-21.115,50.002-9.735,55.79-45.834,88.834c-31.498,28.833-39.498,6.833-82,15
	c-42.502-8.167-50.502,13.833-82-15c-36.099-33.044-24.719-38.832-45.834-88.834C84.499,270.666,83,191.5,83,191.5
	C77.5,338.5,61,338,61,338c-9.5-1.75-4.833-52.119-7.5-54.5C36,267.875,3.461,197.687,4,180.5c1.333-42.5,29-73,29-73
	c8.125-6,24.75-7.5,24.75-7.5c47-62.25,65.25-62.5,65.25-62.5c7.483-2.482,22.25,0.25,22.25,0.25C198.75,11.25,240.5,8.5,240.5,8.5
	s41.75,2.75,95.25,29.25c0,0,14.767-2.732,22.25-0.25c0,0,18.25,0.25,65.25,62.5c0,0,16.625,1.5,24.75,7.5c0,0,27.668,30.5,29,73
	C477.539,197.687,445,267.875,427.5,283.5z M152,187.333c0,1.657,1.343,3,3,3s3-1.343,3-3s-1.343-3-3-3S152,185.677,152,187.333z
	 M175.5,197.167c-0.911-12.528-6.284-17.776-14.849-19.032c6.006,2.799,10.183,8.916,10.183,16.032
	c0,9.757-7.835,17.667-17.5,17.667s-17.5-7.91-17.5-17.667c0-4.271,1.501-8.187,4-11.242c-7.237,4.842-12.055,12.313-10.5,18.742
	c2.08,8.598,9.5,22.333,24,12.833C164.851,206.954,176.855,215.812,175.5,197.167z M192.909,391.976l-0.159,0.109
	c-0.051,0.085-0.016,0.285,0.1,0.23L192.909,391.976z M193.708,391.776c-0.068,0.341-0.132,0.22-0.214,0.627
	c-0.125,0.067-0.249-0.053-0.249-0.177c-0.038,0.102-0.192-0.05-0.235,0.166c0.187,0.249,0.432,0.202,0.607-0.057
	c0.065,0.061,0.038,0.155,0.04,0.217C193.782,392.36,193.88,392.049,193.708,391.776z M193.98,391.688
	c-0.047,0.014-0.108,0.022-0.118,0.109L193.98,391.688z M198.745,391.36l-0.446,0.089c0.113,0.072,0.263,0.171,0.082,0.27
	C199.026,391.814,198.184,391.537,198.745,391.36z M200.09,390.986c-0.204,0.137,0.062,0.146,0.074,0.206
	C200.268,391.043,200.292,391.006,200.09,390.986z M206.678,388.062c-0.03-0.104-0.138-0.026-0.248-0.004L206.678,388.062z
	 M209.254,386.981l0.084,0.243C209.491,387.114,209.298,387.134,209.254,386.981z M212.409,386.024l-0.183,0.146l-0.058,0.066
	L212.409,386.024z M227.349,378.903l-0.187-0.259C227.074,378.749,227.204,379.079,227.349,378.903z M234.128,375.355
	c-0.156,0.052-0.355,0.014-0.412,0.086C233.856,375.549,234.083,375.549,234.128,375.355z M268.266,386.265l-0.272-0.042
	l0.097,0.219L268.266,386.265z M282.701,392.681c-0.131,0.113-0.29-0.366-0.463-0.247c0.112,0.066,0.229,0.316,0.42,0.317
	L282.701,392.681z M284.506,393.261l-0.081,0.011l0.061,0.03C284.49,393.283,284.498,393.27,284.506,393.261z M284.753,393.225
	l-0.167,0.024C284.637,393.265,284.698,393.292,284.753,393.225z M285.925,393.045c-0.175-0.267-0.374-0.327-0.663-0.177
	c-0.035-0.083,0.034-0.156,0.059-0.213c-0.192,0.121-0.46,0.349-0.426,0.668c0.246-0.27,0.258-0.131,0.515-0.461
	c0.146-0.006,0.223,0.159,0.177,0.274C285.642,393.07,285.82,393.241,285.925,393.045z M286.117,393.16l-0.135,0.319l0.268-0.064
	C286.299,393.328,286.277,393.139,286.117,393.16z M286.861,312.334c0-20.034-21.187-36.334-47.229-36.334
	c-26.042,0-47.229,16.3-47.229,36.334c0,19.714,20.52,35.8,45.989,36.309c-0.04,0.748,0.049,1.516-0.336,2.061
	c0.419,0.146-0.22,0.875,0.366,0.955c-0.312,0.498-0.41,0.348-0.637,1.056c-0.035,0.189,0.355,0.301,0.407,0.54l-0.308-0.008
	l-0.06-0.065l-0.012,0.063l0.071,0.002l0.309,0.335l-0.376,0.154l0.069,0.226c0.022-0.088,0.147-0.182,0.235-0.164
	c0.123,0.353-0.253,0.835-0.412,0.835l0.22,0.832c-0.123-0.024-0.159-0.164-0.232-0.276c0.292,0.453-0.328,0.062-0.061,0.478
	c0.073-0.05,0.182,0.039,0.244,0.051c-0.197,0.19-0.223,0.644-0.162,0.984l-0.208-0.076c-0.088,0.603,0.028,1.283-0.019,1.963
	c0.114-0.238,0.478-0.159,0.501,0.043l-0.33,0.06c0.193,0.142,0.136-0.201,0.365,0.08c-0.054,0.252-0.38,0.146-0.477-0.006
	l0.092,0.315c-0.098,0.012-0.145-0.064-0.267-0.091c0.193,0.14-0.362,0.51-0.024,0.716l-0.098,0.011
	c-0.052,0.678,0.039,0.993,0.011,1.546c0.279,0.033,0.2,0.244,0.414,0.427c-0.125,0.398-0.38,0.83-0.402,1.319
	c0.107,0.354,0.228,0.121,0.38,0.291c-0.257,0.002-0.279,0.491-0.438,0.221c-0.017,0.588-0.02,0.751,0.105,1.51
	c0.113-0.068,0.168-0.153,0.25-0.097c0.027,0.139-0.14,0.293-0.26,0.26l-0.023-0.038c0.29,0.879-0.972,1.806-0.54,2.523l-0.021-0.04
	l0.169,0.714c-0.094,0.302-0.16-0.216-0.353-0.014c0.296,0.791-0.258,1.117-0.109,1.747c-0.822,0.252-0.344,1.6-1.007,1.834
	l0.173,0.05c0.106,0.184-0.154,0.103-0.223,0.131c0.125,0.063,0.196-0.02,0.249,0.084c-0.078,0.243-0.08,0.27-0.211,0.323
	c-0.235,0.099-0.651,0.254-0.982,0.355c-0.707,0.224-1.438,0.407-2.122,0.653c-0.496,0.19,0.136,0.959-0.65,0.871l0.025-0.38
	c-0.785,0.825-1.967,0.947-2.759,1.707c0.022-0.096-0.02-0.187,0.073-0.229c-0.303-0.119-0.739,0.347-0.657,0.524
	c-0.156,0.051-0.111-0.143-0.245-0.188c-0.261-0.03-0.366,0.519-0.576,0.354c-0.035-0.025,0.022-0.097,0.05-0.131
	c-0.079,0.167-0.618,0.267-0.373,0.455c-0.411,0.053-0.622,0.438-0.975,0.428c0.005-0.027,0.013-0.052,0.009-0.085l-0.289,0.004
	c0.105,0.06,0.196,0.08,0.28,0.081c-0.049,0.367-0.669,0.157-0.538,0.58c-0.171-0.42-0.778-0.029-0.909,0.271
	c0.015-0.159-0.256-0.034-0.25-0.247l0.039-0.019l-0.04,0.014l0.001,0.005c-0.252,0.128-0.45,0.316-0.304,0.504
	c-0.705-0.262-0.756,0.848-1.321,0.35c-0.653,0.582-1.284,1.067-1.921,1.488c-0.169-0.418,0.735-0.4,0.501-0.814
	c-0.566,0.479-0.774,1.005-1.463,1.213c-0.193,0.023,0.01-0.222,0.033-0.318c-0.567,0.478-1.269,0.559-1.74,1.054
	c-0.017-0.039,0.026-0.109,0.07-0.169c0.015-0.009,0.029-0.02,0.041-0.033c0.084-0.101,0.021-0.046-0.041,0.033
	c-0.107,0.067-0.292,0.065-0.192,0.245l0.087-0.104c0.309,0.184-0.186,0.776-0.139,0.928c-0.058-0.622-0.633,0.137-0.644-0.68
	c-0.059,0.07-0.111,0.202-0.035,0.317c-0.128,0.017-0.197-0.039-0.151-0.233c-0.36,0.293-0.122,0.422-0.493,0.592
	c-0.041-0.091,0.017-0.16,0.005-0.284c-0.104,0.264-0.209,0.527-0.557,0.598c-0.007-0.062-0.076-0.116,0.018-0.158
	c-0.522,0.279-0.695,0.896-1.362,1.002c-0.009-0.472-0.261-0.035-0.45-0.358l-0.27,0.248l0.204,0.105
	c-0.28,0.123-0.409,0.485-0.7,0.484l0.141-0.234l-0.49,0.306l0.354-0.009c-0.2,0.305,0.226,0.414-0.188,0.491
	c0.059-0.069-0.521,0.125-0.521-0.007v-0.002c0,0.172-0.171,0.351-0.416,0.362c-0.104-0.083-0.128-0.395-0.197-0.45
	c-0.004,0.346-0.612,0.38-0.645,0.761c0.024-0.098-0.054-0.276-0.09-0.305l-0.007,0.283c-0.163-0.015-0.198-0.042-0.242-0.193
	c-0.407,0.136,0.321,0.374-0.224,0.399c0.028-0.035-0.005-0.062,0.054-0.131c-0.506,0.115-0.825,0.558-1.302,0.638
	c-0.282-0.284,0.333-0.253,0.058-0.476c-0.584,0.341-1.082,0.987-1.711,1.177l0.128-0.012c0.137,0.521-0.55-0.039-0.748,0.324
	c0.058-0.069-0.025-0.312-0.02-0.249c-0.442,0.105-0.778,0.493-1.327,0.922l0.021-0.158c-0.29-0.004-0.661,0.217-0.946,0.275
	c-0.021,0.158-0.179,0.204-0.009,0.346c-1.112-0.353-1.362,1.053-2.333,0.772c0.084-0.039,0.155-0.198,0.087-0.169l-0.556,0.378
	c0.14,0.191,0.135,0.095,0.334,0.205c-0.022,0.158-0.152,0.33-0.303,0.395c0.213-0.258-0.149-0.34-0.318-0.408
	c0.047,0.057,0.038,0.146,0.076,0.208c-0.479-0.242,0.13,0.45-0.413,0.381l-0.025-0.121c-0.138,0.126-0.225,0.338-0.414,0.381
	c-0.177-0.215,0.124-0.188,0.049-0.396c-0.239,0.12-0.289,0.673-0.616,0.521c0.076-0.112,0.227-0.368,0.303-0.479
	c-0.353-0.181-0.365-0.257-0.545-0.262l0.004-0.002h-0.021c0.007,0,0.01,0.002,0.017,0.002l-0.468,0.231l0.139,0.13
	c-0.041,0.77-0.578,0.502-0.822,1.092c0.242-0.564-0.028-0.455-0.111-0.455c0,0-0.002,0-0.002,0l-0.013-0.112
	c0.003,0.001,0.007,0.002,0.011,0.003c-0.007-0.028-0.015-0.02-0.018-0.061l0.007,0.058c-0.137-0.032-0.32-0.062-0.307-0.157
	c-0.104,0.307-0.4-0.049-0.543,0.396c-0.049-0.086-0.214,0.075-0.261-0.171c-0.227,0.175,0.124,0.132,0.147,0.254
	c-0.272,0.473-1.076-0.014-1.479,0.636c-0.425,0.361-0.404,0.701-0.811,1.026c-0.208-0.09,0.007-0.382,0.007-0.382
	c-0.299-0.043-0.477,0.05-0.678,0.233c0.021-0.097-0.052-0.147-0.16-0.228c-0.18,0.088-0.013,0.38-0.31,0.328
	c0.009-0.118,0.01-0.302,0.066-0.436c0.031-0.026,0.062-0.049,0.095-0.069c0.006,0.042,0.018,0.08,0.042,0.098
	c-0.009-0.071-0.001-0.111,0.028-0.137l-0.07,0.039l-0.01-0.052c-0.038,0.03-0.064,0.071-0.084,0.121
	c-0.193,0.157-0.356,0.413-0.563,0.561c-0.111-0.145,0.063-0.286,0.11-0.418c-0.232,0.15-0.619,0.344-0.63,0.628l0.194,0.043
	c-0.093,0.04-0.111-0.208-0.056-0.275c0.163-0.269,0.346-0.005,0.389,0.084l-0.148,0.109c0.339,0.502,0.645-0.294,0.981-0.377
	l-0.007,0.441l0.232-0.442c0.108,0.077,0.235,0.279,0.089,0.395c0.31,0.112,0.166-0.21,0.448-0.069
	c0.035,0.024,0.031,0.048,0.016,0.07l0.192-0.202c-0.016,0.099,0.139,0.262-0.025,0.259c0.504,0.07,0.571-0.542,0.839-0.305
	l-0.026,0.037c0.531-0.353-0.051-0.307,0.254-0.809l0.562,0.59l-0.053-0.307c0.063-0.013,0.19-0.037,0.212,0.085
	c0.146-0.281-0.086-0.109-0.029-0.343c0.39,0.149,0.739-0.435,0.984-0.009c0.016-0.256-0.339-0.056-0.095-0.328
	c0.282,0.45,0.318-0.226,0.668-0.108c0.022,0.282-0.279,0.25,0.073,0.367c-0.015-0.485,0.546-0.113,0.732-0.287
	c0.02,0.05,0.052,0.105,0.103,0.173c0.064-0.014-0.023-0.282-0.047-0.404c0.011,0.12-0.012,0.189-0.056,0.231
	c-0.129-0.34,0.418-0.339,0.739-0.604c0.024,0.124,0.768-0.106,1.159-0.133l0.014,0.061c-0.078-0.366,0.3-0.452,0.525-0.632
	c0.077,0.206,0.065,0.306-0.035,0.455l0.24-0.104c-0.003,0.043-0.002,0.092,0.001,0.146l0.062-0.174l-0.063,0.027
	c0.01-0.132,0.061-0.221,0.2-0.326l0.049,0.277c0.313-0.152,0.514-0.576,0.997-0.588c-0.08-0.244-0.611-0.511-0.247-0.856
	c0.072,0.12,0.183,0.33,0.092,0.431c0.03-0.032,0.086-0.163,0.185-0.142l-0.08,0.289c0.228,0.013,0.02-0.221,0.177-0.266
	c0.076,0.182,0.167,0.08,0.208,0.233c-0.03,0.034-0.163-0.018-0.189,0.078c0.183-0.041,0.433-0.023,0.561,0.084
	c-0.06-0.096-0.107-0.242,0.005-0.32c0.312-0.154,0.205,0.169,0.431,0.18c0.021-0.16,0.282-0.12,0.168-0.393
	c0.094-0.04,0.167,0.049,0.235,0.107c0.112-0.193,0.753-0.609,0.44-0.609h-0.029c0.419,0,1.186-0.332,1.667-0.688l0.04,0.1
	c0.272-0.246,0.682-0.375,0.821-0.672c0.094-0.043,0.296,0.065,0.305,0.19c0.212-0.179,0.193-0.29,0.612-0.302
	c-0.173,0.268,0.147,0.101-0.198,0.229c0.351-0.066,0.488,0.046,0.715-0.354c-0.011,0.282,0.37,0.182,0.489,0.043l-0.296-0.062
	c0.153-0.11,0.31-0.158,0.468-0.208l0.058,0.34c0.815,0.071,0.875-1.16,1.65-0.771c0.073-0.29-0.419,0.013-0.381-0.305
	c0.315-0.095,0.824,0.194,0.918,0.152c0.483-0.021,0.174-0.617,0.651-0.7c-0.104-0.082-0.289-0.346-0.019-0.594
	c0.314-0.098,0.574,0.282,0.427,0.455c-0.067,0.042-0.117,0.023-0.131-0.014c0.044-0.045,0.08-0.084,0.055-0.104
	c-0.055,0.033-0.065,0.074-0.055,0.104c-0.078,0.083-0.182,0.188-0.01,0.25l-0.011-0.126c0.198,0.042,0.601-0.159,0.587,0.062
	c0.176-0.207,0.013-0.221-0.178-0.199c0.452-0.021,0.595-0.272,1.035-0.351c-0.09-0.03-0.206-0.13-0.144-0.158
	c0.635-0.135,0.157-0.321,0.523-0.55c0.297,0.061,0.104,0.428,0.431,0.107c0.291-0.001,0.185,0.262,0.13,0.394
	c0.259-0.374,0.729-0.177,0.95-0.234l-0.146,0.175c0.088-0.104,0.18-0.146,0.274-0.189l-0.208-0.164
	c0.127-0.015,0.221-0.058,0.261,0.032c0.047-0.194-0.255-0.316-0.121-0.614c0.198,0.04,0.391-0.327,0.576-0.066
	c-0.507,0.12,0.186,0.262-0.183,0.492c0.059-0.069,0.151-0.111,0.28-0.126c0.032,0.024,0.012,0.066-0.01,0.097
	c0.562,0.047,0.051-0.417,0.511-0.627c0.018,0.188,0.25,0.254,0.308,0.185c-0.186,0.084-0.214-0.226-0.104-0.429
	c0.352-0.014,0.274-0.244,0.435-0.302l-0.203,0.024c-0.017-0.188,0.14-0.237,0.32-0.385c0.077,0.117-0.145,0.174-0.045,0.194
	c0.093-0.39,0.65,0.049,0.876-0.291c0.198,0.039,0.157,0.295,0.321,0.308c0.255-0.377,0.488,0.036,0.778-0.312
	c-0.21-0.164-0.204-0.103-0.042-0.438l-0.54,0.443l0.244-0.501c-0.186,0.085-0.325,0.321-0.453,0.337
	c0.104-0.265,0.109-0.201-0.064-0.338c0.407,0.202,0.411-0.427,0.807-0.348l0.246,0.537c0.552,0.028,0.649-0.646,1.282-0.784
	l-0.227-0.005c-0.025-0.248,0.337-0.198,0.48-0.372c0.068,0.187,0.214,0.196,0.346,0.269c0.015,0.025,0.042,0.051,0.109,0.085
	c-0.033-0.04-0.071-0.063-0.109-0.085c-0.073-0.127,0.423-0.188,0.304-0.567l0.367,0.112c0.505-0.125,0.281-0.759,0.751-0.911
	c-0.04,0.258,0.221,0.287-0.008,0.567c0.148-0.068,0.296-0.1,0.24-0.225c0.14,0.07,0.293-0.436,0.51-0.332
	c-0.01,0.047-0.038,0.081-0.12,0.07c0.064-0.007,0.099,0.02,0.157-0.051c-0.013-0.01-0.024-0.015-0.038-0.02
	c0.025-0.108-0.045-0.305,0.127-0.369c0.036,0.027,0.042,0.088,0.042,0.088c-0.042-0.088,0.202-0.244-0.038-0.372
	c0.721,0.336,1.249-0.651,1.874-0.367l-0.063,0.047l0.128-0.016c-0.021-0.014-0.043-0.021-0.065-0.031
	c0.292-0.216,0.651-0.46,0.937-0.614c0.007,0.062,0.042,0.089-0.022,0.097c0.482-0.029,0-0.63,0.546-0.668
	c0.373,0.174-0.167,0.273,0.031,0.312c0.348,0.554,0.513-0.349,0.987-0.157l-0.058,0.071c0.332,0.084,0.466-0.501,0.871-0.647
	c0,0,0.006,0.062,0.041,0.09c0.118-0.426,0.567-0.768,0.896-1.031c-0.003,0.285-0.108,0.203,0.075,0.401
	c0.149-0.114-0.231-0.35,0.067-0.576c0.169,0.073,0.461,0.065,0.614,0.297l-0.305,0.166c0.316,0.242,0.398-0.208,0.589-0.232
	l0.048,0.149c0.456-0.279,0.289-0.636,0.814-0.862l-0.105-0.08c0.108-0.486,0.332,0.081,0.483-0.316l0.259,0.312
	c0.143-0.176,0.479-0.661,0.778-0.891c-0.058,0.354-0.38,0.681-0.543,0.955c0.185-0.088,0.61-0.334,0.62-0.556
	c-0.057,0.07-0.107,0.203-0.208,0.185c0.088-0.389,0.316-0.672,0.684-0.846c0.155,0.345,0.356,0.315,0.728,0.139
	c0.448-0.157,0.755-0.618,1.12-0.645c0.234-0.961,0.789-1.515,0.983-2.417c-0.652,0.158,0.046-0.256-0.562-0.346
	c0.011-0.194,0.033-0.264,0.072-0.278c0.002-0.002,0.005-0.004,0.007-0.007c0.117-0.017,0.344,0.476,0.58,0.166
	c-0.305,0.22-0.217-0.519-0.58-0.166l-0.001-0.001l0.483-0.519c0.202-0.106,0.096,0.215,0.232,0.226
	c0.133-0.428,0.29-0.132,0.507-0.393c-0.229,0.019-0.275-0.212-0.151-0.444l-0.342,0.298c-0.209-0.662,0.604-0.436,0.386-1.104
	l0.16,0.225c-0.06-0.333,0.183-1.162-0.263-1.534c0.077-0.045,0.252-0.096,0.277,0.048c0.174-0.74-0.309-1.721,0.052-2.263
	l0.143,0.072c-0.028-0.144-0.253-0.271-0.085-0.429c0.061,0.015,0.144,0.071,0.158,0.008c-0.04-0.072-0.185-0.339-0.129-0.519
	c0.062,0.327,0.13,0.558,0.347,1.103c0.095-0.094,0.13-0.19,0.223-0.152c0.057,0.132-0.073,0.322-0.197,0.316l-0.03-0.033
	c0.474,0.795-0.503,2.052,0.129,2.66l-0.032-0.034l0.386,0.658c0.009,0.33-0.222-0.162-0.34,0.103
	c0.554,0.687,0.15,1.217,0.572,1.793c-0.622,0.68,0.455,1.704,0.377,2.63l0.142-0.118c0.249,0.117,0.007,0.269,0.065,0.45
	c0.104-0.093,0.02-0.297,0.172-0.218c0.25,0.372,0.676,0.975,1.215,1.224c0.411,0.228,0.652,0.393,0.978,0.616
	c0.609,0.426,1.202,0.895,1.817,1.286c0.455,0.276,0.676-0.693,1.089-0.019l-0.315,0.214c1.135,0.114,1.959,0.974,3.048,1.13
	c-0.089,0.041-0.134,0.129-0.226,0.084c0.094,0.312,0.73,0.368,0.819,0.193c0.138,0.092-0.043,0.176,0.004,0.31
	c0.138,0.225,0.635-0.032,0.637,0.234c0.001,0.043-0.09,0.042-0.135,0.041c0.181-0.041,0.594,0.321,0.59,0.012
	c0.296,0.29,0.729,0.217,0.94,0.501c-0.023,0.014-0.048,0.021-0.071,0.046l0.183,0.224c-0.019-0.119-0.06-0.203-0.111-0.27
	c0.319-0.189,0.542,0.427,0.79,0.062c-0.222,0.395,0.463,0.628,0.778,0.544c-0.134,0.088,0.134,0.222-0.036,0.351l-0.039-0.02
	l0.036,0.023l0.003-0.004c0.258,0.117,0.528,0.154,0.585-0.077c0.236,0.715,1.135,0.062,1.1,0.815
	c0.866,0.145,1.64,0.334,2.369,0.564c-0.219,0.396-0.775-0.32-0.95,0.121c0.729,0.143,1.271-0.029,1.867,0.376
	c0.14,0.135-0.179,0.132-0.269,0.175c0.729,0.142,1.237,0.633,1.92,0.685c-0.02,0.037-0.102,0.05-0.175,0.053
	c-0.017-0.006-0.034-0.011-0.052-0.011c-0.131-0.002-0.049,0.014,0.052,0.011c0.12,0.041,0.236,0.186,0.312-0.006l-0.135-0.003
	c-0.055-0.354,0.718-0.348,0.806-0.479c-0.445,0.439,0.507,0.403-0.117,0.93c0.092,0,0.228-0.043,0.269-0.176
	c0.094,0.089,0.096,0.178-0.084,0.266c0.456,0.092,0.403-0.174,0.771,0.005c-0.044,0.089-0.135,0.089-0.223,0.176
	c0.27-0.087,0.54-0.173,0.817,0.05c-0.045,0.045-0.041,0.133-0.134,0.088c0.549,0.226,1.134-0.036,1.645,0.408
	c-0.357,0.31,0.14,0.223,0.013,0.575l0.364,0.048l-0.05-0.224c0.274,0.135,0.635,0.004,0.822,0.226l-0.271,0.044l0.551,0.178
	l-0.235-0.266c0.362-0.044,0.17-0.367,0.496-0.101c-0.061-0.001,0.079,0.203,0.196,0.345c-0.036,0.005-0.073,0.016-0.108,0.016
	c-0.074-0.056-0.16-0.127-0.262-0.127c0.077,0.099,0.167,0.126,0.262,0.127c0.061,0.044,0.113,0.071,0.163,0.048
	c0.034,0.037,0.065,0.066,0.077,0.066c0.187-0.001,0.381-0.166,0.547,0.012c0.003,0.135-0.217,0.318-0.216,0.406
	c0.267-0.22,0.688,0.205,1-0.018c-0.091,0.044-0.176,0.212-0.174,0.257l0.221-0.183c0.095,0.133,0.098,0.175,0.011,0.307
	c0.369,0.221,0.075-0.487,0.45-0.091c-0.044,0.002-0.043,0.045-0.135,0.045c0.419,0.31,0.961,0.265,1.335,0.572
	c-0.031,0.399-0.411-0.086-0.398,0.268c0.643,0.219,1.458,0.17,2.016,0.521l-0.094-0.089c0.301-0.444,0.335,0.439,0.739,0.348
	c-0.09,0.002-0.218,0.225-0.174,0.18c0.374,0.261,0.888,0.257,1.574,0.382l-0.132,0.091c0.191,0.218,0.605,0.346,0.841,0.518
	c0.133-0.09,0.272-0.003,0.263-0.225c0.488,1.068,1.699,0.293,2.154,1.198c-0.086-0.036-0.251,0.02-0.184,0.05l0.66,0.149
	c0.043-0.233-0.025-0.163-0.082-0.383c0.132-0.093,0.346-0.116,0.497-0.052c-0.335,0.023-0.145,0.342-0.077,0.511
	c0.009-0.073,0.08-0.128,0.099-0.198c0.156,0.515,0.236-0.404,0.562,0.036l-0.07,0.102c0.188,0.013,0.399-0.07,0.562,0.036
	c-0.031,0.277-0.222,0.041-0.319,0.238c0.253,0.093,0.685-0.259,0.806,0.08c-0.135,0.024-0.286-0.038-0.42-0.014
	c0.122,0.392,0.182,0.33,0.344,0.451l0.187,0.187c-0.075-0.093-0.136-0.147-0.187-0.187l-0.015-0.014l0.365,0.307l-0.074-0.123
	c0.578-0.516,0.68,0.149,1.272-0.105c-0.571,0.235-0.162,0.204-0.308,0.472l-0.002-0.002l-0.067,0.104
	c0.034-0.039,0.053-0.072,0.069-0.103c0.075,0.122,0.203,0.275,0.125,0.335c0.291-0.146,0.261,0.313,0.675,0.096
	c-0.023,0.096,0.21,0.095,0.074,0.305c0.287,0.033,0.001-0.183,0.068-0.287c0.519-0.146,0.798,0.745,1.54,0.545
	c0.567,0.014,0.775-0.265,1.292-0.248c0.104,0.204-0.248,0.287-0.248,0.287c0.204,0.229,0.405,0.273,0.684,0.248
	c-0.076,0.063-0.05,0.148-0.011,0.277c0.204,0.042,0.243-0.293,0.454-0.07c-0.078,0.089-0.188,0.235-0.318,0.307
	c-0.042,0.001-0.081,0-0.121-0.004c0.02-0.037,0.034-0.074,0.025-0.104c-0.037,0.062-0.068,0.089-0.109,0.091l0.084,0.013
	l-0.024,0.047c0.051,0,0.099-0.017,0.146-0.043c0.262-0.009,0.541-0.099,0.812-0.115c0.016,0.182-0.224,0.204-0.344,0.282
	c0.3,0.011,0.762,0.064,0.916-0.17l-0.148-0.144c0.102,0.017-0.011,0.237-0.099,0.263c-0.295,0.133-0.312-0.189-0.296-0.286
	l0.189-0.01c-0.012-0.593-0.708-0.121-1.041-0.272l0.273-0.347l-0.456,0.21c-0.039-0.127-0.012-0.363,0.174-0.366
	c-0.172-0.275-0.263,0.069-0.391-0.222c-0.01-0.042,0.007-0.058,0.033-0.065l-0.274,0.031c0.075-0.065,0.062-0.29,0.184-0.182
	c-0.333-0.377-0.779,0.047-0.826-0.306l0.044-0.012c-0.625-0.087-0.163,0.266-0.724,0.434l-0.02-0.815l-0.167,0.263
	c-0.056-0.033-0.165-0.101-0.099-0.206c-0.297,0.109-0.011,0.139-0.211,0.272c-0.185-0.367-0.835-0.191-0.718-0.669
	c-0.188,0.174,0.205,0.276-0.158,0.303c0.108-0.52-0.385-0.059-0.555-0.386c0.182-0.218,0.373,0.014,0.205-0.314
	c-0.33,0.36-0.467-0.297-0.717-0.309c0.021-0.049,0.038-0.111,0.05-0.194c-0.055-0.036-0.183,0.215-0.252,0.319
	c0.077-0.094,0.143-0.126,0.202-0.125c-0.149,0.332-0.532-0.058-0.944-0.099c0.07-0.102-0.609-0.473-0.896-0.74l0.034-0.052
	c-0.21,0.31-0.532,0.097-0.816,0.058c0.097-0.198,0.177-0.258,0.354-0.289l-0.24-0.101c0.033-0.027,0.068-0.062,0.105-0.102
	l-0.168,0.075l0.062,0.026c-0.103,0.083-0.202,0.108-0.374,0.08l0.169-0.226c-0.323-0.124-0.768,0.018-1.103-0.329
	c-0.126,0.225,0.04,0.796-0.462,0.764c0.039-0.134,0.118-0.358,0.254-0.36c-0.044,0-0.178,0.048-0.229-0.039l0.267-0.138
	c-0.146-0.176-0.176,0.136-0.315,0.05c0.082-0.179-0.054-0.177,0.03-0.311c0.046-0.001,0.098,0.131,0.186,0.085
	c-0.153-0.105-0.31-0.301-0.316-0.468c-0.03,0.109-0.106,0.244-0.24,0.213c-0.322-0.127-0.012-0.266-0.155-0.44
	c-0.133,0.092-0.277-0.128-0.402,0.14c-0.092-0.043-0.053-0.176-0.057-0.265c-0.177,0.037-0.579-0.294-0.692-0.219l0.003-0.013
	c-0.011,0-0.057,0-0.057,0v0.166v0.083c-1,0.03-1.035-0.612-1.619-0.735l0.048-0.068c-0.364-0.04-0.731-0.248-1.046-0.158
	c-0.094-0.043-0.146-0.259-0.058-0.348c-0.272-0.043-0.345,0.048-0.628-0.261c0.315-0.045-0.02-0.175,0.304,0.001
	c-0.28-0.221-0.285-0.397-0.735-0.306c0.22-0.178-0.104-0.396-0.286-0.396l0.146,0.266c-0.184-0.043-0.321-0.132-0.462-0.22
	l0.22-0.265c-0.474-0.664-1.448,0.092-1.653-0.749c-0.268,0.133,0.28,0.31,0.014,0.486c-0.277-0.177-0.384-0.754-0.476-0.797
	c-0.327-0.355-0.582,0.266-0.953-0.046c0.004,0.133-0.078,0.444-0.442,0.398c-0.277-0.178-0.153-0.62,0.074-0.62
	c0.075,0.024,0.093,0.074,0.073,0.109c-0.062-0.005-0.115-0.008-0.115,0.024c0.062,0.021,0.1,0.001,0.115-0.024
	c0.113,0.005,0.261,0.018,0.197-0.153l-0.088,0.089c-0.096-0.178-0.508-0.354-0.33-0.487c-0.271-0.001-0.178,0.132-0.038,0.266
	c-0.307-0.333-0.59-0.282-0.931-0.568c-0.016-0.042-0.038-0.07-0.066-0.057c0.024,0.021,0.045,0.038,0.066,0.057
	c0.034,0.088,0.032,0.241-0.029,0.211c-0.509-0.4-0.347,0.086-0.757-0.048c-0.143-0.268,0.263-0.354-0.191-0.399
	c-0.187-0.223,0.083-0.067,0.219-0.11c-0.452,0.041-0.599-0.34-0.784-0.34h0.228c-0.136,0-0.227-0.287-0.319-0.331l0.006,0.144
	c-0.092-0.088-0.185-0.193-0.141-0.281c-0.18,0.087-0.082,0.367-0.396,0.454c-0.095-0.178-0.501-0.108-0.417-0.417
	c0.414,0.313,0.084-0.317,0.495-0.18c-0.092-0.001-0.183-0.05-0.274-0.14c-0.002-0.039,0.043-0.053,0.081-0.056
	c-0.32-0.462-0.354,0.227-0.808,0.004c0.134-0.133,0.038-0.355-0.052-0.355c0.182,0.09-0.039,0.309-0.266,0.352
	c-0.233-0.264-0.362-0.058-0.508-0.145l0.146,0.142c-0.135,0.132-0.271,0.042-0.499-0.005c0.042-0.133,0.226,0.002,0.179-0.087
	c-0.359,0.174-0.373-0.534-0.778-0.494c-0.095-0.179,0.129-0.308,0.036-0.442c-0.452,0.039-0.278-0.402-0.731-0.407
	c0.005,0.266,0.049,0.223-0.313,0.308l0.683,0.14l-0.54,0.126c0.183,0.091,0.453,0.05,0.546,0.14
	c-0.271,0.087-0.226,0.042-0.223,0.263c-0.099-0.443-0.59-0.05-0.777-0.407l0.263-0.528c-0.324-0.446-0.908-0.098-1.413-0.504
	l0.139,0.18c-0.178,0.175-0.365-0.139-0.59-0.141c0.103-0.17,0.018-0.29-0.008-0.438c-0.054,0.137-0.41-0.211-0.632,0.119
	l-0.142-0.355c-0.412-0.317-0.767,0.255-1.179-0.018c0.226-0.13,0.086-0.353,0.448-0.349c-0.146-0.072-0.263-0.169-0.325-0.047
	c-0.032-0.152-0.523,0.044-0.577-0.19c0.044-0.021,0.087-0.021,0.13,0.05c-0.045-0.046-0.047-0.09-0.138-0.092
	c0.001,0.017,0.003,0.028,0.008,0.042c-0.1,0.048-0.21,0.225-0.368,0.13c0-0.045,0.043-0.087,0.043-0.087
	c-0.043,0.087-0.316-0.006-0.267,0.261c-0.186-0.773-1.287-0.571-1.45-1.239l0.076,0.021l-0.092-0.091
	c0.002,0.025,0.011,0.047,0.016,0.07c-0.35-0.096-0.764-0.226-1.062-0.354c0.045-0.044,0.044-0.088,0.09-0.043
	c-0.321-0.359-0.494,0.391-0.862-0.017c-0.094-0.4,0.318-0.037,0.226-0.217c0.221-0.614-0.59-0.188-0.731-0.679l0.091,0.002
	c-0.138-0.312-0.681-0.059-1.044-0.287c0,0,0.044-0.043,0.045-0.087c-0.407,0.169-0.952,0.025-1.362-0.073
	c0.227-0.172,0.228-0.038,0.271-0.305c-0.182-0.048-0.134,0.396-0.496,0.3c-0.046-0.178-0.23-0.403-0.141-0.667l0.317,0.14
	c-0.002-0.398-0.408-0.187-0.545-0.322l0.194-0.13c-0.5-0.188-1.076,0.161-1.076-0.116v0.132c-1,0.212-0.241-0.312-0.648-0.189
	l0.038-0.396c-0.227-0.006-0.841,0.023-1.206-0.073c0.318-0.17,0.758-0.113,1.075-0.151c-0.183-0.093-0.641-0.28-0.822-0.152
	c0.09,0.002,0.222-0.039,0.268,0.052c-0.361,0.167-0.726,0.158-1.087-0.028c0.222-0.317-0.061-0.51-0.236-0.627
	c-0.14-0.089-0.241-0.262-0.023-0.48c-0.498-0.282-0.347-1.107-0.569-1.824c-0.51,0.419-0.071-0.22-0.654-0.029
	c-0.081-0.166-0.083-0.347-0.055-0.376c0.001-0.003,0.003-0.117,0.004-0.117h-0.002l0.237-0.529
	c0.148-0.168,0.165,0.205,0.298,0.158c-0.034-0.412,0.221-0.193,0.328-0.488c-0.203,0.095-0.337-0.065-0.295-0.313l-0.217,0.384
	c-0.425-0.514,0.414-0.576,0.002-1.098l0.219,0.152c-0.162-0.276-0.164-1.091-0.69-1.319c0.062-0.063,0.219-0.155,0.28-0.028
	c-0.022-0.725-0.723-1.543-0.48-2.144l0.154,0.039c-0.058-0.131-0.306-0.206-0.174-0.392c0.062,0.002,0.154,0.039,0.157-0.024
	c-0.059-0.066-0.297-0.334-0.229-0.522l0.183,0.137c0.124-0.727-0.513-1.051-0.667-1.642c0.439-0.037,0.532-0.608,0.582-0.895
	l0.062,0.005c-0.011-0.832-0.472-1.382-0.696-2.143c0.442-0.51,0.095-1.635,0.319-2.421c-0.073,0.122-0.344,0-0.396-0.135
	c0.079-0.186-0.331-0.483,0.073-0.477l-0.005,0.064c0.389-0.157,0.263-0.522,0.259-0.813l-0.529-0.021
	c0.729-0.797-0.378-1.979,0.293-2.426c-0.14-0.178-0.147-0.405-0.287-0.581l0.283-0.002c0.052-0.512,0.077-0.767-0.015-1.393
	l0.207,0.121c0.006-0.355-0.832-0.418-0.86-0.745l0.419-0.113c-0.021-0.482,0.161-0.974,0.062-1.452
	c0.018,0.032,0.033,0.056,0.043,0.056c0.007,0,0.014,0,0.021,0c0,0-0.002-0.164-0.002-0.158c-0.002-0.012-0.015-0.192-0.02-0.201
	c-0.044,0.001-0.088,0.001-0.132,0.002c0.053,0.1,0.068,0.201,0.089,0.302c-0.044-0.079-0.103-0.219-0.143-0.225
	c0.023,0.034,0.035-0.109,0.054-0.075c-0.102,0.002-0.203,0.008-0.306,0.009c0.056-0.342,0.256-1.021-0.276-0.939
	c0.378,0.003,0.056-0.632-0.103-0.972l0.277,0.077c-0.063-0.054-0.111-0.056-0.16-0.095c0.138-0.002,0.275,0.062,0.412,0.061
	c0.035,0.025,0.063,0.215,0.105,0.215h-0.279c0.175,0,0.534,1.106,0.156,1.124c0.418-0.088,0.401-0.111,0.361,0.514
	C266.441,348.056,286.861,332.001,286.861,312.334z M281.119,390.447c-0.4-0.504,0.018,0.27-0.506,0.015l0.382,0.238
	C280.963,390.571,280.922,390.398,281.119,390.447z M279.49,389.602c-0.177,0.034-0.221,0.042-0.092,0.199
	C279.638,389.843,279.455,389.653,279.49,389.602z M272.785,387.025c-0.058,0.092,0.072,0.119,0.162,0.186L272.785,387.025z
	 M270.277,385.812l0.128-0.224C270.223,385.546,270.362,385.679,270.277,385.812z M267.502,384.053l0.229,0.044h0.088
	L267.502,384.053z M262.049,381.191l0.008,0.01C262.133,381.202,262.096,381.19,262.049,381.191z M252.567,377.011l-0.087,0.308
	C252.617,377.322,252.795,377.015,252.567,377.011z M245.609,373.857c0.136,0.091,0.228,0.272,0.319,0.273
	C245.928,373.954,245.79,373.773,245.609,373.857z M241.247,355.025l-0.012,0.129l0.113,0.14L241.247,355.025z M242.083,370.217
	c0.099-0.058,0.505,0.252,0.594-0.102C242.487,370.428,242.271,369.768,242.083,370.217z M194.036,391.638l0.056-0.052l-0.062,0.006
	C194.037,391.609,194.037,391.625,194.036,391.638z M195.73,391.081c0.025-0.171,0.445,0.098,0.498-0.105
	c-0.126,0.021-0.369-0.097-0.51,0.023L195.73,391.081z M210.231,385.166l0.209-0.18l-0.229-0.069L210.231,385.166z M213.009,384.083
	c0.039-0.074,0.077-0.146,0.126-0.204c0.09-0.021,0.2-0.041,0.266-0.118c-0.125-0.004-0.204,0.046-0.266,0.118
	C213.025,383.905,212.945,383.937,213.009,384.083z M323,187.333c0,1.657,1.344,3,3,3s3-1.343,3-3s-1.344-3-3-3
	S323,185.677,323,187.333z M341.166,182.924c2.499,3.055,4,6.972,4,11.243c0,9.757-7.834,17.667-17.5,17.667
	c-9.664,0-17.5-7.91-17.5-17.667c0-7.116,4.178-13.233,10.184-16.032c-8.566,1.256-13.938,6.504-14.85,19.032
	c-1.355,18.645,10.648,9.788,22.166,17.333c14.5,9.5,21.92-4.236,24-12.833C353.222,195.238,348.403,187.766,341.166,182.924z
	 M240.45,342.922c-0.003,0.003-0.009,0.005-0.012,0.008c0.004,0.01,0.008,0.019,0.012,0.028
	C240.45,342.945,240.45,342.935,240.45,342.922z M239.327,362.821c0.011-0.121,0.028-0.24,0.052-0.357
	c-0.043,0.009-0.079,0.035-0.128,0.03C239.26,362.608,239.291,362.716,239.327,362.821z M240.288,341.672
	c-0.002,0.003-0.004,0.007-0.005,0.01l0.011,0.006C240.291,341.684,240.29,341.676,240.288,341.672z M240.774,341.785
	c-0.021-0.012-0.05-0.016-0.076-0.023c0,0.036-0.006,0.066-0.011,0.099c0.006,0.03,0.015,0.068,0.018,0.094
	C240.762,341.938,240.816,341.898,240.774,341.785z M238.881,348.206l0.054,0.071c0.263-0.39-0.459-0.422-0.352-0.839l0.09,0.102
	c0.135-0.243,0.142-0.564,0.089-0.89c-0.119-0.002-0.237-0.005-0.356-0.007c0.029,0.311,0.01,0.614-0.132,0.838l-0.085-0.105
	c-0.131,0.407,0.589,0.481,0.304,0.854l-0.05-0.074c-0.027,0.159-0.041,0.322-0.05,0.486c0.156,0.003,0.312,0.008,0.468,0.01
	C238.86,348.502,238.864,348.353,238.881,348.206z M240.263,343.034c-0.07,0.127-0.06,0.242-0.018,0.36
	C240.251,343.291,240.257,343.17,240.263,343.034z M238.356,345.446c-0.013-0.005-0.015-0.022-0.017-0.038
	c-0.124-0.096-0.388,0.116-0.275-0.15c0.055,0.072,0.186,0.02,0.19-0.045l-0.287-0.285c0.089-0.293,0.172-0.607,0.237-0.928H238
	v-9.773c-0.062-0.028-0.11-0.077-0.108-0.201c0,0,0.022,0.034,0.051,0.073c-0.009-0.029-0.028-0.044-0.027-0.089
	c0,0,0.036,0.06,0.084,0.114V333v-2.586c-0.008-0.004-0.013-0.011-0.021-0.016c0.009,0.001,0.013-0.003,0.021-0.002V289.34
	c-1.133-1.413-7.024-7.997-15.672-4.095c-0.206,0.078-13.729,5.088-15.517,13.154c-0.71,3.206,0.594,6.562,3.833,9.984
	c2.289-1.784,5.336-2.885,8.689-2.885c7.077,0,12.833,4.86,12.833,10.834s-5.757,10.834-12.833,10.834s-12.833-4.86-12.833-10.834
	c0-2.479,1.001-4.757,2.666-6.584c-0.097-0.101-0.392-0.409,0-0.001c-3.718-3.93-5.171-7.892-4.307-11.785
	c2.028-9.136,16.116-14.352,16.715-14.568c8.889-4.018,15.372,1.808,17.49,4.133c2.413-2.25,9.952-8.163,18.931-4.104
	c0.514,0.189,14.039,5.34,15.999,14.365c0.774,3.565-0.363,7.189-3.374,10.799c0.296-0.296,0.155-0.13,0.019,0.018
	c2.379,1.967,3.861,4.703,3.861,7.729c0,5.974-5.757,10.834-12.834,10.834c-7.076,0-12.833-4.86-12.833-10.834
	s5.757-10.834,12.833-10.834c2.715,0,5.23,0.72,7.307,1.938c2.676-3.157,3.711-6.253,3.067-9.222
	c-1.726-7.96-14.676-12.896-14.807-12.945c-8.646-3.901-15.823,2.699-17.233,4.129v36.617c0.152,0.044,0.444,0.39,0.498,0.604
	c-0.007,0.18-0.05,0.271-0.109,0.321c-0.102,0.102-0.261,0.058-0.389,0.092v0.533l0.118,0.434h-0.027l0.002-0.084L240,327.832v0.136
	c0.027,0.016,0.054,0.028,0.066,0.036c-0.035-0.006-0.047,0.021-0.066,0.038v0.66l0.126-0.053c0.002,0.003,0.002,0.005,0.004,0.008
	l0.028-0.013c0.303,0.422,0.028,0.732-0.158,1.037v0.668l0.252,0.271L240,330.687v0.062c0.169,0.175,0.355,0.242,0.258,0.57
	c-0.528,1.263,0.105,2.623-0.228,3.903c0.049-0.019,0.073-0.056,0.115-0.126c-0.02,0.03-0.022,0.056-0.039,0.085
	c0.017-0.02,0.031-0.043,0.052-0.076c-0.08,0.118-0.123,0.229-0.158,0.337v0.631c0.186,0.603,0.744,1.111,0.354,1.798l-0.023-0.014
	c-0.006,0.011-0.005,0.021-0.012,0.032l-0.075-0.048c0.02,0.173,0.004,0.196-0.033,0.179c-0.018,0.058-0.075-0.028-0.15-0.03
	c-0.02,0.01-0.04,0.031-0.061,0.063v0.081c0.317,0.105,0.264,0.642,0.397,0.926c-0.076-0.046-0.069-0.148-0.124-0.233
	c-0.001,0.001-0.002,0.001-0.003,0.002c0.016,0.093,0.033,0.182,0.064,0.253c-0.073-0.047-0.068-0.144-0.115-0.229
	c-0.097,0.042-0.235,0.08-0.178,0.204c0.532,0.323,0.488,1.034,0.653,1.556c-0.208,0.058-0.397,0.402-0.695,0.651v0.187
	c0.072,0.038,0.151,0.078,0.242,0.121c0.001-0.002,0.002-0.003,0.004-0.005c0,0.004,0.003,0.005,0.004,0.008
	c0.004,0.003,0.008,0.005,0.012,0.007c-0.009-0.087-0.021-0.138-0.038-0.115c0.106-0.094,0.153-0.094,0.2-0.073
	c0.146-0.095,0.155,0.057,0.399,0.04c-0.008,0.171,0.097,0.524-0.115,0.567c-0.002,0.104-0.032,0.172-0.072,0.279
	c0.044,0.064,0.069,0.134,0.045,0.211l-0.029-0.034c-0.04,0.013-0.063,0.029-0.088,0.046c-0.115,0.338,0.315,0.802,0.514,1.074
	c-0.145-0.107-0.236-0.114-0.312-0.086c0.035,0.05,0.073,0.104,0.102,0.146c-0.074-0.06-0.133-0.087-0.185-0.1
	c-0.075,0.053-0.146,0.121-0.261,0.123c0.006,0.009,0.011-0.015,0.015-0.056c-0.028,0.02-0.058,0.038-0.089,0.054
	c0.048,0.141,0.076,0.298,0.012,0.495c-0.03-0.034-0.091-0.102-0.186-0.074c-0.068,0.191,0.142,0.362,0.296,0.402
	c-0.251,0.053-0.425,0.464-0.308,0.663c0.212,0.172,0.307,0.144,0.293,0.465l-0.182-0.137c-0.125,0.342,0.17,0.327,0.139,0.545
	c-0.027-0.049-0.136-0.035-0.161,0.035c0.097,0.346,0.195,0.4,0.464,0.595c24.44-0.439,44.146-15.656,44.146-34.312
	c0-18.932-20.289-34.334-45.229-34.334s-45.229,15.402-45.229,34.334c0,18.619,19.629,33.812,44.002,34.31
	c-0.037-0.41-0.168-0.834-0.303-1.122C238.183,345.618,238.345,345.58,238.356,345.446z M251.833,316.333
	c0,4.319,4.411,7.834,9.833,7.834c5.423,0,9.834-3.515,9.834-7.834s-4.411-7.834-9.834-7.834
	C256.244,308.499,251.833,312.014,251.833,316.333z"/>
</svg>
