<?xml version="1.0" encoding="utf-8"?>
<!-- Generator: Adobe Illustrator 16.0.0, SVG Export Plug-In . SVG Version: 6.00 Build 0)  -->
<!DOCTYPE svg PUBLIC "-//W3C//DTD SVG 1.1//EN" "http://www.w3.org/Graphics/SVG/1.1/DTD/svg11.dtd">
<svg version="1.1" id="board" xmlns="http://www.w3.org/2000/svg" xmlns:xlink="http://www.w3.org/1999/xlink" x="0px" y="0px"
	 width="484.332px" height="96.334px" viewBox="0 0 484.332 96.334" enable-background="new 0 0 484.332 96.334"
	 xml:space="preserve">
<path id="main" d="M449.67,27.416c0,0-30.67,11.084-41.004,11.75c0,0-18.917,0.5-53.584-4.5H127.25
	c-34.667,5-53.584,4.537-53.584,4.537c-10.333-0.666-41.003-11.871-41.003-11.871C-2.003,16.333,5.991,8,5.991,8
	c6.333-3,49.656,13,49.656,13c15.644,7.042,34.894,7.042,34.894,7.042c29.873-3.833,38.708-4.042,38.708-4.042
	c12.299,0.965,121.917,0.492,121.917,0.492c31.312,0.216,89.167-0.075,102.001,0.425c0,0,37.872,3.75,40.872,3.083
	c0,0,15.312,0.667,32.646-7c0,0,43.322-16,49.656-13C476.342,8,484.336,16.416,449.67,27.416z M389.167,44.999l-3.583,8.458
	c-0.921-0.069-2.158-0.579-3.56-1.207c-0.616,1.833-1.713,4.367-3.566,6.996c5.106,3.016,8.542,8.56,8.542,14.919
	c0,9.572-7.761,17.333-17.333,17.333s-17.333-7.761-17.333-17.333c0-2.828,0.691-5.489,1.893-7.848
	c-3.098,0.564-5.779-0.669-2.727-5.86l-0.913-2.62c-0.701-0.443-1.17-1.25-1.17-2.141c0-0.275,0.055-0.55,0.137-0.797l-3.471-9.476
	c-0.916-6.583,4.707-5.758,11.334-5.758H377C392.25,38.666,392.25,39.166,389.167,44.999z M361.952,58.662
	c-0.013,0-0.023,0.004-0.035,0.004h-2.396l-1.717,2.887C359.032,60.397,360.426,59.422,361.952,58.662z M362.372,53.213
	c1.163,0.214,2.045,1.479,2.045,2.704c0,0.775-0.36,1.538-0.914,2.065c1.917-0.731,3.989-1.149,6.164-1.149
	c0.179,0,0.353,0.021,0.53,0.027c1.183-1.297,4.427-4.921,6.104-7.493c-4.059-2.022-8.01-3.705-9.385-1.863l-3.188,3.352
	L362.372,53.213z M376.667,75.5c0-3.866-3.134-7-7-7s-7,3.134-7,7s3.134,7,7,7S376.667,79.366,376.667,75.5z M137.5,46.424
	l-3.471,9.476c0.082,0.247,0.137,0.522,0.137,0.797c0,0.891-0.469,1.698-1.17,2.141l-0.913,2.62
	c3.333,5.667-0.167,6.625-3.584,5.667l-0.021-0.034c0.969,2.162,1.521,4.553,1.521,7.075c0,9.572-7.76,17.333-17.333,17.333
	s-17.333-7.761-17.333-17.333c0-6.533,3.618-12.218,8.957-15.172c-1.356-2.168-2.213-4.204-2.731-5.743
	c-1.402,0.628-2.64,1.137-3.56,1.207l-3.583-8.458c-3.083-5.833-3.083-6.333,12.167-5.333h19.584
	C132.794,40.666,138.417,39.841,137.5,46.424z M119.667,75.5c0-3.866-3.134-7-7-7s-7,3.134-7,7s3.134,7,7,7
	S119.667,79.366,119.667,75.5z M121.211,54.213l-1.357-2.357l-3.188-3.352c-1.375-1.841-5.326-0.159-9.385,1.863
	c1.347,2.065,3.7,4.803,5.189,6.476c0.066,0,0.13-0.01,0.196-0.01c2.436,0,4.751,0.507,6.854,1.414
	c-0.22-0.41-0.354-0.867-0.354-1.331C119.167,55.691,120.048,54.427,121.211,54.213z M126.471,63.715l-2.409-4.049h-1.915
	C123.814,60.757,125.271,62.132,126.471,63.715z M112.667,72.5c-1.841,0-3.333,1.492-3.333,3.333s1.492,3.333,3.333,3.333
	S116,77.674,116,75.833S114.507,72.5,112.667,72.5z M369.667,72.5c-1.841,0-3.333,1.492-3.333,3.333s1.492,3.333,3.333,3.333
	S373,77.674,373,75.833S371.507,72.5,369.667,72.5z"/>
</svg>
