<svg xmlns="http://www.w3.org/2000/svg" width="491" height="355" viewBox="0 0 491.3 354.7"><path d="M485 115.3c-3.3-8.6-13.8-20.1-24.6-21.1l-0.1 0c1.8-1.8 3.1-4.1 3.5-6.8l0.1-1c0.9-6.6-3.6-12.6-10.2-13.6l-30.7-4.4c-6.6-0.9-12.6 3.6-13.6 10.2l-0.1 1c-0.4 2.9 0.2 5.7 1.7 8 -16.2-5.7-28.8-17.9-33.4-41.8 0 0-6.5-41-56.7-40.6l-28.1-0.7c0 0-42-2.7-63.9 11.5 0 0-16.7 13.4-29 49 0 0-1.6 5.4-7.8 10.9 0.1-1 0.2-2 0.1-3l-0.9-9.3c-0.7-6.8-6.5-12.2-12.9-11.6l-65.3 6.2c-6.5 0.6-10.7 7-10 13.8l0.9 9.3c0.4 4.2 2.6 7.8 5.7 9.8 -3.1 0.6-6.2 1.3-9 2.1 -2.4-2.3-5.8-4.3-9.8-6 -3.4 4.3-14.2 8.3-27.4 9.7 -16.3 1.8-30-1-30.6-6.3 -4.2 2.8-7 6.2-7.6 10l-2.8 0C10 101.7 2.6 129.3 3 140.5c1.7 163.5 1.4 161.1 2.8 176.5 1.2 13 4.2 33.3 19.5 33.3l439.4 0.9c7.3 0 21.5-10.2 21.1-17C485.8 334.1 492.2 133.8 485 115.3zM63.7 316.3c0 2.6-2.1 4.8-4.7 4.8h-0.5c-2.6 0-4.7-2.1-4.7-4.7v-156.5c0-2.6 2.1-4.7 4.8-4.7h0.5c2.6 0 4.8 2.1 4.8 4.8V316.3zM294.2 325.5c-64.9 0-117.5-52.6-117.5-117.5s52.6-117.5 117.5-117.5 117.5 52.6 117.5 117.5S359.1 325.5 294.2 325.5z"/><path d="M292.2 148.5c-34 0-61.5 27.5-61.5 61.5 0 34 27.5 61.5 61.5 61.5s61.5-27.5 61.5-61.5C353.7 176 326.1 148.5 292.2 148.5zM292.2 230.5c-10.8 0-19.5-8.7-19.5-19.5s8.7-19.5 19.5-19.5 19.5 8.7 19.5 19.5S302.9 230.5 292.2 230.5z"/><path d="M62.3 90c10.3-0.8 18.8-3 20.6-5.3 -5.3-1.3-11.3-2-17.7-2 -9.2 0-17.7 1.5-24.5 4.1 0 0 0 0.1 0 0.1C40.9 89.5 50.6 90.9 62.3 90z"/></svg>