<svg xmlns="http://www.w3.org/2000/svg" width="484" height="96" viewBox="0 0 484.3 96.3"><path d="M476.3 8c-6.3-3-49.7 13-49.7 13 -17.3 7.7-32.6 7-32.6 7 -3 0.7-40.9-3.1-40.9-3.1 -12.8-0.5-70.7-0.2-102-0.4 0 0-109.6 0.5-121.9-0.5 0 0-8.8 0.2-38.7 4 0 0-19.2 0-34.9-7 0 0-43.3-16-49.7-13 0 0-8 8.3 26.7 19.3 0 0 30.7 11.2 41 11.9 0 0 18.9 0.5 53.6-4.5h227.8c34.7 5 53.6 4.5 53.6 4.5C419 38.5 449.7 27.4 449.7 27.4 484.3 16.4 476.3 8 476.3 8z"/><path d="M377 39.7h-19.6c-6.6 0-12.2-0.8-11.3 5.8l3.5 9.5c-0.1 0.2-0.1 0.5-0.1 0.8 0 0.9 0.5 1.7 1.2 2.1l0.9 2.6c-3.1 5.2-0.4 6.4 2.7 5.9 -1.2 2.4-1.9 5-1.9 7.8 0 9.6 7.8 17.3 17.3 17.3S387 83.7 387 74.2c0-6.4-3.4-11.9-8.5-14.9 1.9-2.6 3-5.2 3.6-7 1.4 0.6 2.6 1.1 3.6 1.2l3.6-8.5C392.3 39.2 392.3 38.7 377 39.7zM357.8 61.6l1.7-2.9h2.4c0 0 0 0 0 0C360.4 59.4 359 60.4 357.8 61.6zM363.7 50.9l3.2-3.4c1.4-1.8 5.3-0.2 9.4 1.9 -1.7 2.6-4.9 6.2-6.1 7.5 -0.2 0-0.4 0-0.5 0 -2.2 0-4.2 0.4-6.2 1.1 0.6-0.5 0.9-1.3 0.9-2.1 0-1.2-0.9-2.5-2-2.7L363.7 50.9zM369.7 82.5c-3.9 0-7-3.1-7-7s3.1-7 7-7 7 3.1 7 7S373.5 82.5 369.7 82.5z"/><path d="M126.2 40.7h-19.6c-15.2-1-15.2-0.5-12.2 5.3L98 54.5c0.9-0.1 2.2-0.6 3.6-1.2 0.5 1.5 1.4 3.6 2.7 5.7 -5.3 3-9 8.6-9 15.2 0 9.6 7.8 17.3 17.3 17.3S130 83.7 130 74.2c0-2.5-0.6-4.9-1.5-7.1l0 0c3.4 1 6.9 0 3.6-5.7l0.9-2.6c0.7-0.4 1.2-1.2 1.2-2.1 0-0.3-0.1-0.5-0.1-0.8l3.5-9.5C138.4 39.8 132.8 40.7 126.2 40.7zM112.7 82.5c-3.9 0-7-3.1-7-7s3.1-7 7-7 7 3.1 7 7S116.5 82.5 112.7 82.5zM119.2 56.9c0 0.5 0.1 0.9 0.4 1.3 -2.1-0.9-4.4-1.4-6.9-1.4 -0.1 0-0.1 0-0.2 0 -1.5-1.7-3.8-4.4-5.2-6.5 4.1-2 8-3.7 9.4-1.9l3.2 3.4 1.4 2.4C120 54.4 119.2 55.7 119.2 56.9zM122.1 59.7h1.9l2.4 4C125.3 62.1 123.8 60.8 122.1 59.7z"/><circle cx="112.7" cy="75.8" r="3.3"/><circle cx="369.7" cy="75.8" r="3.3"/></svg>